<?xml version="1.0" encoding="UTF-8"?>
<svg xmlns="http://www.w3.org/2000/svg" version="1.1" viewBox="0 0 420.6 392.2">
  <defs>
    <style>
      .cls-1 {
        fill: #5661ee;
      }

      .cls-2 {
        fill: #fefe10;
      }

      .cls-3 {
        fill: #fff;
      }

      .cls-4 {
        fill: #15bbab;
      }

      .cls-5 {
        fill: #fc625d;
      }

      .cls-6 {
        fill: #fed45e;
      }
    </style>
  </defs>
  <!-- Generator: Adobe Illustrator 28.7.1, SVG Export Plug-In . SVG Version: 1.2.0 Build 142)  -->
  <g>
    <g id="_Слой_1" data-name="Слой_1">
      <path class="cls-4" d="M16.9,112.2c-16.1,2.9-20.7-14.1-13.9-21.7,4.2-4.7,18.5-2.9,24.5-3.2-10,1.4-22.4,0-19.5,14.1,1.2,5.7,4.7,7.7,8.9,10.7Z"/>
      <path class="cls-4" d="M330,377.6c-27.1,20.1-67.9-22.5-42.2-53,5.1-6.1,12.6-11.5,20.7-12.1-8.7,5.9-14.7,12.1-16.7,23.1-3.5,18.4,9.7,38.3,28.3,41.4,3.2.5,7.4,0,9.9.6Z"/>
      <path class="cls-4" d="M169,386.6c-24.9,17.3-42.4-8.8-45.8-32.8-3-21.5,9.1-31.3,29.5-33.8l-.2.2c-2,1.6-4.2,3-6.2,4.6-16.3,13.5-13.3,35.5-.9,50.8,8.8,10.8,13.3,8.2,23.6,11Z"/>
      <path d="M308.5,312.5c14.6-10.1,37.6-5.4,47.4,9.3,14.8,22.1.5,51.5-26,55.8-2.5-.5-6.7-.1-9.9-.6-18.6-3.1-31.8-23-28.3-41.4,2.1-11,8-17.2,16.7-23.1ZM320.7,312.5c2.5.8,5.1.6,7.6,1.3,20.8,5.5,28.6,33.3,16.3,50.9-.8,1.1-1.8,2.3-2.4,3.5,27.6-13.3,17.5-63.5-21.5-55.6Z"/>
      <path class="cls-4" d="M342.2,368.1c-1.6,1.9-6.9,3.6-9.3,4.2-37,9-54.8-50.1-12.2-59.8,2.5.8,5.1.6,7.6,1.3,20.8,5.5,28.6,33.3,16.3,50.9-.8,1.1-1.8,2.3-2.4,3.5Z"/>
      <path d="M152.7,320c3-1.1,6.1-2.3,9.2-3.1,44.7-11.7,62.1,53.3,19,67.5-3.9,1.3-7.9,1.7-11.9,2.3-10.3-2.8-14.8-.2-23.6-11-12.4-15.3-15.4-37.4.9-50.8,2-1.6,4.2-3,6.2-4.6l.2-.2ZM155,324.1c2.5-.2,4.7-1.4,7.2-1.8,15-2.3,30,10.1,31.4,24.9,1,10.3-2.5,18.8-9.1,26.7-1.1,1.3-5.5,5.2-5.9,6.1,11-2.4,21.1-13.3,23.2-24.1,5.2-26.8-26.9-45.9-46.8-31.9Z"/>
      <path class="cls-4" d="M155,324.1c2.5-.2,4.7-1.4,7.2-1.8,15-2.3,30,10.1,31.4,24.9,1,10.3-2.5,18.8-9.1,26.7-1.1,1.3-5.5,5.2-5.9,6.1-5.5,1.9-11.9,3.5-17.7,1.5-22.2-8-30.8-45.9-6-57.4Z"/>
      <path d="M141.9,14.5c9.1-9.6,22.2-10,34.6-12,7.2-1.2,22.6-5.4,28.7.5,3.9,3.8,3.1,10.7,3.7,15.6,2.1,16.7,8.7,32.8,12.9,49,6-1.4,15-1.3,21.2-.8-2.4-9.2-5.8-26.7,4.8-32.4,8.5-4.6,17.7.7,25.9,3.2,2.4-7.5,4.9-14.8,12.3-18.7,16.4-8.7,29.9,6.3,33.6,21.6,9.8-4.9,22.1-3.5,26.5,7.8,2.8-6.3,6.3-11.1,10.4-16.7,7.7-10.6,12.1-20.6,26.8-20.4,6-1,11.1-1.8,16.4,2.1,14,10.4,2.9,22.7-3.7,32.1-6.7,9.6-13.5,19-20.6,28.3,5.9,1.3,12.6,2.1,16.1,7.7,7.5,11.8-6.1,41.3-9.6,53.8,8.3-1.1,15.1-3.2,23.4,0,23.8,9.2,14.3,28.1,8.7,45.1l-25.7,77.7c-1.9,5.7-3.6,11.5-5.8,17-9.1,23.4-38,22.1-58.3,23.5-51.9,3.6-102.2,8.3-154.2,9.9l-22.3.6c-45.6,1.1-51.2-10-57.7-52.9l-3.8-24.8c-6.1-40.8-10.4-81.8-17.7-122.4-12.5,1.6-39,3.8-51.6,3-4.2-3.1-7.7-5.1-8.9-10.7-2.9-14.1,9.5-12.7,19.5-14.1,12.8.4,29.5-4.6,38.7,5.2,7.5,8,12.2,49.2,13.8,61.7,16.9,2.2,34,3.6,51.1,3.3-.7-18.6,1.4-38,3.4-56.5,2.9-27.9,2.8-33.8-2.4-61.6-2.5-13.3-5.2-18.7,9.8-24.9ZM152,12.3c-10.9,2.9-8.6,15.3-5.9,23.3,11.6,33.8,11.1,31.4,4.5,66.4-2.3,12.6-4.1,25.7-4,38.5,0,2.5,1.5,8.1-1.6,9.4-2.1.8-2.6-3.3-2.8-4.5-2.9-31.4,14.9-64.2,5.2-93.2-4.3-12.8-12-24.4-5.6-37.7-15,6.2-12.3,11.6-9.8,24.9,5.3,27.8,5.4,33.7,2.4,61.6-2,18.5-4.1,37.9-3.4,56.5,64.8.2,134.4-9.3,198.8-16l33.5-3.8c3.9-.5,8.1-.7,11.9-1.3-2.4-.5,3.3-14.6,4.1-17.6,6.4-24,3.9-34.7-21.7-34.5,3.3-1.8,4.1-4.3.6-6.4-3.1-1-29.8-1.4-33.7-.8-7.3-1.7-18.7-1.7-26.4-2.3-26.2-2.1-49.1-4.6-75.4-3-15.2,2.4-15,19.6-16.4,31.6l-4.9,38c-.3,1.9,0,5.3-2,6.4-4.5.3-2.2-7.6-1.9-10.2l4.3-33.8c1.1-8.5,1.4-20.7,7.1-27.6-2.6-8.8-4.1-24.7-5.3-34-1.3-10.3-1.2-24.9-13-29-7-2.4-21.2-2.2-28.7-1.6-3.2.3-6.7,1.4-9.9.8ZM131.1,304.6c-22.6-10.7-21.6-20.2-25.4-44.4l-12.1-72c-1.5-9.4-3.5-18.9-3.2-28.5-3.1-.5-6.4-.7-9.4-1.4l-.3.2c0,4.8,1.1,10,1.9,14.8l11.5,75.9c3.6,22.7,6,57.7,37,55.4ZM380.2,141c-1.5,2.2-2.4,5-3.4,7.5,44-4.5,28.7,28.7,20.7,54.3l-9.9,31.1c-6.2,19-9.8,42.5-28.6,53.4-1.6.9-3.5,1.7-5,2.8,20.4-3.3,22.7-13.5,28.1-30l29.5-89.1c3.7-11.3,8.4-21.5-4.7-29.5-8-4.9-18.1-2.5-26.7-.4ZM277.3,40.6c11.2,3,21.3,9.9,32.9,11.3,1.5-3.1,3.4-5.6,5.6-8.1-2.6-25.3-34.6-33.5-38.6-3.1ZM152,12.3c3.2.6,6.7-.5,9.9-.8,7.5-.6,21.7-.8,28.7,1.6,11.8,4,11.7,18.7,13,29,1.2,9.3,2.7,25.1,5.3,34,2.4-4,4.9-5.9,9.1-7.6-5.2-14-12.1-36.9-13.7-51.5-.8-7,.2-12-8.8-12.1-9.8,0-34.6,4.4-43.4,7.4ZM358.3,77.9c3.6,2.1,2.8,4.6-.6,6.4,25.6-.1,28.2,10.6,21.7,34.5-.8,3-6.5,17.1-4.1,17.6h.7c.6-1,.6-2.4,1-3.4,3.6-10.2,16.3-38.9,10.2-48.9-2.7-4.5-10.4-5.2-15.1-6.3l-4,5.3c-1.9.1-3.9,0-5.8,0,1.3-1.9,2.7-3.6,4.1-5.3-2.7,0-5.5,0-8.3,0ZM314.8,53c9,0,17.4,5.7,26.4,6.5,5.6-18-16.3-24.8-26.4-6.5ZM386.3,15.4c6.1,5.8,11.7,11.5,9,20.5-.5,1.7-1.9,4-1.8,5.7,4.3-6.6,14.3-15.3,5.8-22.8-3.8-3.3-8.2-3.7-13-3.3ZM52.3,90.6c4.6,4.2,5.4,8.8,6.2,14.7,3.1,0,6.1,0,9.2,0-2.2-8-6.3-14.4-15.4-14.7Z"/>
      <path class="cls-3" d="M371.4,141.6c4.7-.5,1.6,2.9,0,6.9-1.1,0-2.1,0-3.1,0,1.3-2.2,2.3-4.5,3.1-6.9Z"/>
      <path class="cls-4" d="M346.1,48.4c2.8-6.3,6.3-11.1,10.4-16.7,7.7-10.6,12.1-20.6,26.8-20.4l-.3.3c-2.5,2.4-5.4,4.2-7.8,6.6-10.1,10.6-20.6,27.1-29.2,39.2.2-3,.3-6,0-9Z"/>
      <path class="cls-4" d="M314.8,53c9,0,17.4,5.7,26.4,6.5-1.8,4.9-4.7,8.9-7.6,13.2-8.2-1-17,0-25.1-1.7,1.5-5.8,3.1-12.9,6.3-18Z"/>
      <path class="cls-2" d="M285.1,68.9c-4.1-8.2-8.2-19.1-7.7-28.3,11.2,3,21.3,9.9,32.9,11.3-2.6,6.1-4.4,12.7-5.6,19.2-6.3-.5-13.4-.6-19.6-2.1Z"/>
      <path class="cls-4" d="M58.5,105.3c-6.3,1.5-13.1,1-19.6,1.4-10.2.6-26.3,5.7-27-9.3-.3-5.8,15.1-4.9,19.3-5.2,7-.6,14.1-1.5,21.2-1.6,4.6,4.2,5.4,8.8,6.2,14.7Z"/>
      <path class="cls-2" d="M243,66.9c-2.4-9.2-5.8-26.7,4.8-32.4,8.5-4.6,17.7.7,25.9,3.2-1.1,12.6,2,19.9,6.5,31.2-12.5-.3-24.2-2.1-37.1-2Z"/>
      <path class="cls-5" d="M149.5,162c3.1-.4,6.3-.4,9.4-.6l24.5-1.4c5.6-.3,11.2-1,16.8-1.4l37.3-3c17.2-1.5,34.4-3.3,51.5-5.1l52.2-5.3c10-1.1,20-2.8,30.1-3.8-.8,2.5-1.8,4.7-3.1,6.9-3.3,1.2-7.4,1.2-10.9,1.7-36.3,5.2-72.9,7.8-109.5,9.9-9.9.6-92.6,5.7-98.3,2Z"/>
      <path class="cls-4" d="M339.8,72.7c3.7-5.7,8-11,12-16.5l11.8-16.4c6-8.4,12.8-20,22.7-24.3,6.1,5.8,11.7,11.5,9,20.5-.5,1.7-1.9,4-1.8,5.7-4.1,7.6-18.1,26-23.4,31.6-8.4.9-21-.5-30.2-.5Z"/>
      <path class="cls-5" d="M152,12.3c3.2.6,6.7-.5,9.9-.8,7.5-.6,21.7-.8,28.7,1.6,11.8,4,11.7,18.7,13,29,1.2,9.3,2.7,25.1,5.3,34-5.7,6.9-6,19.1-7.1,27.6l-4.3,33.8c-.3,2.6-2.5,10.4,1.9,10.2,2-1.1,1.8-4.4,2-6.4l4.9-38c1.5-12,1.2-29.2,16.4-31.6,26.4-1.6,49.2.9,75.4,3,7.7.6,19.2.7,26.4,2.3,3.9-.6,30.5-.2,33.7.8,3.6,2.1,2.8,4.6-.6,6.4,25.6-.1,28.2,10.6,21.7,34.5-.8,3-6.5,17.1-4.1,17.6-3.9.7-8,.8-11.9,1.3l-33.5,3.8c-64.4,6.7-134,16.1-198.8,16-.7-18.6,1.4-38,3.4-56.5,2.9-27.9,2.8-33.8-2.4-61.6-2.5-13.3-5.2-18.7,9.8-24.9-6.4,13.3,1.3,24.9,5.6,37.7,9.7,29-8.1,61.8-5.2,93.2.1,1.2.7,5.3,2.8,4.5,3.1-1.3,1.7-6.8,1.6-9.4-.1-12.8,1.7-26,4-38.5,6.5-35,7.1-32.6-4.5-66.4-2.8-8-5-20.4,5.9-23.3ZM222.7,71.8l-.2.3c2,.9,13.4,2,16.5,2.5,23.5,3.7,59,11.3,82.7,9.8-5.3-3.7-1.1-5.9,2.9-7.2-7.3-1.7-18.7-1.7-26.4-2.3-26.2-2.1-49.1-4.6-75.4-3Z"/>
      <path class="cls-6" d="M319.6,114.8c3.2-.3,6.3,0,9.5,0,2.9,0,13.5-2.3,12,3.4-.2.8-.7,1-1.3,1.4-2.5.6-30,3.2-20.2-4.8Z"/>
      <path class="cls-4" d="M324.6,77.1c3.9-.6,30.5-.2,33.7.8,3.6,2.1,2.8,4.6-.6,6.4-5.4.9-30.9.9-36,0-5.3-3.7-1.1-5.9,2.9-7.2Z"/>
      <path class="cls-6" d="M234.9,99.6c2-4.3,12.4,1.9,16.7,3.2,6.5,2,13.3,3.6,20,4.7,4.7,1,9.6,1.4,14.4,1.6,2.9.1,11.6-1.2,10,4.2-1.2,4.1-24.4,0-27.8-1.1-3.6,0-7.5-1.3-11-2.1-4.9-1.4-24-5-22.2-10.4Z"/>
      <path class="cls-6" d="M167.8,61c5.3,1.7,8.8,24,9.3,29.2,1.2,13.2-2,25.1-5.9,37.7-1.1,3.6-2,9.3-5,11.8-6.4-1.9-1.9-8.7-.2-14.4,5.4-17.7,7.3-30.6,2.7-49-1.7-6.7-6.9-11.8-.8-15.3Z"/>
      <path class="cls-1" d="M376.8,148.5c44-4.5,28.7,28.7,20.7,54.3l-9.9,31.1c-6.2,19-9.8,42.5-28.6,53.4-1.6.9-3.5,1.7-5,2.8-6.5,2.6-35.9,2.6-46.8,3.4l-113.7,8.1c-16.5,1.2-46.3,4.5-62.4,3-22.6-10.7-21.6-20.2-25.4-44.4l-12.1-72c-1.5-9.4-3.5-18.9-3.2-28.5,17.8,3,41.1,2.4,59.1,2.3,5.7,3.8,88.4-1.4,98.3-2,36.6-2.1,73.2-4.7,109.5-9.9,3.5-.5,7.6-.4,10.9-1.7,1.1,0,2.1,0,3.1,0,1.8,0,3.6-.2,5.4,0Z"/>
    </g>
  </g>
</svg>