<?xml version="1.0" encoding="UTF-8"?>
<svg xmlns="http://www.w3.org/2000/svg" version="1.1" viewBox="0 0 364.1 424.1">
  <defs>
    <style>
      .cls-1 {
        fill: #5661ee;
      }

      .cls-2 {
        fill: #fff;
      }

      .cls-3 {
        fill: #15bbab;
      }

      .cls-4 {
        fill: #fc625d;
      }
    </style>
  </defs>
  <!-- Generator: Adobe Illustrator 28.7.1, SVG Export Plug-In . SVG Version: 1.2.0 Build 142)  -->
  <g>
    <g id="_Слой_1" data-name="Слой_1">
      <path class="cls-3" d="M341.5,300.5c7.6,13.3-8.7,48.8-23.5,47.4,14.7-10.7,20.8-18,23.4-37.7.4-2.9-1-7,.1-9.7Z"/>
      <path class="cls-3" d="M361.7,170.3c6.9,21.8-2.5,54.3-12.5,73.5-6.6,12.8-25.1,33.5-38.2,40.7-.1-1.4,0-2.7,0-4.1,32.3-22.3,51.2-58.6,50.8-98.1,0-4-1-8-.1-12Z"/>
      <path d="M81.3,109.1c.9-13.1,4.7-12.3,1.3-27.4-4.7-20.7-6.3-45.6-2.3-66.3C83.3,0,89.3-4.3,103.1,4.6c14.6,9.4,30.4,27.3,39.8,41.8,25-5,46.3,1.7,69,10.1,6.8-9,51.9-58.2,61.6-30.8,5.7,16.1-7.3,61.5-16.1,79.9,1.2,10,.6,17.4,1.2,27,3-.6,17.4-2.5,16.2,2.8-.8,3.4-13.4.4-16.8,2.3-.9.5-2,8-2.3,9.4,4.2.5,13.7,3.1,16.7,6.1,1.7,1.7,0,4.5-2.3,4-5.7-1.4-6.7-4-16-5.1-5.7,16.9-11.6,21.9-26.3,30.7,11.8,8.4,21.1,21.8,25.9,35.3l22.2-6.3c13.2-3.8,13-7.8,19.8,2.8,1.7-8,8-14.1,10.9-21.7,3.4-8.8,3.3-18.7,6.8-27.7,4.7-12.5,15.7-24.3,30-18.7,11,4.3,14.1,14,18.4,23.8-.9,4,0,8,.1,12,.4,39.5-18.5,75.9-50.8,98.1,0,1.4-.1,2.7,0,4.1l-.2,1.4.3.4c1.7,0,3.4-1.3,5-1.8,11.8-3.6,24.2,3.5,25.3,16.1-1.2,2.7.3,6.8-.1,9.7-2.6,19.7-8.6,27-23.4,37.7-3.3,1.4-6.8,2.3-10.1,3.5,1.9,22-6.7,23.8-23.8,29.8l-63.2,21.9c-10.2,3.6-20.4,7.3-30.7,10.3-8.6,14.4-25.6,13.9-33.9,0-8.7-3.8-18-6.5-27-9.6l-70.6-24.7c-27.7-10-14.7-11.7-22.2-33.3-15.2-5.5-26.4-10.6-33.2-27.3-9.8-24,2.7-50.7,31.3-38.2.4-14.4-1.9-30.7-2.7-45.3-.7-11.3,5.3-15.2,15.6-15.6,5.9-19.9,25.4-6.9,38.8-4.2,6.3-16.6,13.9-24.8,27-35.8-14.7-9.8-28.8-22-32-40.4-4.2,0-18.2,1.8-19.2-1.1.3-4.7,14.9-3.7,18.2-3.7-.4-2.6-.4-5-.3-7.6-5.1-1.5-10.4-2.5-15.7-2.7-2.1-.1-7.8.6-9.2-.5-4.7-8.9,22.6-1.9,24.9-1.3-.1-2.8,0-5.4.3-8.2-4-1.8-17.1-5.8-18.5-7.2-3.3-9,17.3,1.4,19.5,2.4ZM162.8,267.1c-6.5-3.8-12.9-7.9-19.6-11.4-20.9-10.7-51.2-21.6-74.8-26.1-2.3-1.3-12.2-3.1-15.3-3.7-11.9.4-11.5,5.4-10.9,16.2.8,14.4,2.6,28.9,2.6,43.3,11.1,3.7,21.2.8,24.7,15.1,2.7,19.9-1.6,37.7-22,44.6,0,.5,0,.9,0,1.4,2.6,7.8,2.3,16.9,4.5,25.2,4,2.3,9.2,3.6,13.6,5.1l90.1,31.2c0-13.5-.5-27-.8-40.5l-1.3-83.8c0-2.9-1.7-14.3,2.3-15,3.6,1.2,2.4,16.1,2.5,19.2l1.8,103.6c.2,6.7.8,13.7.3,20.4,5-.8,5.4,7.5,26,0-.4-12.3.1-24.7.4-37l1.7-82.5c.1-6.4-.7-17.7,1.1-23.5l.5-.3c5.8.1,3.4,10.8,3.3,14.5l-1.7,88.7c-.3,12.3-.9,24.7-.5,37.1,7-2.9,14.3-5.1,21.4-7.6l54.4-18.9c8.9-3.1,18.1-5.7,26.8-9.3,10.6-4.3,9.6-11.5,9.6-21.8-1.9.1-3.8,0-5.7,0-36.2-4.4-33.8-55.7-9.6-59.5,5.1,2.1,13.1,2.5,17.7-.8-.1-4.7.3-9.5.6-14.2l1.8-29.9c.3-5.5,1-11.3.6-16.8-.7-9.9-18.3-1.8-23.6-.3-31.3,8.5-64.7,16.2-92.8,33.1-3.7,2.2-5.9,5.3-10.4,5.6-5.6.5-14.5,2.2-19.1-1.6ZM85.1,111l5.3,2.8c2.1-7.1,1.9-12.3,5.4-20.6-.5-1.5-1.1-3-1.3-4.6-5.6-16.6-11.2-82.5,3.2-78.6,8.7,2.4,33.9,33.8,38.7,42.5,1.1,1.6,2.2,3.3,3.5,4.7h.4c5.2-.5,10.3-2,15.6-2.5,21.6-2,43,2.4,62.5,11.7,10.4-14.1,33.3-35.1,49.8-41.3-10.8-10.7-37.5,17.1-44.5,24.7-3.7,4-7.2,8.9-11,12.7-26.3-10.9-41.4-14.6-71.2-11-4.2-4.1-7.1-9.4-10.8-13.9-8.9-11.1-19-22.4-31.2-30-8.7-5.4-11.7-3.6-14,5.6-4.6,18.5-3,44.4.8,63.5.8,3.9,3.2,11,3.2,14.4,0,2.4-3.6,16.3-4.4,19.9ZM59.7,213.1c-4.6,1.1-6.7,3.2-7.7,7.7,4.3,1.3,8.9,2.2,13.3,3.2,34.4,7.8,69.8,18.7,98.9,39l3,1.8,3.1-.6c-23-37.4-47.7-34-83-43.2-5-1.3-24.3-8-27.6-7.8ZM291.1,214.5c-1.6.7-3.4.9-5.2,1.4l-41.4,11.6c-20.2,5.5-43.3,11.2-58.5,26.6-2,2-5.2,6.5-7.6,7.3l-1.4,2.6c1.8.1,3.6,0,5.3,0,5.7-3.6,11.1-7.3,17.2-10.4,26.6-13.3,66.6-23.5,96-31.5-1.3-2.6-3-5.1-4.5-7.6ZM297.7,218l1.5,2.7c1.4,0,2.8,0,4.2,0,3.9-6.7,10-16,12.8-23,6.4-16.2,5.1-46.5,32.1-41.9h.4c-6.1-6.9-15.9-8.4-22.8-1.8-12.2,11.6-9.5,28.2-15.6,42.2-3.4,7.8-9.1,14.2-12.6,21.8ZM292.1,345.9c-1-2-5-3.8-7.6-9.8-3.9-8.9-5.4-22.4.8-30.8,5.5-7.4,14.5-.8,21.9-2.8,11.4-3.2,9.9-12.6,26.3-9.3-12.7-13.8-21.7,2.6-31.6,5-6.7,1.6-13.9-4.6-19.6.8-13,12.4-8.7,42.2,9.8,46.9ZM32.8,339.7h0c-1.1-1.5-4.7-2.8-6.3-4-11.5-8.6-21.3-31.3-11.7-43.8,11-14.3,23-.6,32,3.7,3.2,1.5,13.1,3.1,16.6,2.2-2.5-6.9-12.5-5.5-18.4-7.3-9.5-2.8-19.3-12.1-29.8-7.7-21.4,8.9-8,51.1,17.5,57ZM39.4,283l5.4,2.4c0-14.4-1.8-28.9-2.6-43.3-.6-10.8-.9-15.7,10.9-16.2-17.9-4.4-17.4,2.4-16.1,18.6.8,10.7,3.1,28,2.4,38.4ZM121,179.5l-.3.3c-12.2,12.5-24,15.9-29.7,36.9,2.3.7,4.5,1,6.8,1.3,6.8-13.7,15.9-25.5,27.8-35.3-1.6-.9-3.3-2-4.6-3.2ZM178.4,261.5c2.5-.9,5.7-5.3,7.6-7.3,15.2-15.4,38.3-21.1,58.5-26.6l41.4-11.6c1.7-.5,3.5-.7,5.2-1.4-.3-.7-.5-1.5-1.1-1.9-2.8,0-25.2,7.1-29.8,8.5-21.4,6.1-72.4,16.7-81.7,40.4ZM47.5,345.2c-1.9.3-3.9.7-5.9.7.9,10.3-.4,21.7,10.4,25.9-2.2-8.3-1.9-17.4-4.5-25.2,0-.5,0-.9,0-1.4ZM86.3,139.7c3.9,13.9,16,28.9,29,35.5-1.8-2.3-4.9-4-7-6.1-7.8-7.5-14.5-18.2-17.2-28.7-1.6-.4-3.2-.5-4.8-.7ZM84.3,116.3c0,2.5-.1,5.1,0,7.7,1.8.4,3.6.7,5.3,1.5-.3-2-.3-4,0-5.9-1.6-1.6-3.2-2.3-5.3-3.2ZM84.3,128.2c.2,2.1.5,4.1.8,6.1l5.3,1.2-.8-4.9c-1.7-.9-3.5-1.7-5.3-2.4ZM245.1,210.4c-.2,2.7,1.4,6.5,2.2,9.2,4-1-.6-6.4-2.2-9.2Z"/>
      <path class="cls-3" d="M89.6,130.6c4.3,2,9,5,12.2,8.5-3.7-1.5-7.3-3.1-11.4-3.6l-.8-4.9Z"/>
      <path class="cls-2" d="M160.4,411.9c5-.8,5.4,7.5,26,0-6.4,10.3-21.7,9.9-26,0Z"/>
      <path class="cls-4" d="M268.2,25.2c6.9,10.7-7.4,66.8-14.6,77.8-13.8-14.2-14.3-23.2-35.3-36.5,10.4-14.1,33.3-35.1,49.8-41.3Z"/>
      <path class="cls-4" d="M94.5,88.7c-5.6-16.6-11.2-82.5,3.2-78.6,8.7,2.4,33.9,33.8,38.7,42.5-13.3,5.9-24.9,16-34.5,26.8-2.6,2.9-4.7,6.7-7.5,9.3Z"/>
      <path class="cls-3" d="M292.1,345.9c-1-2-5-3.8-7.6-9.8-3.9-8.9-5.4-22.4.8-30.8,5.5-7.4,14.5-.8,21.9-2.8,11.4-3.2,9.9-12.6,26.3-9.3,11.1,10.4-3.2,53.5-32.5,54-2.6,0-6.6,0-8.9-1.3Z"/>
      <path class="cls-3" d="M32.8,339.7h0c-1.1-1.5-4.7-2.8-6.3-4-11.5-8.6-21.3-31.3-11.7-43.8,11-14.3,23-.6,32,3.7,3.2,1.5,13.1,3.1,16.6,2.2,4.9,15.1,1.5,37-15.9,42.3-4.2,1.3-10.8,1.7-14.8-.3Z"/>
      <path class="cls-3" d="M303.4,220.7c3.9-6.7,10-16,12.8-23,6.4-16.2,5.1-46.5,32.1-41.9h.4c11.8,11.3,9,34.8,5.8,49.2-5.3,24.1-20.5,56.8-43.4,69.3,1.2-9.9,1.6-19.9,2.1-29.8.5-9.9,4.2-22.6-9.8-23.8Z"/>
      <path class="cls-4" d="M125.7,182.7c4,.6,7.9,2.6,11.7,3.9,13.4,4.4,27.6,6.2,41.6,6.1,4.8,0,9.9-.6,14.7,0,11.8-2.6,16.9-2.5,28.9-8l.2.2c8.7,7.8,17.3,14,22.3,25.5-.2,2.7,1.4,6.5,2.2,9.2-25.7,8.7-61.5,14.1-73.8,41.9-9.1-20.6-32.5-33.8-53.5-38.9-6.9-1.7-15.2-2.3-21.7-4.4h-.4c6.8-13.9,15.9-25.7,27.8-35.5Z"/>
      <path class="cls-3" d="M136.4,52.6c1.1,1.6,2.2,3.3,3.5,4.7h.4c5.2-.5,10.3-2,15.6-2.5,21.6-2,43,2.4,62.5,11.7,20.9,13.3,21.4,22.2,35.3,36.5-2.6,2.6-.1,9.2,0,12.6.2,5.6-.6,11.4,0,17-6.6,1.9-24.9,7.4-28.8,13.7-1.3,2.1.6,4.4,2.7,3.3,9.9-4.8,10.4-8.8,24.9-11.3-.5,2.9-1.1,5.9-1.8,8.8-7.9,0-18.4,3-24,8.7-1.5,1.5-1.7,4.5,1.2,4.4,2,0,10.5-7.6,20.9-8.2-5.6,19.9-28.8,32.3-48.1,34.8-5.5.7-7.6,0-6.9,5.9-4.8-.6-9.9,0-14.7,0-14,0-28.2-1.8-41.6-6.1-3.8-1.2-7.8-3.3-11.7-3.9-1.6-.9-3.3-2-4.6-3.2-1.4-2.1-4.2-2.5-5.7-4.3-1.8-2.3-4.9-4-7-6.1-7.8-7.5-14.5-18.2-17.2-28.7,2.4.6,5.2,1.4,7.4,2.5,1.7.9,5.9,4.4,7.3,4.5,3.8.3,2.8-4.7-2.5-7,.6-1.6.9-3.2,1-4.9-3.7-4.9-9.3-7.4-14.7-10-.3-2-.3-4,0-5.9,2.7,1.3,14.8,10.2,15.9,13.1,1.7.4,3.5-.1,3.1-2.2-1-6-12.8-12.5-17.9-16.2l-.4-.3c2.1-7.1,1.9-12.3,5.4-20.6-.5-1.5-1.1-3-1.3-4.6,2.8-2.6,4.9-6.4,7.5-9.3,9.6-10.8,21.2-20.9,34.5-26.8Z"/>
      <path d="M204.7,112c13.2-1.3,16.2,18.2,9.9,17.4-2.9-.4-1.1-6.5-3.6-10-7.9-8-10.5,2.5-13.9,4.2-6-.1-.8-10.1,7.5-11.6Z"/>
      <path d="M133.1,101.4c11.3-.3,16.8,16.1,9.1,15.8-2.7-1.9-.2-7.5-5.8-10.8-6.5-1.4-7.8,1.5-9.9,7.1-3.5,9.5-9.8-10,6.6-12.1Z"/>
      <path d="M160.4,131.8c12.3-1.5,28.1,5.6,7.5,15.3-.5,2.6-.8,5.1-.8,7.8,7.5,12.8,13,1,17.2,2.5,4.4,4.3-8.5,12.4-16.5,5.1-1.5-1.1-2.6-2.3-3.8-3.8-13.7,9.8-24.7-4.4-20.4-7.3,2-1.3,18.6,18.2,19-5.3-5-3.5-13.7-13.7-2.4-14.3Z"/>
      <path class="cls-2" d="M159.9,135.5c4.4,0,9.8,1.4,13.6,3.6-1,.5-2.2.9-3.2,1.3-1.5,1.2-3.1,1.8-4.9,2.4-2.4-1.7-5.3-4.3-5.5-7.3Z"/>
      <path class="cls-1" d="M162.8,267.1c4.6,3.9,13.5,2.1,19.1,1.6,4.5-.4,6.8-3.4,10.4-5.6,28.1-16.9,61.5-24.6,92.8-33.1,5.4-1.5,22.9-9.5,23.6.3.4,5.4-.3,11.3-.6,16.8l-1.8,29.9c-.2,4.7-.7,9.5-.6,14.2-4.6,3.4-12.5,2.9-17.7.8-24.3,3.8-26.6,55.1,9.6,59.5,1.9,0,3.8.1,5.7,0,0,10.3,1,17.5-9.6,21.8-8.7,3.6-17.9,6.2-26.8,9.3l-54.4,18.9c-7.2,2.5-14.5,4.7-21.4,7.6-.4-12.3.3-24.7.5-37.1l1.7-88.7c0-3.7,2.5-14.4-3.3-14.5l-.5.3c-1.8,5.8-.9,17.1-1.1,23.5l-1.7,82.5c-.3,12.3-.8,24.7-.4,37-20.6,7.5-21-.8-26,0,.5-6.7-.1-13.7-.3-20.4l-1.8-103.6c0-3.1,1.1-18-2.5-19.2-4,.7-2.3,12.1-2.3,15l1.3,83.8c.3,13.5.9,27,.8,40.5l-90.1-31.2c-4.4-1.5-9.6-2.8-13.6-5.1-2.2-8.3-1.9-17.4-4.5-25.2,0-.5,0-.9,0-1.4,20.4-6.9,24.7-24.7,22-44.6-3.5-14.3-13.6-11.4-24.7-15.1,0-14.4-1.8-28.9-2.6-43.3-.6-10.8-.9-15.7,10.9-16.2,3.1.6,12.9,2.4,15.3,3.7,23.6,4.5,53.9,15.5,74.8,26.1,6.7,3.4,13.1,7.6,19.6,11.4ZM297.7,351.4c-36.2-4.4-33.8-55.7-9.6-59.5-16.3-11.6-38.4,33.3-9.1,52.8,3.9,2.6,13.8,9.8,18.6,6.7ZM68.4,229.6c3,2,8.9,2.7,12.5,3.8,26.4,7.9,52.8,18.7,75.4,34.6,1.9-.2,4.8-.2,6.5-1-6.5-3.8-12.9-7.9-19.6-11.4-20.9-10.7-51.2-21.6-74.8-26.1Z"/>
      <path class="cls-3" d="M69.5,300.5c9,3.9,6.7,38.3-12.1,45.2-3.2,1.2-6.6.8-9.9.9,0-.5,0-.9,0-1.4,20.4-6.9,24.7-24.7,22-44.6Z"/>
    </g>
  </g>
</svg>