<?xml version="1.0" encoding="UTF-8"?>
<svg xmlns="http://www.w3.org/2000/svg" version="1.1" viewBox="0 0 421.9 374.5">
  <defs>
    <style>
      .cls-1 {
        fill: #010101;
      }

      .cls-2 {
        fill: #fff;
      }

      .cls-3 {
        fill: #fc625d;
      }

      .cls-4 {
        fill: #14bbab;
      }

      .cls-5 {
        fill: #5762ee;
      }
    </style>
  </defs>
  <!-- Generator: Adobe Illustrator 28.7.1, SVG Export Plug-In . SVG Version: 1.2.0 Build 142)  -->
  <g>
    <g id="_Слой_1" data-name="Слой_1">
      <path class="cls-1" d="M192.8,13.9c3-.4,11.5,9.6,7.9,13.4-2.1.5-10.9-9.8-7.9-13.4Z"/>
      <path class="cls-1" d="M241.7,20c7.8,1-7.3,11.5-8.9,12.3-7.7.7,7-11.1,8.9-12.3Z"/>
      <path class="cls-1" d="M296.2,182.3c1.1.3,14.7,14.4,8.7,17.7-.4-.2-14.3-14.1-8.7-17.7Z"/>
      <path class="cls-1" d="M221,0c5.9.8-2.6,18-4,20-7.1-.8,2.4-18.2,4-20Z"/>
      <path class="cls-1" d="M300.1,167.5c3.7-.1,24.3,6.8,21.3,12.9-3.7.6-7.9-3.6-10.9-5.2-2.2-1.2-9.7-3.1-10.8-5l-.2-.3c0-.9.2-1.5.6-2.4Z"/>
      <path class="cls-1" d="M41.4,37.3c1.7-.2,3.3.3,3,2.4-1.8,3.1-26.7,5.8-37.6,34.7-1.5,4.1-1.8,8.6-3.6,12.6-3.4,1.2-3.5-1.9-2.9-4.3,5.1-21.3,19.6-39,41.1-45.4Z"/>
      <path class="cls-1" d="M133.8,79.9c1.8-17.5,7.6-36,19.6-49.2,18.1-19.8,28.8,21.5,35.4,26.9,12.6-1,38.5,2.2,49.2,8.7,8.2-6.4,26.6-20.4,36.1-18.8,16.6,2.7,8.8,50.7,6,65,10.1,31,3.7,56.4-24.7,75.3,26.8,26.4,46.3,42.2,62.2,79.7,4.5,10.5,5.9,24,21,22,20-2.6,44.2-27.9,41-49.2-1.6-10.4-9.9-12.5-17.3-18-8.9-6.7-10.9-19.8-3.9-28.6,10.7-13.6,33.1-8.4,44.7,1,10.7,8.7,17,22.8,18.4,36.4,4.6,44.9-31.2,77.9-70.3,91.7-3.6,1.3-11.8,5.5-15.1,2.5l-.2.2c-6.1,4.5-12.3,13.3-20.4,13.9-3.9,2.9-3.1,20.6-26.9,30.4-13.5,5.6-51,9.8-58-8.4-3.6-9.2,2.8-16.3,11.2-19.3-4.5-.5-8.5-2.2-12.6-4.1-2.6,11.1-5,22.2-16.2,27.9-13.1,6.7-46.8,6.8-54.7-9.2-8.5-17,10.8-24.5,26.8-18.7-8.1-22.9-14.3-36.1-17.8-61.8-38,8.8-54.8-26.7-67.1-56.4-20.7-1.7-28.5-28.1-14.5-39.1-1.8-5.6-4.4-12-7.3-17.1-3.2-.3-6.4,0-9.5,0-60.4-.8-80.4-86.1-23.1-111,25.5-11.1,56.8-1.8,71.8,21.6,3,4.6,5.1,9.5,7.2,14.5,2.7-3.4,5.7-6,9.2-8.5ZM365.2,219.6c7.5,4.6,15.5,7.7,17.7,17.1,4.4,18.4-7.5,32.4-19.1,44.5-7.8,6.6-19.4,13.2-29.9,12.4-13.2-1-14.3-11.1-18.5-21.4-10.9-26.7-22.3-39.2-39.7-59.9-1.1-.8-2.2-1.8-3.2-2.7-16.4.5-25.8,4-37.2,16.1-14.7,15.6-25.2,43-24.6,64.9.3,10.5,5.4,38.2,14.8,44,2.4-3.1,7,.6,10.5,1.9,3.3,1.2,6.9,2.1,10.4,2.7-16.3-14.7-17-39.8-2.6-55.8,1.8-2,15.8-14.1,16.1-6-.8,1.5-5.5,2.6-7.1,3.6-23.1,14.3-21.1,55,10.1,61,2.3.4,6.1,0,4.8,3.7-2.5,2.2-10.4-1.3-13.2-1.8-9.7-2-27,6.4-19.5,18.1,2.7.2,5.7,1.9,8.4,2.5,18.3,3.5,47,2.4,57.8-15.7,1.7-2.9,2.8-6.1,4.5-9l.2-.4c1.3,0,2.8-.3,4.1,0,.7-2.3,5-5.6,6.7-8,2.3-3.1,4.2-8.4,6.2-10.6,9.2-2.5-6.7,17.4-7.7,18.6,8.1-.6,14.4-9.4,20.4-13.9l.2-.2c1.7-4.9,7.3-3.9,12.5-5.7,31.2-10.6,63.8-35,68.6-69.8,1.9-13.9.4-31.4-8.2-42.9-2.4-.4-5-3.9-6.9-5.3-10-7.6-31.9-12.2-37.8,2.8-2.6,6.5.5,9.7,1,15.3ZM168.9,33.4c-16.6-1.3-28.3,40.8-28.1,53.7-4.8,2.3-11,8.4-14,12.7.2,4.4.2,8.9,0,13.3,5.6.6,27.3,6.7,31.1,10.2,1.4,6.1-10.7-.7-12.5-1.3-6.4-2.2-13.1-3.9-19.6-5.6-1.2,5.4-2.9,10.4-4.9,15.5.4,2.7.8,5.5,1.4,8.2,4.7-2,32-12.8,33.6-5.5,2.7-1,5.6-.7,8.4-.6-4.9,18.1,23.7,33.9,43.2,16.7,7.1,13.4,8.7,30.9,21.6,40.5,8.3-1.8,14.5-4.9,22-6.9-1.8-1.7-3.2-4.1-4.9-6-6.9-7.9-14.9-15.6-23.4-21.8-2.4-1.8-8.7-4.1-8.6-7.6,1.7-4,6.9,1.3,8.7,2.7,12.1,8.9,24.5,19.9,32.5,32.7,2.3-3,5.2-5.3,7.9-7.9,18.1-17.3,22-40.7,12.3-63.8,5.1-16.2,6.4-40.3,1.9-56.6-1.3-2.7-2.1-4-5.1-4.2-10.2.8-25.8,12.4-33.4,19.2h-.3c-4.1-1.4-7.9-3.4-12-4.7-14.9-4.7-23.3-4.3-37.9-4.7-1,.2-1.9,0-2.9,0-6-9.1-9.1-20.5-17.1-28.2ZM27.5,138.6c.6,1.4,2.1,3,3.2,4.1,20.5,21.7,54.4,21.9,75.7,1.4,23.4-22.5,19.8-56.4-1.6-78.6-2.2,0-7.8-4.5-10.2-5.6-32.6-15.4-71.4,5.8-75.4,41.5-1.1,9.5-.4,20.1,3.8,28.8,1.3,2.7,3.7,5.6,4.5,8.5ZM117.6,136.4c-5.8,8.6-12,14.8-21.1,19.9,2.3,6.1,4.7,12.2,7,18.3,15.9,3.4,30.1,24.5,43.1,36.1,1.1-2.1,2.2-4.3,3.4-6.3,3.1-5.3,6.4-10.2,10.5-14.9-20.1-10.7-32-20.8-40.5-42.9-3.4,1-7,5-10.3,5.2-5.4-2.8,7.4-8.9,9.2-10-.3-1.7-.5-3.8-1.1-5.4ZM172.8,340c-9.6-.3-16,6.8-10.6,15.5,7.9,12.8,39.6,12.9,51,5.5,8.6-5.6,10.3-15.9,12.3-25.2-2.6,2.7-4.1,6.3-6.4,9.4-9.6,13-34.1,22.8-47.1,10.8-5.3-4.9-5.5-11.4.9-15.7v-.3ZM27.5,138.6c-.9-2.8-3.2-5.7-4.5-8.5-4.2-8.7-4.8-19.4-3.8-28.8,4-35.7,42.8-56.9,75.4-41.5,2.4,1.1,8,5.7,10.2,5.6-2.4-1.8-4.8-3.7-7.4-5.3C44.6,27.1-10.1,93.3,27.5,138.6ZM306.1,339.3l-.2.4c-1.7,2.9-2.8,6.1-4.5,9-10.9,18.1-39.5,19.2-57.8,15.7-2.8-.5-5.7-2.2-8.4-2.5,10.3,16.5,67.6,11.9,75.1-22.6-1.3-.3-2.8,0-4.1,0ZM137.5,82.1c-4.4,3.2-9,6.7-11.8,11.4.3,2.1.4,4.2,1,6.3,3-4.4,9.3-10.5,14-12.7-.2-12.9,11.6-54.9,28.1-53.7-13.1-15.7-27.6,27.3-29.4,35-1.1,4.6-1.4,9.1-2,13.8ZM365.2,219.6c-.5-5.6-3.6-8.8-1-15.3,6-15,27.8-10.4,37.8-2.8,1.9,1.4,4.5,5,6.9,5.3-23.3-34.8-69.1-10-43.7,12.7ZM164.3,191.1c-5.5,6.8-10.8,13.8-13.6,22.2,2,1.2,4.1,1.7,6.3,2.4,1-5.1,9.3-18.6,12.8-22.5-1.9-.5-3.7-1.5-5.6-2.1Z"/>
      <path class="cls-3" d="M83.4,161.8h1.5c1,.7,6.6,12,4.9,15-1.7-.6-7.1-12.8-6.4-15Z"/>
      <path class="cls-2" d="M229.1,191.1c8.3-1.8,14.5-4.9,22-6.9l.6.9c-1.1,5.6-28.2,10.7-33.8,11h-3.7c4.8-2,10-3.4,14.9-5Z"/>
      <path class="cls-4" d="M155.8,134.6c2.7-1,5.6-.7,8.4-.6-4.9,18.1,23.7,33.9,43.2,16.7,7.1,13.4,8.7,30.9,21.6,40.5-4.9,1.6-10.2,3-14.9,5h3.7c-2.6.3-5.4.1-8,0-37.7-1-72.4-15.1-86.6-51.7,7.2-4,15.4-6.1,23.4-7.5,2.5-.4,7.7.1,9.2-2.4Z"/>
      <path class="cls-3" d="M27.5,138.6c-.9-2.8-3.2-5.7-4.5-8.5-4.2-8.7-4.8-19.4-3.8-28.8,4-35.7,42.8-56.9,75.4-41.5,2.4,1.1,8,5.7,10.2,5.6,21.5,22.3,25.1,56.1,1.6,78.6-21.3,20.5-55.2,20.3-75.7-1.4-1-1.1-2.6-2.7-3.2-4.1ZM51.7,68.8c-2.3,1.7-4.7,3.2-6.9,5-39.8,32.5,1,90.3,42.7,68.5,2.6-1.4,5-3,7.6-4.4-3.1-3.5.5-4.8,2.8-7.4,5.9-6.8,8.3-14.9,9.1-23.7.3-7.3-2.6-17.3-7-23.2-8.4-11.2-23.3-18-37.3-15.4-4.1.8-9,4.9-11.1.6Z"/>
      <path class="cls-1" d="M51.7,68.8c1.5-2.4,4.7-3.1,7.3-3.7,37.5-8.3,65.8,32,45.2,63.5-2.3,3.5-5.1,7.6-9.1,9.3-3.1-3.5.5-4.8,2.8-7.4,5.9-6.8,8.3-14.9,9.1-23.7.3-7.3-2.6-17.3-7-23.2-8.4-11.2-23.3-18-37.3-15.4-4.1.8-9,4.9-11.1.6Z"/>
      <path class="cls-5" d="M100,83.6c4.4,5.9,7.3,15.8,7,23.2-7.2-4.3-9.5-15.8-7-23.2Z"/>
      <path class="cls-4" d="M104.8,219.6c1.8-.7,9.9-3.1,5.2-6.1-3.5-.2-6.2,5.1-16.2.8-14.5-6.3-14.8-29.9.4-35.3,25.8-9.2,45.3,51.5,72.9,40.7,1.5-.6,3.4-2.2,2.2-4-1.1-1.5-7.6,1.2-12.3,0,1-5.1,9.3-18.6,12.8-22.5,24.1,7.7,50.8,10.9,74.7.8,2.6-1.1,5-2.4,7.7-2.9,5.7,3.3,15.3,13.4,20.2,18.5-16.4.5-25.8,4-37.2,16.1-14.7,15.6-25.2,43-24.6,64.9.3,10.5,5.4,38.2,14.8,44v1.2c-2.6,2.7-4.1,6.3-6.4,9.4-9.6,13-34.1,22.8-47.1,10.8-5.3-4.9-5.5-11.4.9-15.7v-.3c4.8,0,9.6,1.3,14.4,1.2,8.5-.2-7.6-16.3-16.4-66.5,2.4-1.2,8.5-3.8,9.8-6.2.9-1.7-.7-3.5-2.4-2.8-3.6,1.4-6.9,4.3-11.1,5.8-32.5,12-53.4-27-62.4-51.9Z"/>
      <path class="cls-5" d="M168.9,33.4c8,7.7,11,19.1,17.1,28.2,1,0,1.9.2,2.9,0,14.6.4,23,0,37.9,4.7,4.1,1.3,8,3.2,12,4.6h.3c7.7-6.7,23.2-18.4,33.4-19.1,3,.2,3.8,1.5,5.1,4.2,4.5,16.4,3.2,40.4-1.9,56.6,9.7,23.1,5.8,46.5-12.3,63.8-2.7,2.6-5.6,4.9-7.9,7.9-8-12.8-20.4-23.8-32.5-32.7-1.8-1.4-7-6.7-8.7-2.7,0,3.5,6.2,5.9,8.6,7.6,8.5,6.2,16.4,14,23.4,21.8,1.7,1.9,3.1,4.3,4.9,6-7.5,1.9-13.7,5.1-22,6.9-12.9-9.6-14.4-27.1-21.6-40.5-19.6,17.2-48.2,1.4-43.2-16.7-2.8-.1-5.7-.4-8.4.6-1.6-7.3-28.9,3.5-33.6,5.5-.6-2.7-1-5.5-1.4-8.2,2-5.2,3.7-10.1,4.9-15.5,6.6,1.7,13.2,3.4,19.6,5.6,1.9.6,13.9,7.4,12.5,1.3-3.8-3.5-25.5-9.6-31.1-10.2.2-4.4.2-8.9,0-13.3,3-4.4,9.3-10.5,14-12.7-.2-12.9,11.6-54.9,28.1-53.7ZM272.5,51.7c-10.2.8-25.8,12.4-33.4,19.2h-.3c-4.1-1.4-7.9-3.4-12-4.7-14.9-4.7-23.3-4.3-37.9-4.7.4,1.3.9,2.6,1.4,3.9,19.8.8,30.6,2.9,50,9.5,11.2-6.1,22.8-20.4,37.4-19.1-1.3-2.7-2.1-4-5.1-4.2Z"/>
      <path class="cls-2" d="M157,112.5c-6.3-6.3-3.1-17.4,5.8-14.9-3.6,2.7-5.4,6.1-5.8,10.5-.2,1.4,0,3,0,4.4Z"/>
      <path class="cls-1" d="M220.1,137.9c14.2-.9,51.4,9.2,44.3,14.7-14.8-4.1-21.5-9-39.2-10.7-1.5-.1-11.2-.9-5.1-4.1Z"/>
      <path class="cls-1" d="M162.9,97.6c15.8-.6,4.8,30.3-5.8,14.9v-4.4c.5-4.4,2.3-7.8,5.8-10.5Z"/>
      <path class="cls-1" d="M226.3,111.3c10.2-.4,8.2,17.7-.9,20.6-10.7-1.6-8-17.9.9-20.6Z"/>
      <path class="cls-2" d="M164.3,133.9c-1.2-11.4,11.3-20,21.5-21.1,20-2.1,35.2,20,21.7,37.8-19.6,17.2-48.2,1.4-43.2-16.7Z"/>
      <path class="cls-1" d="M184,121.2c2.6-.3,2.5,2.1,3.7,3.8,2.6,3.6,5.8-2.3,8.7-1.7,3.9,3-4.1,6.4-6.1,6.9-1.6,5.7-1.5,13.6,6.6,11.8,3.4-.8,3.1-4.4,4.7-6.9,5.1-1.6,2.9,7.7-3.7,10.7-5.5,1.5-9.2-.8-11.9-5.6-10.2,8.4-17.8-9.7-11.5-10,2.5,1.8,2.4,11.5,8.5,7.2,2.2-1.6,2.7-5.6,3.1-8-2.1-2.3-4.8-5.4-2-8.2Z"/>
      <path class="cls-5" d="M365.2,219.6c-.5-5.6-3.6-8.8-1-15.3,6-15,27.8-10.4,37.8-2.8,1.9,1.4,4.5,5,6.9,5.3,8.7,11.5,10.1,29,8.2,42.9-4.7,34.8-37.4,59.2-68.6,69.8-5.2,1.8-10.8.8-12.5,5.7l-.2.2c-6.1,4.5-12.3,13.3-20.4,13.9,1-1.2,16.9-21.1,7.7-18.6-2,2.2-3.9,7.5-6.2,10.6-1.7,2.4-6,5.7-6.7,8-1.3-.3-2.8,0-4.1,0l-.2.4c-1.7,2.9-2.8,6.1-4.5,9-10.9,18.1-39.5,19.2-57.8,15.7-2.8-.5-5.7-2.2-8.4-2.5-7.5-11.7,9.8-20.1,19.5-18.1,2.8.6,10.7,4,13.2,1.8,1.3-3.6-2.5-3.2-4.8-3.7-31.2-6-33.2-46.7-10.1-61,1.6-1,6.3-2.1,7.1-3.6-.3-8-14.3,4-16.1,6-14.4,16-13.7,41.2,2.6,55.8-3.5-.6-7-1.5-10.4-2.7-3.5-1.3-8-5-10.5-1.9-9.5-5.8-14.5-33.5-14.8-44-.6-21.9,9.9-49.3,24.6-64.9,11.4-12.1,20.8-15.6,37.2-16.1,1,.9,2.1,1.9,3.2,2.7,17.4,20.7,28.8,33.2,39.7,59.9,4.2,10.2,5.3,20.3,18.5,21.4,10.6.8,22.1-5.8,29.9-12.4,11.6-12,23.5-26,19.1-44.5-2.3-9.4-10.2-12.5-17.7-17.1ZM363.8,281.2c-7.8,6.6-19.4,13.2-29.9,12.4-13.2-1-14.3-11.1-18.5-21.4-10.9-26.7-22.3-39.2-39.7-59.9-.2,3.2,10,14.8,12.2,18,8.2,11.6,16.3,26.4,21.5,39.5,2.5,6.3,4.6,14,9.2,19.1,12.8,14.2,29.4,7.5,41.7-3.8,1-.9,3.2-2.7,3.5-4.1Z"/>
    </g>
  </g>
</svg>