<?xml version="1.0" encoding="UTF-8"?>
<svg xmlns="http://www.w3.org/2000/svg" version="1.1" viewBox="0 0 457 314.2">
  <defs>
    <style>
      .cls-1 {
        fill: #010101;
      }

      .cls-2 {
        fill: #fc625d;
      }

      .cls-3 {
        fill: #14bbab;
      }

      .cls-4 {
        fill: #feada0;
      }

      .cls-5 {
        fill: #5762ee;
      }
    </style>
  </defs>
  <!-- Generator: Adobe Illustrator 28.7.1, SVG Export Plug-In . SVG Version: 1.2.0 Build 142)  -->
  <g>
    <g id="_Слой_1" data-name="Слой_1">
      <path class="cls-1" d="M199.2,260.9c2.2.2,5.8,20.1,6,23.3,0,1.8,0,2.8-1.2,4.1-3.9-.7-5.7-24-4.7-27.4Z"/>
      <path class="cls-1" d="M121.1,243.9l1-.2c3.7,1.4-3.8,39.2-4.3,48.3-.2,3.4.4,10.2-.6,13-1,0-2.4-.6-2.9-1.6-2.6-5.5,3.4-49,6.8-59.6Z"/>
      <path class="cls-5" d="M456.2,187.2c-.3,14.8-10.3,33.2-20.8,43.3-8.2,8-30,19.8-41.9,15.7.2-2.6,10.9-3.4,14-4.4,21.8-6.8,38.8-24.2,45.6-45.9.9-2.8.8-6.6,3-8.8Z"/>
      <path class="cls-1" d="M114.5,312.8c14.1-10.4,47.3-17.2,64.5-18.8,6-.6,25.1-1.4,29.2,2.5.7.7-.4,1.1-.9,1.5-7.6,0-15.1-.6-22.8-.2-19.9,1.2-51.8,9-70.9,16.4l-.3-.2c.3-.8.5-.8,1.2-1.2Z"/>
      <path class="cls-1" d="M4.6,186.2c3.1-1.5,17.9,5.3,21.7,6.7l25.7,9.2c8.2,2.9,25.7,7.6,32.3,11.7,3.1,2,23.3,18.2,23.8,20.6-1.3,1.1-5.2-1-6.9-.9-14.8,1.9-20,2.5-33.6-2.5-16.2-5.9-32.5-12-48.5-18.4-6.8-2.7-18.5-5.2-19.1-14-.3-4.7,1.4-8.9,4.5-12.3ZM5.7,191.4c-6.2,9.9,2.7,12.4,10,15.4l.7-3.2c0-3.4,1.7-6.3,1.9-9.6-3.4-2.1-8.6-3.7-12.6-2.6ZM84.3,218.9c-2.9,3.8-4.3,7-4.7,11.8,3.3-.2,7.3.1,10.4-1.2,2.6.4,4.6.4,7.2,0-2-1.8-11.2-10.5-12.8-10.6ZM21.9,195.9c-1.2,3.9-2.6,8.2-3.1,12.3,1,.3,2.1.8,3.2.7l.3-.5c1-3.8,1.9-7.5,4.5-10.5-1.3-.7-3.5-2.1-5-2Z"/>
      <path class="cls-4" d="M30.2,198.9c2.8.1,46.9,16.2,50.7,17.8-3.1,3.6-4.3,6.9-5.1,11.5l-.2.4c-2.2.8-44.1-15.5-49.6-18,.6-4.1,2.1-8.2,4.2-11.9Z"/>
      <path class="cls-1" d="M115.8,94.7c-1-8.1-.4-15.6,1.4-23.5,2.5-11,1.3-9,1.3-19.8,0-14.4,2.5-30.2,9.5-42.8,13.5-24.3,24.2,9.2,26.9,21,17.5-1.7,22.1-5,42-.2,5.6-6,28.1-26.4,37-18.6,8.1,7.1,3.5,41.8,2,51.8-.7,4.9-2.7,10.2-2.2,15.2,10.7,21,36.2,23.2,56.4,29,41.3,12,79.5,46.3,97,85.2,3.2,7.1,5.2,14.6,7.5,22,11.1-5.3,19.8-12.8,22.1-25.7,4.7-26-22.7-41-39.6-55.7-22.9-20-42.7-49-36.9-80.8,4.1-22.2,23.9-51.8,49.7-47,18.8,3.5,23.8,21.2,12.8,36.3-10.2,14-17.3,21.6-10.6,41.7,9,26.8,38,36.8,53.3,59.1,8.7,12.8,13.7,29.6,10.8,45-2.2,2.2-2.1,6-3,8.8-6.9,21.8-23.9,39.1-45.6,45.9-3.1,1-13.8,1.8-14,4.4-4.9,7.2-7.3,15.4-13.8,21.7-18.8,18.2-46.3,22.1-71.5,21.6-20.1-.4-65.8-4.8-80.1-19.7-6.4-6.7-6.7-17.7.2-24.2,7.5-7,20.7-7.4,30.5-7-5.8-7.3-8.4-15-8.4-24.3-8.1,17.9-38.5,46.3-58,46-8.4-.1-17.1-5.5-16.6-14.8.5-9.9,10.8-16.4,17.5-22.3-6.2-6.3-8.1-6.3-15,2.9,1.1-.1,5.3-1.1,4.7,1.4-.9,3.5-18.5,4.7-21.9,5.3-4.4.7-33.4,7.1-34.9,3.8l.3-.6c4.2-3.1,40.2-8.2,48.3-9.5,1.5-5.9,7.8-12,14.2-11.2,2.5,1.4,4,3.7,5.4,6.1,3.6-5,7-10.7,8.2-16.7-10.6,2.1-39.7.9-46.4-10-3.4-5.6-3.1-12.9,2.1-17.2,6.7-5.5,14.8-2,22.5-3.4,5.5-1,10.2-3.7,15-6.3-10.1-16.9-9.1-18.6-26.5-32.3-19.2-1.6-39.7-9.1-49.3-27-16,5.2-18.4,8.3-29.2,18.8h-.4c0-.1-.1-.6-.1-.6,1.7-9,20.9-18.4,28.8-19.9-1.1-3.2-2.3-6.5-3.2-9.8-16.8-4.7-24.1-.3-38.2,0l-.2-.3c6.7-5.2,30.3-3.2,38.1-2ZM125.1,96.5c3.9.7,6.9,3.7,1.3,2.5.4,1.1.9,2.1,1.6,3,.2-2.2,2-1.9,3.3-1.1.7,4.4,4.7,6.2,8.5,4,1.5-2.2-2.7-4.5,1.2-9.2,5.8-1.6,6.7,1.5,6.5,6.8,11.6,9.5,13.5-2.2,16.7.3,5.4,4.3-10.2,13.1-19.1,3.4-7,7-8.7,3.5-16,1.1,6.9,14,18.2,15.2,22,20.4,6.5,4.2,27.8,3.3,35.5,1.7,18.6-4.1,33.7-19.7,39.2-37.7,2.6-8.4,14.8-73.3,4.2-78.3-6.1-2.9-29.4,17.7-33.5,21.6-1.9,1.8-5.6,7.6-7.8,8.2-7.8,2.2,3.9-10.1,4.2-10.5-9-1.9-19.9-1.8-28.9-.1-2,1.5-4.5,2.5-6.7,3.6-17.2,8.7-29.9,23.5-33.3,42.9-1.3,7.3.6,10.8.8,17.5ZM416.5,200.7c6.5-.6,7.9-13.1,8.2-17.9,1.8-32.2-35.2-49.4-54.9-71.7-13.6-16-23.8-33.4-19.9-55.4,2.7-15.1,19.6-43.2,37.8-39.6,8.6,1.7,13.7,10.9,12,19.3-.4,1.8-1.1,3.5-1.5,5.3l.3-.3c13.2-14.5,4.7-33.1-15.7-31.5-26.8,2.1-41.5,37-39.4,60.4,2.2,25.5,21.8,48.4,40.7,64.1,25.3,21,46.7,32.4,32.5,67.3ZM264.2,104.6c2.2,3.5,28.8,11.8,33.9,14.2,28.1,12.7,58.1,36.7,73.4,63.8,3.4,6.1,17,34,20.3,37.5-9.9-45.5-47.2-88.2-90-105.2-12-4.8-25-7.5-37.6-10.2ZM119.7,95.1c1.9.4,3.6.8,5.4,1.4-.2-6.7-2-10.2-.8-17.5,3.3-19.4,16.1-34.3,33.3-42.9,2.3-1.1,4.7-2.1,6.7-3.6-20.5,4.9-21.3,7.2-34.9,20.1-3.8,1.3-2.2-2.4-1.2-4.2-2-15.1,1.5-32,12.4-43.2-13.7-6.2-18.2,38.4-18.2,45.6,0,10.5,1.4,9.7-1.4,20.5-2,7.7-3.2,15.9-1.4,23.7ZM214.1,153.7c-2,5.9-1.7,12.2-2,18.3-.8,18.5-3.2,40.6-16.6,54.7-5.9,6.2-26.1,18.9-9.9,27.7-.2-1.9-1.7-3.5-1.8-5.6-.5-9.1,35.3-24.5,33.7-72.9-.2-5.3.7-18.5-3.3-22.3ZM264,239.2c1.4.2,2.7.4,4.1.4-.7-.8-1.6-1.3-2.3-2.1-8.4-9.6-8.6-27.4-3-38.1,5-9.6,11.1-12,20.3-15.1l.5-.2c-29.6-2.9-36.3,35.1-20,54.6l.4.5ZM239.2,272.1c-1.6-2-3.6-3-4.9-5.5-5-9.8,1.9-18.1,11-21.8,1.8-.7,3.8-.9,5.5-1.8-29.2.6-29.2,23.3-11.7,29.1ZM176.7,135.6c20.5,16,19.5,27.5,30.7,46.8.1-1.6.2-3.1.2-4.7-6.1-8.8-5.3-19.5-14.7-29.1-3.2-3.3-12.6-9.3-11-13.5-1.8,0-3.5.2-5.2.6ZM165.7,197.2c-7.5-13,.3-12.2,10-18.4-4.6-.4-11.1-1.2-14.9,2-6.4,5.3-1.3,13.9,4.9,16.5ZM124,107.6c5.3,9.8,17.2,16.6,27.4,20-3.8-5.2-15.1-6.4-22-20.4-1.2-1.1-4,0-5.4.4ZM119.9,97.3c.7,3,1.5,5.6,3,8.3,2.3-.4,6.6-.2,5.2-3.5-.7-.9-1.2-1.9-1.6-3-1.9-1-4.5-1.1-6.5-1.7Z"/>
      <path class="cls-5" d="M128.2,48.5c-2-15.1,1.5-32,12.4-43.2,4.8,7,8.5,18.1,10.5,26.4-8.8,4.5-16.6,9-22.9,16.8Z"/>
      <path class="cls-3" d="M165.7,197.2c-7.5-13,.3-12.2,10-18.4,7.9-.2,14.5-2.4,20.9-6.9,3.7,5.3,6.6,12,9.6,17.8-.4,3.5-1.3,7-1.8,10.5-9.5,1.4-31.7.9-38.7-3Z"/>
      <path class="cls-5" d="M239.2,272.1c-1.6-2-3.6-3-4.9-5.5-5-9.8,1.9-18.1,11-21.8,1.8-.7,3.8-.9,5.5-1.8,16.6-4.5,42.5,12.4,57.2,17.7-9.3,12.2-.2,7.6,1.2,13.5,1,4-2.6,7.6-3.9,11.1-11.9.7-58-5.9-66.2-13.2Z"/>
      <path class="cls-2" d="M369.8,111c-13.6-16-23.8-33.4-19.9-55.4,2.7-15.1,19.6-43.2,37.8-39.6,8.6,1.7,13.7,10.9,12,19.3-.4,1.8-1.1,3.5-1.5,5.3-12.3,14.3-17.3,29.5-8.2,47.9-1.2-.4-2.3-.7-3.5-1v.4c-.7,8.2,1.4,15.7-5.4,22-3.1-1.1-5.5-2.1-8.9-1.5l-2.5,2.6Z"/>
      <path class="cls-5" d="M386.5,87.6c1.2.2,2.4.6,3.5,1,10,19.8,18.8,24,35.1,38,21.7,18.7,33.7,39.9,24.2,68.8-9.5,28.8-28.4,38.7-54.9,45.8,1.5-9.2,1.7-13.7.7-23,8.9-4.3,16.2-8.9,21.4-17.5,6.5-.6,7.9-13.1,8.2-17.9,1.8-32.2-35.2-49.4-54.9-71.7l2.5-2.6c3.3-.6,5.8.3,8.9,1.5,6.8-6.2,4.7-13.8,5.3-22v-.4Z"/>
      <path class="cls-5" d="M125.1,96.5c-.2-6.7-2-10.2-.8-17.5,3.3-19.4,16.1-34.3,33.3-42.9,2.3-1.1,4.7-2.1,6.7-3.6,9-1.7,19.9-1.8,28.9.1-.3.3-12,12.7-4.2,10.5,2.2-.6,5.9-6.4,7.8-8.2,4.1-3.9,27.4-24.5,33.5-21.6,10.6,5-1.7,69.9-4.2,78.3-5.5,18-20.6,33.6-39.2,37.7-7.6,1.7-28.9,2.5-35.5-1.7-3.8-5.2-15.1-6.4-22-20.4,7.3,2.5,9,5.9,16-1.1,8.9,9.6,24.5.9,19.1-3.4-3.2-2.5-5.1,9.2-16.7-.3.2-5.3-.7-8.4-6.5-6.8-3.9,4.7.3,7-1.2,9.2-3.8,2.2-7.9.4-8.5-4-1.3-.8-3.2-1.1-3.3,1.1-.7-.9-1.2-1.9-1.6-3,5.6,1.2,2.6-1.8-1.3-2.5ZM140.9,81.1c-1,3.2-2,5.9-4.6,8.2-4.1,5.3-3.1,6.7-4.9,11.6.7,4.4,4.7,6.2,8.5,4,1.5-2.2-2.7-4.5,1.2-9.2,2.4-4.7,3-10.1-.3-14.5Z"/>
      <path class="cls-1" d="M136.3,89.4h-.3c-11.2-1.4-6.2-21.5.8-17.6,3,1.7,3.4,6.3,4.1,9.4-1,3.2-2,5.9-4.6,8.2Z"/>
      <path class="cls-1" d="M162.6,75.3c8.2-6.4,12.5,8.7,5.8,14.6-10.1,6.1-10.5-9.3-5.8-14.6Z"/>
      <path class="cls-3" d="M181.9,135c30.4-6.6,43.3-22.7,50.5-51,8.1,12.8,19,15.8,31.8,20.6,2.2,3.5,28.8,11.8,33.9,14.2,28.1,12.7,58.1,36.7,73.4,63.8,3.4,6.1,17,34,20.3,37.5v.4c-.4,4.4,0,8.8-.4,13.3-4.6,43.8-49.4,52.3-86,51.6,1.3-3.5,4.8-7.1,3.9-11.1-1.4-5.9-10.5-1.4-1.2-13.5,5.9-.5,14.1-3,2.1-3.7-5.9-.3-17.7-8.6-23.9-11.5-6.4-3-11.5-3.6-17.7-5.8l-.5-.2c-.7-.8-1.6-1.3-2.3-2.1-8.4-9.6-8.6-27.4-3-38.1,5-9.6,11.1-12,20.3-15.1l.5-.2c3.3,0,10.7,3.7,13.1,1.9,1.2-2-.5-2.9-2.2-3.7-13-5.8-26.3-1.6-36.2,7.6.5-2.2,4.6-25.5-2.4-21.1-1.3,1.9-.5,6.2-.5,8.5,0,13.2-3.7,28.2-10.7,39.5-8.2,13.2-40.6,47.5-59,37.8-.2-1.9-1.7-3.5-1.8-5.6-.5-9.1,35.3-24.5,33.7-72.9-.2-5.3.7-18.5-3.3-22.3-7.3-8.1-6.4,21.2-6.6,23.9-6.1-8.8-5.3-19.5-14.7-29.1-3.2-3.3-12.6-9.3-11-13.5Z"/>
    </g>
  </g>
</svg>