<?xml version="1.0" encoding="UTF-8"?>
<svg xmlns="http://www.w3.org/2000/svg" version="1.1" viewBox="0 0 288.1 227.9">
  <defs>
    <style>
      .cls-1 {
        fill: #010101;
      }

      .cls-2 {
        fill: #fc625d;
      }

      .cls-3 {
        fill: #1e25e5;
      }

      .cls-4 {
        fill: #5762ee;
      }
    </style>
  </defs>
  <!-- Generator: Adobe Illustrator 28.7.1, SVG Export Plug-In . SVG Version: 1.2.0 Build 142)  -->
  <g>
    <g id="_Слой_1" data-name="Слой_1">
      <path class="cls-1" d="M60.5,44.6c3.5.6,1.8,3.4,0,4.9h-.8c-2.9-1-1-3.8.8-4.9Z"/>
      <path class="cls-1" d="M53.6,51.8c4,.5,2.5,3.3,0,5.2-4.2,0-2.7-3.8,0-5.2Z"/>
      <path class="cls-1" d="M116.4,11.4v-.4c0-6.3-6.7-9.4-11.8-5.6-4,3-7.5,7.3-11,10.9l-19.4,19.3c-2.5,2.5-6.2,8.5-10.3,7.3l-.4-.4c0-3.2,15.2-16.6,18.1-19.5C87.6,17.1,101.1-.2,109.4,0c7.1.2,11.5,6,10.6,12.7,1,16.1-1.1,35.9-1.1,52.7,0,3.8-.6,8.8,0,12.5-5.8,2.1-3.6-6.1-3.5-9.2l.6-33.8c.2-7.8.8-15.7.4-23.5Z"/>
      <path class="cls-3" d="M120,12.7c12.7,2.7,10.1,15.1,10.1,24.8v30.5c-5.8.5-9,2.6-10.1,8.4-.3.5-.6,1-1.1,1.4-.6-3.7,0-8.6,0-12.5,0-16.7,2.1-36.6,1.1-52.7Z"/>
      <path class="cls-3" d="M103.1,218.1c1.2,0,2.4.2,3.5.3,14,.7,11.5-17.3,11.5-26.4,0-11.2-.3-22.5,0-33.7.1-5.1,1.4-7.6,6.5-8.4,8.4-1.3,18.7-1.8,27.4-2.8l32.2-3.9c6.1-.7,11.9-2,18.1-1.4,2.2.7,4.5,1,6.7,1.6,6,2.2,14,4,19.3,6.3-5.5,1.9-11.8,2-17.6,2.6l-23.1,2.5c-19.4,2.1-38.7,4.8-58.2,6.8v36.8c0,9.4,2.8,30.2-12.5,29.8-6-.2-10.5-5.4-13.9-9.9Z"/>
      <path class="cls-1" d="M103.1,218.1c-6-2.4-51.5-51-60.1-59.6l-25.7-25.7c-20-20-24.1-20.6-4.9-40.2,3.7-3.8,32.7-34.2,35.7-34.2,4.1,2.2-7.8,11.5-9.4,13.1l-21.3,21c-5.5,5.5-20.2,16.4-10.6,24.5l.3.2c6.9,6.4,13.2,13.4,19.9,20.1l65.7,66.4c4.1,4.1,10.1,12.9,16.1,11.3,5.3-1.5,5.3-7,5.6-11.5.3-6.7,1.4-41.9.1-48,.3-3.1,2.2-5.4,4.4-7.3,5.6-2.4,21.4-3.3,28.3-4.1l62.9-7.5c11.2-1.2,31.5-2.5,42.1-5.4,20.7-2.4,24.1-.5,24-21.8v-18.3c-1.2-11.2-11.2-10.3-19.8-11.1l-108.7-9.9c-2.1-.2-17.8.6-15-4.5,4.6-1.2,19.4,1.2,24.7,1.7l91.3,8.5c10.8,1.1,30.9-.4,31.1,15.3,3,1.6,6.1,3.8,7.2,7.2,1.3,4,1.2,29,.6,33.9-1.7,13.2-19.7,12.5-29.5,13.9-6.7,1-24.5,4.5-29.8,3.7-5.4-2.3-13.4-4-19.3-6.3-2.2-.6-4.6-.8-6.7-1.6-6.1-.6-12,.7-18.1,1.4l-32.2,3.9c-8.7,1-19,1.5-27.4,2.8-5,.8-6.3,3.3-6.5,8.4-.3,11.2,0,22.5,0,33.7,0,9.1,2.5,27.1-11.5,26.4-1.2,0-2.4-.4-3.5-.3Z"/>
      <path class="cls-2" d="M279.9,90.9c3,1.6,6.1,3.8,7.2,7.2,1.3,4,1.2,29,.6,33.9-1.7,13.2-19.7,12.5-29.5,13.9-6.7,1-24.5,4.5-29.8,3.7-5.4-2.3-13.4-4-19.3-6.3-2.2-.6-4.6-.8-6.7-1.6,1.6-.5,3.2-1.1,4.9-1.3,2.9-1,6.7-.9,9.7-1.3l38.2-4.9c24.2-3.3,24.7-4.4,24.6-27.5v-15.9Z"/>
      <path class="cls-2" d="M129.6,84.9c-1.7-1.8-1.5-4.1.4-5.7,3.6-3,17.2,0,21.8.5l97,8.7c8.9.8,18.1.7,26.8,2.5h.7c0,.1,0,18.4,0,18.4,0,21.3-3.4,19.4-24,21.8-2.6-1.6-6-2.4-8.8-3.4l-99-36.8c-4.9-1.9-10.1-3.5-14.8-5.9Z"/>
      <path class="cls-4" d="M116.4,11.4c.5,7.8-.1,15.7-.4,23.5l-.6,33.8c0,3.1-2.3,11.2,3.5,9.2.5-.4.8-.9,1.1-1.4.6,6.2,3.9,7.4,9.5,8.4,4.7,2.4,9.9,4,14.8,5.9l99,36.8c2.9,1,6.2,1.9,8.8,3.4-10.6,2.9-30.8,4.2-42.1,5.4l-62.9,7.5c-6.9.8-22.7,1.7-28.3,4.1-2.2,2-4.1,4.3-4.4,7.3,1.3,6.2.2,41.3-.1,48-.2,4.5-.3,10-5.6,11.5-5.9,1.7-12-7.2-16.1-11.3L27,137.1c-6.7-6.6-13-13.7-19.9-20.1,10.4-8.7,22.7-22.4,32.2-32.2l62.8-63.1c3.9-3.9,8.1-10.2,14.2-10.4ZM114.5,155.3c.3-3.1,2.2-5.4,4.4-7.3-5.9-.2-10.7,2.3-4.6,7.3h.2Z"/>
    </g>
  </g>
</svg>