<?xml version="1.0" encoding="UTF-8"?>
<svg xmlns="http://www.w3.org/2000/svg" version="1.1" viewBox="0 0 1838.8 292.7">
  <defs>
    <style>
      .cls-1 {
        fill: #7dc0f7;
      }

      .cls-2 {
        fill: #010101;
      }

      .cls-3 {
        fill: #fff;
      }

      .cls-4 {
        fill: #fc625d;
      }

      .cls-5 {
        fill: #14bbab;
      }

      .cls-6 {
        fill: #5762ee;
      }
    </style>
  </defs>
  <!-- Generator: Adobe Illustrator 28.7.1, SVG Export Plug-In . SVG Version: 1.2.0 Build 142)  -->
  <g>
    <g id="_Слой_1" data-name="Слой_1">
      <g>
        <path class="cls-1" d="M340.6,213.7c3.4,2.7,16,27.2,18.3,32.9-1.4,3.7-10.2,22.6-11.9,24.7-.9-1,6.4-8.5-.7-12.7-1.5.5-2.4,5.4-3.6,7h-.4c6.8-13.7,4.5-28.7-6.2-39.8,2.2-3.7,2-8.4,4.5-12.1Z"/>
        <path class="cls-6" d="M25,283.1c-3.5-1.6-6.6-4.2-9.1-7.1-23.3-26.5-6.6-64.6,30.2-61.8-3,2-6.6,2.4-9.8,3.9-20.4,9.5-29.6,36.1-18.1,55.8,1.7,2.8,5.9,6.9,6.8,9.2Z"/>
        <path class="cls-6" d="M348.8,74c1.9,1.2,3.5,2.9,5,4.5,23.5,25.9,9,65.5-25,65.4,1.5-1.9,6.5-3.5,8.8-4.9,20.2-12.9,22.8-43.2,5.4-59.5-2.1-1.9-4.5-3.4-6.6-5.3l-.2-.2h12.6Z"/>
        <path class="cls-6" d="M29.5,77.2c28.9.5,57.4.5,86.3.5l197.7-1.1c7.6-.1,13.8-.4,20.8,3.1,2.1,1,4,2.7,6.4,2.9,12.9,12.1,12.3,34.8.5,47.3-8.5,9-17.2,10.4-29,10.7l-254.2,6.8c-4.7,0-22.9-1-26.1,2.4-5.7-7.2-13.9-29.6-19.4-39.5,4.5-10.2,11.8-23.3,17.1-33.2Z"/>
        <path class="cls-2" d="M35,135.4c-10,2.5-10.6-21.5-9.4-27.4,1-5.1,2.8-15.5,9.4-11.8-9.8,13.6-6.9,25.5,0,39.2Z"/>
        <path class="cls-3" d="M35,96.2c1.5-3.8,5.7-10.4,8.5-3.5-.2,7-11.9,13.6-7,30.4,1.5,5.1,6.7,11-1.5,12.2-6.9-13.7-9.8-25.5,0-39.2Z"/>
        <path class="cls-2" d="M107.2,84.6c2.9,0,15.4-.9,17.2.8,3,2.6-5.5,3.2-13,3.3-8.9,0-17.7.2-26.6.5-12.4.4-27.8.9-30.4,17.2-2.2,4.4-.6,7.8-1.8,11.7-6.6,5.8-6.1-24.8,15.5-31.3,7-2.1,31-2.1,39-2.1Z"/>
        <path class="cls-2" d="M75.2,62.6c-19.7-18.6-13.2-48.9,13.5-52.9,2.9-.4,6-.4,9-.5l166.2-2.9c15.1-.3,33.9-1.6,48.6-.9,7.7.3,11.5,5.2,12.3,12.5,3.3-.3,14.2-2.7,13.6,3.2-.7,7.5-9.9,16-13.6,22.8,3.7,4.8,13.9,11.7,13.3,17.3-.3,2.5-2.3,4.4-4.8,4.8-10.1-.2-20.2.3-30.4.5l-197.3,3.9c-5.7.1-11.3.6-16.9-1.1-8.9-2.7-6.9-3.1-16.5-2.8l-12.5.3c-7.9.2-30-.6-36.4,1.5-2.5,2.6-19.9,35-19.8,40.7,0,4,14.1,36.2,16.7,41.3,3.6,7.1,8,6.3,15.4,5.9-1.2-2.2-2.7-4.1-3.9-6.2,3.2-3.4,21.5-2.3,26.1-2.4l254.2-6.8c11.8-.3,20.5-1.7,29-10.7,11.8-12.5,12.3-35.3-.5-47.3-6.4-6.9-13.7-10.6-22.2-14.3,6.1,1.3,11.9,3.5,17.7,5.7l.2.2c2.1,1.8,4.6,3.4,6.6,5.3,17.3,16.3,14.7,46.6-5.4,59.5-2.3,1.4-7.3,3.1-8.8,4.9-11.1.6-28.1,1.7-39.3.7,1,.6,2,1.2,3.1,1.7,5.3.2,13.9,4.8,17.6,8.7,13,14,8.6,32.5-2.7,45.8,7.5,0,15,0,22.5-.1,5.3-.1,15.4-2.4,19.7,1.8,3,2.9,17.9,30.7,20.8,37.2,3.9,8.8-5.3,21.6-9.2,30-9.3,20.1-5,22.7-28.2,22.9l-272.3-.7c-15.7,0-21.8.7-35.8-8.9-.9-2.3-5.1-6.4-6.8-9.2-11.5-19.7-2.4-46.3,18.1-55.8,3.2-1.5,6.8-1.9,9.8-3.9,2.2-.2,13.4-2.4,10.4,2.9,2.3.7,8.2,0,10.9,0h29.8c9.1,0,18.2.1,27.3,0l193.5-2.9c7.5-.1,15-1,22.5-.5-2.4,3.6-2.3,8.4-4.5,12.1,10.7,11.1,13,26.1,6.2,39.7h.4c1.2-1.5,2-6.4,3.6-6.9,7,4.2-.2,11.7.7,12.7-2.7,5.8-5.7,11.5-8,17.5,3,.2,6.9.7,9.3-1.4,2.5-2.1,19.6-38.5,19.8-42.5.1-2.6-17.8-36-22-40.3-4.2-.8-15.8,0-20.7,0l-17.7.4c-10.2.2-15.6,0-25.4,2.3-6.8,1.5-22.1.4-30.1.4H96.3c-15.6,0-31.2.3-46.8,0-3.8,0-8.3.4-9.6-4.1-2.1-7.1,12.3-6.7,11.6-15.1-.6-6.8-9.7-5.9-11.1-10.8-1.7-5.9,6.6-4.8,9.8-5.4,1.9-3.3,1.8-6.8-1.4-9.4-9.4-7.6-24.7,3.5-31.6-10.3-3.8-7.5-6.8-15.6-10-23.4-3.6-8.7-10-18-5.9-27.5,3.8-9,11.9-24.3,16.8-32.7,4.8-8.2,17.7-5.5,26.4-5.7,10.2-.2,20.5-.6,30.7-.7ZM37.4,152c3.6,4.8,8.9,5.2,13.9,7.7,19.4.1,38.9,0,58.3-.6l128.5-3c4.1-.1,8.2,0,12.4-.1l20.2-.9c3.9-.2,8.1-.6,11.9-.2,11.9,1.3,18.3,15.1,18.1,25.7,0,1.5-.7,4.3,0,5.5,5.4-12.3,1.8-26.9-8.9-35.1-7.9-6.1-13.9-5.4-23.2-5.1l-195,5.3c-12,.3-24.4-.7-36.2.8ZM76.2,57.9c-.8-1.8-1.9-3.4-2.7-5.2-5-11.1,3.3-25.8,14.4-29.4,8.1-2.6,28.3-1.3,37.4-1.6l95.2-2c17.2-.3,97.5-1,100.8-2.4-1.3-6.4-5-8.1-11.1-8.1-14.7-.1-29.5.8-44.2,1l-157.4,2.7c-14,.3-28.6-1.4-37.2,12.3-6.4,10.2-4.8,25,4.8,32.7Z"/>
        <path class="cls-4" d="M292.6,146.4c5.3.2,13.9,4.8,17.6,8.7,13,14,8.6,32.5-2.7,45.8-3.1.9-9.2.5-12.7.4,18.5-16,14.7-39.3-2.2-54.9Z"/>
        <path class="cls-5" d="M321.3,17.3c.9.6,2.5.6,3.5.7,3.3-.3,14.2-2.7,13.6,3.2-.7,7.5-9.9,16-13.6,22.8,3.7,4.8,13.9,11.7,13.3,17.3-.3,2.5-2.3,4.4-4.8,4.8-4.4-7.6-9.9-14.8-14.9-22,2.6-4.2,6.2-7.7,8.4-12.1-7-.6-13.9-.1-20.9,0l-156.8,3.1c-6.3.1-12.6.4-18.8.3-2.9,0-2.6,1.8-2.3,4.1l165.6-3.3c8.6-.1,17.3-.6,25.9-.3-2.2,2.7-4.2,5.5-6.3,8.3,3.8,6.3,8.6,12,12.7,18.1-5.5-.2-11,.2-16.6.2l-195.1,3.9c-12.9.3-28.4,2.5-38.1-8.3-.8-1.8-1.9-3.4-2.7-5.2-5-11.1,3.3-25.8,14.4-29.4,8.1-2.6,28.3-1.3,37.4-1.6l95.2-2c17.2-.3,97.5-1,100.8-2.4Z"/>
        <path class="cls-4" d="M51.4,159.6c19.4.1,38.9,0,58.3-.6l128.5-3c4.1-.1,8.2,0,12.4-.1l20.2-.9c3.9-.2,8.1-.6,11.9-.2,11.9,1.3,18.3,15.1,18.1,25.7,0,1.5-.7,4.3,0,5.5-1.4,7.7-11.9,16.4-19,17.7-5.3,1-16.4.2-22.4.2H70.1c-3.7,0-24.3.6-26.5-1,0-.3,27.4-15.4.5-25.9,5.7-1.3,12.1-1,17.9-1.2l149.5-3.6c7.8-.3,16.2,0,24.3-.3,1.2,0,13.4.4,9.6-3.6-3.7-1.8-44,.8-51.1,1l-100.5,2.2c-13.2.2-26.3.7-39.5.5,1.1-5.2,0-8.3-3-12.6Z"/>
        <path class="cls-6" d="M56.5,217.1c2.3.7,8.2,0,10.9,0h29.8c9.1,0,18.2.1,27.3,0l193.5-2.9c7.5-.1,15-1,22.5-.5-2.4,3.6-2.3,8.4-4.5,12.1,10.7,11.1,13,26.1,6.2,39.7h.4c1.2-1.5,2-6.4,3.6-6.9,7,4.2-.2,11.7.7,12.7-2.7,5.8-5.7,11.5-8,17.5-4.9.3-9.9.1-14.8,0l-252.9-.6c-16.1.2-32.7,2.8-45-10.2-22.7-24-.8-62.2,30.2-60.9Z"/>
        <path class="cls-2" d="M279.8,224.1c16.7-.6,31.5,2.3,40.4,18.3,1.8,3.3,7.6,12.9,2.1,14.5-4.9-.2-2.5-27.5-34.6-28.6-2.6,0-6.2.6-8.7,0-3.1-.8-1.3-3.6.8-4.2Z"/>
        <path class="cls-2" d="M57.7,224.9h46.9c7,0,14.2-.3,21.2,0,5.9.2,5.1,4-.5,3.9h-61.5c-12.7.1-15.8-3.4-6.2-3.8Z"/>
        <path class="cls-3" d="M333.4,271.2c-8.6.5-1.5-10-.2-13.3,6.7-17.8-7.6-23.8-8.4-29.9-.6-4.7,4.5-5.8,8.6-1,.9-.5,1.9-.9,2.8-1.3,10.7,11.1,13,26.1,6.2,39.7-2,2.8-3.5,5.3-6.2,7.5l-2.8-1.7Z"/>
        <path class="cls-2" d="M336.2,225.7c10.7,11.1,13,26.1,6.2,39.7-2,2.8-3.5,5.3-6.2,7.5l-2.8-1.7c13.3-12.9,12.2-30.8,0-44.2.9-.5,1.9-.9,2.8-1.3Z"/>
        <g>
          <path d="M507.7,195.7c0,1.8-1.5,3.7-4.4,5.6-3.9,2.2-8.1,4-12.4,5.6l-7.7,2.7c-5.3,2.4-9.2,3.6-11.5,3.6s-4.1-.7-5.8-2.2c-1.7-1.5-3.7-4.4-6.1-8.7-.6-1-2.7-5.4-6.2-13.3-4-8.5-6-12.8-6.2-13-.6-1.2-2.6-5.2-6.1-12.1-3.5-6.9-7.5-14.6-12.3-23.1l-3-.3v8.6c0,34.7-.2,53.8-.6,57.1-.4,2.2-.9,3.5-1.5,4-.6.5-1.6.7-3,.7l-7.7-.3c-1.6-.2-3.8-.3-6.8-.3l-10.4.3c-6.5,0-9.8-1.6-9.8-4.7l.3-18.9c.2-2.6.3-5.6.3-9.2v-30.5l.3-16.9-.3-25.2V5.6c0-1.2,2-2.1,5.9-2.7,3.9-.6,8.3-.9,13-.9l7.4-.3c4.5,0,7.6.4,9.2,1.2,2,.8,3,3.3,3,7.4v18.4l.3,18.4v58c2.2.2,5,.3,8.6.3,8.7,0,15.3-3.1,20-9.3,4.6-6.2,7-16.2,7-30l-.3-26V7.4c0-1.8,2.6-3.1,7.7-4,5.1-.9,10.8-1.3,16.9-1.3s9.8.3,11,.9c2,.8,3,3.3,3,7.4l.3,18.9v21.6l.3,9.2c0,18-2.9,33.6-8.6,46.9-5.7,13.3-14.1,22.8-25.2,28.6l11.5,17.2c6.3,9.1,9.6,14,9.8,14.8,1.6,2.4,4.6,6.3,9.2,11.8,5.9,7.5,9.2,11.7,9.8,12.7.8,1.2,1.2,2.4,1.2,3.6Z"/>
          <path d="M646.8,200.7c0,6.7-2,10.1-5.9,10.1l-6.8-.3c-1.4-.2-3.6-.3-6.5-.3l-10.4.3c-6.5,0-9.8-1.6-9.8-4.7l.3-15.7c.4-6.7.5-10.9.3-12.4v-33.7c-16.6,0-29.5.1-38.8.3v4.7l-.3,49.7c0,4.7-.5,7.9-1.5,9.6-1,1.7-2.5,2.5-4.4,2.5l-6.8-.3c-1.4-.2-3.6-.3-6.5-.3l-10.4.3c-6.5,0-9.8-1.6-9.8-4.7l.3-18.9c.2-2.6.3-5.6.3-9.2v-30.5l.3-16.9-.3-25.2V5.6c0-1.2,2-2.1,5.9-2.7,3.9-.6,8.3-.9,13-.9,3-.2,6.1-.1,9.5.1,3.4.3,5.7.8,7.1,1.6,2,.8,3,3.3,3,7.4v17.5l-.3,47.4c0,6.3.2,16,.6,29l39.1.3V5.6c0-1.2,2-2.1,5.9-2.7,3.9-.6,8.3-.9,13-.9,3.2-.2,6.4-.1,9.6.1s5.6.8,7,1.6c2,1.2,3,3.7,3,7.4v47.4l.3,18.4.3,71.9-.3,51.8Z"/>
          <path d="M796.9,148.9l-.3,51.8c0,6.7-2,10.1-5.9,10.1l-6.8-.3c-1.4-.2-3.6-.3-6.5-.3l-10.4.3c-6.5,0-9.8-1.6-9.8-4.7l.3-15.7c.4-6.7.5-10.9.3-12.4v-33.7l.6-46.8-5.9,13.3c-20.3,45.8-30.9,69.5-31.7,71l-3.6,7.4c-2.8,6.5-5.3,11.7-7.5,15.5-2.3,3.8-4.3,5.8-6.1,5.8h-14.8c-4.9,0-8.2-.2-9.8-.7-1.6-.5-2.4-1.4-2.4-2.8l.3-19.5c.2-2.8.3-5.9.3-9.5v-30.5l.3-16.9-.3-25.2V5.6c0-1.2,2-2.1,5.9-2.7,3.9-.6,8.3-.9,13-.9,3-.2,6.1-.1,9.5.1,3.4.3,5.7.8,7.1,1.6,2,.8,3,3.3,3,7.4v17.5l-.3,47.4.6,35.2,5.9-14.2c8.1-19.1,16.2-38.1,24.4-57,8.2-18.8,13.4-29.9,15.5-33.3,1.8-2.6,4.1-3.8,7.1-3.8l11.8-.3c6.9,0,11,.4,12.4,1.2,2,1.2,3,3.7,3,7.4v47.4l.3,18.4.3,71.9Z"/>
          <path d="M926.8,16.9c0,1.2-.1,2.9-.4,5.2-.3,2.3-.4,4.3-.4,6.1,0,3.6,0,6.4.3,8.4.2,2.1.3,4.1.3,6.1s-1.3,3.3-4,4c-2.7.7-6.8,1-12.3,1l-14.2-.3c-11.8,0-21.9.1-30.2.3v65.4l.3,32.9c0,36.7-.2,56.7-.6,60.1-.4,2.2-.9,3.5-1.5,4-.6.5-1.6.7-3,.7l-7.7-.3c-1.6-.2-3.8-.3-6.8-.3l-9.5.3c-1.8,0-3.1-.1-3.8-.3-.6-.2-1.6-.4-3-.7-1.4-.3-2.4-.7-3-1.3-.6-.6-.9-1.4-.9-2.4l.3-18.9c.2-2.6.3-5.6.3-9.2v-26.6l.3-59.5-.3-25.2V11.8c0-5.7,1.6-8.6,4.7-8.6,5.7,0,12.1-.3,19.2-.9,2.8-.2,6-.4,9.8-.6,3.7-.2,7.9-.3,12.4-.3s9.7.4,11.8,1.2c.6.2,6.7.3,18.4.3l10.4-.6,7.7-.3c2,0,3.5.5,4.6,1.5,1.1,1,1.6,3,1.6,5.9s-.3,4.6-.9,7.4Z"/>
          <path d="M1069.5,154.2c-2,10.9-5.6,21-11,30.5-3.9,6.7-8.1,12.2-12.4,16.6s-10.3,7.8-17.8,10.4c-7.5,2.6-17.1,3.8-28.7,3.8s-9.8-1.2-16.3-3.7-11.8-5.6-16-9.3c-7.1-6.1-13.3-15.8-18.5-29.2-5.2-13.3-7.8-29.4-7.8-48.1,0-32.4,1.7-54.9,5-67.5,3.4-12.6,6.6-20.9,9.6-24.9,3.1-3.9,5-6.4,5.8-7.4,5.1-7.7,11.4-13.9,18.8-18.5,7.4-4.6,17-7,28.9-7s18.9,1.6,25.3,4.9c6.4,3.3,12.4,8.6,17.9,16.1,4.1,5.5,7.6,11.6,10.4,18.4,2.8,6.7,5.1,17,7,30.8,1.9,13.8,2.8,32.2,2.8,55.1s-1,18.2-3,29ZM981,125.2c0,13,2,23.8,6.1,32.4,4,8.6,10.8,12.9,20.3,12.9s15.2-4.7,19.7-14.1c4.4-9.4,6.7-19.8,6.7-31.2,0-29-2.3-49.6-6.8-61.9-4.5-12.2-11.1-18.4-19.5-18.4-17.6,0-26.3,26.7-26.3,80.2Z"/>
          <path d="M1257.1,167.8c0,22.1-.2,34.8-.6,38.2-.4,2.2-.9,3.5-1.5,4s-1.6.7-3,.7l-7.7-.3c-1.6-.2-3.8-.3-6.8-.3l-10.4.3c-6.5,0-9.8-1.6-9.8-4.7l.3-18.9c.2-2.6.3-5.6.3-9.2v-30.5c0-1.6,0-4.6.1-9,0-4.4.1-13.1.1-25.9l.3-11-11.2,22.8c-5.1,10.3-9,17.8-11.5,22.5l-13,26c-.8,1.2-2.4,1.8-4.7,1.8-4.3,0-6.7-.6-7.1-1.8l-12.7-27.2c-4.3-8.5-8.2-16.6-11.5-24.3l-9.8-21.6.3,13,.9,36.4c0,34.7-.2,53.8-.6,57.1-.4,2.2-.9,3.5-1.5,4-.6.5-1.6.7-3,.7l-7.7-.3c-1.6-.2-3.8-.3-6.8-.3l-10.4.3c-6.5,0-9.8-1.6-9.8-4.7l.3-18.9c.2-2.6.3-5.6.3-9.2v-30.5l.3-16.9-.3-25.2V6.5c0-1.2,1.6-2.1,4.7-2.7,3.2-.6,10.2-.9,21-.9s4.9.6,6.4,1.8c1.5,1.2,2.7,3.3,3.7,6.2,6.9,18,15.3,38.3,25.3,61.1,10,22.8,15.6,34.2,17,34.2s6.8-11,16.7-33.2c10-22.1,18.5-41.8,25.6-59.2,1.8-4.3,3.4-7.3,4.9-8.7,1.5-1.5,3.6-2.2,6.4-2.2,12.6,0,20.2.4,22.8,1.2,2,.6,3,3.1,3,7.4v15.1l.3,20.4-.9,42,1.2,78.7Z"/>
          <path d="M1401,56.4c3.7,15.7,5.6,38.6,5.6,68.8v40.3l-.3,18.4v18.1c0,4.1-1,6.6-3,7.4-1.6.8-4.6,1.2-9.2,1.2l-7.4-.3c-12.6,0-18.9-1.1-18.9-3.3v-42.3h-.6c-18,0-32.4.1-43.2.3v.6l-.3,18.4v16.9c0,4.1-1,6.6-3,7.4-1.4.8-3.8,1.4-7.3,1.8-3.5.4-6.6.5-9.3.3-12.6,0-18.9-1.1-18.9-3.3v-81.7c0-30.4,2-52.6,5.9-66.6,3.9-14,8.8-25.1,14.5-33.2,5.3-7.9,11.1-14.1,17.5-18.6,6.3-4.5,14.7-6.8,25.2-6.8s15.1,1.7,21,5c5.9,3.4,11.6,8.7,17.2,16,5.9,7.9,10.8,19.7,14.5,35.4ZM1367.8,126.1v-.9c0-28.2-2-48.6-6.1-61.3-4-12.6-9.1-18.9-15.2-18.9-14.2,0-21.3,26.7-21.3,80.2v.6h34.9c1.4.2,3.9.3,7.7.3Z"/>
          <path d="M1552,200.7c0,6.7-2,10.1-5.9,10.1l-6.8-.3c-1.4-.2-3.6-.3-6.5-.3l-10.4.3c-6.5,0-9.8-1.6-9.8-4.7l.3-15.7c.4-6.7.5-10.9.3-12.4v-33.7c-16.6,0-29.5.1-38.8.3v4.7l-.3,49.7c0,4.7-.5,7.9-1.5,9.6-1,1.7-2.5,2.5-4.4,2.5l-6.8-.3c-1.4-.2-3.6-.3-6.5-.3l-10.4.3c-6.5,0-9.8-1.6-9.8-4.7l.3-18.9c.2-2.6.3-5.6.3-9.2v-30.5l.3-16.9-.3-25.2V5.6c0-1.2,2-2.1,5.9-2.7,3.9-.6,8.3-.9,13-.9,3-.2,6.1-.1,9.5.1,3.4.3,5.7.8,7.1,1.6,2,.8,3,3.3,3,7.4v17.5l-.3,47.4c0,6.3.2,16,.6,29l39.1.3V5.6c0-1.2,2-2.1,5.9-2.7,3.9-.6,8.3-.9,13-.9,3.2-.2,6.4-.1,9.6.1s5.6.8,7,1.6c2,1.2,3,3.7,3,7.4v47.4l.3,18.4.3,71.9-.3,51.8Z"/>
          <path d="M1702,148.9l-.3,51.8c0,6.7-2,10.1-5.9,10.1l-6.8-.3c-1.4-.2-3.6-.3-6.5-.3l-10.4.3c-6.5,0-9.8-1.6-9.8-4.7l.3-15.7c.4-6.7.5-10.9.3-12.4v-33.7l.6-46.8-5.9,13.3c-20.3,45.8-30.9,69.5-31.7,71l-3.6,7.4c-2.8,6.5-5.3,11.7-7.5,15.5-2.3,3.8-4.3,5.8-6.1,5.8h-14.8c-4.9,0-8.2-.2-9.8-.7-1.6-.5-2.4-1.4-2.4-2.8l.3-19.5c.2-2.8.3-5.9.3-9.5v-30.5l.3-16.9-.3-25.2V5.6c0-1.2,2-2.1,5.9-2.7,3.9-.6,8.3-.9,13-.9,3-.2,6.1-.1,9.5.1,3.4.3,5.7.8,7.1,1.6,2,.8,3,3.3,3,7.4v17.5l-.3,47.4.6,35.2,5.9-14.2c8.1-19.1,16.2-38.1,24.4-57,8.2-18.8,13.4-29.9,15.5-33.3,1.8-2.6,4.1-3.8,7.1-3.8l11.8-.3c6.9,0,11,.4,12.4,1.2,2,1.2,3,3.7,3,7.4v47.4l.3,18.4.3,71.9Z"/>
          <path d="M1838.5,186.8l.3,18.9c0,3.2-3.3,4.7-9.8,4.7l-10.4-.3c-3,0-5.1,0-6.5.3l-6.8.3h-1.2c-1.4,0-2.4-.2-3-.7-.6-.5-1.1-1.8-1.5-4-.4-3.4-.6-22.2-.6-56.5-.4.2-1.1.3-2.1.3l-10.7,20.7-2.7,5.3c-.2.2-2.3,4.5-6.2,13-3.6,7.9-5.6,12.3-6.2,13.3-2.4,4.3-4.4,7.3-6.1,8.7-1.7,1.5-3.6,2.2-5.8,2.2s-6.2-1.2-11.5-3.6l-7.7-2.7c-4.3-1.6-8.5-3.5-12.4-5.6-3-2-4.4-3.8-4.4-5.6s.4-2.4,1.2-3.6c.6-1,3.8-5.2,9.8-12.7,4.5-5.5,7.6-9.5,9.2-11.8l10.4-15.7,5.9-8.9c-9.9-5.5-17.7-13.8-23.5-24.7-5.8-11-8.7-24-8.7-39.2s3.1-29.4,9.3-41.3c6.2-11.9,14.7-21.2,25.5-27.8,10.8-6.6,22.9-9.9,36.6-9.9s17.3.3,21.6.9c4.3.6,8.7,1.4,13,2.4,3.2.8,4.7,1.6,4.7,2.4v99.5l-.3,25.2.3,16.9v30.5c0,3.6,0,6.6.3,9.2ZM1772.9,54.9c-4.4,6.6-6.7,16.4-6.7,29.5s2.2,18.8,6.7,24.4c4.4,5.6,10,8.4,16.7,8.4s5.4-.2,9.8-.6V45.6c-4.3-.4-7.6-.6-9.8-.6-6.7,0-12.3,3.3-16.7,9.9Z"/>
        </g>
        <g>
          <path d="M397.6,283.9v-30h-11.2v-7.5h30v7.5h-11.2v30h-7.5Z"/>
          <path d="M445.7,283.9v-3.8h-3.8v-3.8h-3.8v-18.8h3.8v-3.8h3.8v-3.8h3.8v-3.8h18.8v3.8h3.8v3.8h3.8v18.8h-3.8v3.8h-3.8v3.8h-3.8v3.8h-18.8ZM460.7,276.4v-3.8h3.8v-3.8h3.8v-11.2h-3.8v-3.8h-11.2v3.8h-3.8v3.8h-3.8v11.2h3.8v3.8h11.2Z"/>
          <path d="M497.6,283.9v-3.8h3.8v-30h3.8v-3.8h22.5v37.5h-7.5v-30h-11.2v26.2h-3.8v3.8h-7.5Z"/>
          <path d="M549.4,283.9v-37.5h7.5v15h11.2v3.8h3.8v3.8h3.8v7.5h-3.8v3.8h-3.8v3.8h-18.8ZM564.4,276.4v-3.8h3.8v-3.8h-11.2v7.5h7.5Z"/>
          <path d="M597.6,283.9v-37.5h7.5v11.2h3.8v-3.8h3.8v-3.8h3.8v-3.8h7.5v7.5h-3.8v3.8h-3.8v3.8h-3.8v3.8h-3.8v3.8h3.8v3.8h7.5v3.8h3.8v7.5h-7.5v-3.8h-3.8v-3.8h-3.8v-3.8h-3.8v11.2h-7.5Z"/>
          <path d="M653.2,283.9v-3.8h-3.8v-3.8h-3.8v-18.8h3.8v-3.8h3.8v-3.8h3.8v-3.8h18.8v3.8h3.8v3.8h3.8v18.8h-3.8v3.8h-3.8v3.8h-3.8v3.8h-18.8ZM668.2,276.4v-3.8h3.8v-3.8h3.8v-11.2h-3.8v-3.8h-11.2v3.8h-3.8v3.8h-3.8v11.2h3.8v3.8h11.2Z"/>
          <path d="M734.4,283.9v-37.5h7.5v11.2h3.8v-3.8h3.8v-3.8h3.8v-3.8h7.5v7.5h-3.8v3.8h-3.8v3.8h-3.8v3.8h-3.8v3.8h3.8v3.8h7.5v3.8h3.8v7.5h-7.5v-3.8h-3.8v-3.8h-3.8v-3.8h-3.8v11.2h-7.5Z"/>
          <path d="M782.5,283.9v-37.5h7.5v15h15v-15h7.5v37.5h-7.5v-15h-15v15h-7.5Z"/>
          <path d="M834.4,283.9v-37.5h7.5v26.2h3.8v-3.8h3.8v-3.8h3.8v7.5h-3.8v3.8h-3.8v3.8h-3.8v3.8h-7.5ZM860.6,283.9v-22.5h-3.8v3.8h-3.8v-7.5h3.8v-3.8h3.8v-7.5h7.5v37.5h-7.5Z"/>
          <path d="M890,283.9v-37.5h26.2v7.5h-18.8v30h-7.5Z"/>
          <path d="M938.1,283.9v-37.5h7.5v26.2h3.8v-3.8h3.8v-3.8h3.8v7.5h-3.8v3.8h-3.8v3.8h-3.8v3.8h-7.5ZM964.4,283.9v-22.5h-3.8v3.8h-3.8v-7.5h3.8v-3.8h3.8v-7.5h7.5v37.5h-7.5Z"/>
          <path d="M1023.1,272.7v-7.5h22.5v7.5h-22.5Z"/>
          <path d="M1096.9,283.9v-37.5h7.5v15h15v-15h7.5v37.5h-7.5v-15h-15v15h-7.5Z"/>
          <path d="M1148.7,283.9v-37.5h7.5v26.2h3.8v-3.8h3.8v-3.8h3.8v7.5h-3.8v3.8h-3.8v3.8h-3.8v3.8h-7.5ZM1175,283.9v-22.5h-3.8v3.8h-3.8v-7.5h3.8v-3.8h3.8v-7.5h7.5v37.5h-7.5Z"/>
          <path d="M1219.4,283.9v-15h-7.5v-3.8h-3.8v-3.8h-3.8v-15h7.5v15h7.5v-15h7.5v37.5h-7.5Z"/>
          <path d="M1252.5,283.9v-3.8h-3.8v-33.8h26.2v7.5h-18.8v7.5h18.8v7.5h-18.8v7.5h18.8v7.5h-22.5Z"/>
          <path d="M1296.8,283.9v-37.5h26.2v7.5h-18.8v30h-7.5Z"/>
          <path d="M1352.5,283.9v-3.8h-3.8v-3.8h-3.8v-18.8h3.8v-3.8h3.8v-3.8h3.8v-3.8h18.8v3.8h3.8v3.8h3.8v18.8h-3.8v3.8h-3.8v3.8h-3.8v3.8h-18.8ZM1367.5,276.4v-3.8h3.8v-3.8h3.8v-11.2h-3.8v-3.8h-11.2v3.8h-3.8v3.8h-3.8v11.2h3.8v3.8h11.2Z"/>
          <path d="M1433.7,283.9v-37.5h26.2v7.5h-18.8v7.5h11.2v3.8h3.8v3.8h3.8v7.5h-3.8v3.8h-3.8v3.8h-18.8ZM1448.7,276.4v-3.8h3.8v-3.8h-11.2v7.5h7.5Z"/>
          <path d="M1489.3,283.9v-3.8h-3.8v-3.8h-3.8v-18.8h3.8v-3.8h3.8v-3.8h3.8v-3.8h18.8v3.8h3.8v3.8h3.8v18.8h-3.8v3.8h-3.8v3.8h-3.8v3.8h-18.8ZM1504.3,276.4v-3.8h3.8v-3.8h3.8v-11.2h-3.8v-3.8h-11.2v3.8h-3.8v3.8h-3.8v11.2h3.8v3.8h11.2Z"/>
          <path d="M1541.2,283.9v-3.8h3.8v-30h3.8v-3.8h22.5v37.5h-7.5v-30h-11.2v26.2h-3.8v3.8h-7.5Z"/>
          <path d="M1593.1,283.9v-37.5h7.5v15h11.2v3.8h3.8v3.8h3.8v7.5h-3.8v3.8h-3.8v3.8h-18.8ZM1608.1,276.4v-3.8h3.8v-3.8h-11.2v7.5h7.5Z"/>
          <path d="M1641.2,283.9v-37.5h7.5v30h7.5v-30h7.5v30h7.5v-30h7.5v37.5h-37.5Z"/>
          <path d="M1704.3,283.9v-3.8h-3.8v-33.8h26.2v7.5h-18.8v7.5h18.8v7.5h-18.8v7.5h18.8v7.5h-22.5Z"/>
          <path d="M1748.7,283.9v-37.5h26.2v7.5h-18.8v30h-7.5Z"/>
          <path d="M1804.3,283.9v-3.8h-3.8v-3.8h-3.8v-18.8h3.8v-3.8h3.8v-3.8h3.8v-3.8h18.8v3.8h3.8v3.8h3.8v18.8h-3.8v3.8h-3.8v3.8h-3.8v3.8h-18.8ZM1819.3,276.4v-3.8h3.8v-3.8h3.8v-11.2h-3.8v-3.8h-11.2v3.8h-3.8v3.8h-3.8v11.2h3.8v3.8h11.2Z"/>
        </g>
      </g>
    </g>
  </g>
</svg>