<?xml version="1.0" encoding="UTF-8"?>
<svg xmlns="http://www.w3.org/2000/svg" version="1.1" viewBox="0 0 419 364.8">
  <defs>
    <style>
      .cls-1 {
        fill: #feb39c;
      }

      .cls-2 {
        fill: #5661ee;
      }

      .cls-3 {
        fill: #fff;
      }

      .cls-4 {
        fill: #15bbab;
      }

      .cls-5 {
        fill: #fc625d;
      }

      .cls-6 {
        fill: #fed45e;
      }
    </style>
  </defs>
  <!-- Generator: Adobe Illustrator 28.7.1, SVG Export Plug-In . SVG Version: 1.2.0 Build 142)  -->
  <g>
    <g id="_Слой_1" data-name="Слой_1">
      <path d="M112.8,101.9c8.6-.5-1.5,10-3.6,11.9-8.9,1.8,1.2-10.1,3.6-11.9Z"/>
      <path d="M66.7,116.5c2.7-.1,21.5,1.5,13.9,7.3-2.8.2-19.9-1.6-13.9-7.3Z"/>
      <path d="M86.2,91.8c3.5,0,10,13,5.7,17.3-4.9,1-8.5-15-5.7-17.3Z"/>
      <path class="cls-5" d="M203.8,138.5c2.7-1.4,36.1-1.3,38.9-.9-8.9,6-17.4,6.6-28,4.5-3.9-.7-7.3-3-10.9-3.6Z"/>
      <path class="cls-4" d="M410.2,159.4c10.3,7,8.6,22.5,8.6,33.2v54.3c0,3.7.3,7.4,0,11.1-2.2,19.8-26.9,16.2-40.5,16.1-12.4,0-26.8,2.3-33.7-11,11.5-.3,36.3,1.6,46.4-.8,23-5.3,19.4-27.1,19.4-44.8,0-19.4-.4-38.9,0-58.2Z"/>
      <path d="M201.3,132.9c12.8,1,28.3-.5,41.4-.5,15.3,1.5,22.6,8.1,27.9,21.6.4,4.9,6.3,34.4-2,27-2.5-5.6.8-27.4-6.3-32.5-3.7-7-11.8-11.3-19.6-10.9-2.7-.4-36.1-.4-38.9.9-3.5-.3-7.1,0-10.6.1l-106,3.1c-13.6.4-27.2,1.1-40.9.9-12.8-.2-25.2-2-34.6,8.9-11.3,13.1-3.2,27.8-6.5,36.7-1.1,2.8-3.9,2-4.4-.6-1.8-9.5-.5-28.8,4.7-36.4,12.5-18.1,35.3-13.3,54.9-13.7l124.5-3.6c5.5-.2,11,0,16.4-1.1Z"/>
      <path d="M356.6,32.8c-37.6-36.8-98.1-36-134.5,1.9-18,18.7-27.2,43.1-29.4,68.7-.2,1.9,0,9-1.1,10.5-3.8,4.7-6-2.6-2.6-21.5,5.3-30.1,18.3-55.3,43.7-73.1,56.9-39.9,123.7-13.8,152,45.6,1.5.9,2.4,2.8,3.3,4.3,10.5,17.4,17.4,56.7,15.6,78.1,3.2,3.7,4.8,7.9,6.7,12.3-.3,19.4,0,38.9,0,58.2,0,17.7,3.6,39.4-19.4,44.8-10.1,2.3-34.8.4-46.4.8-25.5-8.3-20.3-29.1-20.3-50v-33.3c0-17.1-2.1-35.9,19.8-39.6.2-25.4-.5-56.6-22.5-73.7-43.2-15.9-71,13.1-77.1,55.3-.5,3.4-.8,7.2-1.8,10.5-13.1,0-28.7,1.5-41.4.5-.4-48.3,16.2-95.1,65.6-113.3,25.4-9.4,58.9-7.5,81.8,7.9,2.6,1.7,5,4,7.9,5.3ZM337.1,253.7c-.4-3.3,0-6.9,0-10.2v-55.2c0-16.3-1-33.4,21.2-36.5-.6-2.3-.3-4.3,0-6.6-32.8-1.7-29.4,11.5-29.4,40v46.4c0,9.4.2,15.5,8.2,22.2ZM339,79.6c9.3,19,9.6,40,9.6,60.7,2.7,0,5.4-.2,8,0,.6-8.3-2-26-4.1-34.1-1.4-5.4-9-24.9-13.5-26.6Z"/>
      <path class="cls-1" d="M358.3,145.2h19.6c9.7,0,18.5-.7,24.4,8.1-1.8-.4-3.4-1.3-5.3-1.6-8.1-1.1-30.6-.8-38.7,0-.6-2.3-.3-4.3,0-6.6Z"/>
      <path class="cls-1" d="M384.6,64.7c1.5.9,2.4,2.8,3.3,4.3,10.5,17.4,17.4,56.7,15.6,78.1-3-2.7-6-4.4-9.6-6.1,2.5-27.5,0-50.6-9.3-76.2Z"/>
      <path class="cls-4" d="M358.3,151.8c8.1-.8,30.6-1.2,38.7,0,1.9.3,3.5,1.2,5.3,1.6,4.8,6.8,3.1,18.4,3.2,26.2v49.1c0,4.3.4,8.8-.4,13-3.6,20-25,16.6-39.6,16.6-9.2,0-20.8,2.2-28.4-4.5-.4-3.3,0-6.9,0-10.2v-55.2c0-16.3-1-33.4,21.2-36.5Z"/>
      <path class="cls-3" d="M378.8,191.5c12.1,2.3,7.7,17.9-1.8,22.5v24.4c-4.2,3.8-8.5,2.4-7.7-3.9,1-5.6-1.3-20.9.6-25.2,5.9-4.3,11.5-9.1,7.1-16.6.7-.3,1.2-.7,1.8-1.2Z"/>
      <path d="M364.7,211c-23.6-14,5.2-38.7,14.1-19.5-.6.5-1,.9-1.8,1.2,4.3,7.4-1.2,12.3-7.1,16.6-1.9,4.2.4,19.6-.6,25.2-1.5.3-3.1.5-4.2-.6-1-2.7-.4-18.8-.4-22.9Z"/>
      <path class="cls-4" d="M369.4,207c-10.3-3.5-12.5-14-3.8-17.1,4.2-1.5,7.8,1.1,11.4,2.9,4.3,7.4-1.2,12.3-7.1,16.6-.1-.8-.4-1.6-.6-2.3Z"/>
      <path class="cls-5" d="M201.3,132.9c-.4-48.3,16.2-95.1,65.6-113.3,25.4-9.4,58.9-7.5,81.8,7.9,2.6,1.7,5,4,7.9,5.3,24.4,21.5,34.1,61.5,33.1,92.7-.2,4.9-.6,9.9-.2,14.8h-22.3c-3.5,0-7.1.3-10.6,0,.6-8.3-2-26-4.1-34.1-1.4-5.4-9-24.9-13.5-26.6-2-2.6-3.7-5.5-5.7-8.1-28-36.4-80.3-28.4-97.6,14.1-1.6,4-6.4,17.5-6.7,20.9-.4,4.6,4,6,5.2,1,7.7-32.8,27.4-61,65-52.8,5.9,1.3,19.2,6.7,22.3,11.9-43.2-15.9-71,13.1-77.1,55.3-.5,3.4-.8,7.2-1.8,10.5-13.1,0-28.7,1.5-41.4.5Z"/>
      <path class="cls-2" d="M20.9,340.8c-4.7-42.4-4.9-85.1-4.9-127.7v-21.9c0-16,.4-37.4,22.2-38.5,7-.4,14.2.4,21.2.6,53.6,1.3,109.2-2,163-4.4,14.3-.6,26.2-5.9,39.5-.6l.5.2c7.1,5,3.8,26.9,6.3,32.5,8.3,7.4,2.3-22,2-27,13.6,14.9,9.9,40.5,10.6,59.4l1.8,64.4c.4,10.4.5,20.7.5,31.1,0,36.6-4.2,44.6-41,48.5-47.8,5.1-91.7,6.8-139.4,6.8-24.1,0-54.5,4.6-73.5-11.9-2.2-1.9-5-2.9-7.4-4.4-19.9-12.1-18.1-33.1-18.7-53L.8,221.9c0-1.3-2.7-25.2,3.4-20.2,2.3,2,1.6,14.6,1.7,17.7l1.8,53c.7,21.4-3.3,53.5,13.2,68.5ZM122,303.8c4.2,0,8.4.2,12.6,0,8.8-1,14.7,2.7,13.6-8.8-1-10.9-5.1-41.2-.7-49.7,6.4-12.6,17.7-11.7,10.2-34.3-21.3-39.1-70.5-5.8-52.5,25.4,3.6,6.2,11.1,9.9,12.3,17.4,1.7,10.6-5.8,39.5-3,48.2.7,2.3,5.6,1.6,7.4,1.7Z"/>
      <path d="M268.6,191.5c7.1-.8,4.4,12,4.5,18l.8,80.4c0,4.4,1.8,19.5-1,21.9-5-.3-3.5-5.9-3.6-9.6-.2-8.3,0-16.6-.1-24.8l-.6-52.5c0-4.9-1.7-30.8,0-33.4Z"/>
      <path class="cls-6" d="M157.7,211c10,6.3,12,22.4,5.9,31.9-2.6,4-6.2,7-8.2,11.5-5,11.2-.2,39.3-.2,53.8-1.9,3.2-11.5,1.5-14.5.6-6.2-.2-12.5-1.3-18.7-.6v-4.3c4.2,0,8.4.2,12.6,0,8.8-1,14.7,2.7,13.6-8.8-1-10.9-5.1-41.2-.7-49.7,6.4-12.6,17.7-11.7,10.2-34.3Z"/>
      <path d="M29.5,352.3c-2.2-1.9-5-2.9-7.4-4.4-19.9-12.1-18.1-33.1-18.7-53L.8,221.9c0-1.3-2.7-25.2,3.4-20.2,2.3,2,1.6,14.6,1.7,17.7l1.8,53c.7,21.4-3.3,53.5,13.2,68.5,9.1,9.2,27.4,8.6,39.3,9.2,55.3,2.6,117.4-.9,172.7-5.9,15-1.4,27.8-4.4,34.6-20.3,4.9-11.4,6.3-1.9,6-.7-2.2,8-10.3,16.4-17.5,20.4-13.2,7.3-66.5,8.4-82.6,9.4-43.5,2.7-87.3,4.3-130.8,1.1-4-.3-9.2-2.3-13-1.7Z"/>
      <path d="M122,303.8c-1.8,0-6.7.6-7.4-1.7-2.8-8.7,4.8-37.7,3-48.2-1.2-7.5-8.7-11.2-12.3-17.4-18.1-31.2,31.1-64.6,52.5-25.4,7.5,22.6-3.8,21.7-10.2,34.3-4.3,8.5-.3,38.8.7,49.7,1.1,11.6-4.8,7.8-13.6,8.8-4.2.2-8.4,0-12.6,0ZM115.1,240.5c-2.6-16.3,8.4-32.8,25.8-33,3.1,0,6.2.5,9.2.2-20.6-25.7-61.7,7-35,32.8ZM122.8,256.1c-.5,14.1-4,28.7-3.1,42.7,2.4,0,5-.2,7.4,0,.5-8.4,8-41-4.3-42.7Z"/>
      <path class="cls-6" d="M115.1,240.5c-2.6-16.3,8.4-32.8,25.8-33,3.1,0,6.2.5,9.2.2,13.8,20.6-4.6,26.4-8.2,38.8-3.9,13.1,1.9,37.6,1.2,52.4-4.4.2-12,1.1-16,0,.5-8.4,8-41-4.3-42.7-.7-6.7-3.4-10.7-7.8-15.6Z"/>
    </g>
  </g>
</svg>