<?xml version="1.0" encoding="utf-8" ?>
<svg xmlns="http://www.w3.org/2000/svg" xmlns:xlink="http://www.w3.org/1999/xlink" width="533" height="533">
	<path fill="#2566A2" transform="scale(1.04176 1.04176)" d="M262.204 193.297C263.859 195.525 249.776 203.781 247.382 205.352L247.168 205.054C247.396 201.3 258.886 194.365 262.204 193.297Z"/>
	<path transform="scale(1.04176 1.04176)" d="M203.488 218.491C209.696 220.202 202.174 226.171 199.643 227.425C193.044 227.128 200.81 219.796 203.488 218.491Z"/>
	<path transform="scale(1.04176 1.04176)" d="M247.382 190.752C256.347 193.368 230.25 204.415 226.963 206.505C223.761 208.541 216.449 214.236 213.304 215.076C202.907 211.217 239.925 193.247 247.382 190.752Z"/>
	<path fill="#FED45E" transform="scale(1.04176 1.04176)" d="M268.251 380.441C274.298 385.429 277.558 397.941 278.258 405.378C281.635 441.281 246.546 468.993 212.775 451.878C208.471 449.697 205.42 447.37 202.246 443.822C214.491 447.37 221.97 450.259 235.544 446.736C260.457 440.271 275.55 416.65 271.068 391.366C270.413 387.669 269.206 384.069 268.251 380.441Z"/>
	<path fill="#FC625D" transform="scale(1.04176 1.04176)" d="M342.075 108.045C357.863 124.428 363.619 145.965 364.727 167.973C364.684 169.152 364.533 170.435 364.727 171.599L364.662 171.981C363.574 178.717 363.902 184.997 362.271 192.138C355.144 223.342 330.117 249.592 302.417 264.542C287.031 272.847 270.622 278.771 267.523 299.508C266.857 303.966 268.127 308.057 268.622 312.439C270.034 324.943 263.683 337.076 251.683 341.261C243.624 344.071 237.555 341.792 229.522 341.357C218.163 340.741 212.084 342.774 203.488 333.093C208.781 333.492 213.62 332.259 218.843 332.266C233.58 332.287 247.473 338.413 256.553 318.972C260.974 309.505 257.065 301.566 258.557 291.949C260.49 279.488 271.649 267.167 282.49 261.635C307.96 248.637 326.808 235.125 342.601 210.025C360.482 181.605 361.653 148.628 347.241 118.788C345.547 115.28 342.789 111.942 342.075 108.045Z"/>
	<path transform="scale(1.04176 1.04176)" d="M202.246 443.822C166.394 425.629 164.306 377.398 198.185 356.966C219.261 344.256 248.554 350.383 262.504 370.677C264.637 373.779 266.304 377.216 268.251 380.441C269.206 384.069 270.413 387.669 271.068 391.366C275.55 416.65 260.457 440.271 235.544 446.736C221.97 450.259 214.491 447.37 202.246 443.822ZM194.257 432.752C194.083 431.499 192.848 430.098 192.206 429.002C186.537 419.321 185.523 404.916 188.409 394.258C195.239 369.042 224.909 355.132 247.925 365.762C250.417 366.913 255.122 371.02 257.463 371.192C243.798 353.284 214.741 349.991 197.036 363.573C175.33 380.224 171.807 415.824 194.257 432.752Z"/>
	<path fill="#FED45E" transform="scale(1.04176 1.04176)" d="M194.257 432.752C194.083 431.499 192.848 430.098 192.206 429.002C186.537 419.321 185.523 404.916 188.409 394.258C195.239 369.042 224.909 355.132 247.925 365.762C250.417 366.913 255.122 371.02 257.463 371.192C258.915 372.638 260.069 374.613 261.1 376.374C278.351 405.85 258.63 443.95 224.116 443.896C216.915 443.885 197.804 439.691 194.257 432.752Z"/>
	<path transform="scale(1.04176 1.04176)" d="M136.559 205.352C127.829 198.74 126.238 195.906 115.836 191.502C93.1225 181.886 87.2449 165.174 92.4112 141.115C108.35 66.8938 191.87 37.0563 259.769 51.9009C284.791 57.3715 313.45 71.0776 330.55 90.8554C335.208 96.2433 338.284 102.123 342.075 108.045C342.789 111.942 345.547 115.28 347.241 118.788C361.653 148.628 360.482 181.605 342.601 210.025C326.808 235.125 307.96 248.637 282.49 261.635C271.649 267.167 260.49 279.488 258.557 291.949C257.065 301.566 260.974 309.505 256.553 318.972C247.473 338.413 233.58 332.287 218.843 332.266C213.62 332.259 208.781 333.492 203.488 333.093C197.007 332.943 189.598 327.687 185.985 322.58C178.545 312.062 183.628 299.347 183.078 287.603C182.472 274.668 178.883 271.373 181.529 255.847C182.025 252.936 189.08 224.663 194.506 233.018C194.677 234.804 190.271 242.723 189.323 245.049C181.019 265.426 187.155 272.437 187.338 289.989C187.497 305.168 181.991 319.698 199.643 326.828C204.245 330.143 214.605 327.519 220.082 327.704C225.089 327.873 230.247 329.689 235.249 329.146C246.203 327.956 254.624 318.666 254.2 307.446C253.966 301.26 252.523 296.962 253.957 290.542C260.002 263.464 279.146 260.041 297.821 248.144C337.406 222.925 364.597 176.398 346.77 129.886C345.101 125.53 343.224 121.094 340.712 117.154C339.381 113.867 335.573 105.414 333.139 103.152C329.611 101.411 325.977 95.7053 323.03 92.8448C271.321 42.6446 160.79 52.734 120.088 113.324C109.753 128.709 100.642 152.803 104.376 171.364C105.408 176.493 108.222 179.257 109.424 183.101C113.149 186.098 121.704 188.471 126.48 191.209C132.087 194.425 136.034 200.547 142.484 202.172C155.091 205.349 161.298 192.969 167.77 185.021C174.182 177.147 178.278 176.98 176.808 165.617C171.96 128.16 215.983 116.433 245.25 124.043C256.766 127.037 263.916 132.071 269.899 142.305C274.306 153.249 273.928 165.469 268.028 175.856C266.267 178.957 260.226 187.604 256.721 188.447C255.689 188.695 253.794 188.521 253.876 187.082C254.104 183.093 268.726 175.96 268.279 156.12C268.179 151.713 267.564 145.359 264.012 142.305C261.854 141.891 257.596 139.763 254.116 138.978C231.731 133.928 196.78 135.707 190.361 163.034C188.424 171.279 193.291 180.392 188.13 187.86C186.904 189.633 167.811 211.701 167.335 212.003C154.9 219.901 145.187 215.472 136.559 205.352ZM109.424 183.101C108.222 179.257 105.408 176.493 104.376 171.364C100.642 152.803 109.753 128.709 120.088 113.324C160.79 52.734 271.321 42.6446 323.03 92.8448C325.977 95.7053 329.611 101.411 333.139 103.152C315.501 77.3307 283.406 61.474 253.325 55.7676C189.941 43.7431 109.96 73.5676 96.8213 143.391C94.442 156.035 95.8748 176.692 109.424 183.101Z"/>
	<path fill="#5661EE" transform="scale(1.04176 1.04176)" d="M136.559 205.352C138.58 205.786 140.533 206.507 142.558 206.914C157.921 209.994 164.016 197.717 171.544 188.215C178.014 180.049 182.871 178.084 181.708 166.889C181.093 160.967 180.438 155.753 182.556 150.01C193.13 121.336 253.773 119.362 264.012 142.305C261.854 141.891 257.596 139.763 254.116 138.978C231.731 133.928 196.78 135.707 190.361 163.034C188.424 171.279 193.291 180.392 188.13 187.86C186.904 189.633 167.811 211.701 167.335 212.003C154.9 219.901 145.187 215.472 136.559 205.352Z"/>
	<path fill="#5661EE" transform="scale(1.04176 1.04176)" d="M109.424 183.101C108.222 179.257 105.408 176.493 104.376 171.364C100.642 152.803 109.753 128.709 120.088 113.324C160.79 52.734 271.321 42.6446 323.03 92.8448C325.977 95.7053 329.611 101.411 333.139 103.152C335.573 105.414 339.381 113.867 340.712 117.154C337.709 116.219 334.779 115.011 331.726 114.248C311.866 109.284 288.697 120.853 282.582 140.836C280.555 147.461 281.487 154.44 280.01 159.289C278.699 154.542 273.913 143.937 269.899 142.305C263.916 132.071 256.766 127.037 245.25 124.043C215.983 116.433 171.96 128.16 176.808 165.617C178.278 176.98 174.182 177.147 167.77 185.021C161.298 192.969 155.091 205.349 142.484 202.172C136.034 200.547 132.087 194.425 126.48 191.209C121.704 188.471 113.149 186.098 109.424 183.101Z"/>
	<path fill="#FC625D" transform="scale(1.04176 1.04176)" d="M280.01 159.289C281.487 154.44 280.555 147.461 282.582 140.836C288.697 120.853 311.866 109.284 331.726 114.248C334.779 115.011 337.709 116.219 340.712 117.154C343.224 121.094 345.101 125.53 346.77 129.886C364.597 176.398 337.406 222.925 297.821 248.144C279.146 260.041 260.002 263.464 253.957 290.542C252.523 296.962 253.966 301.26 254.2 307.446C254.624 318.666 246.203 327.956 235.249 329.146C230.247 329.689 225.089 327.873 220.082 327.704C214.605 327.519 204.245 330.143 199.643 326.828C193.649 309.59 198.143 306.879 196.785 290.856C196.155 283.422 193.827 276.431 194.233 268.881C197.314 211.508 256.979 215.368 275.978 182.307C279.645 175.927 281.958 166.568 280.01 159.289Z"/>
	<path fill="#15BBAB" transform="scale(1.04176 1.04176)" d="M364.727 167.973C368.986 166.76 377.937 172.199 381.742 174.315C394.455 181.385 419.18 203.788 422.858 218.491C425.509 220.663 427.018 223.778 428.571 226.77C446.822 261.956 442.703 306.588 417.315 337.417C383.595 378.363 324.664 385.299 279.962 358.837C275.268 356.058 270.965 352.672 266.505 349.537C263.121 347.528 259.337 344.85 256.494 342.13L256.51 341.732L257.463 341.249C258.609 340.059 259.742 338.914 261.018 337.861C262.516 335.889 264.466 334.261 265.981 332.276C274.362 321.294 269.013 312.809 269.877 302.457C271.631 281.423 289.241 275.331 304.091 266.887C339.761 246.602 363.401 217.121 367.148 175.96C375.479 178.182 386.562 184.573 393.362 189.838C395.134 191.209 401.262 197.497 402.855 197.679C390.717 183.619 379.945 179.414 364.727 171.599C364.533 170.435 364.684 169.152 364.727 167.973Z"/>
	<path transform="scale(1.04176 1.04176)" d="M378.908 346.223C383.585 346.232 382.175 350.618 378.908 352.009C374.124 351.992 374.899 347.357 378.908 346.223Z"/>
	<path transform="scale(1.04176 1.04176)" d="M413.505 312.213C417.88 313.401 416.77 316.853 413.505 318.999C408.262 319.169 409.875 313.845 413.505 312.213Z"/>
	<path transform="scale(1.04176 1.04176)" d="M406.264 322.46C417.299 325.171 390.344 344.771 387.727 346.223C378.139 346.443 395.637 333.787 395.893 333.542C399.513 330.073 402.5 325.642 406.264 322.46Z"/>
	<path transform="scale(1.04176 1.04176)" d="M261.018 337.861C267.102 341.613 272.556 345.903 278.893 349.355C303.329 362.669 334.592 365.062 360.609 354.66C362.734 353.81 371.842 348.276 372.699 352.949C373.21 355.736 367.882 357.317 366.029 358.062C332.941 371.373 297.535 367.657 267.451 348.153C264.079 345.906 260.724 343.656 257.463 341.249C258.609 340.059 259.742 338.914 261.018 337.861Z"/>
	<path transform="scale(1.04176 1.04176)" d="M364.727 167.973C368.986 166.76 377.937 172.199 381.742 174.315C394.455 181.385 419.18 203.788 422.858 218.491C423.038 220.357 425.333 224.43 426.096 226.416C435.802 251.665 432.095 284.051 420.91 308.038C419.51 311.042 414.716 309.829 417.202 303.771C430.787 270.665 431.329 236.117 409.463 205.72C407.487 202.972 405.426 199.886 402.855 197.679C390.717 183.619 379.945 179.414 364.727 171.599C364.533 170.435 364.684 169.152 364.727 167.973Z"/>
</svg>
