<?xml version="1.0" encoding="UTF-8"?>
<svg xmlns="http://www.w3.org/2000/svg" version="1.1" viewBox="0 0 286 227.6">
  <defs>
    <style>
      .cls-1 {
        fill: #010101;
      }

      .cls-2 {
        fill: #14bbab;
      }
    </style>
  </defs>
  <!-- Generator: Adobe Illustrator 28.7.1, SVG Export Plug-In . SVG Version: 1.2.0 Build 142)  -->
  <g>
    <g id="_Слой_1" data-name="Слой_1">
      <path class="cls-1" d="M107.6,70.8c.4.9,0,2.3,0,3.3-2,.5-4.1.8-6.2,1.1-.5-.8,0-2.9,0-3.9,2-.3,4.1-.4,6.2-.5Z"/>
      <path class="cls-1" d="M156.3,66.3V28.7c0-5.8-.7-12.9.5-18.5,1.9-9.2,13.4-13.3,21-7.6,3.8,2.9,7.1,6.7,10.5,10.1l64.1,63.7c7.5,7.5,26.3,22.2,26.5,32.6-1.7,7.2-13.6,16.7-19.1,22.3l-37.2,38.1c-4,4.1-9.9,9.3-13.1,13.8-.8.7-1.6,1.4-2.3,2.2-.8-.7-1.7-1.4-2.5-2.2,4.3-6.2,10.5-11.8,15.7-17.2l22.4-23.1c6-6.1,12.1-12,18-18.2,3.8-4,15-12.2,14.3-18.3-1.7-5.7-8.6-10.7-12.7-14.8l-14.7-14.8c-17.8-18-35.7-35.9-53.8-53.5-5.5-5.4-25.2-31-33-14.7-2,4.1-1.1,53.1-1,60.8-9.2,2.4-38.7,3.9-49.1,4.7,0-1.1,0-2.2,0-3.3,4.3-1.1,8.9-1.3,13.2-1.6l17.8-1.5c4.8-.4,9.7-.6,14.5-1.4Z"/>
      <path class="cls-2" d="M278.8,109c5.4,1.9,8.6,8.1,6.7,13.6-1.8,5-19.9,21.6-24.3,26.2l-61,62.8c-4,4.1-10.8,12.9-16.1,15.2-5.5,2.4-15,.2-15-7,6.8-.3,9.5-3.7,13.9-8.2,3.8-.3,25.1-22.4,28.4-26.7l-2-1.5c3.2-4.5,9.1-9.7,13.1-13.8l37.2-38.1c5.5-5.6,17.4-15.1,19.1-22.3Z"/>
      <path class="cls-1" d="M98.8,71.3c-.2,1.3,0,2.5,0,3.9-20.6,3-43.7,4.3-64.7,6.5-8.7.9-28.4-.4-29.9,11.7-.5,4.2-.6,29.8.5,32.6,1.4,3.5,4.6,5.3,7.9,6.8,7.3,1.8,17.5,2.2,25.3,3.2l110.4,13.6c3.6.5,11.6-.3,11.6,3.8v36.6c0,9.9-3.4,23.8,9.2,25.8,7.8-1.2,20.5-16.7,26.5-23.4.6-1.8,7.6-13.4,9-9.2.8.7,1.6,1.5,2.5,2.2.8-.7,1.6-1.4,2.3-2.2l2,1.5c-3.3,4.3-24.6,26.3-28.4,26.7-4.4,4.5-7.1,7.9-13.9,8.2-15-2.2-12.8-14.7-12.8-25.9v-30.5s-114.2-11.8-114.2-11.8c-8-.9-26.9-2-27.7-13.9C-1.3,132.4,0,125.8,0,110.5c0-33.2,4.3-29.4,33.3-32.6,21.6-2.4,44-3.7,65.4-6.6ZM14.4,137.6c.8,11.9,19.7,13,27.7,13.9l114.2,11.8c.1-2.9,0-5.9,0-8.9-10.2-1.6-20.6-2.7-30.8-3.9l-69.5-8.5c-5.7-.7-11.6-1.9-17.3-1.7-6.2-1.7-12.8-2-19.2-2.8-1.7-.2-3.4,0-5.1,0ZM195.6,192.5c2.5-2.5,4.9-5.3,7.5-7.7.8.8,1.7,1.6,2.5,2.4l-14.8,15.9c-2.6,2.8-5.3,5.5-7.8,8.3,3.8-.3,25.1-22.4,28.4-26.7l-2-1.5c-.8.7-1.6,1.4-2.3,2.2-.8-.7-1.7-1.4-2.5-2.2-1.4-4.2-8.4,7.4-9,9.2Z"/>
      <path class="cls-2" d="M14.4,137.6c1.7,0,3.4-.2,5.1,0,6.4.9,13,1.2,19.2,2.8,5.7-.2,11.6,1,17.3,1.7l69.5,8.5c10.2,1.2,20.6,2.2,30.8,3.9,0,2.9.1,5.9,0,8.9l-114.2-11.8c-8-.9-26.9-2-27.7-13.9ZM19.5,137.6c1.1,1.1,2.2,2,3.6,2.8,2.7,0,14.2.5,15.6,0-6.2-1.7-12.8-2-19.2-2.8Z"/>
      <path class="cls-2" d="M12.6,132.8v-17.1c0-25.3.9-23.3,23.2-25.2l81.4-7.6c7.6-.7,15.2-1.5,22.7-2,29.9-1.9,29.2,2.6,29.2-25.1v-27.2c0-3.4-.5-8.2.5-11.4,3.8-12.1,12.2-.7,16.4,3.3,5.8,5.6,11.6,11,17.3,16.7l49.9,49.6c3.8,3.8,17.7,18.9,21.9,19.7.7,6.1-10.5,14.3-14.3,18.3-5.9,6.2-12,12.1-18,18.2l-22.4,23.1c-5.3,5.4-11.4,11-15.7,17.2-1.4-4.2-8.4,7.4-9,9.2-6,6.7-18.7,22.2-26.5,23.4-12.6-2.1-9.2-15.9-9.2-25.8v-36.6c0-4-8-3.3-11.6-3.8l-110.4-13.6c-7.7-1-18-1.4-25.3-3.2ZM159.8,153.4v36.6c0,9.9-3.4,23.8,9.2,25.8v-36.7c0-9.9,3.7-24.6-9.2-25.8Z"/>
    </g>
  </g>
</svg>