<?xml version="1.0" encoding="UTF-8"?>
<svg xmlns="http://www.w3.org/2000/svg" version="1.1" viewBox="0 0 253.3 374.3">
  <defs>
    <style>
      .cls-1 {
        fill: #010101;
      }

      .cls-2 {
        fill: #3342b8;
      }

      .cls-3 {
        fill: #fff;
      }

      .cls-4 {
        fill: #fc625d;
      }

      .cls-5 {
        fill: #14bbab;
      }

      .cls-6 {
        fill: #5762ee;
      }
    </style>
  </defs>
  <!-- Generator: Adobe Illustrator 28.7.1, SVG Export Plug-In . SVG Version: 1.2.0 Build 142)  -->
  <g>
    <g id="_Слой_1" data-name="Слой_1">
      <path class="cls-4" d="M246.7,48.6c8.3,4.7,6.5,11,6.5,19.2-.1,15.6,3.6,28.4-17.5,28.3v-1.7c-.3-2.6-.1-5.3,0-7.9,14.7-4.3,10.7-25.5,11-37.8Z"/>
      <path class="cls-1" d="M56.7,34.8c3.7-6.3,7-12.8,10.5-19.2C77.4-3.2,80.9,0,99.7.5l53.9,1c7.5.2,16.3-.9,21.6,5.5,3,3.6,14,24.7,15.7,29.4h24.1c11.8,0,28-2.7,31.6,12.2-.3,12.3,3.7,33.5-11,37.8-.1,2.6-.3,5.3-.1,7.9v1.7c-1.8,7.2-1.8,16.3-2.3,23.8l-17.3,214.2c-1.4,16.9-2.3,36.3-25.3,38.7-13.1,1.4-30.7,0-44.3.3-21.8.5-42.7.8-64.7.9-8.4,0-17.5,1.4-25.7-.8-22.6-5.9-21.1-29-22.6-47.5l-16.3-183.4c-.4-4.2-4.4-46.6-4.1-47.8.5-1.7,2.4-1.9,3.9-1.4,1.5,2,2.5,23.7,2.8,27.7l18.6,210.9c1.3,15.3-.1,32.4,18.4,37.1,3.1,2.1,11.5,1.1,15.1,1.1l106.9-1.4c3.4,0,6.9-.2,10.3.1l2,.2c20.5-4.5,19.7-20,21-36l17.7-222.8c.6-7.3,1-14.6,1.8-21.9l-199,2.5c-25.4.5-33.3.2-32.4-28.2.7-24,3.2-28,28.1-27.6,9.4.2,19.2.7,28.6,0ZM10,83.6c-.5-4.8-.1-9.6,0-14.4.4-26.9,7.8-20.8,31.2-22.3,29.5-1.9,59-2.9,88.5-4.9,4.6-.3,16.8-.3,20.4-1.4-8.3-.3-16.7-.2-25-.4l-95.2-1c-20,0-24.7-1.6-25.3,20.5-.2,8.2-2.7,18.8,5.6,23.9ZM62.1,34.8c3.1.5,6.4.8,9.5.8,2.7-5.6,9.8-20.8,14.4-24.2,2.8-2.1,33.3-1,38-.9h25.6c7.9,0,15.5-.2,23.3,1.1-5.6-8.6-25.6-5.5-35.7-5.7l-39-.7c-7.9-.1-17.2-3-22.5,4.6-4.1,5.9-10.6,18.3-13.7,25.2ZM192.4,43.1c9.5-1.8,41.5,2.1,46.5,0-5.5-3.1-37.4-2.8-46.2-2.2-.4.6-.3,1.5-.2,2.2Z"/>
      <path class="cls-4" d="M71.6,35.6c2.7-5.6,9.8-20.8,14.4-24.2,2.8-2.1,33.3-1,38-.9h25.6c7.9,0,15.5-.2,23.3,1.1,3,3.8,10.9,19.5,13.4,24.9-8.8.5-17.6,0-26.4,0l-52.2-.7c-12-.2-24.2-.7-36.1-.2Z"/>
      <path class="cls-4" d="M150,40.5c13.3-.1,26.5,0,39.8,0,.3.9,1.2,4,2.7,2.5,9.5-1.8,41.5,2.1,46.5,0,6.1,3.8,4.1,26.3,3.1,31.8-2.5,12.8-25.6,8.6-35,8.7l-170,2.9c-5.8,0-23,2-27-2.9-.5-4.8-.1-9.6,0-14.4.4-26.9,7.8-20.8,31.2-22.3,29.5-1.9,59-2.9,88.5-4.9,4.6-.3,16.8-.3,20.4-1.4Z"/>
      <path class="cls-6" d="M23.5,98.9c10.8.6,21.9-.3,32.7-.6l50.6-1.2c39.8-1.1,78.8-1.1,118.6-1,0,5.3-.9,10.6-1.3,15.9l-16.4,208.3c-1.3,14.4.1,32.8-11.1,43.7-.7.7-7.7,4.3-5.7,4.7l-2-.2c-3.4-.3-6.9-.1-10.3-.1l-106.9,1.4c-3.6,0-12,1-15.1-1.1-.4-.7-6.4-4.5-8.7-7.5-3.7-8.3-5.6-47-6.5-57.5L23.5,103.6c0-1.6,0-3.1,0-4.7ZM180.2,199.2c-.8,3.5,6.1,10.7,8.2,15.3h-.7c-4.2-.2-8.5-.2-12.8,0-.4-1.7-1-5.7-3.5-4.9-2.7.8.6,8.1.9,10,2.3,13.9-3.9,29.2-16.9,35.4,0-2.8,1-16.3-5.2-10.6-6.6,6.2-12.6,13.8-19.5,20.3l-2.8,3.8c.9,2.9,15.7,14.5,18.7,17.2,1.8,1.6,10.5,12.1,12.7,7.3-.5-4.7-1.1-9.5-.8-14.3,2.8-1.3,5.8-2.2,8.7-3.5,23.5-10.5,32-33.4,26.3-57.9-3.1-7.9-5.3-11.5-10.5-18.2-1-.1-1.8-.1-2.8,0ZM193.5,217.4c5.7,24.4-2.8,47.4-26.3,57.9-2.8,1.3-5.8,2.2-8.7,3.5-.3,4.7.3,9.6.8,14.3.6,1.4,2.3,2,3.6,1.3,1.9-2.2.6-8.7.6-11.6,2.1-.9,4.2-1.6,6.4-2.2,1.1-.6,2.2-1.2,3.4-1.8,1.2-.8,2.7-1.5,4-2.2,18.4-10.6,31.5-43.2,16.1-59.1ZM76.2,282.7c.5,8.9,1.6,18,2.5,26.9.4,4.1,2.7,11.9-.1,15.2.6,3.3,5.9,5.1,5.9.1.1-9.5-1.8-30.6-3.4-40.4-.5-3.2-2.2-2.6-4.9-1.9ZM172.9,289.9c-1,2.9-.9,6.2-1.1,9.2l-.9,14.8c-.2,3.2-.2,6.5-1,9.5-.3,4-.1,5.7,4.2,6,2.3-4.1,3.3-30.1,3.2-35.6,0-3.2-1.4-4.1-4.5-3.9Z"/>
      <path class="cls-3" d="M86.9,225.1c3.5.8,10.9,4.1,14,3.5h.3c10.7,12.8-12-1.3-14.4-3.1v-.5Z"/>
      <path class="cls-2" d="M121.5,201.7c-10.2,1.9-9.1-5.5,0-8.7v8.7Z"/>
      <path class="cls-3" d="M90.2,177.3c5.3,3.8,15.5,13.2,20.7,15.6,0,.7-.3,1.5-1,1.8-4.4-2.8-17-10.9-20.7-14.5l1-2.9Z"/>
      <path class="cls-1" d="M124.3,148c-1.2-.1-2.9,0-3.7-1.1-.2-2.9-.2-16.9,1.2-18.9,1.7-2.5,3.3.9,3.5,2.6-1.1,5.6-.4,11.7-1.1,17.4Z"/>
      <path class="cls-1" d="M178.8,148h-.4c-1.2.3-2.4.6-3.5-.2-.6-1.5-.1-18.1.6-19.7,1-2.4,3.5-.2,3.8,1.6-.8,6-.4,12.2-.5,18.3Z"/>
      <path class="cls-3" d="M118.4,182.5l1.5-.9c4.9-3,10.7-3.4,16.1-2.1-4.6,2.2-9.4,1.9-13.2,6.3-1.6,1.8-6,10.8-8.9,5.5l-1.5-1.5c1.3-2.8,3.8-5.1,5.9-7.2Z"/>
      <path class="cls-3" d="M125.4,130.6c1.7,0,2.8-.2,4.2.9,1,1.9,1.8,20.3-1.6,21.2-1,0-2.1,0-3.1,0h-.5c-.8-1.2-.2-3.4,0-4.7.7-5.7,0-11.8,1.1-17.4Z"/>
      <path class="cls-3" d="M179.3,129.7c1.7,0,3.3.2,5,.9,0,3.3-.6,20.9-1.5,22.9-4.9,3.9-4.4-2.8-4-5.5.1-6-.2-12.3.5-18.3Z"/>
      <path class="cls-1" d="M173.4,278.7c-.2,3.7-.4,7.5-.4,11.2-1,2.9-.9,6.2-1.1,9.2l-.9,14.8c-.2,3.2-.2,6.5-1,9.5-1.1-.1-2.2-.1-3-1-.8-5.4,1.9-36.8,3-42,1.1-.6,2.2-1.2,3.4-1.8Z"/>
      <path class="cls-3" d="M114,257.9c1.5.2,3,.4,4.4.8-.7,3.9-1.6,23.3-3.6,25.1-4.3,1.3-22.8-5.4-26.9-9.9v-.4c4.8,2,18,6.8,21.7,4.8,3-1.6,2.6-15.8,4.3-20.4Z"/>
      <path class="cls-1" d="M78.6,324.8c-1-.3-1.9-.5-2.5-1.5-2.1-3.7-5-47.5-3-48.6,3.7.1,2.7,5.3,3,7.7v.3c.5,8.9,1.7,18,2.6,26.9.4,4.1,2.7,11.9-.1,15.2Z"/>
      <path class="cls-1" d="M74.9,175.5c-5.6,1.5-4.2-5.6-4.6-10.3l-1.6-19.6c-.4-5.4-4.2-19.3,1.5-20.5,1.8,3,5,45.1,4.7,50.3Z"/>
      <path class="cls-3" d="M70.2,125.1c5.3-7.9,6,7.8,6.2,10l1.2,16.6c.3,4,4,25.4,0,25.3-1,0-2.1-.7-2.7-1.6.2-5.3-2.9-47.4-4.7-50.3Z"/>
      <path class="cls-3" d="M125.4,277.1c3.8-.6,4.1,0,4.4,3.8.7,7.5,1,47-.9,49-2.2,2.3-4.1-2.8-4-5,1.5-3,.6-11.1.6-14.6v-24.6c0-2.9,0-5.7,0-8.6Z"/>
      <path class="cls-3" d="M126,193.7c1,.2,2.7.3,3.3,1.3,3.2,5.9-1.6,54.9,1.4,69.6l-2.8,3.8c-.8-.9-1.4-1.3-2.5-1.7.2-5.7,0-11.4,0-17.1v-47.1c0-2.8-.6-6.2.6-8.7Z"/>
      <path class="cls-3" d="M171.1,152.2c8.2-3.7,6.7,4.3,8.3,12.2,1.9,9.1,3.9,19.8,7,28.5,0,2.6-.6,5.5-3.4,6.2-1-.1-1.8-.1-2.8,0-8,1.2-16.8,1.8-24.8,0l1.2-3.2c8.1,0,15.8,0,23.6-2.3-.1-7-6.8-35.5-9.1-41.5Z"/>
      <path class="cls-1" d="M121.5,193c1.8-.9,3.6-1.7,4.5.8-1.2,2.6-.6,6-.6,8.7v47.1c0,5.7.2,11.4,0,17.1-.2,6.1-.7,12.8,0,18.9v24.6c0,3.5,1,11.6-.5,14.6-4.3-.7-3.3-3.4-3.3-7.1v-116s0-8.7,0-8.7Z"/>
      <path class="cls-1" d="M162.8,161.5c1.6-2.4,4.3-11.4,8.3-9.3,2.3,6.1,8.9,34.6,9.1,41.5-7.8,2.3-15.6,2.3-23.6,2.3-5.5-1.5-27.4-3.2-9.9-10.7-3-2.9-6.5-5-10.6-5.8-5.5-1.3-11.3-.9-16.1,2.1l-1.5.9c-1-1-1.7-1.8-2.5-3,10.1-7.3,28.8-5.3,35.6,5.8-1.6,1.6-3.5,2.7-4.9,4.4,9.6,3.1,19.9,2.8,29.7,1.5-2.1-8.3-3.2-16.9-5.3-25.2-1.7-.3-3.9-1.3-5.5-1.9-2.9,4.5-3.3,6.1-7.8,1.9-2.8-.1-6-3-8.6-4.2-20.6-9.1-39.4,4.1-43.3,3-4.4,2.4-9.5,5.6-13.1,9.1,5,4.1,16.2,11.7,19.8,15.7l1.5,1.5c-1,.5-2.2,1-3.1,1.7-5.2-2.4-15.4-11.9-20.7-15.6-1-.9-3-2.3-2.3-4,3.4-7.7,27.3-17.4,36.9-20.6,1,0,2.1,0,3.1,0,11.7,0,20.1,2.6,29.9,8.8,1.5-.6,3.4-.2,5.1,0Z"/>
      <path class="cls-3" d="M157.8,161.5c1.5-.6,3.4-.2,5.1,0l-1.8,2.6c-1-.9-2.1-1.9-3.2-2.6Z"/>
      <path class="cls-3" d="M165.5,164.1c1.1-2.1,2.1-4.4,3.3-6.4,1,2.8,1.7,5.5,2.2,8.4-1.7-.3-3.9-1.3-5.5-1.9Z"/>
      <path class="cls-3" d="M105.9,164.9c16.9-10.2,36.1-11.9,51.9,1.1-2.8-.1-6-3-8.6-4.2-20.6-9.1-39.4,4.1-43.3,3Z"/>
      <path class="cls-5" d="M105.9,164.9c3.9,1.1,22.7-12.2,43.3-3,2.6,1.2,5.7,4,8.6,4.2,4.5,4.1,4.9,2.5,7.8-1.9,1.6.7,3.8,1.6,5.5,1.9,2.1,8.3,3.2,16.9,5.3,25.2-9.8,1.3-20.2,1.6-29.7-1.5,1.5-1.7,3.3-2.9,4.9-4.4-6.8-11.2-25.5-13.2-35.6-5.8.7,1.2,1.5,2.1,2.5,3-2.1,2.1-4.7,4.4-5.9,7.2-3.6-4.1-14.8-11.7-19.8-15.7,3.6-3.4,8.7-6.7,13.1-9.1Z"/>
      <path class="cls-1" d="M180.2,199.2c1-.1,1.8-.1,2.8,0,5.2,6.6,7.4,10.3,10.5,18.2,5.7,24.4-2.8,47.4-26.3,57.9-2.8,1.3-5.8,2.2-8.7,3.5-.3,4.7.3,9.6.8,14.3-2.3,4.7-10.9-5.8-12.7-7.3-3.1-2.7-17.8-14.3-18.7-17.2l2.8-3.8c6.9-6.5,12.9-14.1,19.5-20.3,6.1-5.7,5.1,7.8,5.2,10.6,13-6.2,19.2-21.5,16.9-35.4-.3-1.9-3.6-9.2-.9-10,2.6-.8,3.1,3.3,3.5,4.9,4.2-.2,8.5-.2,12.8,0h.7c-2.1-4.6-9-11.8-8.2-15.3ZM147.8,281.6c2.4,2.4,5,4.5,7.6,6.8-.5-3-.9-5.9-1.5-8.8-2,1-4,1.5-6.1,2.1Z"/>
      <path class="cls-3" d="M132.6,268.5c4.2-6,13.5-14.4,19-20,.4,2.1.5,4.4.7,6.5-.2.3-.3.5-.6.6-4.3,1.7-12.3,11.4-16.5,14.9-1-.5-1.8-1.3-2.6-2Z"/>
      <path class="cls-3" d="M188.4,214.5c7.9,24,1,42.5-19.6,56,.9-2.2,3.6-4.2,5.3-5.9,16.3-16.5,13.4-30.8,13.5-50.1h.7Z"/>
      <path class="cls-5" d="M174.9,214.5c4.2-.2,8.5-.2,12.8,0-.1,19.3,2.8,33.5-13.5,50.1-1.7,1.7-4.3,3.7-5.3,5.9-2.8,1.4-5.6,2.6-8.6,3.4-4.5,1.1-7.6-.2-6.3,5.7-2,1-4,1.5-6.1,2.1-3.9-4-8.5-7.5-12.6-11.2,4.1-3.5,12.2-13.2,16.5-14.9.4-.1.4-.3.6-.6.2,1.9.2,5.1,2.9,4.2,17-5.3,24.5-28.5,19.7-44.7Z"/>
      <path class="cls-1" d="M63,217.4c-1.9-.9-11-2.1-9.4-5.3.9-1.9,25.1-17.1,30.3-19.1,2.5,3.1,19.3,32.7,17.3,35.6h-.3c-3.1.6-10.6-2.7-14-3.5h-.4c-3.1,11,8.8,25.7,19.7,28.8,2.5.7,7.7.5,7.9,4-1.6,4.6-1.2,18.8-4.3,20.4-3.7,2-16.9-2.8-21.8-4.8-2.3-1.6-5-2.8-7.4-4.3-16.2-10.6-23.8-33.6-17.6-51.8Z"/>
      <path class="cls-3" d="M59.8,213c5-5.1,16.1-10.9,22.5-15,.8,1.2,1.6,2.4,2.3,3.7-7.2,2.3-13,8.6-19.8,11.3-1.7,0-3.3.1-5,0Z"/>
      <path class="cls-5" d="M84.6,201.7c3.5,7.6,8.7,14.7,11.7,22.5-3.3-1.2-11.9-6.8-13.2-1.5-4.2,16.9,10.5,33.1,26.9,36-1.2,5.4-1.4,11.1-2.1,16.5-25.4-4.9-48.2-22.6-42.7-50.9,1.1-5.4,4.9-9.4-.5-11.4,6.9-2.7,12.6-9,19.8-11.3Z"/>
    </g>
  </g>
</svg>