<?xml version="1.0" encoding="UTF-8"?>
<svg xmlns="http://www.w3.org/2000/svg" version="1.1" viewBox="0 0 321.3 436.3">
  <defs>
    <style>
      .cls-1 {
        fill: #5661ee;
      }

      .cls-2 {
        fill: #fff;
      }

      .cls-3 {
        fill: #15bbab;
      }

      .cls-4 {
        fill: #fc625d;
      }

      .cls-5 {
        fill: #fed45e;
      }

      .cls-6 {
        fill: #0d9474;
      }

      .cls-7 {
        fill: #fa9a19;
      }
    </style>
  </defs>
  <!-- Generator: Adobe Illustrator 28.7.1, SVG Export Plug-In . SVG Version: 1.2.0 Build 142)  -->
  <g>
    <g id="_Слой_1" data-name="Слой_1">
      <path d="M194.9,61.7c-10-.2-16.6-8.8-3.9-4.9,2.4,1.2,4.3,1.9,3.9,4.9Z"/>
      <path d="M259.7,278.9c-8.7-8.9-22.9-8.1-34.4-8.7-2.7-.2-18.5.3-18.5-2.8,0-3.7,10.3-1.6,12.4-1.5,12.1.6,29.7-.2,40,7.1,6,4.3,22.4,20,23.4,28v.6c-1,.4-2.1.6-3.2.9-2.8-7.5-13.5-19.5-19.6-23.5Z"/>
      <path class="cls-4" d="M46.7,143.9c.2-2.5-2.5-8-3.5-10.5-5.5-14.6-25.6-84.1,1.1-89.6,12.7-2.6,45.7,19,56.7,26.3-5.3,3.8-16.2,18.2-19.1,24.3-4.6-2.4-26-12.5-29.9-12-4.7,3.3,11.2,28.2,15.3,33.9-2.4,4-20.6,27.1-20.7,27.6Z"/>
      <path class="cls-1" d="M44,310.6c2.2,1.3,3.2,2.7,4.1,5.1,2.9,5.4,4.4,11.5,6.3,17.3,4.3,12.8,9.8,25.2,16,37.2,3.1,6,7.1,12.2,8.9,18.7,1.2,4.4,3.6,25.7-1.7,28.2-1.5,4.4-3.1,8.5-6,12.1-7.8,5-17.7-3.3-25-6.1-26.9-10.7-39.9-7.1-37-38.1,2.2-24.2,6.1-49.2,25-66.4,2.9-2.7,7.6-4.1,9.4-7.8Z"/>
      <path d="M77.5,417c-3.2-1.6-1.6-5.5-1.4-8.5,1.2-18.2-3.1-23.3-11-39.1-6.6-13.3-11.9-26.6-16.6-40.6-1-3.1-6.6-12.5-.6-13.1,2.9,5.4,4.4,11.5,6.3,17.3,4.3,12.8,9.8,25.2,16,37.2,3.1,6,7.1,12.2,8.9,18.7,1.2,4.4,3.6,25.7-1.7,28.2Z"/>
      <path class="cls-1" d="M279.2,307.7c1,1.1,2.1,2,3.3,2.9,16.9,17.9,38.6,32.9,37.6,61.3-.1,2.9-1.5,3.6-4.1,3.7.1,4.2-.7,8.2-1.5,12.3-4.3,23.3-9.2,25.4-31.8,30.4-13.7,3-27.3,5.1-41,7.4-1.8-1.8-3.4-3.8-5.4-5.3-1.5-1-2.6-1.7-3.4-3.4-6.5-.8-1.9-17.8-1.1-23.7,4.1-29.6,15.1-50.5,35-72.6,3.9-4.3,7.8-9.4,12.5-12.9ZM279.2,307.7c-4.6,3.5-8.6,8.6-12.5,12.9-19.8,22.1-30.9,43-35,72.6-.8,5.9-5.4,23,1.1,23.7.8,1.7,1.9,2.4,3.4,3.4,3.4-8.5,2.8-18.8,4.3-27.8,5.9-35.1,18.9-50.3,41.9-75.9,11.8,8,30.3,31,32.8,44.4.9,4.9.2,9.7.7,14.5,2.6-.1,4-.9,4.1-3.7,1-28.4-20.7-43.4-37.6-61.3-1.2-.9-2.3-1.8-3.3-2.9Z"/>
      <path d="M279.2,307.7c1,1.1,2.1,2,3.3,2.9,16.9,17.9,38.6,32.9,37.6,61.3-.1,2.9-1.5,3.6-4.1,3.7-.5-4.9.3-9.6-.7-14.5-2.5-13.4-21-36.4-32.8-44.4-23,25.6-36,40.8-41.9,75.9-1.5,9-.9,19.3-4.3,27.8-1.5-1-2.6-1.7-3.4-3.4-6.5-.8-1.9-17.8-1.1-23.7,4.1-29.6,15.1-50.5,35-72.6,3.9-4.3,7.8-9.4,12.5-12.9ZM232.9,417c.8,1.7,1.9,2.4,3.4,3.4,3.4-8.5,2.8-18.8,4.3-27.8,5.9-35.1,18.9-50.3,41.9-75.9l-3.3-3.2c-23.2,23-38.7,46-43.2,79-.8,5.7-1.2,20.2-3.2,24.6Z"/>
      <path d="M175.5,53.9c7.1-13.2,32.7-41.3,45.3-49.6,7.4-4.9,16.4-5.9,24.4-1.5,15.2,8.3,18.7,69.9,19.7,86.6.3,5.5-.4,11.2.2,16.7.4,4.2,3.6,11.5,4.8,16.1,6.2,24.1,7.5,39.4.7,62.8,14.9,2.1,33.2,11.6,44.9,21,1.3,1.1,9,6.1,4.7,8-2,.9-6.1-3.7-7.5-4.9-13.6-11.1-27.1-16.1-43.5-20.7-2.6,7.1-6.4,13.4-9.4,20.2,8.1,3.5,27.5,19.8,31.1,28.5,1,2.4-1.6,3.4-3.3,2-1.8-1.5-4.4-5.7-6.3-7.8-6.7-7.6-14.9-14.9-23.6-20-14.6,19.7-30.3,30-53.7,38.4,0,8.2.2,16.5,0,24.7-5.1,3.5-10.4,6.7-15.5,10.3-27.2,19.2-30.1,21.6-58.6,6.9-5.9-3.1-12.9-6.9-19.4-8.6-5.8-.8-3.4-7.6-3.8-11.6,0,1.4,0,2.7,0,4.1-24.3-1-49.1-.3-62.9,23.1-.9,1.6-1.8,3.4-2.9,4.9.8,1.3,1.6,2.6,1.9,4.1-3,1.7-5.3,1.3-9.6,4.5C-1.8,338.1,8.4,390.6,3.2,397.4c-4.6,1.6-2.9-6.3-2.8-8.6,1.3-28.7,6.9-70.4,37.2-83.5-1.7-1.7-2.9-3-3.9-5.2,1-6.6,6.4-13.2,11-17.8,16.4-16.3,40.3-15.3,61.8-15.2-.2-4,0-7.9,0-11.9-11.3-5.6-19.8-7.3-30.7-15.8-7.6,9-10,17.3-15.4,24.5-1.3,1.8-3.8.6-3.7-1.5.2-4.3,12-21.1,16.7-25.6-6.7-4-11.1-9.8-15.2-16.4-8.7,4.3-19.4,14.1-25.8,21.4-1.8,2.1-8.6,12.2-10.8,12.5-4.3-1.9,1.6-7.7,3.2-9.6,13.6-16.8,25.5-25.2,43.9-34.8,2.1-1.1,9.3-5.9,11.2-2.3-.3,2.4-14.6,8.3-18,10.9l-.4.3c4.5,5.6,7.8,11.1,14.2,14.7,1.5-1.7,8.7-11.5,11.2-8.2,0,3-6.3,8.4-8.2,11.1l-.3.4c8.1,4.2,13.1,8.6,22.6,11.6,1,.8,2.7,1.2,3.9,1.6,35.4,12,79.3,5.8,112.5-10.6,13.4-5.4,26.3-17.2,34.7-28.7-2.1-.2-4.2-1.1-6.2-1.8-2-.7-8.2-2.6-8.4-5.2l.5-.3c-3.7-.3-3.2-5.3.8-4.1,5.7.9,11.8,3.4,16.9,6.2h.1c3.2-2.5,7.5-13.3,9.1-17.4-3-.8-6.1-1.1-9.2-1.5-4.1-.4-14.5.7-16.9,0-7.2-7.7,23.2-3.4,26.1-2.9h.9c2.5-1.5,3.2-9.2,3.7-11.9,3.7-22.4-2.6-47.4-10.6-68.3-3.6-.5-7.1-1-10.6-2-13.1-3.5-13.3-7.2-21.9-13.3-9.2-2.8-16.2-5.7-23.5-12.3-1.7-2.3-3.2-4.8-4.7-7.2,8.1,1.4-.7-5.6-3.4-6.6.4-3-1.5-3.7-3.9-4.9,6.5-12.8,34-43.5,49.6-46.7,1.4,0,2.7-.2,4,.2h.4c1.1.5,2.2,1.1,3.3,1.2-2.2-3.9-5.4-5.9-9.6-7.1-15.9-4.4-42.6,28-51.4,39.5-2.7,3.5-7.3,11.6-10.2,13.9-19-.8-42.2,3.4-60.3,9.1-14.8,4.7-17.4,8.8-26.4,21.7-22.6,32.1-37.8,62.1-43.6,55.2,0-.4,18.3-23.6,20.7-27.6-4.1-5.8-20-30.6-15.3-33.9,3.9-.6,25.2,9.6,29.9,12,2.9-6.1,13.8-20.5,19.1-24.3l.7-1c-.2-1.7-8-5.5-9.6-6.5-10.8-6.6-43.4-25.9-55.4-24-27.4,4.4-4.6,80.1.7,95.6,6.5,19,6.8,19.3,8.9,39.3,1.6,14.8,5.6,26.3,11.8,39.6-1.2.5-2.3.9-3.5,1.3-6.4-10.1-11.3-29.7-12.4-41.7-1.2-11.9-.4-13.8-4.3-25.3-8.8-25.6-22.8-69.9-17-95.9,2.7-12.2,11.1-19.2,23.8-16.3,16.4,3.7,47.2,20.8,61,31.1,23.2-7.3,45.1-12.6,69.8-12.5ZM37.6,300c.8,1.4,2,2.4,3,3.6,1.1-1.5,2-3.3,2.9-4.9,13.9-23.4,38.6-24.2,62.9-23.1,0-1.4,0-2.7,0-4.1-2.3-1.6-29.9.4-34.3,1.1-14.8,2.5-29.7,12.6-34.6,27.4ZM110.2,255.8c0,7.7-.1,15.4,0,23.1,2.1.9,4.1,1.8,6.2,2.6.2-5.3,0-10.7,0-16-.2-2.7-.2-5.5,0-8.2-2.1-.5-4.2-1.1-6.2-1.6ZM238.1,203.2l-.5.3c.2,2.6,6.4,4.5,8.4,5.2,1.9.7,4.1,1.6,6.2,1.8,3.5-3.8-11.5-6.8-14.1-7.3Z"/>
      <path class="cls-2" d="M203.8,74c4.9,6.1,13.8,7.4,20.5,10.4l2.1,3.4c-9.2-2.8-16.2-5.7-23.5-12.3l.9-1.5Z"/>
      <path class="cls-1" d="M56.3,87.9c5.4,1.3,18.2,7.5,23.2,10.5-2.6,2.5-4.2,5.7-6.1,8.8-1.2,1.8-2.4,3.7-3.6,5.5-5.5-8.7-9.1-15.3-13.5-24.8Z"/>
      <path class="cls-4" d="M224.3,51.7c1.1,2.8,0,22.9,0,28.3-4-1.3-8-2.7-11.8-4.5-1.7-.9-3-1.9-4.3-3.2,3.9-8.2,11.6-13.1,16.2-20.5Z"/>
      <path class="cls-7" d="M240.5,10.2c1.4,0,2.7-.2,4,.2h.4c1.1.5,2.2,1.1,3.3,1.2,7,11.3,13.7,73.7,12.6,86.7h-7.4c.3-18.2-5.3-54-8.4-71.9-.6-3.7-4.6-15.5-4.5-16.3Z"/>
      <path class="cls-6" d="M116.5,257.3c29.2,5.1,54.3,2.5,82.9-5.7,0,4.9.5,9.9,0,14.8-.1-1.5,0-3.1,0-4.7-25.7,8-40.3,13-69,7.4-4.7-.9-9.1-2.6-13.7-3.6h-.3c-.2-2.8-.2-5.5,0-8.2Z"/>
      <path class="cls-3" d="M116.5,265.5h.3c4.6,1.1,9,2.7,13.7,3.6,28.7,5.6,43.3.6,69-7.4,0,1.5-.1,3.1,0,4.7,0,2.1,0,4.2,0,6.2-15.9,9-33.2,28.5-51.3,23.3-6.2-1.8-12-5.9-17.9-8.6-4.4-2-9.5-3.5-13.7-5.9.2-5.3,0-10.7,0-16Z"/>
      <path class="cls-5" d="M190.9,56.8c6.5-12.8,34-43.5,49.6-46.7,0,.8,3.9,12.6,4.5,16.3,3.1,17.8,8.7,53.7,8.4,71.9-7.4-1.7-20.1-6.5-23.7-14-3.9-8.2,3.6-40.7-3.6-38.4-5.2,1.7-20.4,20.5-22.4,25.2v2.8l-.9,1.5c-1.7-2.3-3.2-4.8-4.7-7.2,8.1,1.4-.7-5.6-3.4-6.6.4-3-1.5-3.7-3.9-4.9Z"/>
      <path class="cls-4" d="M106.5,271.6c.4,4-2,10.9,3.8,11.6.7,5.2,11.5,7.2,16.2,9.4,17.6,8.2,28.9,18.9,48.9,8.3,3.1-1.6,31.3-22.3,32.8-24.1v-3.2c11.7-.4,36.8.7,47.4,4,1.4.4,2.7,1.2,4.1,1.2,6.1,4.1,16.8,16,19.6,23.5,1.1-.3,2.2-.5,3.3-.9.9,3.3.7,5.8,0,9.1-1.2-.9-2.3-1.8-3.3-2.9-4.6,3.5-8.6,8.6-12.5,12.9-19.8,22.1-30.9,43-35,72.6-.8,5.9-5.4,23,1.1,23.7.8,1.7,1.9,2.4,3.4,3.4,2,1.5,3.6,3.5,5.4,5.3-43.7,7.9-115.7,15-156.9,7.1-4.2-.8-9.6-1.5-13.2-3.7,2.9-3.7,4.5-7.8,6-12.1,5.4-2.4,2.9-23.8,1.7-28.2-1.8-6.5-5.8-12.7-8.9-18.7-6.2-12-11.7-24.4-16-37.2-1.9-5.8-3.4-11.9-6.3-17.3-.9-2.4-1.8-3.8-4.1-5.1-.5-1-1-1.9-1.5-2.9-.3-1.6-1.1-2.8-1.9-4.1,1.1-1.5,2-3.3,2.9-4.9,13.9-23.4,38.6-24.2,62.9-23.1,0-1.4,0-2.7,0-4.1Z"/>
      <path class="cls-3" d="M146.8,66.4c11.6-1.7,40.8-5.8,51.1,1.8l.3.2c1.5,2.4,3,4.9,4.7,7.2,7.3,6.7,14.2,9.5,23.5,12.3,8.6,6.1,8.8,9.9,21.9,13.3,3.5,1,7,1.5,10.6,2,8,20.9,14.2,45.9,10.6,68.3-.4,2.7-1.2,10.4-3.7,12h-.9c-2.8-.7-33.2-4.9-26.1,2.8,2.4.8,12.8-.3,16.9,0,3.1.3,6.2.7,9.2,1.5-1.6,4.1-5.9,14.9-9.1,17.4h-.1c-5.1-2.8-11.2-5.3-16.9-6.2-4.1-1.2-4.5,3.8-.8,4.1l-.5.3c.2,2.6,6.4,4.5,8.4,5.2,1.9.7,4.1,1.6,6.2,1.8-8.4,11.6-21.2,23.4-34.7,28.7-33.2,16.4-77.1,22.6-112.5,10.6-1.2-.4-2.9-.8-3.9-1.6-2.6-2.8-12.7-8-17.7-12.8,2-2.2,6.6-5.7,6.3-9-.2-3.1-4-5.1-6.9-4.5-2.9.6-5,4.2-6.6,6.5-3.3-2.8-5.6-6.2-8-9.8,4-4,24.9-8.8,9.3-16.5-4.6,1.7-10.7,5.1-14.3,8.3-1.3-2-2.2-4.2-3-6.4-6.9-19.3-12.7-44.7-1-63.2,1.8-2.9,4.2-5.5,6.3-8.3,9.4-12.5,29-48.7,40.5-55.4,6.9-4,32.8-10.2,40.9-10.9ZM60.2,204.1c21-3.8,53.6-15.2,69.9-27.2,5.3-3.9,9-8,13.7-12.4,1.4-2.3,3.2-3.9,5.2-5.6,1.5-3.8,3.8-7.5,5.6-11.2,10.8-22.6,17.3-50.2.7-71.9-2.5-3.3-5.7-6-8.3-9.3l-.2-.2c-8.1.8-34,6.9-40.9,10.9-11.5,6.7-31.1,43-40.5,55.4-2.1,2.7-4.4,5.4-6.3,8.3-11.7,18.5-5.9,43.9,1,63.2ZM238.9,199.1c5.7.9,11.8,3.4,16.9,6.2-.2-3.3-2.5-4.6-5.2-6.2-2.8-1.9-10.6-5.6-11.7,0Z"/>
      <path class="cls-2" d="M255.8,188.5c-5.5-.2-17.7,2.9-21.5-2-1.8-2.3-.7-5.1,1.5-6.6,5.6-3.7,17.6-1.6,23.9-.4,2,.5,6.2.9,5.3,3.9-2.8-.6-33.2-4.8-26.1,2.9,2.4.8,12.8-.3,16.9,0,0,.7,0,1.4,0,2.1Z"/>
      <path d="M202.9,118.6c8-1.1,23.3,5.6,18.6,9.5-4.8.8-7.6-8.1-22.2-4.8-7.3,3.4-7.3,5.6-11.9,11.4-6.8,2.2-.7-13.6,15.4-16.1Z"/>
      <path d="M149,159c25.6-12.4,45.1,1.1,18,23.1.5,19.7,28.1,26.8,39.4,14.3,4.9-5.3,5.2-14.7,6.4-16.1,5.5-6.2,5.1,14.8-8.2,23-12.1,7.5-31.1,2.5-38.5-9.4-3.1,16-20.1,26-35.6,23-4.5-.9-20.7-8.4-16.1-14,2.7-.9,4.2,2.7,5.7,4.2,12.3,11.8,32.7,5.3,40-8.7,2.5-4.8,2.7-9.7,2.8-15-7.7-4-19.5-8.4-19.1-18.9,1.4-2.3,3.2-3.9,5.2-5.6Z"/>
      <path class="cls-2" d="M152.3,172.1c-15.2-11,14.2-14.6,19.9-13.2-8,3.8-14.7,1.6-19.9,13.2Z"/>
      <path class="cls-5" d="M172.3,159c10.3,2.6-4.1,17.2-7.9,20.6-4.2-2.1-8.3-4.7-12.1-7.4,5.2-11.6,12-9.4,19.9-13.2Z"/>
      <path class="cls-1" d="M60.2,204.1c-6.9-19.3-12.7-44.7-1-63.2,1.8-2.9,4.2-5.5,6.3-8.3,9.4-12.5,29-48.7,40.5-55.4,6.9-4,32.8-10.2,40.9-10.9l.2.2c2.6,3.2,5.8,5.9,8.3,9.3,16.6,21.7,10.1,49.3-.7,71.9-1.8,3.7-4.1,7.4-5.6,11.2-2,1.7-3.8,3.3-5.2,5.6-4.7,4.4-8.4,8.5-13.7,12.4-16.4,12-48.9,23.4-69.9,27.2ZM79.5,168.9c-6.5.3-4.9,6.4,2.5,4.7,7-2,3.9-6.4-2.5-4.7Z"/>
      <path class="cls-2" d="M71.5,159c5-1.3,7.3,3.8,3.1,6.6-4.7.8-8.1-4.3-3.1-6.6Z"/>
      <path class="cls-2" d="M58.2,160.7c5.7-.4,9.9,4.8,4.2,8.2-5.1,1.3-8.6-4.9-4.2-8.2Z"/>
      <path d="M111.7,133.9c5.3-.3,23.2,4.7,16.4,9.1-3.3.7-9.1-7.8-21.6-3.8-6,2.4-7.4,5.6-11.4,10.3-8.5-5.1,9.2-15,16.7-15.5Z"/>
    </g>
  </g>
</svg>