<?xml version="1.0" encoding="UTF-8"?>
<svg xmlns="http://www.w3.org/2000/svg" version="1.1" viewBox="0 0 442 393.6">
  <defs>
    <style>
      .cls-1 {
        fill: #5661ee;
      }

      .cls-2 {
        fill: #fff;
      }

      .cls-3 {
        fill: #15bbab;
      }

      .cls-4 {
        fill: #fc625d;
      }

      .cls-5 {
        fill: #fed45e;
      }
    </style>
  </defs>
  <!-- Generator: Adobe Illustrator 28.7.1, SVG Export Plug-In . SVG Version: 1.2.0 Build 142)  -->
  <g>
    <g id="_Слой_1" data-name="Слой_1">
      <path d="M192.7,171.4c-42-13.8-76.9-49.9-45.8-91.8,7.4-9.9,6.2-10,6.1-21.8-.1-13-3.4-56.6,16.3-57.7,12.1-.7,37.7,21.4,47.1,29.5,10.9-2,47.8-2.9,58.2,2.5,8.7-8.8,32.4-22.6,44.2-26.9,9.2-3.3,17.1-.6,20.4,8.9,4,11.6,3,54.1-2.3,64.8,1.3,4.4,4,8.4,6.1,12.4,14.6,27.6,2.3,54.6-21.9,71.5,24.2,18.1,43.5,51.3,52.1,79.6,1.9,6.1,3.3,12.4,5,18.6,36.1-22.1,9.1-55.4,30.6-68,10.1-5.9,19.5-.6,24.9,8.7,23.3,39.9-5.2,104.9-48.4,117.2-2.2.6-5.4.5-7.1,2-.3,1.8-.8,3.5-1.7,5.1,3.1,3.2-1.4,9.6-3.2,12.5-8.1,13.2-40.3,28.3-54.9,35.6-20.1,10.1-49.1,28.6-71.6,14.5-8.1-5.1-12.4-12.2-14.5-21.4-9.3,3.7-21.2,5.2-31.1,3.7-30.1-4.6-35.8-46.4-1.3-57.9-2.5-4.2-4.7-8.6-6.3-13.2-20,3-35-8.2-36.5-28.6-23.3,7.4-45.9-7-48.8-31.4-7.8-6.3-24.2-16-33.2-21.3-4.8,7.7-10.2,17.3-14.7,25.5-1.4,2.5-1.5,5.3-3.4,7.6C41.6,270,1.2,226.9,0,207.3c-.9-15.7,28-27.5,39.7-37.9,22.9-20.4,32.6-56.7,65.6-26.5,7.4,6.8,24.5,22.2,16.4,33.6-4.5,6.3-11.7,2.9-17.4,5.8-4.1,2.1-7.7,6.9-11,10.2,9.9,6.3,19.4,13.1,29.7,18.9,22.3-22.5,49,6.1,59.7-20.6,3.5-8.6,3.4-11.9,10-19.5ZM275.3,36c-4.5-1.8-15.7-2.7-20.9-3.4-1.9-.3-3.9-.6-5.9-.7h-12c-1.6,0-4.4-.4-5.9,0-5.1.5-10.2,1.6-15.3,1.8-7-3.7-14-13.7-22.5-18-4.8-.2-18.1-10.8-23.6-6.3-6.9,5.6-7.6,34.5-6.6,45,5.5-4.4,12.4-10.4,19.7-11,3.4-.3,8.1,1.6,8,5.6,0,4.7-5.6-1.2-7.2-1.6.4,1.7.7,3.3,1,5.1-16.5,4.5-18.7,16.8-26,28.4-2.1,3.3-4.7,6.2-6.8,9.5-8.9,14.1-8.6,31.2-.6,45.5,1.3,2.4,6.2,8.6,6.5,10.5.9,1.2,2.2,2.3,3.4,3.2,28.1,22.2,70.6,29.7,105.4,25.7,37.8-4.3,84-21.7,78.1-67.5-1.3-10.1-6.9-18.2-11.4-27.1-5.4-10.7-9.9-22.3-22-26.8-1.8-.7-4.4-1.1-5.9-2.3-2.5-4.9,6-2.6,7.8-1.8,10.3,4.5,17.7,14.5,21.6,24.9,2.2-10.7,9.2-62.9-5.4-66.4-11.7-2.4-43.1,18.8-53.4,27.7ZM346.5,197c-23.3.5-21,8.5-28.6,28.9-2.4,6.4-5,13.1-8.9,18.8-1.5,2.2-4.1,4.8-4.8,7.3-.7,5.1-24.2,27.6-31.3,33-12.1,9.1-19.2,7.8-33.1,9.9,9.2,17.1,22,23.3,34.8,34.5-1.5,6-31.7,8.1-37.4,27.6-2.4,8.1-.6,16.1,5.3,22.1,1,2.1,3.1,3.5,4.9,4.7,12.7,8.7,27,5.9,40.2.5,19.9-8.2,39.2-18.9,58-29.4,10.1-5.6,21.7-12,26.6-23.1,1-2.3,1.2-5.5,4.1-6,.9-1.6,1.4-3.3,1.7-5.1-2.7-1.9-.8-7.1-.5-9.7,3.6-34.1-9.3-87.1-31.1-114.1ZM242.5,199.4c.8.6,1.5,1,2,1.9.4,2.6-13,22.4-15.6,26.1-15.1,20.9-46.9,2.7-63,24.5-9.1,12.3-6,31.7,6.4,40.6,8.8,6.3,19.3,3.3,29.2,2.4-2.3-3.9-12.3-1.3-17.7-3-22.1-6.9-22.1-40.2-1.3-45.6,14.8-3.8,34.4,1.7,45.9-10.6,4.1-4.4,20-28.2,21.3-32.7,1-3.4-3.4-7.1-7.2-3.7ZM9,196.2c3.4.4,6.6,1,9.8,2,4.4-6.4,22.7-16.5,29.9-23.1,9.8-8.9,25.8-36.9,40.2-35.5,2.4.2,4.7,1.2,7.1,1.2-20.8-15.5-32.1,7.8-44.7,22.7-13.1,15.5-28.7,20.7-42.3,32.7ZM157,146.5c-.3-1.9-5.2-8.1-6.5-10.5-8-14.3-8.3-31.5.6-45.5,2.1-3.3,4.7-6.2,6.8-9.5,7.3-11.6,9.5-23.9,26-28.4-.2-1.7-.5-3.4-1-5.1-16,1-22.4,17.5-28.7,28.3-2.3,3.9-5.3,7.3-7.9,11-13.9,20.1-7,44.3,10.6,59.6ZM197.6,172.9c-13.8,10.4-6.6,24.6-23.6,32.3-15.3,7-35.2-6.9-47.4,9.4l5.4,2.6c18.7-13.3,29.9,1.7,48.5-9.2,15.2-8.8,9.5-24.5,22.9-32.7-1.9-.8-3.8-1.9-5.8-2.5ZM379.5,264.5c-.1,1.6-.4,3.3,0,4.9,14.2-7.1,28-23.5,29.6-39.7.6-6.8-.7-13.7.7-20.5,1.1-5.4,4-9.7,5.9-14.8-15.5,3.9-12.1,17.3-12.2,29.5-.2,16.7-9.9,32-23.9,40.6ZM51.3,252c-2.9-2.6-6.8-4.1-10.1-6.2-8.8-5.7-21.2-16.5-26.3-25.5-5.9-10.6-8.8-17.5,5.6-12.2.7-1.4,1.2-2.8,1.8-4.3-3.7-1.5-16.5-7-17.8-.4-3.6,17,29.8,51.7,46.8,48.6ZM197.6,299.8c9.2,21.3,9.5,12.7-3.8,20.1-15.5,8.6-18.9,30.6-4.4,41.5-7.3-14.9-5.6-30.2,10.8-38.6,3-1.5,16-3.2,12.5-8.9-3.1-4.9-6.6-3.8-10-15.1v-.3c-1.8.4-3.5.8-5.1,1.2ZM157,60.6c1.9-2,3.9-3.9,5.5-6.1-1-10.5-.3-39.4,6.6-45,5.5-4.5,18.8,6.1,23.6,6.3-7.1-4.7-23.6-18.4-30.5-7.1-6.4,10.5-5.2,39.2-5.2,51.9Z"/>
      <path class="cls-4" d="M112.5,243.2c15.6,3.3,25.1,28.4,42.7,1.7,2.2,2,4.8,3.4,7.3,5-1.1,1.7-2.1,3.4-3,5.2-1.5,4-2.4,7.9-2.8,12.2-20.9,7-37.2-4.3-44.2-24.1Z"/>
      <path class="cls-1" d="M22.3,203.8c13.2,6.7,28,16.9,32.9,31.5,1.9,5.8,1,12.6-3.9,16.6-2.9-2.6-6.8-4.1-10.1-6.2-8.8-5.7-21.2-16.5-26.3-25.5-5.9-10.6-8.8-17.5,5.6-12.2.7-1.4,1.2-2.8,1.8-4.3Z"/>
      <path class="cls-5" d="M90.5,196.2c4.1,1.1,39.6,25,49.3,31,5.1,3.2,11.2,5.4,11.3,12.2.2,7.3-5.6,13.2-12.8,13.4-7.2-1.8-53.6-33.1-61.2-38.2,4.2-6.2,8.3-13,13.4-18.4Z"/>
      <path class="cls-1" d="M202.6,298.5c10.3.6,22.2-3,32.5-2.6,7.5,11.3,20.9,26.1,32.4,33.5-15.7,6.6-35.8,13.8-35.3,34.2-12.9,2.6-31.6,7.7-42.7-2.2-7.3-14.9-5.6-30.2,10.8-38.6,3-1.5,16-3.2,12.5-8.9-3.1-4.9-6.6-3.8-10-15.1v-.3Z"/>
      <path class="cls-3" d="M415.6,194.5c30.6-3.2,37.4,99-34.6,121.7,2.4-17.7,1-29.2-1.5-46.7,14.2-7.1,28-23.5,29.6-39.7.6-6.8-.7-13.7.7-20.5,1.1-5.4,4-9.7,5.9-14.8Z"/>
      <path class="cls-1" d="M18.8,198.2c4.4-6.4,22.7-16.5,29.9-23.1,9.8-8.9,25.8-36.9,40.2-35.5,2.4.2,4.7,1.2,7.1,1.2,7.7,5.6,21.6,17.8,23.2,27.2,1.7,10.2-8.8,7.7-14.8,9.7-17.1,5.8-34,42.8-44.4,58.8-6.3-19.2-23.4-31-41.3-38.3Z"/>
      <path class="cls-4" d="M316.8,165c11.1,8.4,22.5,20.1,29.7,32-23.3.5-21,8.5-28.6,28.9-2.4,6.4-5,13.1-8.9,18.8-1.5,2.2-4.1,4.8-4.8,7.3-.7-.4-2.1-1.5-2.9-1.2-5,1.7-24.4,32.5-43.9,37.6-7,1.8-14.6,2-21.8,2.9-11.2,1.4-22.8,3.2-34,3.6-2.3-3.9-12.3-1.3-17.7-3-22.1-6.9-22.1-40.2-1.3-45.6,14.8-3.8,34.4,1.7,45.9-10.6,4.1-4.4,20-28.2,21.3-32.7,1-3.4-3.4-7.1-7.2-3.7-3.4,2.9-9.2,14-12.1,18.5-10,15.9-11.2,14.1-27,17.2-.2-3.3-1.5-25.7-5.4-25.6-3.2,1.7,1.1,21.7,1.8,25.6-14.4,2.2-23.3.2-34.7,11.4-3.3-1.8-6.5-4-9.9-5.7,0-14.1-14.4-15.9-23.2-23.5,18.7-13.3,29.9,1.7,48.5-9.2,15.2-8.8,9.5-24.5,22.9-32.7h.3c4-.2,8.3,1.3,12.2,2.1,29.3,6,73.8,3,100.8-12.5Z"/>
      <path class="cls-1" d="M346.5,197c21.8,27,34.7,79.9,31.1,114.1-.3,2.7-2.1,7.9.5,9.7-.3,1.8-.8,3.5-1.7,5.1-2.9.5-3.1,3.7-4.1,6-4.9,11.1-16.5,17.4-26.6,23.1-18.8,10.5-38.1,21.2-58,29.4-13.2,5.4-27.5,8.2-40.2-.5-1.8-1.3-3.9-2.7-4.9-4.7-5.9-6-7.7-14-5.3-22.1,5.7-19.5,35.8-21.6,37.4-27.6-12.8-11.2-25.7-17.4-34.8-34.5,13.9-2.1,21.1-.9,33.1-9.9,7.2-5.4,30.6-28,31.3-33,.8-2.5,3.4-5.1,4.8-7.3,3.9-5.7,6.5-12.4,8.9-18.8,7.6-20.4,5.3-28.4,28.6-28.9ZM274.5,329.4c-1.5,6-31.7,8.1-37.4,27.6-2.4,8.1-.6,16.1,5.3,22.1,0-.5,0-.3,0-.7-5.4-25.8,10.4-34.7,31.5-41.8,2.6-.9,10.8-2.5,9.2-6.7-1.3-3.4-7.5-4.5-8.6-.4Z"/>
      <path class="cls-3" d="M275.3,36c10.3-8.9,41.7-30.1,53.4-27.7,14.5,3.4,7.5,55.7,5.4,66.4-3.9-10.3-11.3-20.3-21.6-24.9-1.8-.8-10.3-3.1-7.8,1.8,1.5,1.2,4.1,1.6,5.9,2.3,12.1,4.6,16.7,16.2,22,26.8,4.5,8.9,10.1,17,11.4,27.1,5.8,45.9-40.4,63.2-78.1,67.5-34.8,4-77.3-3.5-105.4-25.7-1.2-.9-2.5-2-3.4-3.2-.3-1.9-5.2-8.1-6.5-10.5-8-14.3-8.3-31.5.6-45.5,2.1-3.3,4.7-6.2,6.8-9.5,7.3-11.6,9.5-23.9,26-28.4-.2-1.7-.5-3.4-1-5.1,1.6.3,7.2,6.3,7.2,1.6,0-4-4.6-5.9-8-5.6-7.4.6-14.2,6.6-19.7,11-1-10.5-.3-39.4,6.6-45,5.5-4.5,18.8,6.1,23.6,6.3,8.5,4.4,15.5,14.3,22.5,18,5.1-.2,10.2-1.3,15.3-1.8,1.5-.4,4.3,0,5.9,0h12c2,0,3.9.4,5.9.7,5.2.7,16.5,1.6,20.9,3.4ZM275.3,36c2.8,7.8,10.3-1.1,14.8-4.3,5.9-4.1,36.7-21.5,38.6-23.5-11.7-2.4-43.1,18.8-53.4,27.7Z"/>
      <path class="cls-2" d="M230.5,32c1.5-.4,4.3,0,5.9,0-2,5.2-6.2,11.4-8.8,16.7-1.8,3.6-6.8,23.5-11.3,14.9,1.5-9.5,8.8-23.5,14.2-31.6Z"/>
      <path class="cls-2" d="M248.4,32c2,0,3.9.4,5.9.7-2,4.3-5.1,8.5-7.7,12.5-8.3,12.9-12.2,26.4-12.7,41.7-.1,3.1,1.6,13.4-3,14.2-4.1.7-2.7-12.9-2.6-14.9,1.2-21.6,8.5-36.6,20.2-54.1Z"/>
      <path d="M182.9,86.7c12.3,2.8,36.6,19.1,14.6,29.7-12.6,2.3-20-12.2-4.9-20.5-2.7-1.6-15.8-4.9-9.8-9.2Z"/>
      <path d="M290.8,92.5c3.1-.4,4.5,2,1.4,3.8-3.5,2.1-9.5,3.8-13.5,5.8,10.8,8,7.2,21.1-5.4,21.3-7.2-1.1-12.5-8.9-8.8-15.7,4.4-8,17.8-12.8,26.3-15.2Z"/>
      <path d="M220.6,116.4c4.9-3.3,11.9-2.3,17,0,10.8-.4-4.4,9.5-7.1,10.9,4,20.2,18.5,4.5,20.2,5.6,4,2.5-10.1,19.3-22.7,1.5-4.3,6.7-11.8,8.5-18.5,4-6.1-4.1-5.3-11.8-2.6-10.3,4,2.3,2.3,9.6,11.3,8.2,4.9-.7,7.1-4.7,8.3-9-2.8-1.8-11.3-7.3-6-10.9Z"/>
      <path class="cls-2" d="M220.6,116.4c4.9-3.3,11.9-2.3,17,0-2.6,2.9-5,5.5-8.6,7-3.3-1.7-5.9-4.4-8.4-7Z"/>
    </g>
  </g>
</svg>