<svg xmlns="http://www.w3.org/2000/svg" version="1.1" xmlns:xlink="http://www.w3.org/1999/xlink" xmlns:svgjs="http://svgjs.dev/svgjs" width="371.5" height="287.4"><svg xmlns="http://www.w3.org/2000/svg" version="1.1" viewBox="0 0 371.5 287.4">
  <defs>
    <style>
      .cls-1 {
        fill: #7dc0f7;
      }

      .cls-2 {
        fill: #010101;
      }

      .cls-3 {
        fill: #fff;
      }

      .cls-4 {
        fill: #fc625d;
      }

      .cls-5 {
        fill: #14bbab;
      }

      .cls-6 {
        fill: #5762ee;
      }
    </style>
  </defs>
  <!-- Generator: Adobe Illustrator 28.7.1, SVG Export Plug-In . SVG Version: 1.2.0 Build 142)  -->
  <g>
    <g id="SvgjsG1036" data-name="Слой_1">
      <path class="cls-1" d="M340.6,208.4c3.4,2.7,16,27.2,18.3,32.9-1.4,3.7-10.2,22.6-11.9,24.7-.9-1,6.4-8.5-.7-12.7-1.5.5-2.4,5.4-3.6,7h-.4c6.8-13.7,4.5-28.7-6.2-39.8,2.2-3.7,2-8.4,4.5-12.1Z"></path>
      <path class="cls-6" d="M25,277.9c-3.5-1.6-6.6-4.2-9.1-7.1-23.3-26.5-6.6-64.6,30.2-61.8-3,2-6.6,2.4-9.8,3.9-20.4,9.5-29.6,36.1-18.1,55.8,1.7,2.8,5.9,6.9,6.8,9.2Z"></path>
      <path class="cls-6" d="M348.8,68.7c1.9,1.2,3.5,2.9,5,4.5,23.5,25.9,9,65.5-25,65.4,1.5-1.9,6.5-3.5,8.8-4.9,20.2-12.9,22.8-43.2,5.4-59.5-2.1-1.9-4.5-3.4-6.6-5.3l-.2-.2h12.6Z"></path>
      <path class="cls-6" d="M29.5,71.9c28.9.5,57.4.5,86.3.5l197.7-1.1c7.6-.1,13.8-.4,20.8,3.1,2.1,1,4,2.7,6.4,2.9,12.9,12.1,12.3,34.8.5,47.3-8.5,9-17.2,10.4-29,10.7l-254.2,6.8c-4.7,0-22.9-1-26.1,2.4-5.7-7.2-13.9-29.6-19.4-39.5,4.5-10.2,11.8-23.3,17.1-33.2Z"></path>
      <path class="cls-2" d="M35,130.1c-10,2.5-10.6-21.5-9.4-27.4,1-5.1,2.8-15.5,9.4-11.8-9.8,13.6-6.9,25.5,0,39.2Z"></path>
      <path class="cls-3" d="M35,91c1.5-3.8,5.7-10.4,8.5-3.5-.2,7-11.9,13.6-7,30.4,1.5,5.1,6.7,11-1.5,12.2-6.9-13.7-9.8-25.5,0-39.2Z"></path>
      <path class="cls-2" d="M107.2,79.3c2.9,0,15.4-.9,17.2.8,3,2.6-5.5,3.2-13,3.3-8.9,0-17.7.2-26.6.5-12.4.4-27.8.9-30.4,17.2-2.2,4.4-.6,7.8-1.8,11.7-6.6,5.8-6.1-24.8,15.5-31.3,7-2.1,31-2.1,39-2.1Z"></path>
      <path class="cls-2" d="M75.2,57.4c-19.7-18.6-13.2-48.9,13.5-52.9,2.9-.4,6-.4,9-.5l166.2-2.9c15.1-.3,33.9-1.6,48.6-.9,7.7.3,11.5,5.2,12.3,12.5,3.3-.3,14.2-2.7,13.6,3.2-.7,7.5-9.9,16-13.6,22.8,3.7,4.8,13.9,11.7,13.3,17.3-.3,2.5-2.3,4.4-4.8,4.8-10.1-.2-20.2.3-30.4.5l-197.3,3.9c-5.7.1-11.3.6-16.9-1.1-8.9-2.7-6.9-3.1-16.5-2.8l-12.5.3c-7.9.2-30-.6-36.4,1.5-2.5,2.6-19.9,35-19.8,40.7,0,4,14.1,36.2,16.7,41.3,3.6,7.1,8,6.3,15.4,5.9-1.2-2.2-2.7-4.1-3.9-6.2,3.2-3.4,21.5-2.3,26.1-2.4l254.2-6.8c11.8-.3,20.5-1.7,29-10.7,11.8-12.5,12.3-35.3-.5-47.3-6.4-6.9-13.7-10.6-22.2-14.3,6.1,1.3,11.9,3.5,17.7,5.7l.2.2c2.1,1.8,4.6,3.4,6.6,5.3,17.3,16.3,14.7,46.6-5.4,59.5-2.3,1.4-7.3,3.1-8.8,4.9-11.1.6-28.1,1.7-39.3.7,1,.6,2,1.2,3.1,1.7,5.3.2,13.9,4.8,17.6,8.7,13,14,8.6,32.5-2.7,45.8,7.5,0,15,0,22.5-.1,5.3-.1,15.4-2.4,19.7,1.8,3,2.9,17.9,30.7,20.8,37.2,3.9,8.8-5.3,21.6-9.2,30-9.3,20.1-5,22.7-28.2,22.9l-272.3-.7c-15.7,0-21.8.7-35.8-8.9-.9-2.3-5.1-6.4-6.8-9.2-11.5-19.7-2.4-46.3,18.1-55.8,3.2-1.5,6.8-1.9,9.8-3.9,2.2-.2,13.4-2.4,10.4,2.9,2.3.7,8.2,0,10.9,0h29.8c9.1,0,18.2.1,27.3,0l193.5-2.9c7.5-.1,15-1,22.5-.5-2.4,3.6-2.3,8.4-4.5,12.1,10.7,11.1,13,26.1,6.2,39.7h.4c1.2-1.5,2-6.4,3.6-6.9,7,4.2-.2,11.7.7,12.7-2.7,5.8-5.7,11.5-8,17.5,3,.2,6.9.7,9.3-1.4,2.5-2.1,19.6-38.5,19.8-42.5.1-2.6-17.8-36-22-40.3-4.2-.8-15.8,0-20.7,0l-17.7.4c-10.2.2-15.6,0-25.4,2.3-6.8,1.5-22.1.4-30.1.4H96.3c-15.6,0-31.2.3-46.8,0-3.8,0-8.3.4-9.6-4.1-2.1-7.1,12.3-6.7,11.6-15.1-.6-6.8-9.7-5.9-11.1-10.8-1.7-5.9,6.6-4.8,9.8-5.4,1.9-3.3,1.8-6.8-1.4-9.4-9.4-7.6-24.7,3.5-31.6-10.3-3.8-7.5-6.8-15.6-10-23.4-3.6-8.7-10-18-5.9-27.5,3.8-9,11.9-24.3,16.8-32.7,4.8-8.2,17.7-5.5,26.4-5.7,10.2-.2,20.5-.6,30.7-.7ZM37.4,146.7c3.6,4.8,8.9,5.2,13.9,7.7,19.4.1,38.9,0,58.3-.6l128.5-3c4.1-.1,8.2,0,12.4-.1l20.2-.9c3.9-.2,8.1-.6,11.9-.2,11.9,1.3,18.3,15.1,18.1,25.7,0,1.5-.7,4.3,0,5.5,5.4-12.3,1.8-26.9-8.9-35.1-7.9-6.1-13.9-5.4-23.2-5.1l-195,5.3c-12,.3-24.4-.7-36.2.8ZM76.2,52.7c-.8-1.8-1.9-3.4-2.7-5.2-5-11.1,3.3-25.8,14.4-29.4,8.1-2.6,28.3-1.3,37.4-1.6l95.2-2c17.2-.3,97.5-1,100.8-2.4-1.3-6.4-5-8.1-11.1-8.1-14.7-.1-29.5.8-44.2,1l-157.4,2.7c-14,.3-28.6-1.4-37.2,12.3-6.4,10.2-4.8,25,4.8,32.7Z"></path>
      <path class="cls-4" d="M292.6,141.1c5.3.2,13.9,4.8,17.6,8.7,13,14,8.6,32.5-2.7,45.8-3.1.9-9.2.5-12.7.4,18.5-16,14.7-39.3-2.2-54.9Z"></path>
      <path class="cls-5" d="M321.3,12c.9.6,2.5.6,3.5.7,3.3-.3,14.2-2.7,13.6,3.2-.7,7.5-9.9,16-13.6,22.8,3.7,4.8,13.9,11.7,13.3,17.3-.3,2.5-2.3,4.4-4.8,4.8-4.4-7.6-9.9-14.8-14.9-22,2.6-4.2,6.2-7.7,8.4-12.1-7-.6-13.9-.1-20.9,0l-156.8,3.1c-6.3.1-12.6.4-18.8.3-2.9,0-2.6,1.8-2.3,4.1l165.6-3.3c8.6-.1,17.3-.6,25.9-.3-2.2,2.7-4.2,5.5-6.3,8.3,3.8,6.3,8.6,12,12.7,18.1-5.5-.2-11,.2-16.6.2l-195.1,3.9c-12.9.3-28.4,2.5-38.1-8.3-.8-1.8-1.9-3.4-2.7-5.2-5-11.1,3.3-25.8,14.4-29.4,8.1-2.6,28.3-1.3,37.4-1.6l95.2-2c17.2-.3,97.5-1,100.8-2.4Z"></path>
      <path class="cls-4" d="M51.4,154.4c19.4.1,38.9,0,58.3-.6l128.5-3c4.1-.1,8.2,0,12.4-.1l20.2-.9c3.9-.2,8.1-.6,11.9-.2,11.9,1.3,18.3,15.1,18.1,25.7,0,1.5-.7,4.3,0,5.5-1.4,7.7-11.9,16.4-19,17.7-5.3,1-16.4.2-22.4.2H70.1c-3.7,0-24.3.6-26.5-1,0-.3,27.4-15.4.5-25.9,5.7-1.3,12.1-1,17.9-1.2l149.5-3.6c7.8-.3,16.2,0,24.3-.3,1.2,0,13.4.4,9.6-3.6-3.7-1.8-44,.8-51.1,1l-100.5,2.2c-13.2.2-26.3.7-39.5.5,1.1-5.2,0-8.3-3-12.6Z"></path>
      <path class="cls-6" d="M56.5,211.8c2.3.7,8.2,0,10.9,0h29.8c9.1,0,18.2.1,27.3,0l193.5-2.9c7.5-.1,15-1,22.5-.5-2.4,3.6-2.3,8.4-4.5,12.1,10.7,11.1,13,26.1,6.2,39.7h.4c1.2-1.5,2-6.4,3.6-6.9,7,4.2-.2,11.7.7,12.7-2.7,5.8-5.7,11.5-8,17.5-4.9.3-9.9.1-14.8,0l-252.9-.6c-16.1.2-32.7,2.8-45-10.2-22.7-24-.8-62.2,30.2-60.9Z"></path>
      <path class="cls-2" d="M279.8,218.8c16.7-.6,31.5,2.3,40.4,18.3,1.8,3.3,7.6,12.9,2.1,14.5-4.9-.2-2.5-27.5-34.6-28.6-2.6,0-6.2.6-8.7,0-3.1-.8-1.3-3.6.8-4.2Z"></path>
      <path class="cls-2" d="M57.7,219.6h46.9c7,0,14.2-.3,21.2,0,5.9.2,5.1,4-.5,3.9h-61.5c-12.7.1-15.8-3.4-6.2-3.8Z"></path>
      <path class="cls-3" d="M333.4,266c-8.6.5-1.5-10-.2-13.3,6.7-17.8-7.6-23.8-8.4-29.9-.6-4.7,4.5-5.8,8.6-1,.9-.5,1.9-.9,2.8-1.3,10.7,11.1,13,26.1,6.2,39.7-2,2.8-3.5,5.3-6.2,7.5l-2.8-1.7Z"></path>
      <path class="cls-2" d="M336.2,220.5c10.7,11.1,13,26.1,6.2,39.7-2,2.8-3.5,5.3-6.2,7.5l-2.8-1.7c13.3-12.9,12.2-30.8,0-44.2.9-.5,1.9-.9,2.8-1.3Z"></path>
    </g>
  </g>
</svg><style>@media (prefers-color-scheme: light) { :root { filter: none; } }
@media (prefers-color-scheme: dark) { :root { filter: none; } }
</style></svg>