<?xml version="1.0" encoding="UTF-8"?>
<svg xmlns="http://www.w3.org/2000/svg" version="1.1" viewBox="0 0 381.7 373.7">
  <defs>
    <style>
      .cls-1 {
        fill: #5661ee;
      }

      .cls-2 {
        fill: #fff;
      }

      .cls-3 {
        fill: #15bbab;
      }

      .cls-4 {
        fill: #fc625d;
      }

      .cls-5 {
        fill: #fed45e;
      }
    </style>
  </defs>
  <!-- Generator: Adobe Illustrator 28.7.1, SVG Export Plug-In . SVG Version: 1.2.0 Build 142)  -->
  <g>
    <g id="_Слой_1" data-name="Слой_1">
      <path class="cls-1" d="M372.7,224c.2,2.9-7.2,10.3-9.5,13.4l-25.6,34.4c-9,12-17.7,23.1-27,34.8-3.1,3.9-12.3,16.9-15.4,19.1-4,5.6-10.6,14.4-15.5,19.1-.4-2.3,11.6-16.5,13.9-19.1,3.8-6.7,16-20.5,21.3-27.3l45.9-59.9c3.3-4.4,7.7-11.3,11.9-14.6Z"/>
      <path class="cls-5" d="M274.8,114.6c.5-4.6,7.1-13.2,12.5-12.3,9,1.4,42,19.1,53.4,24.7,7.8,3.8,21.4,8.3,19.2,19.6-1.8,8.8-14.5,18.6-18.5,27.3h0c-.6-.4-2.3-4.4-.2-1.2,2.4-.6.9-3.7.2-5.3-.7,1.2-1.8,3.5-3.3,3.7,3.9-5.5,15.1-17.2,15.5-23.6.5-9.2-8.7-12.1-15.4-15.4-7.7-3.9-50.1-25.4-53.5-25.3-4.2.1-7.4,4.9-9.8,7.7Z"/>
      <path d="M125.3,59.6c2.7-1.9,5.2-4.4,7.7-6.6C156.7,32.6,201,2.2,230.4,0c19.1-1.4,20.6,18.8,24.7,33.6,9.3,34.4,18.2,73.9,20.5,109.6.5,7.5-.9,12.8-5.8,18.4,5.4-.5,10.2-12.5,11.3-16.9.1-4.5-.1-24.9-1.5-27.1-3.8,5.4-7.7,2.6-4.9-3.1,2.5-2.9,5.6-7.6,9.8-7.7,3.4-.1,45.8,21.4,53.5,25.3,6.7,3.4,15.9,6.2,15.4,15.4-.4,6.4-11.6,18-15.5,23.6,1.5-.3,2.5-2.6,3.3-3.7.7,1.5,2.2,4.7-.2,5.3-2-3.2-.4.8.2,1.2h0c2.6.6,4.8,1.9,7.3,2.7-1.1-1.4-6.9-9.5-.4-7.6,1.8.5,8.5,8.6,10.9,10.4,2.5,1.9,5.5,2.5,8.4,3.6,11.4,4.3,17.3,19.3,12.5,30.3-1.7,3.9-5.3,6.9-7.3,10.7-4.2,3.3-8.6,10.2-11.9,14.6l-45.9,59.9c-5.3,6.8-17.4,20.6-21.3,27.3-2.3,2.6-14.3,16.7-13.9,19.1-2.5,3.3-6.1,6.3-8.1,9.9-1.8,3.4-1.7,6-4.5,9.9-6.2,8.5-18.6,10.8-28.3,7.8-5.1-1.6-9.8-5.1-14.6-7.5-41.7-20.1-96.5-33.8-143.3-34.2-6.5,0-13.4.5-19.9-.6-22.1-3.7-34.1-29.3-27.3-49.7,2.1-6.1,4-12.9,6.1-18.7,5-14,13.3-25.5,22.2-37.2-22.4-1.2-29.3,2.7-37.6-24.6-9.7-32-16-65.3-21.4-98.2C-1.4,75.2-5.7,64,27.2,57.2c26-5.3,71.8-6.1,98.1,2.4ZM266,356.1c-1.3.4-4.3,3.1-5.8,4-12.8,7.6-20.2,2.3-31-2.9-43.2-20.8-97.3-35.8-145-36.4-7.3,0-16,.7-23-1.1-14.7-3.8-20.4-22.4-17-35.7,11.5-44.4,95.3-16.5,122.1-5.5,13.8,5.7,30.7,15,44.8,18.8-3.8-2.6-7.3-4.4-10.7-7.6-32.2-18.1-132-63.6-158.3-16.5-10.9,19.4-3.2,48.2,20.1,51.9,6.4,1,13.2.7,19.7.8,46,.9,100.7,13.4,142.6,33.6,5.6,2.7,11.3,7,17.4,8.5,9.6,2.4,20.8-2.1,24-11.9ZM50.5,219.6c-11.1-7-13.9-14.7-17.3-26.4-7.3-25-12.9-50.9-17.5-76.5-2.3-13-7.7-31.7,4.3-41.6,8.3-6.9,33.9-9.9,44.9-10.4,22.8-.9,40.5,4.2,61.4,6.2h.3c-.7-2-.9-4.1-1.3-6.3-5.3-.9-10.4-2.4-15.7-3.3-25.8-4.2-49.8-4.2-75.5-.3-9,1.4-27.3,3.2-29.2,14.8-2.2,13.4,17.9,104.8,26.1,128.9,3.5,10.1,8.8,14.7,19.3,14.9ZM129.7,62.3c.9,2.8,1.4,5.7,2.2,8.5,25.1-21.1,61.7-50.1,94.1-54.1,8.5-1.1,14.3,1.5,20.9,6.7-3.6-15.7-6.2-21.1-23-17.3-27.3,6.2-73.5,35.1-94.2,56.1ZM50.5,257.5c29.6-26.3,104.4,3.7,133.5,17.7,9.2,4.4,23.9,13.4,33.4,15.2,10.1,1.8,16.2-5.8,22.8-12-1.7.2-3.1,1.4-4.6,2.1-13.7,6.7-23.8.6-36.1-5.3-27.7-13.5-55.8-24.1-86.2-29.8-18.9-3.6-39.7-6.7-56.2,5.4-1.7,1.2-6.8,4.3-6.6,6.8ZM119.4,135.3c1.4,0,2.9,0,4.3,0,3.1-7.8,3.7-15.3,13-18.8,1.6-.7,3.3-1,4.9-1.4,5-.6,17.9,1.7,21.3-.3,1.1-.7,1.8-2.7.9-3.8-1.8-2.1-5.2-1.1-7.5-1.5-3,.9-6.3-.2-9.4-.4-14.7-.9-29.8,10.4-27.5,26.1ZM264.6,159.9c8.9-8.1,6.3-18.7,4.9-29.3-1.9-14.6-4.6-29.1-7.1-43.7-1.1,6.3.7,16.3,1.5,22.8,1.4,12.3,3.6,29.8,2.8,41.4-.3,3.7-1.6,5.6-2.1,8.8ZM360.9,186.6c.3,1.7,6,7.2,7.3,9.6,3.3,6.2,3.7,10.9,5.4,17.3,7.7-11.3-.3-24.4-12.7-27ZM67.3,224c-.4,1.2-.7,2.5-1.2,3.6,2.4-1.2,4.8-2.3,7.2-3.6-2,0-4,0-6,0Z"/>
      <path class="cls-4" d="M341.3,167.3c.7,1.5,2.2,4.7-.2,5.3-2-3.2-.4.8.2,1.2-4.5,5.2-10.6,13.3-14.6,19.2l-1.7,2.3c-3.8,4.1-7,8.5-10.5,12.9l-16.9,21c-14,17.5-28.9,34.6-44.9,50.4-12.9,12.8-22,24.9-41.7,17.7-3.8-2.6-7.3-4.4-10.7-7.6,2.5,0,6.5,2.7,8.9,3.7,17.8,7.4,26.1-2.8,38-14.3,30.5-29.5,55.8-63.9,82.1-97.1,2.7-3.5,5.3-7.3,8.3-10.5l.4-.4c1.5-.3,2.5-2.6,3.3-3.7Z"/>
      <path class="cls-5" d="M284.1,112.1c16.3,6.4,34.6,16.3,50.7,24.2,4.4,2.2,15.9,5.6,13,12.5-1.6,3.7-12.1,17-15.1,20.5-16.2-8.2-34.9-17.3-51.6-24.5.1-4.5-.1-24.9-1.5-27.1.6-2.6,2.2-4.3,4.5-5.6Z"/>
      <path class="cls-4" d="M281.1,144.8c16.6,7.2,35.4,16.4,51.6,24.5-5.6,6.7-10.4,14-15.9,20.9l-21.8,27c-8.3,10.3-44.2,55-54.8,61.1-1.7.2-3.1,1.4-4.6,2.1-13.7,6.7-23.8.6-36.1-5.3-27.7-13.5-55.8-24.1-86.2-29.8-18.9-3.6-39.7-6.7-56.2,5.4-1.7,1.2-6.8,4.3-6.6,6.8-2,1.3-3.7,2.8-5.5,4.4,4.7-12.3,13.1-24,21.2-34.3,2.4-1.2,4.8-2.3,7.2-3.6,4.7-.5,19.2.8,20.8-3.4,12.6.5,25.2-1.8,37.8-1.1.3-13,7.8-25.6,20.3-30.3-2.5-9.6-5-19.7-6.7-29.5,1.6-.7,3.1-1.2,4.8-1.5,2.6,9,3.6,21.3,7.7,29.4h5.5c9-.6,26,.2,33.6,5.2,1.7.2,2.4.9,3.2,2.3,2.1-2.1,21.3-8.7,25.6-10.4,11-3.6,36.3-15.9,43.8-23.2,5.4-.5,10.2-12.5,11.3-16.9Z"/>
      <path d="M145.6,159.9c1.6-.7,3.1-1.2,4.8-1.5,2.6,9,3.6,21.3,7.7,29.4h5.5c9-.6,26,.2,33.6,5.2,1.7.2,2.4.9,3.2,2.3-.7.8-1.4,1.7-2.2,2.4-16.8,6.2-34.4-12-50.4.3-11.1,8.5-9.8,22.6-12.6,24.2-1.9.3-2.8-.9-3.2-2.5.3-13,7.8-25.6,20.3-30.3-2.5-9.6-5-19.7-6.7-29.5Z"/>
      <path class="cls-4" d="M163.6,187.8c9-.6,26,.2,33.6,5.2-9.2,2.7-25-3.5-34.8-5.2h1.2Z"/>
      <path class="cls-3" d="M50.5,219.6c-11.1-7-13.9-14.7-17.3-26.4-7.3-25-12.9-50.9-17.5-76.5-2.3-13-7.7-31.7,4.3-41.6,8.3-6.9,33.9-9.9,44.9-10.4,22.8-.9,40.5,4.2,61.4,6.2h.3c4.3,11.1,4,23.9,9.4,34.7-23.1,6.1-27.4,35.2-16.6,29.7,1.4,0,2.9,0,4.3,0,3.1-7.8,3.7-15.3,13-18.8,1.6-.7,3.3-1,4.9-1.4,2.8,10.5,5.4,20.9,7.5,31.6,4.4-1.1,20.6-5.8,18.1,3.3-14,0-34.7,2.9-35.3,21,1.1,1,2.9.3,4.1,0l.4-1c2-5.2,4-7.9,9.2-10.2,1.7,9.8,4.1,19.9,6.7,29.5-12.6,4.6-20,17.3-20.3,30.3-12.6-.7-25.2,1.5-37.8,1.1-.2-.8-.4-2.1-1-2.7-.7-.6-35.5,1.8-42.7,1.7Z"/>
      <path d="M62,74.6c6-.4,35.7,3.3,38.1,6.2,4.7,5.5-10.2,2.4-11.4,2.1-9.1-2.1-20.5-4.1-29.8-2.8-2.2.3-5.7,1.5-7.8.9-7.1-5.2,9.1-6.2,10.9-6.4Z"/>
      <path d="M136.7,116.5c1.6-.7,3.3-1,4.9-1.4,2.8,10.5,5.4,20.9,7.5,31.6,4.4-1.1,20.6-5.8,18.1,3.3-14,0-34.7,2.9-35.3,21-.5,1.8-2.8,2.3-4.3,1.8-2.8-2.1.2-8.4,1.4-10.8,2.9-6.4,8.7-11.3,15.2-13.7-2.1-10.7-5.4-21.2-7.4-31.8Z"/>
      <path class="cls-3" d="M131.9,70.9c25.1-21.1,61.7-50.1,94.1-54.1,8.5-1.1,14.3,1.5,20.9,6.7,5.3,17.5,9.3,35.7,13.4,53.5.7,3.2,1.8,6.6,2.1,9.8-1.1,6.3.7,16.3,1.5,22.8,1.4,12.3,3.6,29.8,2.8,41.4-.3,3.7-1.6,5.6-2.1,8.8-8.4,6.3-18.9,10.6-28.4,15-5.2,2.4-14.8,4-10.3,10-4.3,1.7-23.4,8.3-25.6,10.4-.8-1.4-1.5-2.1-3.2-2.3-7.6-5-24.6-5.8-33.6-5.2h-5.5c-4.1-8.1-5.1-20.4-7.7-29.4-1.7.3-3.2.8-4.8,1.5-5.2,2.3-7.3,5-9.2,10.2l-.4,1c-1.2.3-3,1-4.1,0,.6-18.2,21.3-21.1,35.3-21,2.6-9.1-13.7-4.4-18.1-3.3-2.1-10.6-4.7-21.1-7.5-31.6,5-.6,17.9,1.7,21.3-.3,1.1-.7,1.8-2.7.9-3.8-1.8-2.1-5.2-1.1-7.5-1.5,1.5-8.3-11.3-5.9-16-5.1-2.4-11.3-5.3-22.5-8.4-33.6Z"/>
      <path d="M211.1,29.5c1.8.3,3.2,1.5,2.7,3.4-.7,2.6-7.7,4.3-10.2,5.3-10.6,4.3-23.9,13-33,19.9-3.7,2.8-8.6,7.6-12.5,9.7-8.2-1.4,1.5-7.8,3.2-9.1,13.2-10.5,33.6-24.3,49.8-29.1Z"/>
      <path class="cls-2" d="M167.2,150c3,.3,8.4-1.1,10.6,1.5,5.7,6.6-9.8,4.7-12.2,4.8-3.1.1-6.3.8-9.4.8,2.6,10.1,4.2,20.7,7.3,30.7h-5.5c-4.1-8.1-5.1-20.4-7.7-29.4-1.7.3-3.2.8-4.8,1.5-5.2,2.3-7.3,5-9.2,10.2l-.4,1c-1.2.3-3,1-4.1,0,.6-18.2,21.3-21.1,35.3-21Z"/>
      <path class="cls-1" d="M341.3,173.8c2.6.6,4.8,1.9,7.3,2.7,3.8,3.5,7.4,8.2,12.3,10.1.3,1.7,6,7.2,7.3,9.6,3.3,6.2,3.7,10.9,5.4,17.3-3.3,6-9.3,12.2-13.6,17.8l-81.6,106c-3.6,4.7-12,12.7-12.4,18.8-1.3.4-4.3,3.1-5.8,4-12.8,7.6-20.2,2.3-31-2.9-43.2-20.8-97.3-35.8-145-36.4-7.3,0-16,.7-23-1.1-14.7-3.8-20.4-22.4-17-35.7,11.5-44.4,95.3-16.5,122.1-5.5,13.8,5.7,30.7,15,44.8,18.8,19.7,7.2,28.8-4.9,41.7-17.7,15.9-15.8,30.8-32.9,44.9-50.4l16.9-21c3.5-4.3,6.7-8.8,10.5-12.9l1.7-2.3c4-5.9,10.1-13.9,14.6-19.2h0Z"/>
      <path class="cls-2" d="M326.7,193c2,1.3,4.6,3.4,5.1,5.8,1.4,6.5-6.3-3-6.8-3.5l1.7-2.3Z"/>
      <path d="M339.3,195.3c5.2,1.6,2.5,4.5.3,7.4-5.7,7.4-11.7,14.6-17.5,21.9l-45.6,56.8c-2.7,3.3-5.4,7.8-8.8,10.3-1.5-.3-2.9-.9-3.2-2.6.8-3.8,42.9-54,48.9-61.5l17.9-22.7c2.4-3.1,5-7.2,8.1-9.6Z"/>
      <path d="M85.7,282.6c28.9-.1,49.3,3.8,77.1,13.6,6.8,2.4,50.5,20.7,53,27,2.6,6.7-9-.4-11-1.8-3-1.3-5.9-3.2-8.8-4.7-29.9-16-80-33.5-115.2-28.4-1.7.3-6.8,1.5-8,.5-6.5-5.2,11.3-6.1,12.9-6.2Z"/>
    </g>
  </g>
</svg>