<?xml version="1.0" encoding="UTF-8"?>
<svg xmlns="http://www.w3.org/2000/svg" version="1.1" viewBox="0 0 429.9 361">
  <defs>
    <style>
      .cls-1 {
        fill: #010101;
      }

      .cls-2 {
        fill: #fff;
      }

      .cls-3 {
        fill: #fc625d;
      }

      .cls-4 {
        fill: #14bbab;
      }

      .cls-5 {
        fill: #a74ccb;
      }

      .cls-6 {
        fill: #5762ee;
      }
    </style>
  </defs>
  <!-- Generator: Adobe Illustrator 28.7.1, SVG Export Plug-In . SVG Version: 1.2.0 Build 142)  -->
  <g>
    <g id="_Слой_1" data-name="Слой_1">
      <path class="cls-1" d="M59.7,179.7c6.9.4-1.4,6.7-2.4,7.6-12.6,11.8-12.3,26.1-15.2,29.1-3.3-.4-3.1-2.6-2.6-5.3,2.3-12.4,9.9-24.1,20.2-31.3Z"/>
      <path class="cls-1" d="M56.2,168.1c2.1-.2,4.2-.5,6,.8,2.2,3.8-6.7,3.8-8.6,4.3-15.9,4-29.9,17.1-36.5,31.8-.7,1.1-1.6,2.2-3,2.2-4.3-2.6,3.4-11.9,5.1-14.4,8.3-12.1,22.5-22,37-24.7Z"/>
      <path class="cls-1" d="M161,.1c12.2-2.8,25,37.4,26.5,46.2.9,5.3.7,10.6,1.6,15.9,25.9,28.3,25.2,33.2,61.3,44.2,53.9,16.4,84.9,99.7,85.4,150.1.3,27.1-6.1,44.6-24.7,63.4,24.1,8.2,48.8-3,64.3-22.1,18.3-22.6,19.2-52.2,11.3-78.9-1-3.2-2.1-6.5-2.5-9.9-2.3-23.6,40.8-40,45.3,26.4,2.3,34.4-10.6,71.2-36,95.1-2.5,2.4-5.4,4.6-7.6,7.2l-.3.3c-4.4,2.8-8.5,6.1-13,8.8-30.7,18.5-68.2,20.1-97.5-1.9-2.8-2.1-5.7-4.3-8-6.9h-.7c-28.9,3.9-52.8,4-81.4.1-12.4-1.7-19.6-1.8-27.2-12.8-3.1-4.4-4-1.4-9.9-1.6-19-.7-29-23.8-13.5-33.6,8.3-5.3,10.6-7.4,11.4-18,1.8-22.7-8.7-44.2-15.2-65.4-1.5-4.9-1.1-10.7-2.7-15.1-2.2-6-6.6-10-7.6-17-46.6,8-66.9-20.3-85.1-57.4-4.2-8.5-4.7-7.4-11.3-14.1C15.1,94-2.6,67.3.3,55.9c1.1-4.5,8.3-6.4,12.1-7.6,13.9-4.3,28.4-3.7,42.4-.2,21.2-16.2,38-23.5,65.6-23.3C129.5,15.6,148.2,1.6,161,.1ZM161,8.7c-10.6,17.1-9.7,23-14.9,39.4,5.2.8,30,10.9,29.2,16.6-.7,4.8-8.5-2.6-9.8-3.5-4.4-3.3-10.2-6.4-15.5-7.9-7.7-2.2-8.7-1.2-7.1-10.3,2.4-13.8,6.1-20,11.5-31.8-15,5.2-17.5,11.8-27.9,19.1-1.6,0-3.3.1-4.9,0-2.6,1.4-7.3,9.3-10.1,8.2-2.1-.8-.9-2.8,0-4l.7-.8c-18.4,0-41.6,9.7-54.6,22.8l-1.4,1.5c-13.6-3.5-30.5-6.5-43.9-.4l-.9.4c9.1.6,28.1,11.2,33.9,18.3-4.2,10.1-12.4,25.1-7.9,35.8,6.7,16.2,25.5,43.5,39,52.8,2-2.6,4.7-6.1,8.2-6.6,7.4-1.1-3.1,7.7-3.2,7.7l-.3.4c0,0-.1.2-.2.2,13.6,12,54.2,1.1,68.1-6l-.2-.3c4.1-4.9,14.7-12,20.3-17.8-3.7-2.8.2-5.5,3.7-3.8,2.2-2.2,4.1-4.5,5.8-7.1-9.2.3-17.8-.5-26.7,2.8-2.3.9-5.2,3.7-7.6,2.6l-.2-.6v.5c-1-1-.7-2.2.3-3.2,7.8-7.9,25.5-5.8,35.8-6.1h.3c.5-2.1,4-7.6,5.1-10.3,6.4-16.1,3.2-24.6-.3-39.2-.2-.7-.6-1.2-.9-1.9-1.7-2.1-4.6-6.4-6-8.8,1.9-3.6,1-7,.6-10.9-1.4-16.8-6.9-35-18.3-47.7ZM195.6,76.1c-.3.8-.2,1,0,1.9,9.6,9,14.4,18.1,26.6,26.9,9.6,6.9,16,7.3,26.3,11,11.4,4.1,21.2,11.6,29.8,20,29.6,29.2,42.1,67.1,46.8,107.3,5.9,43.6-10.5,77-55.4,85.3-8.9-14.6-34.2-27.1-50.6-28-8.9,1.3-17.7,2-26.8,1.5-8.6-.5-19.2-3.5-26.6,2.5-10.2,8.4-5.9,23.1,6.2,27.2,3.7,1.2,7.7,1.3,11.5,1.8,35.4,4.7,98.4,7.6,126-17.7,51.8-47.4,4.9-186-62.9-206.3-26.8-8-31.1-11.6-51-33.3ZM395.9,250.1c-.5,11.9-2,21.8-6.6,33.1,5.3.8,10.5-10.5,19.6,0,1.1,1.3,2,2.8,3.1,4.1-10,25.5-34.8,52.4-59.5,63.3-1.7.7-5.2,1.7-6.4,3v.3c59.1-14.8,94.2-89.3,73.1-146.1-4.1-11-14.1-21.7-25.5-11.4-9.5,8.6-3,19.3-.3,29.4,2,7.8,3,16.3,2.6,24.3ZM210.4,252.2c-3.7,9.3-21.6,31.3-29.9,34.9-8.8,3.8-19.9-.6-26.9-6.4-8.3,13.1-13.6,8.3-19.2,15.1-5.4,6.6-3.2,15.4,3.4,20.2,5.6,4.1,11.5,3.6,18,2.7-.4-18.8,12.8-23.3,28.9-21,2.5-6,7.9-10.8,11.8-16,19.5-25.7,34.4-48.2,37.3-81.1.3-3.2,0-7.3,1.9-10.1-8.3-8.6-7.5,14.8-8.5,20-2.6,13.7-9.2,29.8-16.7,41.6ZM56.2,53c-16.8-4.1-34.7-6-50.5,2.8,1.9.7,3.7,1.4,5.6,2l.9-.4c13.4-6.1,30.3-3.1,43.9.4l1.4-1.5c13-13.1,36.3-22.7,54.6-22.8,1.5-1.4,2.8-3.1,4.1-4.6-17.4-.2-48.6,9.4-60.2,24.1ZM235.6,216.3c-.3,2.2-.7,4.4-1.4,6.5,19.1-4.4,40.6,5.4,53.1,20.1,2,2.3,9.6,15.1,12.3,7.2-3.6-1.9-5.3-6.3-7.8-9.3-15.7-19-33-24.6-56.2-24.4ZM163.9,5.2c-1,1.2-1.9,2.3-2.8,3.6,11.4,12.7,16.9,30.9,18.3,47.7.3,3.9,1.3,7.3-.6,10.9,1.4,2.4,4.3,6.7,6,8.8-.9-4,0-8.9.2-13,.4-17.5-7.8-46.9-20.9-58ZM128.9,172.5c-1.6.4-3.3.7-4.9,1.3,7,19.1,21.3,37.1,39.9,45.7.6.3,1.2.5,1.9.6l.5-.2.2-.8v-.8c-16.5-11.1-24.6-17.5-34-36.4-1.5-3-3.1-6-3.6-9.4ZM158.5,5.2c-12.9,3.8-29,14.6-36.8,25,1.6.1,3.3,0,4.9,0,10.4-7.3,12.9-13.8,27.9-19.1l4-6ZM189.8,69.8c1.1,2.5,2.9,5,3.5,7.7.8.2,1.6.4,2.4.5-.2-.8-.3-1.1,0-1.9-1.8-2.2-3.8-4.3-5.8-6.4Z"/>
      <path class="cls-2" d="M178.8,131.6l5.8.9c-2.2,3.1-4.9,5.9-7.5,8.7-1.4-.8-2.8-1.8-4.2-2.5,2.2-2.2,4.1-4.5,5.8-7.1Z"/>
      <path class="cls-2" d="M169.2,142.5c1.6.5,3.1.9,4.6,1.6-6.7,6.6-16,13.1-24.8,16.5l-.2-.3c4.1-4.9,14.7-12,20.3-17.8Z"/>
      <path class="cls-4" d="M203.7,279.8c.8.7,3.4,7.2,4.3,8.7,1.8,3.1,4.2,5.8,6.6,8.4-4.5.7-9.1.9-13.7,1-3.7.2-7.4,0-11.1,0,1.6-3.2,11-15,13.8-18Z"/>
      <path class="cls-2" d="M185.5,78c1,0,2.8-.2,3.6,0,5.8,19.4,7.1,31.2-2.7,50.9-1.9-.3-3.8-.8-5.7-1.4.5-2.1,4-7.6,5.1-10.3,6.4-16.1,3.2-24.6-.3-39.2Z"/>
      <path class="cls-4" d="M133.6,200c1.6,2,3.1,4,4.9,5.9,6.5,7,14.2,12.5,22.6,17-6.6,2.8-11.1,4.8-17.1,9.1-3.1-7.5-5.6-15.6-8-23.4-.8-2.8-1.7-5.7-2.3-8.5Z"/>
      <path class="cls-3" d="M161,222.8c1.8.6,3.6,1.2,5.5,1.7-6.5,18-5.3,36.5-17.4,55.3,3.3-16.6-.3-32.1-5.2-47.9,6-4.2,10.5-6.3,17.1-9.1Z"/>
      <path class="cls-5" d="M4.7,60.9c11.6,1.2,27,8.2,35.2,16.6-3.5,6.5-5.7,13.3-7.1,20.5-.3,2.3-.7,4.6-1.1,6.8-13.3-13.8-21.2-25.1-26.9-43.9Z"/>
      <path class="cls-3" d="M170.3,225.5c17.2-5,29.5,2.6,36.6,18.7,1.2,2.6,1.9,5.6,3.5,8-3.7,9.3-21.6,31.3-29.9,34.9-8.8,3.8-19.9-.6-26.9-6.4,9-17.3,12.9-36.2,16.7-55.2Z"/>
      <path class="cls-4" d="M395.9,250.1c6.3-5.9,14.2-7.7,20.6-.6,7.9,8.7-.4,29-4.4,37.8-1.1-1.3-2-2.8-3.1-4.1-9.2-10.5-14.3.8-19.6,0,4.6-11.2,6.1-21.2,6.6-33.1Z"/>
      <path class="cls-6" d="M389.3,283.1c5.3.8,10.5-10.5,19.6,0,1.1,1.3,2,2.8,3.1,4.1-10,25.5-34.8,52.4-59.5,63.3-1.7.7-5.2,1.7-6.4,3v.3c-20.5,10-58.2-2.6-74.1-17.1,12.7-.8,25.7-6.7,35.8-14.1,32.2,15.1,68.8-10,81.6-39.6Z"/>
      <path class="cls-6" d="M234.2,222.8c19.1-4.4,40.6,5.4,53.1,20.1,2,2.3,9.6,15.1,12.3,7.2.7-1,1.6-1.7,2.2-2.8,2.2-2.1,19.8-3.2,21.9-2l.3-.2c-1.3.7-.6.9.7,1.1l.4-.6c-.1-.8,0-1.6,0-2.3,5.9,43.6-10.5,77-55.4,85.3-8.9-14.6-34.2-27.1-50.6-28,1.7-.1,2.5-1.4,3.4-2.7-8.7-8.5-11.2-10.1-15.6-22.9,13.4-19.7,19.3-28.3,27.3-52.1Z"/>
      <path class="cls-4" d="M193.3,77.5c.8.2,1.6.4,2.4.5,9.6,9,14.4,18.1,26.6,26.9,9.6,6.9,16,7.3,26.3,11,11.4,4.1,21.2,11.6,29.8,20,29.6,29.2,42.1,67.1,46.8,107.3,0,.8-.2,1.6,0,2.3l-.4.6c-1.3-.1-2-.3-.7-1.1l-.3.2c-2.1-1.1-19.7-.1-21.9,2-2.9-5.7-8.7-12-13.3-16.4-15.4-14.7-31.7-19.2-52-18.8,1-4.8,5.7-20.8-.9-21.4-8.3-8.6-7.5,14.8-8.5,20-2.6,13.7-9.2,29.8-16.7,41.6-1.6-2.4-2.3-5.4-3.5-8-7.2-16-19.4-23.6-36.6-18.7,2.3-12.1,3.1-24.7,1.4-36.9-.2-1.4-1.2-7.3-3.8-5.6-2.8,1.9-.4,8.6-.2,11.3.7,8,.4,16.9-1.3,24.8v-.8c-16.5-11.1-24.6-17.5-34-36.4-1.5-3-3.1-6-3.6-9.4,23.8-6.7,31.7-13,49.9-26.8,3,1.5,6.7,4.4,10,4.8,7.2-2-5.7-7.5-6.8-8,2.4-3,4.6-6.1,7.1-9.1,2.4.6,10.8,3,12.7,1.8,5.9-3.7-10.1-5.4-10.8-5.5,7.3-16.7,9.7-35.1,2.3-52.2Z"/>
      <path class="cls-6" d="M161,8.7c11.4,12.7,16.9,30.9,18.3,47.7.3,3.9,1.3,7.3-.6,10.9,1.4,2.4,4.3,6.7,6,8.8.3.6.7,1.2.9,1.9,3.5,14.6,6.7,23.1.3,39.2-1.1,2.7-4.6,8.2-5.1,10.3h-.3c-10.3.3-28.1-1.8-35.8,6.1-1,1-1.3,2.1-.3,3.2v-.5s.2.6.2.6c2.4,1.1,5.3-1.7,7.6-2.6,8.9-3.3,17.5-2.6,26.7-2.8-1.7,2.6-3.7,4.9-5.8,7.1-3.5-1.8-7.5,1-3.7,3.8-5.6,5.8-16.2,12.9-20.3,17.8l.2.3c-14,7.1-54.5,18-68.1,6,0,0,.1-.2.2-.2l.3-.4c0,0,10.6-8.9,3.2-7.7-3.5.5-6.2,4-8.2,6.6-13.4-9.4-32.2-36.6-39-52.8-4.5-10.7,3.7-25.8,7.9-35.8-5.8-7.1-24.8-17.7-33.9-18.3l.9-.4c13.4-6.1,30.3-3.1,43.9.4l1.4-1.5c13-13.1,36.3-22.7,54.6-22.8l-.7.8c-1,1.2-2.2,3.1,0,4,2.8,1.1,7.5-6.8,10.1-8.2,1.6.1,3.3,0,4.9,0,10.4-7.3,12.9-13.8,27.9-19.1-5.4,11.8-9.1,18-11.5,31.8-1.6,9.2-.6,8.1,7.1,10.3,5.3,1.5,11.1,4.6,15.5,7.9,1.2.9,9,8.3,9.8,3.5.9-5.8-23.9-15.8-29.2-16.6,5.2-16.4,4.3-22.3,14.9-39.4ZM101.2,160.6c.7,1.5,1.5,2.5,3.2,2.4l1-.6c8,0,14.8-1.2,21.1-6.4,1.1-1.4,1.7-3,2.4-4.7-18.2-8.6-19.4-6.6-27.7,9.4Z"/>
      <path class="cls-2" d="M96.7,155.9c-1.4-17.6,37.5-20.4,32.2-4.7-18.2-8.6-19.4-6.6-27.7,9.4-1.9-1.4-3.3-2.6-4.5-4.7Z"/>
      <path class="cls-1" d="M80.9,127.5c10.2.1,5.9,27.1-11.8,19.9-2.4-1.3-6.4-4.5-6.2-7.5.1-2.1,5.7-.8,7.3-1,9.1-1,6.1-7.8,10.8-11.4Z"/>
      <path class="cls-1" d="M101.2,160.6c8.3-16,9.5-18,27.7-9.4-.6,1.7-1.2,3.2-2.4,4.7-6.3,5.2-13.2,6.4-21.1,6.4l-1,.6c-1.7.1-2.6-.9-3.2-2.4ZM112.3,151.2c-2.6,3.5-4.7,7.4-6.9,11.1,8,0,14.8-1.2,21.1-6.4-4.5-3-9-4-14.3-4.7Z"/>
      <path class="cls-1" d="M140.5,107.3c11.9,4-.8,30.5-16.5,18-2.7-2-5-4.9-5.1-8.4,0-5.7,6.9,0,9.7-.1,6.3,0,8-5.8,11.8-9.5Z"/>
    </g>
  </g>
</svg>