<?xml version="1.0" encoding="UTF-8"?>
<svg xmlns="http://www.w3.org/2000/svg" version="1.1" viewBox="0 0 371.4 271.5">
  <defs>
    <style>
      .cls-1 {
        fill: #5661ee;
      }

      .cls-2 {
        fill: #fff;
      }

      .cls-3 {
        fill: #15bbab;
      }

      .cls-4 {
        fill: #fc625d;
      }

      .cls-5 {
        fill: #0303df;
      }

      .cls-6 {
        fill: #c00300;
      }
    </style>
  </defs>
  <!-- Generator: Adobe Illustrator 28.7.1, SVG Export Plug-In . SVG Version: 1.2.0 Build 142)  -->
  <g>
    <g id="_Слой_1" data-name="Слой_1">
      <path class="cls-3" d="M368.3,235.6c9.2,14.8-3.5,34.8-20.2,35.7-8.4.4-16.9.1-25.4.1H48c-10,0-19.9.7-27.5-7.2,2.2-.1,4.6,1.1,6.9,1.2,5.8.4,11.7.1,17.5.1h284.6c17.2,0,33.4-1.9,37.8-23.2.5-2.2.3-4.5.9-6.7Z"/>
      <path class="cls-4" d="M367.4,134.7c7.4,15.4-.3,33.3-17.8,34.2-3.2.2-6.6-.3-9.9-.3H66.7c-15.3,0-39.4,2.8-50.1-9.4,1.7,0,4.5,1.7,6.2,2.3,5.5,1.9,11.3,1.2,17,1.2h279.9c23.8,0,43.3,1.4,47.7-28Z"/>
      <path class="cls-1" d="M368.3,30.6c5.4,15.7-3.6,34.2-21.2,35.7-5.1.4-10.7-.1-15.8-.1H56.9c-15.2,0-28.6,1.7-40.4-9.4,1.3,0,2.7.7,4,1.1,7.3,2.3,14.4,1.7,22,1.7h276.8c7,0,14.2.2,21.2,0,24.5-.8,26.2-27.6,27.8-29Z"/>
      <path d="M16.5,56.7C-7.4,42.4-4.9,8.9,21,1.5,28.3-.7,36.6.1,44.2.2h273c19.4,0,43.1-2.6,49.6,22.3.6,2.5.7,5.2,1.4,7.6v.5c-1.4,1.4-3.2,28.2-27.6,29-7,.2-14.2,0-21.2,0H42.5c-7.6,0-14.7.6-22-1.7-1.3-.4-2.7-1.1-4-1.1ZM12.6,48.5c-5.4-18.5,1.9-36.9,23-39.4,5.4-.6,10.9-.5,16.4-.5h264.6c10.6,0,21.8-.9,32.3.7,1.3.2,2.5.5,3.8.6-11.5-7.7-23.8-5.3-37-5.3H37.6c-4.3,0-8.8-.5-13,.4C4.6,8.9-3.4,34.8,12.6,48.5Z"/>
      <path class="cls-1" d="M12.6,48.5c-5.4-18.5,1.9-36.9,23-39.4,5.4-.6,10.9-.5,16.4-.5h264.6c10.6,0,21.8-.9,32.3.7,1.3.2,2.5.5,3.8.6,18.3,13.2,11,42-11.5,45.2-4.9.7-10.1.4-15,.4H49.5c-11.4,0-28.3,2.6-36.9-7Z"/>
      <path class="cls-2" d="M43.6,37.2c-3.5-.9-2.4-4,1-4.3,5.8-.5,14.9,0,21,0h22c3.2,0,13.2-1,15.6,1-.3,2.3-.3,3-2.7,3.1-6.5.3-13.1,0-19.6,0h-37.2Z"/>
      <path class="cls-5" d="M103.2,34c3.4.6,5.8,5.6,2.3,7.7-2.3,1.3-57.1.9-59.1,0-1.8-.8-2.4-2.8-2.8-4.6h37.2c6.5,0,13.1.3,19.6,0,2.4-.1,2.5-.8,2.7-3.1Z"/>
      <path d="M16.5,159.2c-26.2-14-18.9-52.5,10.6-56,4.7-.6,9.6-.3,14.4-.3h274.5c7.6,0,15.3-.3,22.9,0,16.4.7,29.2,15.6,28.4,31.7-4.4,29.4-23.9,28-47.7,28H39.7c-5.7,0-11.5.7-17-1.2-1.7-.6-4.5-2.4-6.2-2.3ZM14.7,152.8c-.1-.5,0-.3-.3-.7-9.4-18.5.9-38.8,21.9-40.6,7.1-.6,14.3-.3,21.4-.3h278.4c4.9,0,8.7-.5,13.6,0-9.1-6.3-23.3-4-34.1-4H38.6c-12.2,0-21.8-.2-29.7,11.3-7.3,10.6-5.5,27.1,5.8,34.3Z"/>
      <path class="cls-4" d="M349.8,111.2c2.9.4,6.2,3.9,7.9,6.1,11.5,14.9,3,39.5-16.9,40.8-7.7.5-15.6.1-23.3.1H37.2c-7.4,0-17.1.8-22.5-5.4-.1-.5,0-.3-.3-.7-9.4-18.5.9-38.8,21.9-40.6,7.1-.6,14.3-.3,21.4-.3h278.4c4.9,0,8.7-.5,13.6,0Z"/>
      <path class="cls-2" d="M44.5,139.4c-1.9-.7-3.6-3.3-1-4.1,3.7-1.2,46.8-1,56.8-.6,3.2.1,3.5.5,3.9,3.7l-.3.2v.2c-2.4,1.5-18.2.6-21.9.6h-37.5Z"/>
      <path class="cls-6" d="M104.1,138.4c1.1-4.3,7.7,5.5-1.6,6-15.7.8-36.8.5-52.5,0-4-.2-5.6-.9-5.5-4.9h37.5c3.7,0,19.5,1,21.9-.6v-.2s.2-.2.2-.2Z"/>
      <path d="M20.5,264.2c-29.3-11.6-24.7-53,4.8-57.9,5.1-.9,10.6-.5,15.7-.5h278.4c25.4,0,44-.6,48.9,29.9-.7,2.2-.5,4.5-.9,6.7-4.5,21.3-20.6,23.2-37.8,23.2H44.9c-5.8,0-11.7.3-17.5-.1-2.3-.2-4.7-1.3-6.9-1.2ZM15.5,256.2c-10.7-18-.9-40.5,21-42.2,7.5-.6,15.2-.3,22.8-.3h273.5c9.3,0,10.3-.1,19.4,1.2h.5c-10.2-7.1-22.5-4.8-34.2-4.8H38.9c-4.5,0-9.3-.4-13.7.4-22.8,4-27,36.4-9.7,45.7Z"/>
      <path class="cls-3" d="M15.5,256.2c-10.7-18-.9-40.5,21-42.2,7.5-.6,15.2-.3,22.8-.3h273.5c9.3,0,10.3-.1,19.4,1.2h.5c16.1,9.8,13.4,40.1-7.8,45.2-5.6,1.3-12,.9-17.7.9H53.5c-10,0-29.9,2.4-37.9-4.8Z"/>
      <path d="M104.1,240c3,.6,4.8,4.5,1.3,6-1.4.6-62.4.5-63.6,0-1.4-.6-1.7-2.4-2.1-3.7h45.8c3.7,0,13.7.6,16.8,0,1.1-.5,1.3-1.2,1.7-2.3Z"/>
      <path class="cls-2" d="M102.4,242.3h-41.9c-1.1,0-28.7,2.2-22.1-4.1,2.8-.6,63.4-.6,64.7-.2.7.7.7,1.1,1,2-.4,1-.7,1.8-1.7,2.3Z"/>
    </g>
  </g>
</svg>