<?xml version="1.0" encoding="UTF-8"?>
<svg id="OBJECTS" xmlns="http://www.w3.org/2000/svg" viewBox="0 0 847.34 178.88">
  <defs>
    <style>
      .cls-1 {
        fill: none;
        stroke: #212193;
        stroke-linecap: round;
        stroke-linejoin: round;
        stroke-width: 2.27px;
      }

      .cls-2 {
        fill: #ff5b85;
      }

      .cls-3 {
        fill: #ff8a50;
      }

      .cls-4 {
        fill: #ffc766;
      }
    </style>
  </defs>
  <g>
    <path class="cls-1" d="M156.75,1.37H28.28C13.35,1.37,1.13,13.59,1.13,28.52v4.52c0,14.93,12.22,27.13,27.15,27.13h35.18"/>
    <path class="cls-1" d="M63.68,60.16l98.86-.04c14.93,0,27.15,12.22,27.15,27.15v4.52c0,14.93-12.22,27.14-27.15,27.14H28.37c-14.93,0-27.15,12.21-27.15,27.14v4.52c0,14.93,12.22,27.15,27.15,27.15h165.05"/>
    <path class="cls-4" d="M32.81,11.42c-11,0-20,9-20,20s9,20.01,20,20.01h116.03V11.42H32.81Z"/>
    <path class="cls-1" d="M31.09,11.42c-11,0-20,9-20,20s9,20.01,20,20.01"/>
    <path class="cls-2" d="M32.81,129.16c-11,0-20,9-20,20s9,20.01,20,20.01h133.75v-40.01H32.81Z"/>
    <path class="cls-1" d="M32.81,129.16c-11,0-20,9-20,20s9,20.01,20,20.01"/>
    <path class="cls-3" d="M158.55,109.73c11,0,20.01-9,20.01-20s-9-20.01-20.01-20.01H36.24v40.01s122.32,0,122.32,0Z"/>
    <path class="cls-1" d="M158.55,109.73c11,0,20.01-9,20.01-20s-9-20.01-20.01-20.01"/>
    <line class="cls-1" x1="28.95" y1="20.56" x2="153.27" y2="20.56"/>
    <line class="cls-1" x1="28.95" y1="42" x2="153.27" y2="42"/>
    <line class="cls-1" x1="23.8" y1="79.73" x2="153.27" y2="79.73"/>
    <line class="cls-1" x1="22.09" y1="30.86" x2="156.71" y2="30.86"/>
    <line class="cls-1" x1="35.81" y1="138.88" x2="170.42" y2="138.88"/>
    <line class="cls-1" x1="35.81" y1="161.16" x2="170.42" y2="161.16"/>
    <line class="cls-1" x1="30.67" y1="150.3" x2="175.58" y2="150.3"/>
    <line class="cls-1" x1="25.52" y1="101.16" x2="160.13" y2="101.16"/>
    <line class="cls-1" x1="28.95" y1="89.73" x2="165.27" y2="89.73"/>
    <line class="cls-1" x1="169.99" y1="1.13" x2="161.99" y2="1.13"/>
    <line class="cls-1" x1="183.71" y1="1.13" x2="179.13" y2="1.13"/>
  </g>
  <g>
    <path d="M258.48,133.75h-12.85l-22.04-63.85-10.52,20.67v43.17h-12.07V3.23h12.07v59.99L243.41,3.23h13.96l-26.25,52.7,27.36,77.83h0Z"/>
    <path d="M319.7,3.23v130.53h-12.08v-56.75h-34.34v56.75h-12.07V3.23h12.07v56.75h34.34V3.23h12.08Z"/>
    <path d="M388.29,3.23v130.53h-12.08V37.88l-37.11,95.87h-10.63V3.23h11.96v96.07L377.64,3.23h10.64Z"/>
    <path d="M445.57,3.23v17.22h-36.44v113.31h-12.07V3.23h48.52,0Z"/>
    <path d="M509.66,68.9c0,22.84-2.79,39.7-8.36,50.58s-14.05,16.31-25.42,16.31-19.75-5.44-25.37-16.31-8.42-27.73-8.42-50.58,2.81-41.01,8.42-51.68c5.61-10.67,14.07-16.01,25.37-16.01s19.84,5.33,25.42,16.01c5.58,10.68,8.36,27.9,8.36,51.68ZM497.58,68.91c0-18.11-1.75-30.78-5.26-38.01s-8.99-10.85-16.45-10.85-12.83,3.62-16.34,10.85-5.26,19.9-5.26,38.01c0,17.16,1.75,29.49,5.26,36.99,3.51,7.5,8.95,11.25,16.34,11.25s12.94-3.75,16.45-11.25,5.26-19.83,5.26-36.99Z"/>
    <path d="M585.86,3.23v130.53h-11.96V39.09l-19.27,72.16h-7.31l-19.38-72.16v94.66h-11.97V3.23h12.41l22.6,84.52,22.49-84.52h12.41-.02Z"/>
    <path d="M656.1,133.75h-12.41l-7.09-33.65h-28.69l-7.09,33.65h-12.51L615.57,3.23h13.51l27.03,130.53h0ZM634.61,83.08l-12.4-59.8-12.4,59.8h24.81,0Z"/>
    <path d="M717.11,3.23v130.53h-12.08v-56.75h-34.34v56.75h-12.07V3.23h12.07v56.75h34.34V3.23h12.08Z"/>
    <path d="M785.71,3.23v130.53h-12.08V37.88l-37.11,95.87h-10.63V3.23h11.96v96.07L775.07,3.23h10.64Z"/>
    <path d="M847.34,3.23v130.51h-12.07v-46.21h-13.4c-2.73,0-4.67.75-5.82,2.23-1.15,1.49-2.13,3.99-2.94,7.5l-8.75,36.48h-12.4l8.97-37.9c.74-3.38,1.48-6.08,2.21-8.1.74-2.03,1.77-3.92,3.11-5.67-4.73-2.57-8.35-7.1-10.86-13.58-2.51-6.48-3.77-14.32-3.77-23.51,0-12.84,1.83-23.01,5.48-30.51,3.66-7.5,9.47-11.25,17.45-11.25h32.79ZM835.25,69.72V20.45h-18.61c-8.64,0-12.96,8.18-12.96,24.53,0,8.65,1.25,14.94,3.76,18.85,2.51,3.92,5.95,5.88,10.3,5.88h17.51Z"/>
  </g>
  <g>
    <path d="M197.56,145.08v-2.46h13.77v2.46h-5.61v22.68h-2.56v-22.68h-5.61Z"/>
    <path d="M226.83,148.68c2.86,0,5.24,1.04,7.12,3.11,1.71,1.89,2.57,4.13,2.57,6.72s-.9,4.87-2.71,6.81c-1.81,1.94-4.13,2.91-6.98,2.91s-5.18-.97-6.99-2.91c-1.81-1.94-2.71-4.21-2.71-6.81s.86-4.81,2.57-6.7c1.88-2.08,4.26-3.13,7.14-3.13ZM226.82,151.02c-1.99,0-3.7.73-5.13,2.2s-2.14,3.25-2.14,5.33c0,1.34.33,2.6.98,3.76.65,1.16,1.53,2.06,2.64,2.69,1.11.63,2.33.95,3.65.95s2.54-.32,3.65-.95c1.11-.63,1.99-1.53,2.64-2.69.65-1.16.98-2.42.98-3.76,0-2.08-.72-3.86-2.15-5.33s-3.14-2.2-5.12-2.2Z"/>
    <path d="M260.16,167.75h-2.55l-6.22-13.54-6.17,13.54h-2.56l8.53-18.59h.43l8.55,18.59Z"/>
    <path d="M269.65,156.53h2.27c1.81,0,3.23.14,4.26.43,1.03.29,1.91.91,2.65,1.89.74.97,1.11,2.09,1.11,3.36,0,1.53-.54,2.83-1.61,3.92-1.07,1.09-2.69,1.63-4.87,1.63h-6.19v-18.59h2.38v7.37ZM269.73,158.71v7.02h2.75c3.24,0,4.85-1.14,4.85-3.42,0-.65-.17-1.29-.52-1.91-.35-.63-.85-1.07-1.52-1.32-.67-.25-1.84-.38-3.53-.38h-2.03Z"/>
    <path d="M287.23,149.16h2.39v7.83l8.62-7.83h3.33l-9.43,8.51,10.18,10.08h-3.39l-8.55-8.6-.75.67v7.93h-2.39v-18.59Z"/>
    <path d="M317.06,148.68c2.86,0,5.24,1.04,7.12,3.11,1.71,1.89,2.57,4.13,2.57,6.72s-.9,4.87-2.71,6.81c-1.81,1.94-4.13,2.91-6.98,2.91s-5.18-.97-6.99-2.91c-1.81-1.94-2.71-4.21-2.71-6.81s.86-4.81,2.57-6.7c1.88-2.08,4.26-3.13,7.14-3.13ZM317.06,151.02c-1.99,0-3.7.73-5.13,2.2s-2.14,3.25-2.14,5.33c0,1.34.33,2.6.98,3.76.65,1.16,1.53,2.06,2.64,2.69,1.11.63,2.33.95,3.65.95s2.54-.32,3.65-.95c1.11-.63,1.99-1.53,2.64-2.69.65-1.16.98-2.42.98-3.76,0-2.08-.72-3.86-2.15-5.33s-3.14-2.2-5.12-2.2Z"/>
    <path d="M347.8,149.16h2.39v7.83l8.62-7.83h3.33l-9.43,8.51,10.18,10.08h-3.39l-8.55-8.6-.75.67v7.93h-2.39v-18.59Z"/>
    <path d="M382.04,158.8h-10.82v8.96h-2.39v-18.59h2.39v7.38h10.82v-7.38h2.39v18.59h-2.39v-8.96Z"/>
    <path d="M395.63,149.16v13.76l13.65-13.76h.19v18.59h-2.39v-13.63l-13.55,13.63h-.29v-18.59h2.39Z"/>
    <path d="M420.66,151.26v16.49h-2.39v-18.59h9.4v2.1h-7.01Z"/>
    <path d="M436.75,149.16v13.76l13.65-13.76h.19v18.59h-2.39v-13.63l-13.55,13.63h-.29v-18.59h2.39Z"/>
    <path d="M470.99,157.26h9.4v2.08h-9.4v-2.08Z"/>
    <path d="M514,158.8h-10.82v8.96h-2.39v-18.59h2.39v7.38h10.82v-7.38h2.39v18.59h-2.39v-8.96Z"/>
    <path d="M527.58,149.16v13.76l13.65-13.76h.19v18.59h-2.39v-13.63l-13.55,13.63h-.29v-18.59h2.39Z"/>
    <path d="M558.53,159.36h-4.2c-1.9,0-3.31-.49-4.22-1.47-.92-.98-1.37-2.34-1.37-4.08v-4.65h2.34v3.37c0,2.16.31,3.51.92,4.02.61.52,1.62.78,3.04.78h3.5v-8.17h2.39v18.59h-2.39v-8.39Z"/>
    <path d="M585.37,161.58l2.02,1.06c-.66,1.3-1.43,2.35-2.29,3.14-.87.8-1.84,1.4-2.92,1.82-1.08.42-2.31.62-3.68.62-3.03,0-5.41-.99-7.12-2.98-1.71-1.99-2.57-4.24-2.57-6.74,0-2.36.72-4.46,2.17-6.31,1.84-2.35,4.29-3.52,7.37-3.52s5.7,1.2,7.59,3.61c1.35,1.7,2.03,3.82,2.05,6.36h-16.73c.05,2.16.74,3.93,2.07,5.31,1.33,1.38,2.98,2.07,4.95,2.07.95,0,1.87-.16,2.76-.49s1.66-.77,2.28-1.31c.63-.54,1.31-1.42,2.04-2.64ZM585.37,156.58c-.32-1.28-.78-2.3-1.39-3.06-.61-.76-1.42-1.38-2.42-1.85-1-.47-2.06-.7-3.17-.7-1.83,0-3.39.59-4.71,1.76-.96.85-1.68,2.14-2.17,3.84h13.86Z"/>
    <path d="M598.32,151.26v16.49h-2.39v-18.59h9.4v2.1h-7.01Z"/>
    <path d="M620.82,148.68c2.87,0,5.24,1.04,7.12,3.11,1.71,1.89,2.57,4.13,2.57,6.72s-.9,4.87-2.71,6.81c-1.81,1.94-4.13,2.91-6.98,2.91s-5.18-.97-6.99-2.91c-1.81-1.94-2.71-4.21-2.71-6.81s.86-4.81,2.57-6.7c1.88-2.08,4.26-3.13,7.14-3.13ZM620.81,151.02c-1.99,0-3.7.73-5.13,2.2-1.43,1.47-2.14,3.25-2.14,5.33,0,1.34.33,2.6.98,3.76.65,1.16,1.53,2.06,2.64,2.69,1.11.63,2.33.95,3.65.95s2.54-.32,3.65-.95c1.11-.63,1.99-1.53,2.64-2.69.65-1.16.98-2.42.98-3.76,0-2.08-.72-3.86-2.15-5.33-1.44-1.47-3.14-2.2-5.12-2.2Z"/>
    <path d="M669.37,141.59v2.29c-1.14.19-3.1.33-5.87.41-2.01.07-3.56.2-4.65.4-1.09.2-2.04.58-2.85,1.14-.81.56-1.49,1.42-2.05,2.56-.55,1.15-.9,2.42-1.04,3.84l-.24,2.62c.65-2.13,1.72-3.69,3.21-4.68,1.49-.99,3.14-1.49,4.96-1.49,2.76,0,5.07.97,6.93,2.91,1.86,1.94,2.78,4.24,2.78,6.92s-.92,4.94-2.77,6.85c-1.85,1.91-4.16,2.87-6.93,2.87s-5.25-1.06-7.22-3.18-2.96-5.46-2.96-10.01c0-3.18.36-5.58,1.09-7.22.72-1.63,1.55-2.81,2.49-3.53.94-.72,2.15-1.28,3.63-1.69,1.48-.41,4.26-.67,8.34-.77,1.26-.03,2.31-.11,3.17-.24ZM668.12,158.56c0-2.06-.72-3.83-2.16-5.32-1.44-1.48-3.15-2.22-5.12-2.22s-3.67.74-5.1,2.22c-1.44,1.48-2.16,3.25-2.16,5.32s.69,3.8,2.08,5.24,3.12,2.16,5.18,2.16,3.81-.72,5.2-2.16,2.08-3.19,2.08-5.24Z"/>
    <path d="M687.24,148.68c2.87,0,5.24,1.04,7.12,3.11,1.71,1.89,2.57,4.13,2.57,6.72s-.9,4.87-2.71,6.81c-1.81,1.94-4.13,2.91-6.98,2.91s-5.18-.97-6.99-2.91c-1.81-1.94-2.71-4.21-2.71-6.81s.86-4.81,2.57-6.7c1.88-2.08,4.26-3.13,7.14-3.13ZM687.23,151.02c-1.99,0-3.7.73-5.13,2.2-1.43,1.47-2.14,3.25-2.14,5.33,0,1.34.33,2.6.98,3.76.65,1.16,1.53,2.06,2.64,2.69,1.11.63,2.33.95,3.65.95s2.54-.32,3.65-.95c1.11-.63,1.99-1.53,2.64-2.69.65-1.16.98-2.42.98-3.76,0-2.08-.72-3.86-2.15-5.33-1.44-1.47-3.14-2.2-5.12-2.2Z"/>
    <path d="M720.56,167.75h-2.55l-6.22-13.54-6.17,13.54h-2.56l8.53-18.59h.43l8.55,18.59Z"/>
    <path d="M730.06,156.53h2.27c1.81,0,3.23.14,4.26.43,1.03.29,1.91.91,2.65,1.89.74.97,1.11,2.09,1.11,3.36,0,1.53-.54,2.83-1.61,3.92-1.07,1.09-2.69,1.63-4.87,1.63h-6.19v-18.59h2.38v7.37ZM730.14,158.71v7.02h2.75c3.24,0,4.85-1.14,4.85-3.42,0-.65-.17-1.29-.52-1.91-.35-.63-.85-1.07-1.52-1.32-.67-.25-1.84-.38-3.53-.38h-2.03Z"/>
    <path d="M775.43,167.75h-27.79v-18.59h2.39v16.34h10.25v-16.34h2.44v16.34h10.25v-16.34h2.44v18.59Z"/>
    <path d="M799.86,161.58l2.02,1.06c-.66,1.3-1.43,2.35-2.29,3.14-.87.8-1.84,1.4-2.92,1.82-1.08.42-2.31.62-3.68.62-3.03,0-5.41-.99-7.12-2.98-1.71-1.99-2.57-4.24-2.57-6.74,0-2.36.72-4.46,2.17-6.31,1.84-2.35,4.29-3.52,7.37-3.52s5.7,1.2,7.59,3.61c1.35,1.7,2.03,3.82,2.05,6.36h-16.73c.05,2.16.74,3.93,2.07,5.31,1.33,1.38,2.98,2.07,4.95,2.07.95,0,1.87-.16,2.76-.49s1.66-.77,2.28-1.31c.63-.54,1.31-1.42,2.04-2.64ZM799.86,156.58c-.32-1.28-.78-2.3-1.39-3.06-.61-.76-1.42-1.38-2.42-1.85-1-.47-2.06-.7-3.17-.7-1.83,0-3.39.59-4.71,1.76-.96.85-1.68,2.14-2.17,3.84h13.86Z"/>
    <path d="M812.81,151.26v16.49h-2.39v-18.59h9.4v2.1h-7.01Z"/>
    <path d="M835.31,148.68c2.87,0,5.24,1.04,7.12,3.11,1.71,1.89,2.57,4.13,2.57,6.72s-.9,4.87-2.71,6.81c-1.81,1.94-4.13,2.91-6.98,2.91s-5.18-.97-6.99-2.91c-1.81-1.94-2.71-4.21-2.71-6.81s.86-4.81,2.57-6.7c1.88-2.08,4.26-3.13,7.14-3.13ZM835.3,151.02c-1.99,0-3.7.73-5.13,2.2-1.43,1.47-2.14,3.25-2.14,5.33,0,1.34.33,2.6.98,3.76.65,1.16,1.53,2.06,2.64,2.69,1.11.63,2.33.95,3.65.95s2.54-.32,3.65-.95c1.11-.63,1.99-1.53,2.64-2.69.65-1.16.98-2.42.98-3.76,0-2.08-.72-3.86-2.15-5.33-1.44-1.47-3.14-2.2-5.12-2.2Z"/>
  </g>
</svg>