<?xml version="1.0" encoding="utf-8" ?>
<svg xmlns="http://www.w3.org/2000/svg" xmlns:xlink="http://www.w3.org/1999/xlink" width="533" height="533">
	<path fill="#010101" transform="scale(1.04176 1.04176)" d="M384.07 225.719C384.884 226.239 385.481 226.912 385.663 227.894C385.833 228.811 372.501 255.016 369.304 245.796C370.188 241.509 374.604 237.229 377.002 233.653C379.001 230.673 380.08 225.998 384.07 225.719Z"/>
	<path fill="#FC625D" transform="scale(1.04176 1.04176)" d="M282.433 404.444C313.379 444.538 265.133 487.134 230.347 459.839C231.837 459.592 238.678 460.772 240.948 460.82C265.74 461.34 286.926 439.559 284.309 414.52C283.963 411.212 282.203 407.751 282.433 404.444Z"/>
	<path fill="#010101" transform="scale(1.04176 1.04176)" d="M199.752 410.743C206.941 373.892 256.597 362.537 277.721 395.196C279.613 398.122 281.011 401.275 282.433 404.444C282.203 407.751 283.963 411.212 284.309 414.52C286.926 439.559 265.74 461.34 240.948 460.82C238.678 460.772 231.837 459.592 230.347 459.839C211.254 451.271 199.495 440.089 199.752 417.253L204.105 417.253C204.508 429.021 208.325 440.148 218.173 447.457C224.972 454.457 236.018 456.812 245.442 456.047C277.765 453.421 290.687 410.212 269.765 392.672C250.617 369.781 208.44 381.39 205.391 410.743L199.752 410.743Z"/>
	<path fill="#5762EE" transform="scale(1.04176 1.04176)" d="M239.559 119.368C251.435 114.087 286.517 116.583 293.077 128.136C289.253 127.446 285.572 126.352 281.691 125.899C252.295 122.468 217.866 136.339 205.391 164.485C206.585 175.84 205.386 186.222 197.969 195.38C184.799 211.638 160.657 212.075 145.772 197.854C147.803 197.621 150.381 198.363 152.455 198.576C172.011 200.58 189.758 188.727 195.272 169.627C197.536 161.784 195.747 154.738 202.345 147.909C207.535 140.166 213.683 132.752 221.916 128.136C227.315 124.212 233.19 121.347 239.559 119.368ZM221.916 128.136C213.683 132.752 207.535 140.166 202.345 147.909C203.628 147.489 207.42 142.464 208.769 141.126C213.517 136.419 218.711 132.425 223.814 128.136L221.916 128.136Z"/>
	<path fill="#14BBAB" transform="scale(1.04176 1.04176)" d="M368.1 101.728C371.485 104.366 374.191 108.728 376.503 112.337C396.064 142.873 402.223 183.131 388.481 217.253C387.306 220.171 386.37 223.462 384.07 225.719C380.08 225.998 379.001 230.673 377.002 233.653C374.604 237.229 370.188 241.509 369.304 245.796L369.116 245.411C367.015 246.408 363.917 251.095 362.168 252.969C368.288 256.868 354.879 266.321 351.998 267.925C344.804 274.988 334.806 281.183 325.371 284.541C316.046 287.861 305.503 287.96 297.973 295.106C281.696 310.552 300.704 337.116 279.507 358.174C266.351 371.244 246.697 372.006 232.742 359.665C234.562 359.472 236.779 360.005 238.622 360.182C251.234 361.392 263.901 355.737 271.688 345.753C286.696 326.511 275.178 308.947 282.804 293.105C289.181 279.856 300.039 281.586 311.617 277.561C323.252 273.515 333.336 267.96 342.907 260.298C388.018 224.179 401.324 161.384 373.193 110.913C371.499 107.873 369.142 105.092 368.1 101.728Z"/>
	<path fill="#010101" transform="scale(1.04176 1.04176)" d="M362.168 252.969C368.288 256.868 354.879 266.321 351.998 267.925C343.411 264.62 359.944 253.909 362.168 252.969Z"/>
	<path fill="#FC625D" transform="scale(1.04176 1.04176)" d="M218.173 447.457C211.228 434.216 206.98 422.579 214.448 407.613C222.977 390.52 244.211 381.711 262.17 388.86C264.816 389.913 267.23 391.394 269.765 392.672C290.687 410.212 277.765 453.421 245.442 456.047C236.018 456.812 224.972 454.457 218.173 447.457Z"/>
	<path fill="#010101" transform="scale(1.04176 1.04176)" d="M145.772 197.854C143.705 196.598 141.293 195.776 139.116 194.703C123.046 186.781 112.559 169.014 115.897 150.911C117.25 143.568 120.366 136.189 123.504 129.438C148.298 76.0962 197.178 43.1598 256.414 43.231C302.923 43.287 342.2 63.632 368.1 101.728C369.142 105.092 371.499 107.873 373.193 110.913C401.324 161.384 388.018 224.179 342.907 260.298C333.336 267.96 323.252 273.515 311.617 277.561C300.039 281.586 289.181 279.856 282.804 293.105C275.178 308.947 286.696 326.511 271.688 345.753C263.901 355.737 251.234 361.392 238.622 360.182C236.779 360.005 234.562 359.472 232.742 359.665C216.387 353.498 203.799 342.612 201.765 324.068C200.648 313.887 200.79 285.508 202.012 275.87C205.65 247.196 228.586 223.393 256.222 216.032C264.071 213.941 272.434 213.673 279.976 210.55C303.758 200.701 319.562 172.738 309.035 147.88C306.358 141.559 299.66 130.805 293.077 128.136C286.517 116.583 251.435 114.087 239.559 119.368C233.19 121.347 227.315 124.212 221.916 128.136C213.683 132.752 207.535 140.166 202.345 147.909C195.747 154.738 197.536 161.784 195.272 169.627C189.758 188.727 172.011 200.58 152.455 198.576C150.381 198.363 147.803 197.621 145.772 197.854ZM135.457 187.694C135.392 187.227 135.451 187.323 135.275 186.984C129.444 175.779 127.493 166.583 130.582 154.251C133.196 143.817 143.402 121.705 150.683 113.971C151.427 112.549 151.423 110.811 151.581 109.238C154.094 109.926 157.357 113.088 157.562 109.238C157.011 107.068 152.596 99.2052 158.345 102.682C164.51 96.6265 170.629 90.4029 177.349 84.9511C221.679 48.9867 285.18 46.001 334.234 73.8443C337.05 75.4428 340.237 79.1696 343.406 79.7135C289.014 31.4275 199.894 39.5195 152.29 93.3914C132.327 115.983 101.405 163.442 135.457 187.694ZM302.627 130.061C330.91 162.251 312.445 209.147 272.858 217.408C266.329 218.771 259.982 219.513 253.586 221.601C228.275 229.866 208.346 252.239 206.316 279.262C205.745 286.862 206.132 294.63 206.165 302.254C206.242 319.612 204.013 338.116 221.916 348.65C221.57 347.219 220.006 345.891 219.41 344.448C213.395 329.904 213.728 323.365 214.147 307.872C214.423 297.669 214.172 287.327 216.563 277.32C224.392 244.537 249.274 231.791 278.908 224.893C299.429 220.117 318.579 204.561 323.396 183.433C327.32 166.221 323.938 154.475 315.038 140.303C312.282 137.414 306.582 130.766 302.627 130.061Z"/>
	<path fill="#14BBAB" transform="scale(1.04176 1.04176)" d="M315.038 140.303C320.534 141.312 326.2 143.868 331.487 145.729C353.503 153.477 368.906 159.392 383.312 178.065L383.236 178.369C382.377 181.929 382.004 185.656 381.377 189.268C374.685 227.775 345.056 262.059 307.798 273.872C303.709 275.169 299.39 275.419 295.331 276.696C265.361 286.127 281.884 320.277 270.637 339.429C263.281 351.954 248.104 357.988 234.033 354.613C230.343 353.728 224.272 351.83 221.916 348.65C221.57 347.219 220.006 345.891 219.41 344.448C213.395 329.904 213.728 323.365 214.147 307.872C214.423 297.669 214.172 287.327 216.563 277.32C224.392 244.537 249.274 231.791 278.908 224.893C299.429 220.117 318.579 204.561 323.396 183.433C327.32 166.221 323.938 154.475 315.038 140.303Z"/>
	<path fill="#5762EE" transform="scale(1.04176 1.04176)" d="M158.345 102.682C164.51 96.6265 170.629 90.4029 177.349 84.9511C221.679 48.9867 285.18 46.001 334.234 73.8443C337.05 75.4428 340.237 79.1696 343.406 79.7135C346.392 81.6744 349.189 85.3299 351.545 88.012C373.092 112.544 382.886 139.175 383.341 171.252C383.372 173.409 383.641 175.953 383.312 178.065C368.906 159.392 353.503 153.477 331.487 145.729C326.2 143.868 320.534 141.312 315.038 140.303C312.282 137.414 306.582 130.766 302.627 130.061C275.002 104.064 233.322 106.708 207.6 134.034C202.737 139.201 198.972 144.973 195.267 150.987C194.36 146.729 191.064 135.589 187.365 132.993C185.378 131.599 183.083 132.839 183.847 135.419C184.586 137.915 186.908 140.769 188.048 143.284C202.547 175.258 170.796 206.117 138.66 189.692C137.515 189.107 136.48 188.471 135.457 187.694C135.392 187.227 135.451 187.323 135.275 186.984C129.444 175.779 127.493 166.583 130.582 154.251C133.196 143.817 143.402 121.705 150.683 113.971C151.427 112.549 151.423 110.811 151.581 109.238C154.094 109.926 157.357 113.088 157.562 109.238C157.011 107.068 152.596 99.2052 158.345 102.682Z"/>
	<path fill="#010101" transform="scale(1.04176 1.04176)" d="M157.562 109.238C164.154 111.122 175.421 118.916 178.405 124.532C179.942 127.425 177.615 129.902 174.875 128.158C164.999 121.873 165.516 118.105 150.683 113.971C151.427 112.549 151.423 110.811 151.581 109.238C154.094 109.926 157.357 113.088 157.562 109.238Z"/>
</svg>
