<?xml version="1.0" encoding="UTF-8"?>
<svg xmlns="http://www.w3.org/2000/svg" version="1.1" xmlns:xlink="http://www.w3.org/1999/xlink" viewBox="0 0 366.3 341.9">
  <defs>
    <style>
      .cls-1 {
        fill: #010101;
      }

      .cls-2 {
        fill: #fff;
      }

      .cls-3 {
        fill: #fc625d;
      }

      .cls-4 {
        fill: #14bbab;
      }

      .cls-5 {
        fill: url(#_Безымянный_градиент);
      }

      .cls-6 {
        fill: #ffb2f6;
      }

      .cls-7 {
        fill: #5762ee;
      }
    </style>
    <linearGradient id="_Безымянный_градиент" data-name="Безымянный градиент" x1="66.1" y1="292.3" x2="94.9" y2="212.7" gradientTransform="translate(32.3 372.4) scale(1 -1)" gradientUnits="userSpaceOnUse">
      <stop offset="0" stop-color="#24d0d2"/>
      <stop offset="1" stop-color="#4c87ff"/>
    </linearGradient>
  </defs>
  <!-- Generator: Adobe Illustrator 28.7.1, SVG Export Plug-In . SVG Version: 1.2.0 Build 142)  -->
  <g>
    <g id="_Слой_1" data-name="Слой_1">
      <path class="cls-1" d="M243.3,326.8c5.4.4,1.5,4.8-2.2,5.6-4.7.2-3.5-4.4,2.2-5.6Z"/>
      <path class="cls-1" d="M33.7,133.8c3.9-.3,8.7,3.7,5.2,7.2-3.3.4-8.3-4.1-5.2-7.2Z"/>
      <path class="cls-1" d="M38.9,80.6c7.8.2-4.4,15.6-6.4,19.8-2.5,5.4-4.8,11.2-6.7,16.8-.5,1.4-2.6,10.5-3.8,10.7-2.7.4-15.2-12-17.8-14.3-1.7-1.6-4.8-4.1-2.8-6.6,2.9-1.6,15.6,11.5,18.4,13.9,2.9-9.3,12.3-34.1,19.1-40.4Z"/>
      <path class="cls-3" d="M85.1,33.1c4.2,4.4,7.2,10.6,4.2,16.5-3.4,6.7-15.2,17.8-23.7,17.6-6.7-.1-11-3.6-14.8-8.5,6.1,1.4,11.5,1.8,16.8-2.2,8.1-6.1,16.1-13.2,17.5-23.3Z"/>
      <path class="cls-3" d="M359.3,258.5c13.1,12.5,5.6,21.6-4.5,31.9-11.3,11.6-18.7,8.7-28.7-2.4,5.5.9,8.1,5.2,15.6-.3,9.5-7,19.6-16.8,17.6-29.2Z"/>
      <path class="cls-1" d="M13.9,154.8c-2,1.9-9.8,9.4-12.1,9.1-6.5-.7,6.9-11.8,12.3-15.9,7.8-5.8,4.3,7.5,4,10.5-2.6,34.6,6.2,68.2,24.3,97.9,3.7,6.1,8.3,11.6,11.9,17.7l.3.4.3.3c2.6,2.5,4.9,5.4,7.3,8.1,32,34.5,78.5,54.9,125.7,54.4,1,0,2,0,2.9-.2,6.6-.3,13.1-1,19.6-1.9,2.6-.4,10.1-3.4,11.2.7-1.3,5.1-31,5.8-36.4,5.8-90.6.8-168.6-74.6-172-165-.3-7.4.2-14.8.8-22.1Z"/>
      <path class="cls-1" d="M50.8,58.6c-9.3-4.4-22.4-18.9-14.9-30.3,6.4-9.8,20.7-23.7,33.2-15.2,6.3,4.3,14.6,12,16.1,20-1.4,10.1-9.5,17.2-17.5,23.3-5.3,4-10.8,3.6-16.8,2.2ZM45.2,47.4c3.4-5.7,19.5-21.1,25.6-26.5-11.9-11.5-19.4-2.8-28.8,6.9-7.5,7.9-3.4,13.2,3.2,19.6Z"/>
      <path class="cls-3" d="M70.7,20.8c14.6,13.7,12,14.2-2,28-9.8,9.6-14.6,7.4-23.6-1.5,3.4-5.7,19.5-21.1,25.6-26.5Z"/>
      <path class="cls-1" d="M286.7,39.2C243.4,5.9,184.4-4.2,132.6,13.1c-4.5,1.5-11.5,5.1-15.8,5.8-2.2.3-3.5-2.8-1.6-4,3.2-2.2,12.2-5.1,16.2-6.4,77.2-24.9,160.8,6.6,201.8,77,5.6,9.5,9.8,19.6,13.8,29.9,1.9-1.7,8.5-8.6,10.6-8.6,7.4,0-6.5,11.1-8.7,14.2,7.3,23.2,10,46,7.2,70.2-.3,2.8.1,10.5-3.4,11.6-3.8,1.2-2-5.6-1.9-7.1.8-8,1.7-15.8,1.6-23.9,0-17.2-3.4-31.9-7.3-48.3-2,2.1-6.7,8.4-9.6,8.3-7.8-.1,7.6-12.4,8.5-13.1-3.8-6.6-6.1-14.2-9.6-21.1-9.6-18.9-29.3-46.4-47.7-58.5Z"/>
      <path class="cls-1" d="M314.8,276.7c-6.6-4.9-9.5-13.2-4.1-20.4,5.5-7.5,16.9-20.4,27.6-17.3,5.2,1.5,18.4,14.6,21,19.5,2,12.4-8.1,22.2-17.6,29.2-7.5,5.6-10.1,1.2-15.6.3-3-2.4-5.7-5.3-8.5-7.9-14.2,16.4-27.9,28.6-46.8,39.3-1.5.8-14.7,9.5-14.6,3.9,0-2.7,3.5-3.4,5.5-4.5,15.5-7.8,29.1-17.5,41.4-29.7,4-4,7.5-8.5,11.6-12.4ZM318.6,274.6c7.6-7.3,17.6-19.8,25.4-25.7-5.7-6.6-10.5-9-17.5-2.4-10,9.3-21.1,16.2-7.9,28.1Z"/>
      <path class="cls-3" d="M344,248.9c4.5,2.3,14.1,11.9,10.4,18.4-1.6,2.7-13,14.4-15.7,16.5-7.6,5.9-15.2-4.6-20.1-9.2,7.6-7.3,17.6-19.8,25.4-25.7Z"/>
      <path class="cls-7" d="M185.2,301.5c4.1.3,8.2-.2,12.3-.6,55.6-5,103.8-46.8,115.4-101.6,1.7-7.9,1.6-14.1,2.7-21.6v-.3c4.1.1,8.3-.3,12.4,0-2.7,67.5-53.3,125-120.7,135.1-7.3,1.1-14.7,1.8-22.1,1.5-.2-3.5.2-7,0-10.5v-2Z"/>
      <path class="cls-4" d="M185.2,8.8c30.7,0,61.4,7.6,88.2,22.8,2.6,1.5,11.2,7.6,13.3,7.7,18.4,12.1,38.2,39.5,47.7,58.5,3.5,6.9,5.8,14.4,9.6,21.1-.9.7-16.3,13-8.5,13.1,2.8,0,7.6-6.3,9.6-8.3,3.9,16.4,7.3,31.1,7.3,48.3h-24.4c0,1.9.2,3.8,0,5.7-4.1-.3-8.2.1-12.3,0v-.9c.2-27.7-7.4-56.3-23.8-78.9-1.7-2.3-3.6-4.6-4.9-7.2l-.2-.4c-4.2-2.8-13.7-14.6-20.1-19.9-58.4-47.8-143.9-35.5-188.1,24.9-45.5,62-26.1,148.7,39.9,187.5,1.9,1.1,4.7,2.3,6.3,3.7,17.2,9,35.8,14.6,55.2,15.1,1.8,0,3.6-.1,5.4,0v2c.2,3.5-.2,7,0,10.5,0,7.7.2,15.5,0,23.2,1.9,0,3.7,0,5.6,0-.9.2-2,.2-2.9.2-47.2.5-93.6-20-125.7-54.4-2.5-2.7-4.7-5.6-7.3-8.1l-.3-.3c.2-2.1-4.2-7.5-5.4-9.4-18.9-31.4-26.4-56.2-26.3-92.3,6.5-.3,13.1,0,19.6,0-1.3-18.6,7-46.6,14.9-62.8,19.5-39.6,61.7-73.3,106.1-78.9,24.9-3.1,21.9,4.2,21.8-22.5ZM286.7,90.1l.2.4c1.3,2.6,3.2,4.9,4.9,7.2,16.4,22.6,24,51.2,23.8,78.9,6.1-13.5-5.1-48.6-11.2-60.9-2-4-14.9-24.7-17.7-25.6ZM124.6,286.3c.6,1.2,2.8,2.1,3.9,2.7,16.9,9.4,37.3,15,56.7,14.5v-2c-1.7-.2-3.6,0-5.4,0-19.4-.6-38-6.1-55.2-15.1Z"/>
      <path class="cls-1" d="M124.6,286.3c-1.6-1.4-4.4-2.6-6.3-3.7-65.9-38.8-85.3-125.5-39.9-187.5,44.3-60.4,129.8-72.6,188.1-24.9,6.4,5.3,15.9,17.1,20.1,19.9l.2.4c1.3,2.6,3.2,4.9,4.9,7.2,16.4,22.6,24,51.2,23.8,78.9v1.2c-1.2,7.5-1.1,13.7-2.8,21.6-11.5,54.8-59.8,96.7-115.4,101.6-4,.4-8.2.9-12.3.6-1.7-.2-3.6,0-5.4,0-19.4-.6-38-6.1-55.2-15.1ZM93.9,258.5c3.4,2,6.3,5.4,9.3,7.9,90.6,76.9,230.2-2.6,205.3-119.2-4.6-21.5-23.6-59.2-43-71.8-1.4-.2-2.6-1.3-3.7-2.1-67.3-46.7-165.3-14.2-190.2,63.4-12.3,38.3-8.3,78.8,15.6,111.7,1.9,2.6,6.5,6.9,6.7,10.2ZM177,47.4c-7.1,1.1-14.1,1.7-21.1,3.5-61.1,15.4-98.6,70.6-96.3,132.7-1.1,17.2,10.6,43.1,20.4,57.1,4.3,6.2,9.7,11.6,13.9,17.8-.2-3.3-4.8-7.6-6.7-10.2-23.9-32.8-27.9-73.4-15.6-111.7,24.9-77.6,122.9-110,190.2-63.4,1.1.8,2.3,1.9,3.7,2.1-15.5-14-35.1-21.6-55-27.1-1.8,1.6-7.2-.4-9.3-.9-7.9.6-16.2,0-24.2,0Z"/>
      <path class="cls-4" d="M176,45.5c7.8-.3,15.9-.3,23.6.6,3.7.3,7.3,1.1,10.8,2.1-1.8,1.6-7.2-.4-9.3-.9-7.9.6-16.2,0-24.2,0,1-.9,0-1.4-.9-1.9Z"/>
      <path class="cls-5" d="M59.6,183.6c-2.5-1.9-1.4-10.5-1.4-13.3.3-66.4,52.1-119.2,117.8-124.8.9.5,1.9.9.9,1.9-7.1,1.1-14.1,1.7-21.1,3.5-61.1,15.4-98.6,70.6-96.3,132.7Z"/>
      <path class="cls-7" d="M93.9,258.5c-.2-3.3-4.8-7.6-6.7-10.2-23.9-32.8-27.9-73.4-15.6-111.7,24.9-77.6,122.9-110,190.2-63.4,1.1.8,2.3,1.9,3.7,2.1,19.4,12.5,38.4,50.3,43,71.8,24.9,116.6-114.7,196.1-205.3,119.2-3-2.6-5.9-5.9-9.3-7.9ZM145,172.9c-5.4,0-13.5-1-17.5,3.2-7.3,7.5.8,12.1,3.9,15.6,1.6,0,3.1,0,4.7,0h45.6c21.7,0,23.2,2.5,42.1-6.9l.4-.2c6.4-.2,12-3.4,16.9-7,.8-3.4,3.4-6.9,4.8-10.1,8.5-19.8,2.4-40.1-13-54.2-1.1-1-2.4-2.5-3.8-3.1-2.4-.5-4.4-2.6-6.4-3.9-12-7.4-25.7-5.7-39.1-5.7-32.8,0-38.7,3.4-38.7,38.9v33.5ZM241.2,177.5c-5,3.6-10.6,6.9-16.9,7l-.4.2c-18.9,9.4-20.5,6.9-42.1,6.9h-45.6c-1.6,0-3.1,0-4.7,0,1.8,2.9,4.7,4.2,6.7,6.8,3.8-.4,7.3-.5,11.1,0v40.1c.1,2.3.7,4.9-.9,6.8-1.5,5,3.3,6.2,7,3.6l.2.6c2.5,2.4,11,2,11.4-2.8l3.7-.5c.7-6.5.2-19.1,0-25.9.5-1,1.4-2.2,1.1-3.3l.7-.4h17.5c11.3,0,19.2.4,16.2-13.7-1.8-2.1-3.8-3.5-6.4-4.5.5-.3,1-.6,1.5-.8,14.3,1.3,31.9-7.5,40.1-19.5v-.6ZM149.2,198.4c-3.8-.5-7.3-.4-11.1,0-20-.2-15.7,18.7-2,18.2,3,0,6,0,8.9,0v3.7c.4,7.8.3,16,0,23.9,1.1.4,2.2.9,3.3,1.2,1.5-1.9,1-4.5.9-6.8v-40.1ZM136.1,216.6c-1.2,0-2.4,0-3.7,0,3.4,4.8,7.4,3.7,12.6,3.7v-3.7c-3,0-6,0-8.9,0Z"/>
      <path class="cls-2" d="M206.1,202.9c7.2,2.9,5.9,14.4,1.6,17.2l-.4.2c-11.6.4-25.1.3-36.7,0,.5-1,1.4-2.2,1.1-3.3l.7-.4h17.5c11.3,0,19.2.4,16.2-13.7Z"/>
      <path class="cls-1" d="M149.2,198.4v40.1c.1,2.3.7,4.9-.9,6.8-1.1-.3-2.2-.8-3.3-1.2.3-7.8.4-16,0-23.9v-3.7c-3,0-6,0-8.9,0-13.7.6-18-18.4,2-18.2,3.8-.4,7.3-.5,11.1,0ZM142.8,202.9c-4.6-.1-13.7-1.6-13.2,5.6.1,1.7,1.3,3.2,2.8,4,4.2.3,8.4,0,12.6,0v-9.6h-2.2Z"/>
      <path class="cls-3" d="M241.2,177.5v.6c-8.1,12-25.7,20.8-40,19.5-.5.3-1,.5-1.5.8,2.6,1,4.6,2.3,6.4,4.5,3,14.1-4.9,13.7-16.2,13.7h-17.5s-.7.4-.7.4c.3,1.1-.6,2.3-1.1,3.3.2,6.8.7,19.3,0,25.9l-3.7.5c-.4,4.8-8.9,5.2-11.4,2.8l-.2-.6c-3.7,2.6-8.5,1.4-7-3.6,1.5-1.9,1-4.5.9-6.8v-40.1c-3.8-.5-7.3-.4-11.1,0-2-2.6-4.9-3.9-6.7-6.8,1.6,0,3.1,0,4.7,0h45.6c21.7,0,23.2,2.5,42.1-6.9l.4-.2c6.4-.2,12-3.4,16.9-7ZM162.5,197.6v28.7c0,6-2.6,19.3,4.4,19.9v.5l3.7-.5c.7-6.5.2-19.1,0-25.9.5-1,1.4-2.2,1.1-3.3l.7-.4h17.5c11.3,0,19.2.4,16.2-13.7-1.8-2.1-3.8-3.5-6.4-4.5-5.2-.2-10.3,0-15.5,0-4.3.2-8.6,0-12.9,0l-.7-.8c-1.1,0-2.4,0-3.5.5l-.2.3c-.8-1.1-3.2-.9-4.4-.8ZM131.4,191.6c1.8,2.9,4.7,4.2,6.7,6.8,3.8-.4,7.3-.5,11.1,0l1.4-1.4c-1.9,0-3.8,0-5.6,0-.1-1.8,0-3.6,0-5.4-3,0-6,0-8.9,0-1.6,0-3.1,0-4.7,0Z"/>
      <path class="cls-6" d="M180.4,197.6h13.9c2.2,0,4.7-.2,6.9,0-.5.3-1,.5-1.5.8-5.2-.2-10.3,0-15.5,0-4.3.2-8.6,0-12.9,0l-.7-.8h9.8Z"/>
      <path class="cls-2" d="M150.6,197c1.8,0,3.6.3,5.4.6v46.5c0,1.6,0,3.2-.7,4.8-3.7,2.6-8.5,1.4-7-3.6,1.5-1.9,1-4.5.9-6.8v-40.1l1.4-1.4Z"/>
      <path class="cls-1" d="M162.5,197.6c1.2,0,3.6-.3,4.4.8l.2-.3c1-.5,2.4-.4,3.5-.5l.7.8c4.3,0,8.6.2,12.9,0,5.2,0,10.3-.2,15.5,0,2.6,1,4.6,2.3,6.4,4.5,3,14.1-4.9,13.7-16.2,13.7h-17.5s-.7.4-.7.4c.3,1.1-.6,2.3-1.1,3.3.2,6.8.7,19.3,0,25.9l-3.7.5v-.5c-7.1-.6-4.4-13.9-4.4-19.9v-28.7ZM166.9,216.6c-.3,9.8,0,19.8,0,29.6v.5l3.7-.5c.7-6.5.2-19.1,0-25.9.5-1,1.4-2.2,1.1-3.3l.7-.4h-5.5Z"/>
      <path class="cls-2" d="M166.9,198.4l.2-.3c1-.5,2.4-.4,3.5-.5l.7.8c-.8,0-.9,0-1.5.6l.7,3.9h17.1c3.3,0,11.2-1,13.8,1.4,1.4,1.3,1.3,5.7,0,7.1-1.8,1.9-11.2,1-13.8,1h-20.8c0-2.8-.4-6,0-8.8v-5.2Z"/>
      <path class="cls-1" d="M145,172.9v-33.5c0-35.5,5.9-38.9,38.7-38.9,13.5,0,27.1-1.7,39.1,5.7,2,1.3,4,3.3,6.4,3.9,1.4.6,2.7,2.1,3.8,3.1,15.3,14.1,21.4,34.4,13,54.2-1.4,3.2-4,6.7-4.8,10.1-5,3.6-10.6,6.9-16.9,7l-.4.2c-18.9,9.4-20.5,6.9-42.1,6.9h-45.6c-1.6,0-3.1,0-4.7,0-3.1-3.5-11.2-8.1-3.9-15.6,4-4.1,12.1-3.1,17.5-3.2ZM156,180.3c-8,0-24.2-3.8-19.2,7.2,4.2.2,8.5,0,12.7,0h42.3c23.7,0,42.7-6.9,47.9-33.9,2.9-14.9-2.6-25.3-10.5-37-2.5-.1-4.8-2.6-7.1-3.6-10.5-4.9-25.9-2.9-37.3-2.9-4.8,0-10.1-.6-14.8.3-16.7,2.9-14,18.8-14,30.6v39.3ZM149.2,177.5c-3.9,0-15.2-1-18,1.6-4.2,4,0,8.3,5.6,8.3-5-11,11.1-7.2,19.2-7.2v-39.3c0-11.8-2.7-27.7,14-30.6,4.7-.8,10-.3,14.8-.3,11.3,0,26.7-2,37.3,2.9,2.3,1,4.6,3.5,7.1,3.6-16.1-13.4-23.2-11.7-42.9-11.6-13.5,0-33.1-3-36.6,15.7-1.1,6-.5,13.7-.5,19.9v37ZM229.2,110.1c10.1,12.7,17.5,23.1,15.3,40.9-1.7,13.8-9.2,25.3-20.3,33.5,6.4-.2,12-3.4,16.9-7,.8-3.4,3.4-6.9,4.8-10.1,8.5-19.8,2.4-40.1-13-54.2-1.1-1-2.4-2.5-3.8-3.1Z"/>
      <path class="cls-3" d="M156,180.3v-39.3c0-11.8-2.7-27.7,14-30.6,4.7-.8,10-.3,14.8-.3,11.3,0,26.7-2,37.3,2.9,2.3,1,4.6,3.5,7.1,3.6,7.9,11.7,13.4,22.1,10.5,37-5.2,27-24.3,33.9-47.9,33.9h-42.3c-4.2,0-8.5.2-12.7,0-5-11,11.1-7.2,19.2-7.2ZM162.5,177.5c1.5,0,3,0,4.4,0h19.9c2.9,0,6.2-.3,9.1,0,17.3-1.7,28.8-6.7,33.2-25.7,1.2-1.2,4-2.9,5.7-2.4l.2-.3c-.5-.8-.3-1.9-.2-2.8-1.1-6.9-7.7-18.3-13.7-21.2-14.2-10.1-21.3-7.4-37.8-7.4-7,0-19.7-3-20.8,7-.6,5.3,0,11.1,0,16.5v36.3Z"/>
      <path class="cls-2" d="M234.9,146.2c5.5,20.9-10.3,34.2-30.5,34h-33.7c-2.9.1-3.7.4-3.7-2.8h19.9c2.9,0,6.2-.3,9.1,0,17.3-1.7,28.8-6.7,33.2-25.7,1.2-1.2,4-2.9,5.7-2.4l.2-.3c-.5-.8-.3-1.9-.2-2.8Z"/>
      <path class="cls-1" d="M162.5,177.5v-36.3c0-5.3-.5-11.2,0-16.5,1.1-10,13.8-7,20.8-7,16.5,0,23.6-2.7,37.8,7.4,6.1,2.9,12.6,14.2,13.7,21.2,0,.9-.3,1.9.2,2.8l-.2.3c-1.7-.6-4.6,1.2-5.7,2.4-4.5,19-15.9,24-33.2,25.7-2.9-.3-6.2,0-9.1,0h-19.9c-1.5,0-3,0-4.4,0ZM166.9,172.9h3.7c0-5.6-1.4-45.2,1.2-47.5,4.7-.9,31.2-.7,36.6-.1,2.7.3,5.2,1.7,8,1.9-10.2-7.7-20.9-5.3-33-5.4-20.4-.1-16.5-2.9-16.5,20.4v30.6ZM221.1,125.1c6.6,7.8,9.7,16.6,8,26.7,1.2-1.2,4-2.9,5.7-2.4l.2-.3c-.5-.8-.3-1.9-.2-2.8-1.1-6.9-7.7-18.3-13.7-21.2Z"/>
      <path class="cls-7" d="M170.6,172.9c0-5.6-1.4-45.2,1.2-47.5,4.7-.9,31.2-.7,36.6-.1,2.7.3,5.2,1.7,8,1.9,15.5,9.9,9.7,40.6-10.9,45-7.3,1.6-26.6.8-34.9.7Z"/>
    </g>
  </g>
</svg>