<?xml version="1.0" encoding="utf-8" ?>
<svg xmlns="http://www.w3.org/2000/svg" xmlns:xlink="http://www.w3.org/1999/xlink" width="533" height="533">
	<path fill="#15BBAB" transform="scale(1.04176 1.04176)" d="M455.741 407.695C484.677 443.52 442.049 477.178 414.269 454.825C416.876 454.516 419.645 454.92 422.295 454.742C440.537 453.516 454.993 436.748 455.796 418.936C455.965 415.187 455.386 411.441 455.741 407.695Z"/>
	<path fill="#15BBAB" transform="scale(1.04176 1.04176)" d="M312.988 106.271C318.506 111.151 322.929 116.76 327.197 122.734C358.891 167.083 364.182 224.886 339.009 273.565C334.831 281.644 329.923 290.033 323.449 296.512C319.714 293.868 316.368 290.342 312.988 287.252C351.102 236.093 354.912 173.606 320.755 118.421C318.296 114.448 314.382 110.793 312.988 106.271Z"/>
	<path transform="scale(1.04176 1.04176)" d="M143.532 332.691C139.045 329.18 133.288 327.152 128.285 324.419C86.4105 301.546 58.2382 255.624 54.1032 208.424C50.2172 164.067 68.2566 119.527 100.962 89.6128C159.467 36.1007 249.898 39.4106 303.938 96.865C306.782 99.8884 309.489 103.381 312.686 106.025L312.988 106.271C314.382 110.793 318.296 114.448 320.755 118.421C354.912 173.606 351.102 236.093 312.988 287.252C316.368 290.342 319.714 293.868 323.449 296.512C328.493 302.397 334.411 308.089 340.178 313.257C347.016 309.67 350.401 309.703 356.254 314.276C365.999 321.891 375.371 330.07 384.837 338.03L435.835 380.787C442.171 386.016 447.457 390.189 451.249 397.712C452.894 400.977 453.917 404.524 455.741 407.695C455.386 411.441 455.965 415.187 455.796 418.936C454.993 436.748 440.537 453.516 422.295 454.742C419.645 454.92 416.876 454.516 414.269 454.825C393.973 449.897 393.535 446.464 380.2 430.967L329.534 371.686C324.366 365.714 318.852 359.832 314.039 353.579C310.135 348.507 310.836 344.579 314.571 339.486C308.765 333.645 302.861 327.94 297.167 321.982C269.901 344.007 231.755 353.912 197.183 350.278C175.955 348.047 161.785 342.288 143.532 332.691ZM94.7417 291.951C124.748 327.763 178.62 343.999 223.799 335.852C334.305 315.924 377.591 181.468 299.14 98.4231C295.968 95.0657 291.115 89.7662 287.46 87.2449C284.133 86.7749 280.592 83.503 277.722 81.7993C241.497 60.2993 194.908 56.5353 155.762 72.2538C74.4618 104.899 39.9817 208.133 87.9238 281.591C90.0532 284.854 93.4404 288.302 94.7417 291.951ZM94.7417 291.951C93.4404 288.302 90.0532 284.854 87.9238 281.591C39.9817 208.133 74.4618 104.899 155.762 72.2538C194.908 56.5353 241.497 60.2993 277.722 81.7993C280.592 83.503 284.133 86.7749 287.46 87.2449C228.234 38.8315 138.364 48.0562 90.0276 107.248C60.1103 143.884 50.6096 193.478 64.4947 238.483C71.2669 260.434 80.4964 274.14 94.7417 291.951ZM315.881 347.025C317.403 352.862 329.694 364.975 334.074 370.017L379.382 422.695C386.585 431.191 395.046 444.639 406.152 448.136C405.841 447.288 399.374 441.45 398.221 440.125L334.428 366.21C328.437 359.305 323.455 353.723 330.156 344.074C332.902 340.12 342.302 330.436 346.092 327.421C350.672 323.777 353.526 323.988 358.978 322.978L359.228 322.929C356.469 320.579 351.069 314.805 347.202 315.218C344.265 315.531 317.379 340.766 315.881 347.025ZM438.591 389.105C438.72 390.475 446.642 401.434 448.168 402.155C446.175 397.244 442.753 392.4 438.591 389.105Z"/>
	<path fill="white" transform="scale(1.04176 1.04176)" d="M294.458 306.798C302.381 312.789 314.611 325.465 321.212 332.691C320.125 333.932 318.996 335.065 317.785 336.185C309.291 326.908 299.357 318.915 291.137 309.389C292.183 308.464 293.347 307.646 294.458 306.798Z"/>
	<path fill="#5661EE" transform="scale(1.04176 1.04176)" d="M310.123 290.921C319.165 299.344 327.845 308.138 336.777 316.675C333.38 320.619 325.361 329.436 321.212 332.691C314.611 325.465 302.381 312.789 294.458 306.798C299.94 301.732 305.07 296.412 310.123 290.921Z"/>
	<path fill="#15BBAB" transform="scale(1.04176 1.04176)" d="M143.532 332.691C147.998 332.691 155.819 335.996 160.426 337.325C207.223 350.823 249.005 339.286 287.46 312.408C290.227 316.018 293.801 318.947 297.167 321.982C269.901 344.007 231.755 353.912 197.183 350.278C175.955 348.047 161.785 342.288 143.532 332.691Z"/>
	<path fill="#0D6B6C" transform="scale(1.04176 1.04176)" d="M359.228 322.929C362.93 325.196 368.017 330.158 371.524 333.096L433.215 384.632C435.015 386.096 436.929 387.485 438.591 389.105C438.72 390.475 446.642 401.434 448.168 402.155C451.154 406.406 451.261 418.073 450.402 423.145C447.141 442.391 428.495 452.75 410.028 449.389C408.714 449.15 407.292 448.85 406.152 448.136C405.841 447.288 399.374 441.45 398.221 440.125L334.428 366.21C328.437 359.305 323.455 353.723 330.156 344.074C332.902 340.12 342.302 330.436 346.092 327.421C350.672 323.777 353.526 323.988 358.978 322.978L359.228 322.929Z"/>
	<path fill="#15BBAB" transform="scale(1.04176 1.04176)" d="M94.7417 291.951C93.4404 288.302 90.0532 284.854 87.9238 281.591C39.9817 208.133 74.4618 104.899 155.762 72.2538C194.908 56.5353 241.497 60.2993 277.722 81.7993C280.592 83.503 284.133 86.7749 287.46 87.2449C291.115 89.7662 295.968 95.0657 299.14 98.4231C377.591 181.468 334.305 315.924 223.799 335.852C178.62 343.999 124.748 327.763 94.7417 291.951ZM266.671 181.892C262.709 187.077 258.082 189.597 251.586 190.101C249.219 189.843 247.148 189.223 244.933 188.367C238.306 197.562 226.157 211.46 221.022 220.794C217.019 220.538 214.357 215.605 209.713 214.861C204.667 214.052 202.968 217.779 198.637 218.357C195.714 217.319 180.001 195.843 176.838 191.788C175.941 193.002 175.084 193.86 173.827 194.686C171.373 194.622 165.89 195.516 164.049 194.104C160.186 194.684 156.917 194.232 153.329 192.708C152.617 193.364 151.885 194.007 151.195 194.686L150.982 194.917C144.467 202.086 131.992 222.834 127.355 225.985C124.736 227.764 117.715 229.324 114.265 230.641C112.09 231.643 111.035 230.952 109.022 229.811C110.809 231.931 108.741 233.017 107.094 234.564C106.816 234.133 106.689 233.732 106.196 233.551C117.838 270.538 162.472 296.809 199.923 296.709C249.68 296.577 291.842 258.522 297.209 209.12C297.834 203.372 297.701 197.563 297.698 191.788C289.964 189.064 274.596 182.88 266.671 181.892ZM205.206 101.385C181.626 102.538 162.819 108.413 143.891 123.697C119.403 143.472 104.717 173.315 106.253 205.074C106.366 207.418 108.211 221.602 109.022 223.422C110.04 222.882 111.154 222.557 112.243 222.189L120.032 218.99C127.807 208.505 138.17 194.378 145.293 183.623C136.497 159.805 181.146 149.717 176.838 183.623C178.956 187.091 181.719 190.319 184.201 193.538L199.325 212.795C206.941 209.538 212.726 209.215 219.629 214.683C226.9 205.19 234.02 195.515 241.068 185.852C222.538 159.659 265.895 144.834 268.975 174.049C277.78 176.505 287.562 177.958 295.844 181.892C294.754 162.752 277.72 132.746 261.448 121.492C247.965 110.141 240.175 108.199 225.221 102.321C224.34 102.976 207.93 101.392 205.206 101.385Z"/>
	<path transform="scale(1.04176 1.04176)" d="M130.438 118.675C137.057 119.628 128.274 126.504 126.446 127.815C119.684 127.424 129.048 119.777 130.438 118.675Z"/>
	<path transform="scale(1.04176 1.04176)" d="M154.675 103.245C156.884 103.154 158.337 105.401 156.309 106.765C152.442 109.365 143.518 114.486 139.366 116.707C137.621 116.9 136.777 115.292 137.393 113.81C138.567 110.984 151.518 104.483 154.675 103.245Z"/>
	<path fill="#5661EE" transform="scale(1.04176 1.04176)" d="M285.91 142.089C289.294 142.275 293.906 150.729 295.569 153.345C323.017 196.522 317.451 251.919 278.341 286.235C248.048 312.814 199.768 318.858 164.795 297.961C162.258 296.445 158.461 294.61 156.962 291.951C160.437 292.894 163.795 294.438 167.22 295.581C231.318 316.987 299.374 271.211 302.145 204.025C302.244 201.645 302.098 199.266 302.225 196.89L302.242 196.602L303.547 197.795C304.005 194.446 302.845 187.555 303.547 185.157C303.741 183.089 301.416 178.492 300.204 176.939C299.236 174.982 297.952 167.88 296.969 165.06C294.183 157.07 290.016 149.461 285.91 142.089Z"/>
	<path fill="white" transform="scale(1.04176 1.04176)" d="M303.547 185.157C308.134 191.589 307.792 200.227 310.123 207.589C307.781 204.43 305.774 201.035 303.547 197.795C304.005 194.446 302.845 187.555 303.547 185.157Z"/>
	<path transform="scale(1.04176 1.04176)" d="M209.173 98.0412L208.72 98.0856C196.458 99.2083 189.06 96.9996 175.237 100.917C172.38 101.726 166.344 104.425 163.609 103.159C160.678 99.5145 169.999 97.8836 171.775 97.3692C210.488 86.1511 252.622 101.053 278.264 131.552C281.041 134.855 283.864 138.268 285.91 142.089C290.016 149.461 294.183 157.07 296.969 165.06C297.952 167.88 299.236 174.982 300.204 176.939C301.416 178.492 303.741 183.089 303.547 185.157C302.845 187.555 304.005 194.446 303.547 197.795L302.242 196.602L302.225 196.89C302.098 199.266 302.244 201.645 302.145 204.025C299.374 271.211 231.318 316.987 167.22 295.581C163.795 294.438 160.437 292.894 156.962 291.951C144.003 284.834 137.194 281.458 125.923 270.493C90.8059 236.327 84.33 180.566 111.83 139.821C113.13 137.894 118.218 128.056 121.213 132.382C121.785 134.842 118.562 137.577 117.221 139.472C100.073 163.704 91.8535 206.291 106.196 233.551C117.838 270.538 162.472 296.809 199.923 296.709C249.68 296.577 291.842 258.522 297.209 209.12C297.834 203.372 297.701 197.563 297.698 191.788C289.964 189.064 274.596 182.88 266.671 181.892C262.709 187.077 258.082 189.597 251.586 190.101C249.219 189.843 247.148 189.223 244.933 188.367C238.306 197.562 226.157 211.46 221.022 220.794C217.019 220.538 214.357 215.605 209.713 214.861C204.667 214.052 202.968 217.779 198.637 218.357C195.714 217.319 180.001 195.843 176.838 191.788C175.941 193.002 175.084 193.86 173.827 194.686C171.373 194.622 165.89 195.516 164.049 194.104C160.186 194.684 156.917 194.232 153.329 192.708C152.617 193.364 151.885 194.007 151.195 194.686L150.982 194.917C144.467 202.086 131.992 222.834 127.355 225.985C124.736 227.764 117.715 229.324 114.265 230.641C112.09 231.643 111.035 230.952 109.022 229.811L108.195 229.811C103.306 228.615 106.67 225.025 109.022 223.422C110.04 222.882 111.154 222.557 112.243 222.189L120.032 218.99C127.807 208.505 138.17 194.378 145.293 183.623C136.497 159.805 181.146 149.717 176.838 183.623C178.956 187.091 181.719 190.319 184.201 193.538L199.325 212.795C206.941 209.538 212.726 209.215 219.629 214.683C226.9 205.19 234.02 195.515 241.068 185.852C222.538 159.659 265.895 144.834 268.975 174.049C277.78 176.505 287.562 177.958 295.844 181.892C294.754 162.752 277.72 132.746 261.448 121.492C247.965 110.141 240.175 108.199 225.221 102.321C220.175 100.296 214.489 99.2057 209.173 98.0412Z"/>
	<path fill="white" transform="scale(1.04176 1.04176)" d="M114.265 226.827C114.281 228.289 113.34 229.23 114.265 230.641C112.09 231.643 111.035 230.952 109.022 229.811L108.195 229.811C110.172 228.49 112.026 227.62 114.265 226.827Z"/>
	<path fill="#FEECB3" transform="scale(1.04176 1.04176)" d="M300.204 176.939C301.416 178.492 303.741 183.089 303.547 185.157C302.845 187.555 304.005 194.446 303.547 197.795L302.242 196.602C302.256 189.954 301.241 183.486 300.204 176.939Z"/>
	<path fill="#FED45E" transform="scale(1.04176 1.04176)" d="M164.049 194.104C168.023 192.827 170.842 191.302 173.827 188.367C175.044 189.441 175.955 190.426 176.838 191.788C175.941 193.002 175.084 193.86 173.827 194.686C171.373 194.622 165.89 195.516 164.049 194.104Z"/>
	<path fill="#FED45E" transform="scale(1.04176 1.04176)" d="M268.194 178.363C277.86 181.198 287.558 183.827 297.167 186.86C297.331 188.499 297.451 190.16 297.698 191.788C289.964 189.064 274.596 182.88 266.671 181.892L268.194 178.363Z"/>
	<path fill="#FED45E" transform="scale(1.04176 1.04176)" d="M147.61 188.367C149.473 189.873 151.308 191.416 153.329 192.708C152.617 193.364 151.885 194.007 151.195 194.686L150.982 194.917C144.467 202.086 131.992 222.834 127.355 225.985C124.736 227.764 117.715 229.324 114.265 230.641C113.34 229.23 114.281 228.289 114.265 226.827C116.846 224.546 120.83 224.275 123.409 221.985C126.772 218.999 144.17 193.238 147.61 188.367Z"/>
	<path fill="white" transform="scale(1.04176 1.04176)" d="M250.462 162.785C265.552 160.963 269.605 179.759 254.964 185.157C240.424 187.565 235.646 166.923 250.462 162.785Z"/>
	<path fill="#FED45E" transform="scale(1.04176 1.04176)" d="M159.067 166.533C174.628 165.445 177.727 185.363 162.535 190.101C144.611 187.334 145.304 169.674 159.067 166.533Z"/>
	<path fill="#FC625D" transform="scale(1.04176 1.04176)" d="M205.206 101.385C207.93 101.392 224.34 102.976 225.221 102.321C240.175 108.199 247.965 110.141 261.448 121.492C277.72 132.746 294.754 162.752 295.844 181.892C287.562 177.958 277.78 176.505 268.975 174.049C265.895 144.834 222.538 159.659 241.068 185.852C234.02 195.515 226.9 205.19 219.629 214.683C212.726 209.215 206.941 209.538 199.325 212.795L184.201 193.538C181.719 190.319 178.956 187.091 176.838 183.623C181.146 149.717 136.497 159.805 145.293 183.623C138.17 194.378 127.807 208.505 120.032 218.99L112.243 222.189C111.154 222.557 110.04 222.882 109.022 223.422C108.211 221.602 106.366 207.418 106.253 205.074C104.717 173.315 119.403 143.472 143.891 123.697C162.819 108.413 181.626 102.538 205.206 101.385ZM205.206 101.385C181.626 102.538 162.819 108.413 143.891 123.697C119.403 143.472 104.717 173.315 106.253 205.074C106.366 207.418 108.211 221.602 109.022 223.422C110.04 222.882 111.154 222.557 112.243 222.189C106.57 204.727 111.719 179.505 119.815 163.103C130.111 142.245 146.454 125.213 167.601 115.351C193.727 103.167 227.592 103.224 253.293 116.788C255.804 118.113 258.564 121.291 261.448 121.492C247.965 110.141 240.175 108.199 225.221 102.321C224.34 102.976 207.93 101.392 205.206 101.385Z"/>
	<path fill="#5661EE" transform="scale(1.04176 1.04176)" d="M266.671 181.892C274.596 182.88 289.964 189.064 297.698 191.788C297.701 197.563 297.834 203.372 297.209 209.12C291.842 258.522 249.68 296.577 199.923 296.709C162.472 296.809 117.838 270.538 106.196 233.551C106.689 233.732 106.816 234.133 107.094 234.564C108.741 233.017 110.809 231.931 109.022 229.811C111.035 230.952 112.09 231.643 114.265 230.641C117.715 229.324 124.736 227.764 127.355 225.985C131.992 222.834 144.467 202.086 150.982 194.917L151.195 194.686C151.885 194.007 152.617 193.364 153.329 192.708C156.917 194.232 160.186 194.684 164.049 194.104C165.89 195.516 171.373 194.622 173.827 194.686C175.084 193.86 175.941 193.002 176.838 191.788C180.001 195.843 195.714 217.319 198.637 218.357C202.968 217.779 204.667 214.052 209.713 214.861C214.357 215.605 217.019 220.538 221.022 220.794C226.157 211.46 238.306 197.562 244.933 188.367C247.148 189.223 249.219 189.843 251.586 190.101C258.082 189.597 262.709 187.077 266.671 181.892ZM176.838 191.788C175.941 193.002 175.084 193.86 173.827 194.686C171.373 194.622 165.89 195.516 164.049 194.104C160.186 194.684 156.917 194.232 153.329 192.708C152.617 193.364 151.885 194.007 151.195 194.686C159.26 197.739 165.663 196.761 173.827 194.686C178.114 197.894 190.97 216.905 194.182 222.189C199.299 223.214 197.14 225.107 197.823 229.147C199.65 239.945 217.762 240.11 219.95 229.212C220.341 227.264 220.108 225.238 221.022 223.422C221.111 222.513 221.134 221.701 221.022 220.794C217.019 220.538 214.357 215.605 209.713 214.861C204.667 214.052 202.968 217.779 198.637 218.357C195.714 217.319 180.001 195.843 176.838 191.788Z"/>
	<path transform="scale(1.04176 1.04176)" d="M194.182 222.189C199.299 223.214 197.14 225.107 197.823 229.147C199.65 239.945 217.762 240.11 219.95 229.212C220.341 227.264 220.108 225.238 221.022 223.422C223.366 223.117 223.997 223.692 225.221 225.547C224.808 228.874 224.513 231.953 222.709 234.891C211.675 252.859 186.215 234.558 194.182 222.189Z"/>
	<path fill="#FED45E" transform="scale(1.04176 1.04176)" d="M244.933 188.367C247.148 189.223 249.219 189.843 251.586 190.101C244.081 198.237 230.955 216.468 225.221 225.547C223.997 223.692 223.366 223.117 221.022 223.422C221.111 222.513 221.134 221.701 221.022 220.794C226.157 211.46 238.306 197.562 244.933 188.367Z"/>
</svg>
