<?xml version="1.0" encoding="UTF-8"?>
<svg xmlns="http://www.w3.org/2000/svg" version="1.1" viewBox="0 0 434.3 413.7">
  <defs>
    <style>
      .cls-1 {
        fill: #5661ee;
      }

      .cls-2 {
        fill: #15bbab;
      }

      .cls-3 {
        fill: #fc625d;
      }

      .cls-4 {
        fill: #5b4f9b;
      }
    </style>
  </defs>
  <!-- Generator: Adobe Illustrator 28.7.1, SVG Export Plug-In . SVG Version: 1.2.0 Build 142)  -->
  <g>
    <g id="_Слой_1" data-name="Слой_1">
      <path d="M154.1,0c1.6-.1,3.2,1.2,2.2,2.9-1.1,2.1-6,3.2-8.1,3.9-1.4-.1-3-1.2-2.3-2.8,1-2.3,6-3.3,8.2-4Z"/>
      <path d="M49.5,139c3.4,0,7.3-.5,10.7,0,2.7.4,2.6,3.3.6,4.5-3.1,0-10.1,1.2-12.5-1.2-.7-1.6-.2-2.5,1.3-3.2Z"/>
      <path d="M63.9,107.1c1,0,14.7,7.8,10.2,12.3-2.6.1-14-8.2-10.2-12.3Z"/>
      <path d="M379.6,269.5c2.8.7,13.7,7.2,8.8,12.4-2.2-.3-14.7-9.5-8.8-12.4Z"/>
      <path d="M187.8,388.7c6.3.5.9,15,0,16.3-7.6.2-1-15.1,0-16.3Z"/>
      <path d="M392.9,242.2c1.6,0,17.7-1.6,13.1,3.9-1,.5-1.8.5-2.9.6-3.2,0-12.5,1.6-14.6-1.5-.3-2.9,2.4-2.8,4.5-2.9Z"/>
      <path d="M138,8.9c1-.3,2.1,0,2.3,1.2.4,2.5-6.7,6.7-8.3,8.1-7.7,6.7-10.5,11.7-15.3,20-11.9-2.4,15.2-26.6,21.3-29.3Z"/>
      <path d="M127.1,361.9c4,.1,8.9,8.2,11.9,11.1,7.1,6.9,15.6,12.4,25,15.7,4.2,1.5,13.6,1.9,9,6.6-9.9-.4-24.6-9-31.9-15-3.3-2.7-18.3-14.3-14.1-18.5Z"/>
      <path d="M309,46.3c8-1.6,24.8,4.4,17.5,8.4-1.9-.1-6.6-3.1-9.1-3.9-29.2-9.1-35.6,44.2-41.3,61.9-.7,3.4-1.8,16.5-5.7,17.5-3.7-1.8.4-13.4,1-16.3,3.5-15.2,14.4-70.4,37.6-67.7Z"/>
      <path d="M181.7,14.5c9.7-.6,40,5.4,43.4,14.6.6,1.7-1.5,2.8-2.9,2.3-2.6-.9-6.2-4-8.6-5.5-22.7-14.1-54.7-6.2-72.9,12.2-17.9,19.1-13.2,38.6-19.3,36.6-1.8-1.5-.7-4.6-.4-6.5,5.1-31.7,30.6-49.9,60.7-53.7Z"/>
      <path d="M424.5,155.2c-4.8-21.8-62.9-71.6-79.9-85.6-2-1.6-9.5-6.7-10.4-8.1-.8-1.3-.5-2.8,1.1-3.1,2.8-.4,7.2,3.9,9.2,5.5,20,15.7,84.3,69.6,85.4,97.2-4,20.7-15.6,26.4-32.4,37.4-13.3,8.7-26.7,16.5-40.5,24.2-2.6,1.4-12.7,8.8-15,5.7-.7-4,5.7-5.8,8.6-7.2,16.7-8.3,67.4-36.5,73.5-53.2,1.3-3.6,2.3-9.4.4-12.8Z"/>
      <path class="cls-2" d="M345,292.7c2.7.3,3.7,2,6,2.8,5.7,15.7-4,34.8-19.5,40.3-9.2,3.3-22.8,4-32.7,4.8-54.1,4.4-108.6,6.8-162.9,5.4-18.3-.5-38.1-1.9-56.4-3.1-16.8-1.1-44.1-.4-56.5-13.1,1.5-.1,10.3,1.9,12.7,2.2,47.6,6.9,95.5,8.1,143.5,8.1,40.4,0,80.5-1.5,120.7-5,8.5-.7,17.8-1.2,26-3.6,13.7-4,31.6-21.3,19.7-36l-.7-2.8h0Z"/>
      <path d="M23.1,329.8c-2.2-1.6-4.8-2.7-7.2-4.1-15.1-8.9-20.5-29.6-11.4-44.7,12.5-20.6,26.2-40.5,39.5-60.6l66.9-99.5,32-46c4.9-7,10.6-16.8,16.2-22.8,10.7-11.6,29.1-13.2,42.3-4.9,8.2,5.2,12.3,12.7,17.2,20.7l112,186.8c6.4,11,17.8,28.8,20.5,40.7-2.3-.8-3.3-2.5-6-2.8h0c-2.1-2.9-5.2-10.4-7.5-14.1l-47.7-79.4c-4.5-7.4-33.3-55.9-33.3-60.2-1.3-3.4-9.3-15-11.6-18.8l-30.8-51.1c-1.1-1.9-2.2-4.1-3.7-5.7-2.5-1.4-4.2-3.7-6.5-5.4-11.6-8.6-27.6-6.5-37.2,4-6.9,7.7-12.5,17-18.5,25.4-39.2,55.3-78.2,112.6-114.6,169.7-4.1,6.4-8.3,12.7-12.5,19-11.6,17.2-14.2,20.6-9.3,40.7,8.3,10.1,21.8,10.7,33.8,12.1,43,4.8,83.7,6.9,126.7,6.9,40.1,0,80.1-1.2,120.1-4.5,24.2-2,54.9-2.1,53.1-35.8,12,14.7-6,32.1-19.7,36-8.3,2.4-17.5,2.9-26,3.6-40.2,3.5-80.4,5-120.7,5-48,0-95.9-1.2-143.5-8.1-2.3-.3-11.1-2.4-12.7-2.2ZM11.9,316.9c-4.9-20.1-2.3-23.5,9.3-40.7,4.2-6.3,8.4-12.6,12.5-19,36.5-57.1,75.4-114.3,114.6-169.7,6-8.4,11.5-17.7,18.5-25.4,9.5-10.5,25.5-12.6,37.2-4,2.3,1.7,3.9,4,6.5,5.4-9-16.3-26.8-21.8-43.2-12.7-7.6,4.2-14.7,17.3-19.5,24.3l-26.2,37.9c-31.5,45.3-62.3,91-92.2,137.3l-15,22.8c-9,13.9-17.9,29-2.5,43.9ZM345,292.7h0c-2.3-13.2-42-75.4-50.2-89.1l-26.5-44.7c-4-6.6-7.8-13.4-11.9-19.9,0,4.3,28.9,52.8,33.3,60.2l47.7,79.4c2.3,3.8,5.3,11.2,7.5,14.1Z"/>
      <path class="cls-2" d="M358.4,301.7c8.9,12.7,10.8,30.1-3.3,39.8-3.2,2.2-6.8,3.1-10.1,5-10.5,26-17.1,72.1-54.3,66.8-11.2-1.6-81.6-31.3-83.9-33.5-11.4-3.9-22.8-8.7-34.1-13.1-11.6-4.6-23.8-9-34.7-15.1h10.4c4.1-.3,8.4,0,12.5,0,43.5,0,87.2-1.5,130.5-5,11.6-.9,27.8-1.4,39-4.8,14-4.2,27-16.6,27.9-31.9.2-2.7-.1-5.4,0-8.1Z"/>
      <path d="M326.4,351c1.1.3,2.2.6,3.2,1.3,1.1,2.3-4.6,13.7-5.6,16.1-13.1,30.8-25.8,42.4-59.6,31.1l-15.1-5.1c-8.8-3-34.8-13.8-42.5-14.6-11.4-3.9-22.8-8.7-34.1-13.1-11.6-4.6-23.8-9-34.7-15.1h10.2c34,15.8,75.5,29.4,111.6,41.6,11.5,3.9,23.1,8.9,35.3,4.4,20.8-7.7,22.3-31,31.3-46.5Z"/>
      <path class="cls-3" d="M273.2,155.2c5.1-20.6,8-39.7,14.6-60.5,4.8-15.2,12.4-40.4,33-36.9,16.3,2.7,65.8,50.6,76.4,62.5,8.2,9.2,16.4,18.9,23.7,28.8,1.4,1.9,2.1,4.2,3.6,6.1,1.9,3.5.9,9.3-.4,12.8-6.1,16.7-56.8,44.8-73.5,53.2-2.9,1.4-9.3,3.3-8.6,7.2,2.3,3.2,12.4-4.2,15-5.7,13.9-7.7,27.3-15.5,40.5-24.2,16.8-11.1,28.4-16.7,32.4-37.4,3.5,6.6,5.6,13,3.4,20.4-5.3,17.5-56.3,45-76.1,54.2-9.1,4.2-18,7.8-28.1,4.7-9.2-2.9-11.7-9.4-16-17.2-9.8-17.6-19.8-35.1-30.2-52.3-3.2-5.2-6.9-10.3-9.7-15.7ZM379.6,120.9c-21.7,4.3-54.4,37.4-66,54.9-1.9,2.9-1.5,5,2,6.1,3.2-1.1,5.1-5.8,7-8.4,11.9-16.4,32.5-35.8,51.1-44.4,2.3-1.1,7.2-2.2,8.2-4.6.8-1.8-.6-3.4-2.3-3.5Z"/>
      <path d="M370.2,114.6c1.5,0,2.4.6,3,2-.3,4.3-33.7,15.1-61.2,54.4-7-.9,1-8.6,2.7-10.9,12.2-15.7,36.6-37.4,55.5-45.6Z"/>
      <path class="cls-1" d="M11.9,316.9c-4.9-20.1-2.3-23.5,9.3-40.7,4.2-6.3,8.4-12.6,12.5-19,36.5-57.1,75.4-114.3,114.6-169.7,6-8.4,11.5-17.7,18.5-25.4,9.5-10.5,25.5-12.6,37.2-4,2.3,1.7,3.9,4,6.5,5.4,1.4,1.6,2.5,3.8,3.7,5.7l30.8,51.1c2.3,3.8,10.3,15.4,11.6,18.8,0,4.3,28.9,52.8,33.3,60.2l47.7,79.4c2.3,3.8,5.3,11.2,7.5,14.1l.7,2.8c1.8,33.8-29,33.8-53.1,35.8-40,3.3-80,4.5-120.1,4.5-43.1,0-83.7-2.1-126.7-6.9-12-1.3-25.4-2-33.8-12.1ZM172,252.4v.5c1.8,6.5,5.5,8.8,5.2,2.6-1-1.5-1-3.9-1.1-5.6-.9-3.6-1-7.6-1.4-11.3l-5.3-59.3c-1.2-14.7-6.2-36.1,11.6-42.9,9.5-3.6,17.7.6,21.1,10,1.3-.3,2.2-.3,3.6,0-1.4-7-3.9-10.1-8.6-15.3-3.7,4.1-3.9,1.6-8.2-.4-11.7-5.4-26.1,3.3-27.3,16-.4,4.5.2,9.2.6,13.7l7.3,69.5c.8,7.5,1.9,15.1,2.5,22.6ZM168.9,285.6c-.7.8-1.5,1.6-2,2.6l.2.3c2.1,2.7,4.3,7.1,7.9,8.1-.4-1.6-.5-3.2-.6-4.8-3-15.5,8.4-26,22.8-16.5,0-1,0-1.9,0-2.9-.5-4.2-5-6.2-8.4-7.7-13.3-2.4-23.7,7.2-19.8,20.9Z"/>
      <path d="M166.8,288.2c-2.9-.2-3.2-7-3.2-9,.2-14.1,16.5-23.3,25.1-14.5-13.3-2.4-23.7,7.2-19.8,20.9-.7.8-1.5,1.6-2,2.6Z"/>
      <path class="cls-4" d="M202.2,281.9c4.2.1,4.7,5.1,4.6,8.3-.6,15.2-23.4,15-25.1,8.8,10.7-.1,19.9-5.5,20.5-17.1Z"/>
      <path d="M202.2,146.3c1.3-.3,2.2-.3,3.6,0,2.6,4.4.3,15.9-.1,20.9l-2.8,26.5c-1.1,11.8-2.3,23.5-3.7,35.3-1.7,14.3-2.3,29.7-22,26.6-1-1.5-1-3.9-1.1-5.6,20.8,5.3,18-14.6,19.6-29.8,2.2-21.6,5.6-45.1,6.4-66.7,0-2.4-.2-4.8,0-7.1Z"/>
      <path class="cls-3" d="M174.3,291.8c-3-15.5,8.4-26,22.8-16.5,0-1,0-1.9,0-2.9,4.2,1.4,5.3,5.4,5,9.5-.6,11.6-9.8,17-20.5,17.1-2.6-.3-4.6-.8-6.7-2.4-.4-1.6-.5-3.2-.6-4.8Z"/>
      <path d="M197.1,272.4c4.2,1.4,5.3,5.4,5,9.5-.6,11.6-9.8,17-20.5,17.1-2.6-.3-4.6-.8-6.7-2.4-.4-1.6-.5-3.2-.6-4.8,13.3,8.2,25.1-.9,22.8-16.5,0-1,0-1.9,0-2.9Z"/>
      <path d="M172,252.4c-8.6-7.9-7.6-29.2-8.8-40.7l-3.8-36.2c-.8-7.7-3.3-24.3-2.1-31.1,3.6-19.8,31.8-25.5,39.9-13.3-3.7,4.1-3.9,1.6-8.2-.4-11.7-5.4-26.1,3.3-27.3,16-.4,4.5.2,9.2.6,13.7l7.3,69.5c.8,7.5,1.9,15.1,2.5,22.6Z"/>
      <path class="cls-3" d="M176.1,249.9c-.9-3.6-1-7.6-1.4-11.3l-5.3-59.3c-1.2-14.7-6.2-36.1,11.6-42.9,9.5-3.6,17.7.6,21.1,10-.3,2.4,0,4.8,0,7.1-.8,21.6-4.2,45.1-6.4,66.7-1.6,15.2,1.3,35-19.6,29.8Z"/>
    </g>
  </g>
</svg>