<?xml version="1.0" encoding="UTF-8"?>
<svg xmlns="http://www.w3.org/2000/svg" version="1.1" viewBox="0 0 1742 980">
  <defs>
    <style>
      .cls-1 {
        fill: #5661ee;
      }

      .cls-2 {
        fill: #fc625d;
      }
    </style>
  </defs>
  <!-- Generator: Adobe Illustrator 28.7.1, SVG Export Plug-In . SVG Version: 1.2.0 Build 142)  -->
  <g>
    <g id="_Слой_1" data-name="Слой_1">
      <rect class="cls-2" width="1742" height="980"/>
      <g>
        <path class="cls-1" d="M43,7.1c25.9,13.3,34.1,16.2,49.5,17.5,9.6.8,23.3-.9,35.3-4.2,38.2-10.6,41.9-11.5,51.7-12.1,16.5-.9,32.4,4.4,38.6,12.9,5.3,7.4,5.8,14.4,2.3,33.2-1.9,10.8-1.8,16.4.6,20.3,2.5,4.2,8.9,7.4,16.1,8,5.6.6,6,.4,9.3-2.9s5.7-9,6.3-22.3c.6-14-1.5-27.6-5.7-36.2-1.8-3.5-6.1-9.4-10.1-13.7L229.8,0H29.5c0,.1,13.5,7.1,13.5,7.1Z"/>
        <path class="cls-1" d="M264.4,2.2c3.2,4.5,6.5,11.5,8.7,18.8,1.8,5.9,2.3,9.8,2.3,18.5s-.2,11.4-4.5,22.5c-3.7,9.7-4.4,12.6-4.4,18.7s.3,7.6,3,11.5c1.7,2.4,7.2,7.3,12.5,11,6.8,4.9,10.6,8.5,13.7,13,8.6,12.3,10.8,13.5,17,9.7,7.4-4.6,8.3-13.6,3.3-31.1-3-10.4-3.1-11.4-2.8-27.5.3-19.4-.5-22.4-9.3-35.8-5.9-9.1-9.8-16.8-12.9-25.3L288.7,0h-25.9l1.6,2.2Z"/>
        <path class="cls-1" d="M315.4,16.2c13.5,27.1,14,29.5,12.1,57.8q-.8,12.5,2.2,19.5c1.7,3.9,3.6,8.4,4.2,10.1,2.6,6.7,10.1,11.1,26.6,15.9,15.8,4.5,29.1,6.3,36.4,4.9,7.8-1.6,18-15.6,16.7-22.9-.9-4.5-6.3-9.7-13.5-13.1-12.7-5.9-14.7-7.1-19.2-11.6-9.4-9.4-12.4-21-7.8-30.5,2.5-5.3,8.6-10.6,13.8-12.1,14-4.2,34.4,3.2,45.1,16.4,4.9,6,9.8,9.4,13.7,9.4,5.6,0,11.3-7.2,11.3-14.2s-10.2-20.8-21.3-26.3c-9.7-4.7-17-5.6-41.2-4.8-17.1.5-21.2.3-28-1.2-10.5-2.3-17.4-5.4-21.8-9.9L341.1,0h-33.8l8.1,16.2Z"/>
        <path class="cls-1" d="M428.5,1.6c6,4.7,15.5,7.1,33.3,8.3,12.6.8,13.5,1,17,3.8,9.2,7.3,9.1,13.4-.3,27.3-3.6,5.3-6.5,10.5-6.5,11.7,0,2.7,4.2,6.1,8.4,6.9,5.8,1,10.7-1.1,19.8-9,10.5-9,13.3-10,24.2-9.1,9.7.8,12.4-.2,16-5.4,4.8-7.2,4.3-12.8-2-22.7-1.8-2.9-3.9-7-4.6-9.3L532.5,0h-53c-48.3.1-52.8.2-51,1.6Z"/>
        <path class="cls-1" d="M594.6,5.7c.9,7.8,1.9,10.1,4.8,11.4,3.5,1.6,8.4.4,15.2-3.7,13.7-8.4,26.6-12.4,40.1-12.4s26,3.4,39.2,13.1c6.6,4.8,8,5.4,12.3,5.4s5.3-.5,7.8-3.1c3.4-3.4,5-8.2,4.2-13.2L717.8,0h-123.9l.7,5.7Z"/>
        <path class="cls-1" d="M733.5,1.9c-1.1,3.5,2.3,16,8.4,30.6,7,16.8,8.1,21.4,5.6,23.8-.9.9-2,1.7-2.5,1.7s-5.9-4.1-12.2-9.1c-12.8-10.3-20.4-14.2-36.8-19.3-24.5-7.5-45.4-11.3-55.9-10-3.1.3-11.4,2.4-18.6,4.6-16.7,5.2-26.8,5.7-31,1.8-1.5-1.4-4.4-6.1-6.5-10.5-4.7-10.2-8.8-14-13.9-13-4.3.8-8.8,3-11.9,5.9-4.2,3.7-5.3,8.2-5.7,22.6-.4,11.6-.8,14.1-2.8,18-4,7.7-9.6,10-30.7,12.5-7.4.9-16.2,2.3-19.5,3.2-16.1,4-25.3,15.2-35,42.3-5.7,16-9.9,23.6-16.9,30.6s-7.4,6.6-11.6,7.8c-10.8,3.2-26,1.2-50.5-6.8-26.6-8.6-42.1-11.2-51.3-8.7-8.7,2.4-16.7,13.2-14.3,19.3.5,1.4,2.6,3.8,4.5,5.3,6.5,4.9,15.7,7,54.9,12.5,34.9,4.9,47.1,7.8,60.3,14.1,9.3,4.6,13.8,8.9,18.8,17.9,6.3,11.7,8.1,20.1,8.1,39s-1.3,26.2-6.2,39.5c-3.9,10.6-7,16.3-13.1,24-9.3,11.9-11.3,18.9-6.9,24,3.2,3.8,9.8,4.4,16,1.7,7.1-3.2,13.3-9.6,22.6-23.7,14.5-21.7,21.2-37.9,25.3-60.5,3-16.2,2.9-50.1-.1-79.8-4.2-42.2-2.3-53.2,11.8-67.3s34.2-19.1,46.9-9.9c8,5.8,7.9,5,4.2,30.8-1.8,12.8-3.3,27.3-3.4,33.2-.1,10.4,0,10.6,4,19,2.3,4.7,8.7,15.5,14.3,24,15.2,23.1,19.7,33.6,17.7,41.4-1,4.1-6.2,8.3-17.7,14.2-8.4,4.3-11.9,6.7-15.4,10.7-8.7,9.9-11.6,24.4-7.7,37.4,4.7,15.5,14.8,24.3,27.7,24.3s12.1-2,13.5-6.7c1.1-3.4.8-5.5-1.9-16.4-1.7-6.8-3.1-14.5-3.1-16.9,0-7.4,4.7-13.2,11.8-14.6,2.8-.6,3.7-.1,7.1,3.2,5.7,5.7,8.3,14.8,8.3,28.4,0,25.5-12.2,41.1-33.6,42.7-14.3,1.1-25.5-3.6-49.5-20.8-17.9-12.7-26.4-17.2-31.9-16.7-3.6.3-3.7.4-4,4.6-.4,5.7,3.7,14.6,10.6,22.8,13.8,16.7,44.4,33,70.2,37.5,10.6,1.8,29,1.6,37-.5,20.6-5.3,34.1-18.7,39.9-39.6,2.9-10.4,4.5-25.9,3.7-36.4-2-26-9.6-44.7-34.1-83.1-27.1-42.5-36.6-64.4-35.2-81.1,1.1-13.7,12.3-20.4,28.7-17,12.9,2.7,24.4,10.2,49.4,32,22,19.2,28.7,23.6,35.9,23.6s8.8-2.4,11.7-9.1c5.2-12.1.7-26.3-12.3-38.5-11.6-11-22.7-16.8-46.2-23.9-23.5-7.2-43.3-16.5-50.2-23.7-4.7-4.8-5.3-8.9-1.8-12.4s3.2-2.6,6.8-2c2.3.4,8,2.4,12.8,4.6,4.7,2.1,11.2,4.6,14.5,5.5,19.4,5.4,24.8,7.1,33.1,10.6,11.3,4.6,20.8,10.1,31.1,17.9,9.2,6.9,11.8,9.9,23.7,27.5,25.1,36.9,35.8,47,50,46.9,13.2,0,22.6-10.4,27.7-30.7,3.7-14.5,1.1-30.8-7.2-46.4-3.9-7.2-5.2-9.2-23.3-36.1-5.3-7.8-11.3-17.7-13.4-22l-3.8-7.7V0h-14.2c-13,0-14.2.2-14.8,1.9Z"/>
        <path class="cls-1" d="M769.7,5.5c-.6,6.2.5,16.2,2.3,19.6,2.2,4.4,6.4,8,15,13.2,15.8,9.5,22.2,18.1,31.4,42.8,4.9,12.9,7.7,15.8,12.1,12.5,2.4-1.7,2.5-6.6.6-21.5-3-23.2,1.8-34.4,15.2-35.8,2.8-.3,10.2.2,16.3,1.1,12.9,1.9,17.3,1.3,26.9-3.7,11.3-5.9,25.5-23.3,25.5-31.4V0h-44.2l-3,2.5c-6.7,5.6-10.6,6.9-20.3,6.7-14.4-.3-16,.2-22.6,7.1-4.6,4.8-6.3,6-8.7,5.9-6.2-.2-13.2-5.9-13.2-10.9s2.1-5,7.5-9l3-2.2h-43.2c0-.1-.6,5.4-.6,5.4Z"/>
        <path class="cls-1" d="M931,.8c0,1.5,4.4,5.1,8.5,6.9,3.6,1.6,8,1.8,43,2,41.3.2,55,1,84,4.8,9.9,1.3,20.7,2.7,24,3,12,1.3,24.9,6,29.4,10.9,5.4,5.8,11.3,2,12.6-8,.9-7.3,2.1-9.9,5.4-11.5,1.6-.8,9.4-1.5,21.6-1.9,19.5-.7,23.1-1.4,26.4-5.4C1187.1,0,1175.3,0,1059.1,0s-128.1.4-128.1.8Z"/>
        <path class="cls-1" d="M1209.4,3.8c-3.2,2.1-7.2,5.6-8.8,7.7-7.2,9.4-10.3,10.9-17.3,8-5.7-2.4-25.9-1.6-37.4,1.5-9.6,2.6-10.4,16.2-1.1,20.6,3.9,1.8,6.7,1.4,16.3-2.7,7.9-3.4,16.7-3.9,24.2-1.3,4.9,1.6,9.7,6.3,9.7,9.3s-4.7,6.6-9,8c-4.7,1.6-31.8,7.4-46.2,10-21.7,3.9-23.4,3.2-23.9-9.3-.5-9.8-1.6-11.6-9.6-15.2-7.6-3.4-18.4-5.2-40.8-6.9-17.2-1.2-36.6-3.5-82.5-9.6-15.3-2-32-1.7-41.7.9-12,3.2-24.3,8.8-36.2,16.5-18.8,12.3-25.5,14.7-41.2,14.7s-13.4.7-17,4.1c-3,2.8-3.1,3.2-2.7,9.7.4,8,2.1,10.7,9.5,15.2,8.4,5.1,16.5,7.3,27.3,7.4,12,.1,16.5-1.4,30.1-10.1,9-5.7,18.1-10.4,31.9-16.5,2-.9,7.6-2.6,12.5-3.9,8.2-2.2,11-2.4,30-2.3,43,.2,82,8.4,91.9,19.5,6.8,7.5,6.9,7.6,7,24.2.1,14.7.2,15.5,3.7,25.4,3.6,10.2,3.6,10.3,1.9,14-2.1,4.6-10.7,12.6-17.2,15.9-3.6,1.8-6.3,2.4-11.5,2.4-7.8,0-12.3-1.8-24.2-9.4-9.8-6.3-12.7-6.8-17.5-2.6-6.3,5.5-9.2,11.9-8.8,18.8.4,6.1,19.5,19.7,32.4,23.2,12.3,3.3,36.2-2.6,58.5-14.4,14.7-7.9,20.3-14.2,20.3-23.2s-4.1-13.9-7.9-19.3c-5.1-7.3-7-23.2-3.4-29.4,6.4-10.9,35.1-21.9,60.9-23.4,13.9-.7,20.2.6,25.5,5.4,9,8.1,4.6,21.3-9.2,28.2s-13.8,4.2-24.1-.9c-11.2-5.5-17.4-5.1-22.7,1.6-5.8,7.4-2.1,16.6,8.4,21,5.2,2.1,22.7,2.1,31-.1,7.4-1.9,18.7-7.2,24.6-11.4,6.9-5,16.1-14.5,19.7-20.4,8.2-13.6,8.2-36.1-.2-61.1-2-6-3.9-12.8-4.3-15.1-.8-6.3,2.7-17.1,7.7-23.4L1232,0h-8.3c-8,0-8.6.2-14.3,3.8Z"/>
        <path class="cls-1" d="M1246,6.6c-5.1,11.3-6.4,17-6.3,28.4,0,8.7.6,12.6,3.3,22.5,2.7,9.5,3.4,14,3.4,21.5.1,12.5-1.7,17.3-10.1,26.2-6.7,7.2-7.5,9.5-4.8,14.7,1.8,3.6,6.3,5.5,10.6,4.6,4.6-1,11.2-8.3,15.6-17.3l3.8-7.6v-15c0-8.3-.2-24.1-.5-35.1-.5-24.2.5-28.7,8.5-40,2.9-3.9,5.5-7.7,5.9-8.3C1275.9.3,1272.5,0,1262.5,0h-13.6l-2.9,6.6Z"/>
        <path class="cls-1" d="M1282.6,4.2c-6.7,11.7-9.3,30.4-7.7,55.8,2.2,33.9,1,48.1-4.9,60.9-7.9,16.9-19.8,23.2-57,30.1-19.8,3.6-47.8,14.1-78,29.1-50.2,25-83.5,53.1-99.4,83.8-7.4,14.4-10.8,25.8-11.4,38.2-.5,12.4,1,18.9,6,26.5,3.7,5.5,11,9.9,18.4,11,5.6.8,8.5.1,12.4-3.2,4.5-3.8,6.8-9,10.6-24.2,8.9-35,19.4-51,47.1-71.8,43.1-32.5,98.7-50.6,117-38.1,4.4,2.9,7.3,9,7.3,15.5,0,12.7-5.1,17-32.4,27.3-21.3,8.1-36.5,17.6-49.6,30.9-8.3,8.4-12.9,15.6-16.8,25.8-2.3,5.9-2.6,8.2-2.6,18.7s.4,12.9,2.8,19.5c6.6,17.6,18.5,32.6,34.8,43.8,11.2,7.6,17,10,28.9,11.7,19,2.7,31.1,1.5,34.9-3.3,3.8-4.7-.6-13-9.1-17.7-4.3-2.3-6.9-2.9-16.7-3.6-14.7-1.1-17.7-1.6-22.9-3.9-10.5-4.6-16.8-18-16.8-35.5.1-7.7.4-9.7,2.7-14,9.7-18.6,24.3-27.2,64.1-38,23.7-6.4,33.8-11,40.1-18.6,9.8-11.6,8.7-24.4-3.8-44.7-7.2-11.6-9.6-16.8-9.6-21.2s3.2-9.7,10.8-13.3c9.3-4.3,16.4-4.2,33.2.8,17.5,5.1,25.6,10.4,35.7,23.2,6.3,8,8.7,15,8.7,25.8.1,10.8-1.8,17.4-10.8,38.4-10.4,24.1-11.1,26.8-11.1,40.7v12.1l4.4,8.8c5.5,11.1,15.9,22.1,24.5,26.1,7.7,3.5,14.6,4.2,36.1,3.7,19.6-.5,27.1.4,38.3,5,15.1,6.1,32.2,21.3,44,39.1,12.2,18.5,14.2,30.1,7.4,43.9-7.8,15.7-30.6,29.2-46.3,27.4-12.8-1.5-16-10.7-9.8-28.3,5.6-15.6,4.1-25.2-4.7-30.1-4.9-2.8-13.4-3.1-18.4-.5-7.5,3.7-10,12-8,26.3,4.2,30.2,15.6,44.7,38,48.2,24.4,3.8,63-11.6,85.8-34.2,16.1-15.9,23-30.6,22-46.6-.9-13.4-7.9-23.5-23.5-34.3-16.3-11.1-34.9-19-57.6-24.6-5.8-1.4-14.5-4.1-19.4-6-4.8-1.9-13.1-4.6-18.5-6-18.5-5.1-28.4-10.3-33.9-17.9-9.3-12.8-8.6-38.2,1.3-47.4,4.8-4.5,8.6-5.3,26.6-5.3s22-.7,29.7-6c11.4-7.8,15.8-23.5,9.2-33.1-3.6-5.3-7.1-7.3-12.6-7.2-5.8.1-8.8,1-25.1,7.5-20,8.1-27.5,7.6-36.3-2.1-4.4-4.9-6.2-10.9-7.7-25.6-2-21.3-4.6-25.9-18.3-33-12.3-6.4-15.7-10.8-15.7-20.2.1-24,31.6-39.3,81-39.3s87.4,14.4,102.4,34.9c7.3,9.9,8.1,12.9,8.1,29.6s-3.8,34.3-17.3,48.6c-9.8,10.5-11.6,13.2-14.6,21.2-5.7,15-5.5,32.6.6,43.8,3.7,7,14.1,17.2,22.5,22.2,23.4,13.6,47.4,14.1,58.1,1.1,6.9-8.3,5.8-15.6-3.6-24.4-3.3-3-9.1-8.4-12.9-12-10.8-10-11.7-15.7-4.2-26.9,4.6-6.9,12.9-14,29.9-25.6,15.3-10.5,24-17.7,28.2-23.3,21-28.1,23.3-58.4,6.5-85.4-17.5-28.1-54-49.4-93.7-54.8-32.1-4.4-75.9-2.4-102,4.5-11.8,3.2-18.1,6.1-37.3,17.3-27.6,16.2-39.5,21.2-50.8,21.2s-23.1-9.9-23.2-26.5c-.1-8.4,1.5-13.3,6.2-18.2,7-7.4,21.9-8.2,27.1-1.5,2.9,3.6,2.4,11.2-1.5,20.6l-2.8,7,3.2,2.8c2,1.7,4.3,2.8,6.1,2.8,8.7,0,22.6-23.4,20.6-34.5-1.5-7.9-11.9-15-26.3-18-9.2-2-28.2-1.9-35.8,0-15.5,4.1-22.1,15.9-18.1,32.7.8,3.6,4.9,14.4,9.1,23.8,12,27.2,12.9,33.6,5.4,41.1s-20.6,9.6-25.5,6.4c-2.3-1.5-2.6-2.2-2.2-5.9.3-2.3,3.1-9.7,6.2-16.4,5.5-11.5,5.7-12.5,5.1-17.5-.4-2.8-2.3-9.4-4.2-14.6-6.2-16.6-6.7-19-6.7-29.6s1.3-14.9,8.2-23.3c4.8-6,18.2-17.5,29.2-25.3,5-3.5,9.9-6.9,10.8-7.6,1.4-1-4.2-1.2-27-1.3h-28.7l-2.5,4.2Z"/>
        <path class="cls-1" d="M1360.5,2.6c-5.9,3.9-10.5,8.5-10.5,10.5s3.2,3.2,15.3,5.9c13.8,3,33,8.1,35.7,9.5,6.2,3.2,8,8.9,4.8,15-.8,1.6-3.2,6.1-5.2,9.8-3.9,7.4-3.8,9.8.8,11.8,3.7,1.7,8.9-1.8,20.2-13.3,11.8-12.1,13.8-14.8,16.4-22.4,2.7-7.6,2.5-9.8-.7-12.4-2.6-2.1-3.4-2.2-14.4-1.6-10,.6-11.8.5-12.9-.9-3.3-4,3.2-7.7,14.5-8.3,9.4-.5,35.4,2.3,40.2,4.3,4,1.7,6.7,7,5.7,11.3-.9,3.7-4.8,8.8-10.6,14.1-5.9,5.2-6.1,8-.8,9.8,4.7,1.7,13.6.8,31.9-3.1,16.2-3.5,19.1-5,19.1-9.8s-10.8-22.9-18.1-29.2L1487.6,0h-123.1l-4,2.6Z"/>
        <path class="cls-1" d="M1506,.5c0,.3.6,1.6,1.4,2.8s3.3,7.6,5.6,14.2c4.9,13.9,6.5,17,12.1,22,5.4,4.9,12.2,7.7,18.8,7.8,5,.1,5.6-.1,8.5-3.4,2.1-2.6,4.7-8.7,9.1-22,3.4-10.1,6.5-19.2,6.9-20.2C1569.2,0,1567.4,0,1537.6,0s-31.6.2-31.6.5Z"/>
        <path class="cls-1" d="M1585.8,1.7c-2.7,3.1-3.8,6-5.4,14.5-1.2,6.3-2.5,9.7-5.5,14.4-2.1,3.3-3.9,7.2-3.9,8.6,0,6.6,11.1,12.8,20.3,11.4,11.1-1.8,16.7-7,19.3-18.2,5.2-21.5,6.9-24.5,16.3-29.4l5.6-2.9h-22.6c-20.3-.1-22.7.1-24.1,1.6Z"/>
        <path class="cls-1" d="M1675,1.5c-1.4.8-6.1,2.9-10.5,4.6-11.3,4.4-17.1,7.5-18.9,10.1-2.2,3.1-2,11.7.3,20s4.2,11.4,8.6,13.5c3.2,1.5,3.8,1.5,6.9.1,1.8-.9,8.1-5.3,14-9.7,16.7-12.5,28.3-17,40.1-15.6,7.1.9,16.2,5.3,22,10.6l4.5,4.2V0h-32.2c-26.2.1-32.8.3-34.8,1.5Z"/>
        <path class="cls-1" d="M.2,43.4l.3,24.1,8.2,2.8c26.4,9,81.3,18,109.3,18s26.7-1.6,47.5-8.4c24.5-8.1,36.9-16.1,39.5-25.9,3.6-13.4-7.5-24.3-27-26.5-7.9-.9-21.6,1.6-40.2,7.6-8.6,2.7-19,5.7-23,6.6-8.7,1.8-30.4,2.1-39.8.4-3.6-.7-19.1-5.4-34.5-10.6S9.7,21.5,6.2,20.7l-6.2-1.4.2,24.1Z"/>
        <path class="cls-1" d="M1698.8,47.9c-10.9,3.5-17.1,9.2-25.4,23.2-5.8,9.7-8.2,12.1-12.8,12.2-5.5.2-9.9-4.7-16.2-17.9-6.9-14.6-10.5-17.5-17.3-13.9-4.1,2.1-5.6,6.6-5.6,17,.1,13.8,2.3,17.7,19.4,34.5,16.1,15.8,17.8,18.6,19.2,32.2,1.1,10.9,3.8,17.2,8.8,20.5,6.3,4.2,16.6,2.1,19.8-4.1,1.4-2.6,1.5-5,.7-16.6-.5-7.4-.9-20-.9-28,0-13.6.2-14.8,2.5-19,4.8-8.6,14.7-11.7,25.7-8.1,9.6,3.2,14.7,7.2,20.4,15.8l4.9,7.6v-44.1l-3.7-3c-11.6-9.1-26.9-12.3-39.5-8.3Z"/>
        <path class="cls-1" d="M402,55.8c-4.4,2.2-5.8,5.7-4.1,11.1,1.6,5.4,4.7,8.9,15.6,17.6,13.4,10.7,15.5,15.9,11.5,28.5-1.1,3.4-2,7.3-2,8.5,0,5.3,7.8,7.3,13.4,3.4,7.7-5.3,15.5-20.6,16.4-31.9.4-5.6.1-7.3-2.1-11.5-3.6-7.2-9.9-12.9-19.6-17.9-8.3-4.2-21.9-9.6-24.4-9.6s-2.8.8-4.7,1.8Z"/>
        <path class="cls-1" d="M1013,77.2c-4.8,3.3-6.3,8-5,16.6,1.4,9.6,1.2,16.9-.4,20.1-.8,1.5-4.2,6.1-7.6,10.1-6.6,7.9-10,13.7-10,17s2.9,7.9,5.5,8.6c3.3.8,6.4-1.3,14-9.1,5.2-5.4,7-6.6,12.9-8.4,10.8-3.3,15.9-2.9,25.8,2.3,9.5,5,13.3,6,18.6,5.1,6.2-1,9.4-4.3,9.9-10.1.5-4.7.2-5.2-5.1-12.2-6.2-8.2-7.3-11.8-5.7-19.2.6-2.8,1.1-5.7,1.1-6.4s-3-2.6-6.7-4.1c-3.8-1.5-11.5-4.8-17.3-7.3-8.7-3.7-11.8-4.5-18.5-4.9-7.2-.5-8.3-.3-11.5,1.9Z"/>
        <path class="cls-1" d="M0,155.3v70.5l2.2.5c1.3.3,8.8,1.1,16.8,1.7,23.3,1.8,32.5,4.8,37.8,12,4.8,6.5,2.6,8.5-24.8,22.9-9.6,5.1-20.8,11.3-24.7,13.9l-7.3,4.7v40.5h2.3c4.5,0,14.3-3.1,21.7-6.9,4.1-2.1,16.9-9.6,28.5-16.6,38.8-23.7,48-26.3,69.5-19.9,19.6,5.8,40,23.9,40,35.4s-1.6,6.8-5.8,8c-8.8,2.4-15.1.7-24.4-6.6-3.2-2.5-7.7-5.3-10-6.3-12.8-5.5-38.1-2.4-59.2,7.4C22.6,335,2,369,.3,419.5c-.6,17.8.9,31.2,5.3,46.4,5.4,18.6,10.8,28.3,30.4,54.6,14.1,19,18.5,25.6,23,34.4,11.3,22.4,13.5,43.9,9.1,89.5-3.5,36.6-2.8,42.8,6.7,57,4.8,7.2,10.5,11.7,17.5,13.8s15.2-.1,20.2-3.2c19.6-12.1,22.4-53,7.5-110.3-6.7-25.7-13.4-40-34.4-73.6-23-36.6-31.8-59.3-31.8-81.6-.1-28.6,13.2-73.4,28.2-95.5,13.4-19.8,30.4-22.3,45.8-6.9s7.6,9.1,6.9,16.8c-1.2,13.9-7.1,27.4-23,53.4-11.4,18.4-14.9,25.2-18.3,35.4-7.9,24-1.1,51.6,17.1,69.8,21.9,21.8,64.7,33.9,99.1,28,32.4-5.7,59.8-22.2,112.1-67.7,19.8-17.2,40.1-33.7,50.3-40.9,20.6-14.6,44.6-25.9,64-30.2,27.5-6.2,59.4,1.5,76.2,18.2,7.9,8,10.5,14.5,9.4,24-1,8.7-3.8,13.1-17.3,27.4-17.3,18.2-20.4,23.1-20.5,31.3,0,7.8,4.8,13.4,15.8,18.6,8.2,3.8,14.5,4.5,21.9,2.3,8.2-2.3,17.7-11.8,22.8-22.7,11.5-24.3,11.9-49.7,1.2-78.1-13.6-36.1-38.7-59.1-72.6-66.4-12.6-2.7-38.8-2.4-52.8.6-27.1,5.8-54.5,17.9-74.9,33-4.2,3.2-17.8,15.6-30.2,27.6-33.3,32.3-46.6,42.8-62.7,49.5-8.2,3.4-19.3,6-25.9,6s-19.6-3-28-7c-13.2-6.4-20.9-16.2-24-30.9-3-14.3-1.2-30.1,8.1-71.3,8.1-36.1,9.7-46.9,9.8-63.8.1-32.4-10.9-51.5-39.2-68.3-13-7.7-26.1-13.2-62.1-25.7-34.7-12-44.9-16.5-58.6-25.6-14.8-9.8-23.7-21.5-26.5-35-1.8-8.6-.1-13,6.1-16.2,4-2.1,5.4-2.3,12.5-1.8,14.4,1.1,33.6,7.1,69.9,22.1,11.1,4.6,22.8,9.1,26,10,11.2,3.3,27.2.4,55.5-10,24.4-8.9,29.5-10,45.1-10,12.4.1,13.9.3,19.2,2.7,9.1,4.2,14.1,9.7,23.6,25.8,15.4,26.1,21.7,29.8,53.9,32.5,19.6,1.6,23.4,2.4,31.8,6.8,6.2,3.3,17.7,14.2,42,39.9,6.6,6.9,14.2,14,16.9,15.7,11.3,7,18.8,2.8,24.2-13.5,2.7-8.2,2.9-10.1,2.9-23.4v-14.6l-3.7-7.6c-4.5-8.9-13-17.5-22.9-23-12.8-7.1-24.3-10.7-70.4-21.9-35.4-8.5-44.2-14.1-65.2-41.1-20.9-26.9-30.3-32.7-54.4-33.6-14.4-.5-24.5,1.1-49,7.7-23.9,6.5-34,8.1-50.8,8.1s-32.5-2.1-68.2-12.4c-16.8-4.8-32.2-8-43.6-9.2l-7.3-.7v70.6Z"/>
        <path class="cls-1" d="M955.5,87.5c-24.4,6.6-57.5,27.1-81.6,50.6-14.6,14.2-19.9,23.3-23.4,39.8-4.6,22.4-2.4,34.9,8.3,46.4,6.4,6.7,13.1,11.1,30.2,19.7,17.4,8.7,25.9,14.1,32.3,20.6,11.1,11.2,11.9,20.8,2.3,29.2-4.9,4.2-9.8,6.2-15.7,6.2s-5.3-.5-8.2-3.4-6.3-10.9-4.8-14.7c.5-1.5,3.2-4.6,6-6.9,2.7-2.3,5.2-4.9,5.6-5.8.9-2.3-3.8-8.5-9.1-12.1-8.3-5.5-13.8-6.6-32.4-6.6s-22.6.7-40.7,5.1c-36,8.6-69,27.5-86.8,49.7-7.6,9.5-11.9,18.2-14.6,29.2-2.3,9.9-1.6,14.2,3.4,21.6l8.1,11.7c3.5,5.1,5,8.4,5.3,11.6.6,4.8-1.1,10.6-3.1,10.6s-5.4-3.9-10.6-8.6c-18-16.2-30.2-22.4-44.1-22.4s-16.8,2.7-26.9,12.9c-9.1,9.2-13,15.1-18.8,28.3-3.5,8-3.7,8.7-3.7,19.8s0,11.6,3.4,16.8c4.9,7.7,10.9,11.5,31,19.7,23.8,9.6,32.9,16,37.1,25.7,1.8,4.2,2.1,6.4,1.7,11.5-1.2,15.1-10.6,25.8-46.2,52.3-17.7,13.2-29.5,24.8-32,31.2-2.1,5.7-1.5,9,2.5,12.9,2.4,2.4,3.7,2.9,7.9,2.9s5.1.1,31.1-13.9c11.8-6.3,25.8-10.9,35.5-11.8,24.8-2.1,46.1,13,61.4,43.5,11.9,23.8,17.7,53.3,16.9,87.4-.4,17.6-.6,18.9-4.6,34.3-6.5,24.8-7.1,35.1-2.5,41.3,3.2,4.3,6,5.3,13.6,4.9,8.6-.6,21.3-6.5,41.7-19.7,34.7-22.5,67.7-35.4,151-59.5,59.3-17.1,62.5-18.1,74-23.7,13.5-6.7,23.5-16,26.9-25.3,5.2-13.8.4-29.3-12.6-41.6-12.1-11.3-26.5-17.2-42.3-17.1-15.4,0-30,6.8-34.7,16.2-3.1,6.1-3,9.3.6,12.3,3.5,2.9,8.4,4.2,23.6,6.2,13.2,1.7,17.4,2.9,20.9,5.6,3.1,2.4,3.3,4.7.6,9.8-7.4,14.7-37,26.8-127.2,52-15.8,4.4-34.3,9.8-41,12-19,6.1-31.9,9.1-39.6,9.1s-8.8-.7-9.8-5.6c-.7-3.7,2.6-8.7,8.1-12.6,2.2-1.5,9.9-5.2,17-8.3,14-6,19.8-9.9,27-18.4,11.4-13.4,13.6-18.1,22.5-49.6,7.6-26.7,10.5-35.2,16-47.1,14.9-32.3,44.9-54.9,80.9-60.9,12.3-2.1,36.5-1.6,56.4,1,22.4,3,33,.5,45.2-10.7,16.2-14.8,24.5-35.6,24.5-61.1-.1-36.8-19.6-70.1-48.6-82.8-6.8-3-19.8-3.7-28.3-1.5-13.3,3.4-17.9,10.8-13.2,21.2,2.3,5,7.3,9.3,20.1,17.3,13,8.1,21.1,15.6,24.7,22.9,2.6,5.2,2.8,6.6,2.7,16.7,0,9.1-.4,12-2.4,16.9-4.5,11.7-15.5,19.9-30.8,23.1-8.6,1.9-27.9,1.9-46.8.1-43.7-4.2-57.7-2.4-82.5,10.5-24.8,13-42.2,31.3-52.3,55-3.6,8.6-4.6,13.6-8,39.4-1.9,14.3-4.5,21.1-10.7,27.9-6.3,6.9-11.4,9-20.2,8.4-18.5-1.1-41.3-23.4-48.1-47-2-6.7-2.2-17-.5-22.7,2-6.6,8.6-11,12.5-8.3,3,2,3.8,6.2,4.4,23.3.6,15.9.8,18,3.1,22.4,3.2,6.5,6.5,8.8,13.6,9.3,7.8.6,13.6-1.2,18.4-5.5,8.3-7.6,11.4-17.8,10.7-35.7-.4-9.5-1.1-13.7-3.2-19.9-4.8-14.2-9.1-18.9-24.5-26.6-20.1-10.1-30.4-13.2-37.9-11.1-7.3,1.9-10.3,5.6-19,23.3-8.6,17.5-10.1,19.2-20.1,24.2-5.9,3-14,3.4-16.6.9-2.8-2.8-1.4-5.7,4.5-9,11.8-6.8,14.3-8.9,17.3-14.1,10.4-18.8,6.5-43.7-9.6-61-10.7-11.4-27.9-21.7-44.3-26.4-6-1.8-8.7-3.2-11.6-6.1-13.5-13.5-.7-31.2,22.7-31.1,18.8.1,28.3,8.2,43.5,36.8,12.9,24.4,20,33.9,28.5,38,5.6,2.8,16.1,2.6,23.7-.4,7-2.7,14.9-9.6,17.7-15.4,6-12.4-.3-24-21.9-39.9-17.7-13.1-24-20.9-28.6-35.2-3-9.4-3.7-23.5-1.5-32.6,6.6-26.9,27-43.1,60.6-48,23.3-3.3,42.2.9,63.8,14.3,18.6,11.6,22.5,13.8,29.9,16.5,6.7,2.4,8.6,2.7,21.8,2.7s26.2-2,41-9.2c8.1-4,11-6.1,19.1-14.3,10.8-10.6,17-20.2,21.8-33.4,5.2-14.6,6.6-23.3,6.6-42.6s-.2-17.9-2.8-25.5c-4.9-13.9-10.4-23.1-19.2-32-15.9-16.1-32.8-19.5-51.3-10.4-12.8,6.3-25.4,26.9-22.8,37.3,1.7,7,9.1,11.6,26.1,16.6,12.8,3.7,15.6,5,18.4,8.6,3.6,4.6,2.3,12.2-3.3,18.2-7.3,8.1-25.6,6.6-42.7-3.4-9.1-5.4-14.4-10.7-17.8-17.9-15.1-32-3.2-64.8,29.4-81.3,7.8-3.9,12-5,23.4-6.2,12.6-1.4,16.4-2.6,21.6-7.2,5.4-4.8,9.1-10.9,11.1-18.9,2.9-11.2-.2-19-9.1-23-4.9-2.3-18.4-2.5-26-.4Z"/>
        <path class="cls-1" d="M538.8,99.5c-8.7,3.2-17.3,11.1-21.1,19.4-3,6.5-2.9,24.9.2,41.6,5.2,28.1,6.4,37.2,6.4,50.5.1,15.4-.9,19.7-7.9,37.2-5.4,13.3-8.4,23.8-8.4,29s3.5,9,9.1,11.8c11.5,5.9,18.1-.6,28-27.5,4-10.8,6.7-14.5,14.6-20.1,12.7-8.9,15.3-12.2,15.3-19.7s-.8-5.7-4-10.3c-2.2-3.3-5.6-7.7-7.5-9.8-4.5-4.9-9.7-15.7-12.7-26.1-1.8-6.4-2.2-10.4-2.2-19.5.1-10.3.5-12.9,3.8-24,5-16.7,5.4-20.5,2.8-26.4-1.6-3.5-3-5-5.6-6.1-4.2-1.8-5.9-1.8-10.8,0Z"/>
        <path class="cls-1" d="M856.3,104.2c-8.7.9-11.7,2.3-16.8,7.9-4.8,5.4-9.6,15.7-17.8,38.4-7.5,20.9-11,28.9-16.1,37-5.8,9-13.2,16.1-24.1,23.2-17,11.1-20.8,15.8-20.8,25.7s.3,6.2,3.1,8.7c4.4,4,10.1,5.2,20.2,4.5,9.6-.6,27.5-4.8,33.5-7.8,11.2-5.6,13.1-11.1,12.1-33.8-.8-16.9-.1-21.5,5.4-34.2,7.1-16.5,11.7-23.3,23.6-35.2s16.2-18.5,17.8-26.2c1.5-6.8-5.7-9.7-20.1-8.2Z"/>
        <path class="cls-1" d="M1710.8,105.7c-3,3.4-3.8,6.2-5.3,18.4-.9,6.8-2.7,19.4-4,27.9-1.4,8.5-2.9,20.4-3.4,26.5-.7,7.1-2.2,15.3-4.5,23.3-2,6.7-4.2,15.2-5.1,18.7-2.9,12.6-7.8,18.5-15.5,18.5s-6.7-1.5-10.8-3.5c-3.9-1.8-8.7-3.7-10.6-4-9.1-1.8-45.4,8-54.6,14.6-5.5,4-8,8.4-8,13.9,0,10.9,6,15.4,20.5,15.5,8.3,0,9.7-.3,18-3.8,14.9-6.4,18.2-7,34-6.4,31.8,1.3,55.3,8.8,68.8,22,3.5,3.4,7.5,7.8,9,9.7l2.6,3.5v-26.3c.1-22.6-.1-26.6-1.5-28.8-.9-1.3-5.8-6-10.9-10.4-11.4-9.7-14-14.3-13.2-22.8.2-3.2,2.5-14.3,5-24.7,2.6-10.5,5.8-27.1,7.2-37,2.4-15.9,2.5-18.7,1.4-24-1.5-7.8-6.3-17.8-9.6-20.4-3.2-2.6-7.5-2.7-9.5-.4Z"/>
        <path class="cls-1" d="M1402,122.5c-9.9,1.6-18.1,4.5-26.1,9.1-17.1,10.1-15.7,19.6,4.6,30.3,9.5,5.1,11,6.3,13.9,11.6,1.8,3.5,2.1,5.7,2.2,18.3s.3,14.6,2.1,17c2.9,3.9,7,5.7,13.5,5.7,10.2,0,14.3-5.3,15.9-20.5,1.3-12.8,2.5-17.1,7.9-28.5,5.5-11.8,10-16.7,19.2-21.3,8.9-4.4,11.8-7.2,11.8-11.4s-2.1-7.3-6.3-9.5c-4.4-2.3-46-2.9-58.7-.8Z"/>
        <path class="cls-1" d="M619.8,131.9c-1.3,1.1-3.3,3.8-4.3,6.1-1.6,3.6-1.7,4.8-.7,10.2,3.1,16.7,19.8,40.2,38.7,54.4,13.4,10.1,30.9,19.1,41.4,21.3,5.9,1.2,11.9.2,14.1-2.4,7-8.4-27.2-54.3-57.2-77.1-10.3-7.7-22.8-14.4-27-14.4s-3.6.9-5,1.9Z"/>
        <path class="cls-1" d="M1488,142.4c-7.2,2-12.5,5.2-19.5,11.7-8.5,8-13.9,16.5-17.2,26.7-2.1,6.9-2.5,9.6-2.1,16.3.6,10.7,2.4,13.1,10.2,14.1,11.6,1.5,15.3,5.3,19.7,19.8,2.4,8.2,6.3,13,10.4,13s8-4.4,12.4-12.9c2.7-5.2,6.9-10.9,12.4-16.7,9.6-10.4,11.8-13.6,14.7-22.4,2.5-7.4,3-21.4,1-27.7-5.4-17-24.3-26.8-42-21.9Z"/>
        <path class="cls-1" d="M36.5,153.4c-8.9,3.4-8.7,10.6.4,18.9,5,4.6,9.6,6.9,19,9.7,4.1,1.2,11.9,4.5,17.5,7.3s11.2,5.1,14.8,5.1c8.9.2,13.2-6.1,8.9-13.1-4.2-6.8-22-19.5-35.9-25.7-7.8-3.4-18.7-4.4-24.7-2.2Z"/>
        <path class="cls-1" d="M739.3,160.1c-2.5.7-3.9,2.1-5.8,5.9-2.8,5.5-5.2,7.5-10.5,8.5-6.2,1.2-7,1.6-8.6,4.7-2.2,4.3-1.3,10.1,3.1,18.8,3.5,7,3.6,7.2,3.3,18.3-.2,11.2-.2,11.4,3.5,19.2,4.8,10.1,16.2,26,22.1,30.8,10.7,8.8,18.6,7.8,18.6-2.4s-1.1-4.2-5.1-8.3c-7.1-7-7.9-9.5-8-23.1-.1-10.1.2-12,2.4-16.9,4.2-9,9.6-13.1,23.2-17.6,11.6-3.8,17.5-9.1,17.5-15.7s-3.4-7-14.2-7.8c-10.1-.8-11.8-1.4-22.4-8.5-5.8-4-13.2-7.3-15.4-6.9-.3,0-2,.5-3.7,1Z"/>
        <path class="cls-1" d="M195.8,163c-4.8,1.1-16.9,4.6-27,7.8-10.1,3.3-22.8,7.2-28.3,8.7-12.9,3.6-23.1,8.3-27.2,12.4s-3.3,4-3.3,7.6c0,10.4,11,16.5,43.8,23.9,22.5,5.2,25.9,7,33.3,17.8,8.4,12.2,11.1,11.9,22.7-2.4,6.3-7.8,12.2-11.3,22.3-13.4,9-1.9,14.2-1.2,24,3.2,9.1,4,13.1,4.3,16.3,1.1s3.9-8.9,2.8-12.9c-2.1-7.6-21.4-36.9-28.6-43.5-12.6-11.6-29.3-14.9-50.8-10.3Z"/>
        <path class="cls-1" d="M1662.6,170.1c-3.5,2.7-11.2,18.8-12.7,26.4-1.4,7.2-.2,12.8,3.8,17.6,2.5,2.9,3,3.1,7.5,2.7,3.3-.4,5.7-1.3,7.4-2.9,7.5-7,12.4-26.3,9.4-37-2.3-8.2-9.5-11.4-15.4-6.8Z"/>
        <path class="cls-1" d="M1739.6,188.2c-3.4,9.6-4,12.7-4,21.3-.1,9.3,1.9,17,5,19.5,1.2,1.1,1.4-1.8,1.4-21.9s-.2-23.1-.4-23.1-1.1,1.9-2,4.2Z"/>
        <path class="cls-1" d="M1295.4,198.9c-10.8,4.9-9.8,12.1,4.1,28.7,4.2,4.9,8.5,10.9,9.7,13.4,5,10.3.7,20.1-13.3,30-14.4,10.3-19.3,16.6-22.6,29.3-4.1,16.1,2,39,13.3,50.4,3.3,3.2,8.1,6.2,17.1,10.5,20.7,9.8,22.3,11.3,28.4,27.2,5.8,15.1,12.8,20.1,24.7,17.7,15-3,19.2-13.3,11-26.9-4.3-7.2-8.5-10.7-27.6-23.5-16.8-11.2-23.4-17.4-27.1-25.2-6.4-13.6-4.5-22.5,11.3-52.8,4.7-9,9.5-19,10.6-22.3,2.6-7.4,3.6-20.1,2.1-27.9-2.5-13.3-11.6-25.4-21.8-28.9-6.3-2.1-14.8-2-19.9.3Z"/>
        <path class="cls-1" d="M1210.5,211.7c-9.8,2.5-44.5,19.2-47.4,22.9-4.5,5.7-1.2,13.5,6.3,15,6.2,1.1,10.5-.2,26.1-8,8.3-4.1,17.5-8.6,20.5-9.9,8.9-3.9,13.1-9.3,11.6-15.2-1.1-4.4-9.4-6.7-17.1-4.8Z"/>
        <path class="cls-1" d="M305,225.3c-7.5,2.1-14.2,5.9-19.1,10.9-9.2,9.3-12,19.9-10.1,38.2,3.9,36.4,1.8,57.1-7.5,76.6-3.2,6.6-5.8,9.7-21.4,25.5-23,23.4-28.8,30.5-35.3,43.3-3,6-6.6,18.8-6.6,23.6s2,10.6,5.8,14.8c4.4,4.9,8.5,6.8,14.7,6.8s12.2-2.5,26.1-10.8c24.9-14.8,33.7-22.3,51.5-44.3,14.3-17.7,22-25,35.7-34,22.7-15,34.5-18.9,62-20.4,10.2-.6,12.8-1.1,15.5-2.9,4-2.7,5.9-6.3,5.2-10-1.4-7.8-8-10.1-28.5-10-17.5,0-26.3,1.5-42.4,7.1-16.2,5.6-25.8,10.9-40.2,22-9.1,7-12.3,10.5-24.8,28-13.7,19.1-26.3,29.8-32.5,27.7-5.8-2.1-3.3-10.9,6.4-22.4,12.3-14.6,14.8-17.9,20.5-27.5,13.3-22.4,17.2-25.4,44.5-34.4,25.9-8.5,35.5-14.2,39.9-23.6,3.8-7.9.7-19.3-6.7-24.6-7.7-5.6-16.9-6.1-22.7-1.2-4,3.3-3.8,6,.7,15,3.6,6.9,3.7,7.5,2.3,10-.9,1.5-3.2,3.4-5.3,4.2-7.7,2.9-16.7-3-22.4-14.7-2.4-5-2.8-6.9-2.8-15.4s.3-10.1,2.1-12.5c5.3-7.2,20.3-12.2,30.5-10.3,7,1.3,14,6,19.3,12.9,2.4,3.1,8,12.3,12.5,20.6,4.5,8.2,9.4,16.2,10.8,17.7,4.8,5,11.7,7.3,22.3,7.3s19.2-2.7,25-10.7c5.5-7.5,4.6-15.9-2-19.3-4.6-2.4-9.8-1.8-16,1.6-10,5.7-10.9,6.1-12.5,5.2-.8-.5-4.2-5.7-7.4-11.5-16.6-29.8-36.3-49.6-56.7-57-7.2-2.6-23.6-3.4-30.4-1.5Z"/>
        <path class="cls-1" d="M668.8,237.6c-1.8,1.8-.5,6.4,3.2,11.7,10.5,14.7,15.6,33.4,13,48.4-1.1,6.6-3.1,11.4-12.4,29-2.5,4.7-2.7,5.5-1.6,8.8.9,2.6,2.5,4.5,5.8,6.6,11.1,7,18.5,4.4,25.8-8.9,2-3.7,5.2-9.3,7.1-12.4,6.1-10.3,15.3-29.9,16.4-34.9,2.1-9.8-2.3-19-15.3-31.9-6.4-6.3-12.6-10-23-13.6-7.7-2.6-17.8-4.1-19-2.8Z"/>
        <path class="cls-1" d="M227,241.2c-9.1,6-12.6,24.1-16.4,85.8-.8,12.4-1.8,23.4-2.2,24.5s-3.1,6.3-6,11.5c-5.9,10.6-9.5,21.9-12.5,38.8-2,12.2-2.5,25.7-.9,28.2s5.4-3.3,9.6-14.5c8-21.7,13.6-30.2,27.4-42.1,14.1-12,24.7-29.2,31.9-51.8,9.2-28.7,7.7-55-4.1-72.3-4.8-7.1-9.1-9.7-16.7-10.1-5.6-.3-7.1,0-10.1,2Z"/>
        <path class="cls-1" d="M1133.6,252.5c-24.7,10.1-43.5,39.4-43.6,67.6,0,15.2,5.4,28.8,20.7,52.3,12.7,19.4,16.9,28.4,19.1,40.9,2,11.5,3.6,14.8,8.5,17.3,4.2,2.3,17.3,3,20.7,1.2s5.8-9.3,6.5-20.4c.8-11.9-.4-14.3-12-24.2-8.8-7.6-9.1-7.9-16-21.7-8.1-16-12.9-27.9-15.2-37.2-2.1-8.5-.8-17.6,4-27.8,4.8-10,10.7-17.8,29-38,2.3-2.5,3.3-6.4,2-8.3-2.8-4.5-14.9-5.3-23.7-1.7Z"/>
        <path class="cls-1" d="M1477,256.8c-2.5,1.2-5,4.2-9,10.9-3,5-6.4,10.1-7.5,11.3-4.1,4.7-9.7,6.1-26.5,7-8.7.5-17.8,1.5-20.2,2.2-5.8,1.7-11.4,7.5-12.5,13-2.4,11.3,3.3,18.1,19.1,22.9,9.9,3.1,20.6,2.3,35.1-2.5,13.2-4.4,23.2-9.8,30.4-16.2,8.1-7.3,9.1-10,9.1-24.6s-.3-12.9-2.2-16.8c-3.8-7.4-9.9-10.2-15.8-7.2Z"/>
        <path class="cls-1" d="M1643.3,285.8c-19.1,5.7-34.6,19.9-44.2,40.3-6.3,13.4-8.2,21.4-8.8,37.4-.5,12.6-.3,14.6,1.6,20.4,5.4,15.9,19,30,35.3,36.8,8.7,3.7,21.9,3.9,29.3.5,10-4.6,18.7-17.5,17-25.2-1.5-7-6.4-8.3-19.9-5.4-10,2.2-13.4,1.5-18.6-4.2-8.7-9.4-11.5-21.7-6.9-30.6,4.4-8.6,18.3-19.3,29.7-22.8,17.9-5.5,32.3,0,40.5,15.7,5.9,11.3,7.1,17.5,7.1,36.3s-.3,17.8-2.3,25.5c-4,15.5-10.5,26.9-21.2,37.1-9.2,8.7-15.8,12.9-39.9,24.9-68.6,34.3-98.4,59.3-111.9,93.9-7.5,19.1-9.6,32.9-11.6,75.7-1.6,33.5-1.9,36.5-7.1,60.9-5.5,25.6-7.2,32-10.3,38.5-7.9,16.9-28.9,26.4-51.8,23.6-18.1-2.2-28.8-8.3-34.3-19.5-6.9-14-4.1-27.6,6.7-32.2,8.3-3.6,13.9-.6,21.4,11.4,4.9,7.9,8.4,11.8,12.1,13.8,3.8,2,6.5,1.7,12.5-1,12.3-5.8,11-17.2-3.8-31.7-6.3-6.3-9-8.1-14.6-10.3-9.8-3.7-16.8-4.9-24.3-4.3-26.4,2.2-44.1,26.9-40.8,57.1,1,9.7,3.7,16.8,9.8,25.4,9.3,13.3,24.5,21.8,44.3,24.8,19.6,3,37.3.2,50.5-8.2,15.5-9.8,34.2-34,47.8-62,10.2-20.9,14.4-37.2,19.4-73.9,1.7-12.7,4-26.8,5.1-31.5,5-21.5,16.4-34.2,29.1-32.7,13.8,1.7,40.3,19.4,49.9,33.4,9.2,13.3,7.4,27.5-4.7,38.2-5.1,4.4-9,5.6-16.1,4.8-11-1.2-15.6-10.7-11.8-24.7,2.1-7.7,1.8-12.8-.8-17.5-2.6-4.8-8.3-8-12.5-7-7.8,1.7-15.5,11.2-18.7,23-5.8,21.5,8.8,44.5,34.1,53.7,8.5,3.1,22.5,3,31.4-.1,25.2-8.9,43.1-36.1,39.1-59.4-1.9-11.6-4.1-14.9-19.6-30.2-14.9-14.6-19.6-20.6-22.7-28.7-3.6-9.5-1.7-16.3,5.5-19.9,7.5-3.9,16.2-2.2,18.9,3.5.8,1.9.4,4.2-2.2,11.9-2.3,6.6-3.1,10.3-2.6,12.2,1.6,6.3,11.8,12.7,17.8,11.2,8.1-2.1,12-11,12-27.2-.1-22.4-8.8-40.2-21.4-43.5-8.5-2.3-17.5.2-40.3,11.1-17.6,8.4-21.6,9.9-26.2,9.9s-7.2-1.6-8.9-5.6c-1.2-2.9-1.2-3.9,0-6.7,3.9-9.4,17.2-16.7,42.6-23.3,24.5-6.3,33.6-9.2,40.5-12.6,26.5-13.4,40.1-34.4,43.4-67.3.5-5.5,1.3-14.5,1.6-20,1.1-18.8,6.2-39.8,11-45.2l2.4-2.8,5,5,5.1,4.9v-45.9l-7.2-6c-21.3-17.7-37-27.3-53.3-32.5-9.8-3.2-29.3-3.8-38.2-1.2Z"/>
        <path class="cls-1" d="M1243.5,292.7c-3.7,1-19,7.5-25.6,11-11.5,5.9-19.8,16.1-19.9,24.1-.1,13.5,19.4,26.2,40.7,26.4,11.9.1,18.4-3.2,20.3-10.4,1.4-4.9.2-9.4-5.8-22.3-4.8-10.4-5-11.5-4-25.5.3-3.7-1.1-4.5-5.7-3.3Z"/>
        <path class="cls-1" d="M826.9,312.1c-15.7,2.2-39,14.4-48.7,25.5-6.9,7.7-9.5,13.9-10,23.1-.8,14.4,3.1,23.8,11.5,27.5,8.6,3.8,16,.5,32.3-14.7,13.7-12.8,25.7-21.9,36.1-27.4,9.3-5,11-6.8,11.6-12.3.6-5.3-1.4-10.3-5.9-14.7-6.2-6.2-15.4-8.6-26.9-7Z"/>
        <path class="cls-1" d="M1501.5,311.6c-10.8,2.5-21.5,8.6-30.4,17.2-5.2,4.9-6.1,7.5-4.1,11.3,1.8,3.3,6.7,4.9,18.3,6,13.1,1.2,26.1,3.9,33.4,7,6.1,2.5,9.5,1.8,12.7-2.5,3.1-4.1,3.6-17.8.8-23.3-2.6-4.9-9.1-11-14.6-13.3-4.3-1.9-12.8-3.1-16.1-2.4Z"/>
        <path class="cls-1" d="M473.3,328.4c-4.1,1.9-7.3,7-7.3,11.8,0,9.7,15.9,13.9,29.6,7.9,12.4-5.5,12.6-12.9.6-18.7-5-2.4-18.5-3-22.9-1Z"/>
        <path class="cls-1" d="M1002,328.9c-4.8,1.5-41.5,21.2-44.1,23.7-3.8,3.6-7.8,11.5-8.5,16.5-.5,3.7-.1,5.1,2.5,9.1,3.7,5.8,13.9,13.4,20.6,15.3,2.7.8,9.4,2.4,14.8,3.5,11.8,2.6,22.2,7.6,27.2,13.1,3.4,3.8,3.7,4.5,3.3,9-.6,6.3-3.9,10.4-11.9,15.1-10.7,6.4-19.7,5-23.9-3.6-3.1-6.6-2.5-8.6,3.8-11.6,6.2-3,7.4-4.5,6-7.6-3.5-7.6-32.7-11-55.5-6.5-23.7,4.6-40.7,13.6-58.3,30.6-10,9.8-12.6,11.3-16.1,9.5-2-1.1-2.1-1.7-1.4-11.3.8-12.7-.3-15.2-9.5-21.7-3.6-2.5-7.1-5.8-7.8-7.3-2.8-5.8,4.5-13.8,12.9-14.1,4.6-.1,6.9,1.9,10.8,9.1,4.4,8.1,14.1,11.3,23.9,7.9,18.4-6.5,36.7-18.9,41.5-28.1,4.6-8.9,1.6-23.5-6.5-31.6s-20.6-13.3-30-16.6c-9-3.1-15.1-2.8-20.1,1-4.4,3.4-5.5,7.2-2.9,10.6,1,1.4,5.9,4.7,10.8,7.3,13.3,7.1,17,12.2,14.3,19.5-1.9,4.8-6,7.8-10.7,7.7-2.1-.1-6.8-1.7-10.8-3.7-20.3-10.2-37.4-9.5-54.2,2.3-8.7,6.1-12.8,11.1-14.8,17.6-1.4,4.8-1.3,5.5.6,10.6,2,5.3,10.8,17,16.3,21.7,3.9,3.3,8.7,12,8.7,15.9s-2.3,9.2-10.9,18.1c-8.2,8.6-10.8,13.3-9.7,17.6s6.8,9.7,14.1,13.2c15.3,7.3,24.2,3.7,48-19.7,7.7-7.5,16.9-15.6,20.4-17.9,12.6-8.1,38.1-13.8,50.7-11.3,3.1.7,10,3.1,15.3,5.6,18.8,8.5,35.8,10.5,55.1,6.6,13-2.6,17.1-4.5,25.9-11.9,8.2-6.9,9.9-8.8,12.9-14.6,7.5-15,3.3-20.8-19-26.6-17.9-4.7-23.5-8.4-25.9-17.2-2.2-8.4,2.6-20,11.1-26.8,5.2-4.2,7-7.6,7-13.2,0-8.9-7.9-15.7-18-15.6-3,0-6.6.4-8,.8Z"/>
        <path class="cls-1" d="M1547.4,339.9c-4.9,3-7.6,8.3-8.2,16.1-.7,10,2.1,15.3,15.1,28.8,5.7,6,11.7,13,13.2,15.7,9.2,15.6,9.8,35.6,1.5,48.3-4.3,6.6-9.2,10.5-25,19.8-19.4,11.3-30.7,20.7-48.6,40.2-6.2,6.8-12.4,14.6-13.8,17.5-2.9,5.8-3.4,12.3-1.2,16.6,4,7.7,16.1,14,24.8,12.8,7.9-1.1,15.4-8.7,23.8-24.2,8.6-16.1,18.6-26,41.9-41.7,15.2-10.3,27.5-16.4,47.6-23.6,28.9-10.3,41.9-17.4,52-27.9,5.4-5.7,10.5-13.7,9.3-14.8-.3-.3-4.1,1.7-8.4,4.4-15.1,9.6-32.4,13.1-47.7,9.7-17.5-3.9-31.2-18.5-37.5-40.1-1.2-3.9-3.5-14.6-5.2-23.8-1.7-9.3-3.9-18.6-5-20.7-6.1-12-20-18.3-28.6-13.1Z"/>
        <path class="cls-1" d="M1660,350.7c-9.3,3.2-14,9.5-14,18.7s.5,4.8,2.6,6.5c2.4,1.9,4,2.1,14.8,2.1s17.2,1.2,20.9,6.2c2.5,3.4,3.3,11,1.8,17.8-.9,4.2-.9,5.5.1,6.1,3.6,2.2,7.4-7.2,8.4-20.6,1.2-14.7-2.9-28.7-9.6-33.5-6.8-4.8-16.9-6.2-25-3.3Z"/>
        <path class="cls-1" d="M105.5,353.7c-9.8,5.1-19.4,20.4-27.3,43.4-6.3,18.3-8.7,35.1-4.9,34.8,1.7-.1,16.4-16.6,25.2-28.4,12.2-16.3,16.4-26.4,16.5-39.8,0-5.9-.3-7.1-2.5-9.2-2.8-2.9-3-2.9-7-.8Z"/>
        <path class="cls-1" d="M1269.5,358.9c-4.6,1.2-8.7,3.6-12,7.1-2.5,2.6-3,4-3,7.9s.4,5.6,8.6,15.2c2.2,2.7,3.7,6.2,5.4,13,3,12.2,3.5,13.4,8.2,19.7,7.6,10.1,22.9,19.4,32.1,19.6,4.9.1,6.8-1.5,13.6-11.9,4.7-7.1,5.9-11.6,5.4-19.6-1-13.9-10.7-28.3-24.3-36.1-3.8-2.2-10.8-6.5-15.4-9.4-4.6-3-9.1-5.4-10-5.4s-2.5-.2-3.6-.4c-1.1-.3-3.3-.1-5,.3Z"/>
        <path class="cls-1" d="M540,374c-4.1,4.1-1.6,10.2,11.1,27.5,7.9,10.7,12.6,18.8,15.7,26.9,1,2.8,1.7,10,2.2,23.1.5,14.8,1.1,19.7,2.4,22.3.9,1.7,2.3,3.2,3,3.2,2.4,0,7.9-7.4,12.4-16.3,4-8.2,4.4-8.7,10.4-11.9,3.5-1.8,8.8-5.8,12-8.9,6.2-6.1,8.9-12.6,10.2-24.4.9-7.4-1-24.2-2.9-27.2-2-3-6.4-3.9-25-5l-16-.9-11.2-5.2c-9.2-4.3-12.1-5.2-16.7-5.2s-6.1.5-7.6,2Z"/>
        <path class="cls-1" d="M1419.5,384.4c-11.1,2.9-22.7,8.8-47,24.1-7.1,4.5-15.5,9.6-18.6,11.3-6.5,3.7-13.5,10.8-14.5,14.8s1.3,5.3,11.9,9.5c6.9,2.7,9.6,3.3,16.7,3.3,7.6.1,9.1-.2,13.8-2.8,8-4.5,12.9-12,16.1-24.9,3-12.1,5.8-15.9,14.5-19.8,3.6-1.6,6.9-2.1,13-2.1,11.3-.1,18.4,2.1,22.9,7.1,5.1,5.6,5.5,9.3,2.7,23.1-3.6,17.3-2.9,24.2,3,29.5,3.5,3.2,12.6,2.8,17.3-.7,6.2-4.8,8.1-8.5,8.5-16.3.3-5.7-.1-8.6-2.3-15-11.1-32.4-32.5-47.5-58-41.1Z"/>
        <path class="cls-1" d="M1736.2,394c-3.9,1.6-4.5,5.3-4.7,26-.1,15.2-.7,22.4-2.4,32.5-4.1,23.4-8.5,31.2-23.9,42.8-5.3,4-10.4,8.4-11.5,9.8-3.9,5.4-3,16.7,1.8,21.5s3.5,2.4,7.8,2.4c8.4,0,16-4.4,28.3-16.3l10.4-10v-54.2c0-48.6-.2-54.3-1.6-54.9-.9-.3-1.6-.6-1.7-.5-.1,0-1.2.4-2.5.9Z"/>
        <path class="cls-1" d="M1208.5,405c-8.6,1.4-19.5,7.1-26.4,13.8-7.2,7.2-9.2,11.4-9.8,21.4-.5,6.7-.8,7.8-2.2,7.3-10.9-4.2-22.6-6.7-27.6-5.8-7.3,1.3-9.5,6.5-10.5,24.3-.9,14.9-1.6,17.2-8.3,27.8-4.6,7.2-6.7,12.1-6.7,15.8s2.5,7,5.4,12.8c6.2,11.8,8.2,20,7.3,30.5-1.1,13.4-6.9,23.8-18.3,33.2-10.1,8.2-12.6,11.8-13.2,18.3-.4,5.1-.3,5.4,4.9,11.5,9.3,10.8,9.9,11.9,9.9,17.8s-3.1,13.2-10,19.8c-11.7,11.3-14.8,18.8-8.9,20.9,4.4,1.5,9.1-.2,18.9-6.7,18-11.9,28-24.4,28-35s-.4-5.3-5.9-11c-3.2-3.4-6.2-7.2-6.5-8.4-.8-2.6,1-6.5,5.1-10.8,6-6.5,28.3-18,34.5-17.9,4.6.2,10.2,3.3,10.6,6,.4,2.6-2.3,4.9-12.1,10.5-12.4,7-15.6,13.2-9.9,18.9s17.7,6.6,27.7,3.1c7.4-2.6,31.4-16.3,34.7-19.8,3.6-3.8,4.8-7.3,5.9-17.6,1.3-13,5.4-19.5,16.7-27.1,10.1-6.7,19.1-9.1,33.7-9.1s12.9.4,18.3,2.4c9.7,3.7,16.5,10.4,21.7,21.6,5,10.8,7.3,12.7,16.3,13.3,5.4.4,6.8.1,10.1-2.1,4.8-3.2,9.1-11.4,9.1-17.3s-.9-6.3-2.1-8.9c-1.7-3.8-2-6.2-1.7-12.1.6-12.2,4.8-15.7,21.1-17.4,13.7-1.4,20.9-5.5,24.5-13.8,1.1-2.6,3.1-11.5,4.3-19.7,2-13.1,2.1-15.8,1-22-2.2-13-8.5-18.3-18.5-15.5-7.4,2-8.1,3.5-8.1,16.5s-.3,11.7-2.1,14.2c-3.7,5.1-10.6,8.8-22.9,12.3-22.5,6.4-28.4,13.7-22.2,27.3,3.6,8,4.2,11.3,2.3,14.2-.9,1.4-2.4,2.5-3.2,2.5-2.7,0-7.1-5.8-9.3-12.3-4.4-12.7-3.8-26.5,1.4-33.3,3.3-4.3,16.1-10.3,25.4-11.9,10.2-1.7,10.9-2.1,12.2-6.6,1.8-5.9,0-10.8-6.2-16.3-7.1-6.4-14.8-9.8-23.4-10.4-5.9-.4-8.4,0-16.2,2.7-25.6,8.5-37.6,19.5-36,32.9.3,2.7,2.4,8.9,4.7,13.8,4.9,10.7,6,16.3,3.6,19.8-2.1,3.3-6.3,4.3-21.6,5-20.9,1-33.9,5-43,13.2-5.5,5-8,10.4-8,17.6s-1.2,10.4-3.9,11.3c-3.2,1-5.8-1.1-7.7-6.1-1.5-4-1.6-5.7-.6-13.7,1.5-12.3,2.7-16.1,6.5-20.4,4.3-4.9,11-7.7,26.3-10.8,17.6-3.6,21.7-6.9,15.7-12.9s-6.2-4.6-13.2-4.6c-14,0-47.9,16.3-53.3,25.6-1.1,1.9-2.3,6.9-2.9,11.9-.5,4.8-1.6,9.9-2.4,11.5-3.2,6.2-15.8,13.6-19.4,11.3-2.9-1.8-4-7.2-3.4-17l.6-9.1-3.8-5.2c-3.3-4.5-3.7-5.6-3.2-9.1.3-2.3,2.7-8.3,5.3-13.6,5.2-10.2,5.3-10.8,4.3-29-.4-7.5-.2-8.4,1.8-10.4,3-3.1,8-3,10.4.2,3.2,4.2,3.4,8.1.5,13.7-2.3,4.5-2.6,6.4-2.6,15.2s-.5,12.4-5.3,17.9c-2.8,3.3-2.9,3.8-2.4,10.5.2,3.9,1.3,9.6,2.4,12.6,1.6,4.6,2.3,5.5,4.6,5.8,3.4.4,4.7-2.5,4.7-10.9s1.9-12.2,8.4-16.4c6-3.8,7.1-6,6.4-12.3-.7-5.7.6-8.2,7.8-14.6,11.6-10.4,14.3-20.8,8.4-32-1.6-3.1-4.3-8.1-6-11.2-3.7-7-3.7-8.8-.1-12.4,4.1-4.2,6.8-4.5,15.7-1.9,11.4,3.2,18.8,2.9,26.8-1,8.2-4,16.1-11.1,17.6-15.7,1.1-3.2,1-4-.7-6.2-1.1-1.5-3.9-3.2-6.4-4-5.6-1.7-27.5-2.4-35.4-1.2Z"/>
        <path class="cls-1" d="M456,427.8c-8.1,3.9-22.9,19.2-31.9,32.7-16.3,24.7-20.7,40-19.8,68.5.6,18.6,2.6,27.2,9.3,41,3.8,7.7,6.1,10.9,12.4,17.1,11.4,11.3,13.6,12,46.5,12.9,28.2.8,33.7,1.8,39.5,6.6,9.2,7.8,10.1,24.5,2.3,39.9-2.9,5.5-6.5,9.8-16.7,20.1-16.7,16.7-28.9,26.3-55.6,44-23.1,15.3-37.3,26.4-51.3,40.2-18.7,18.5-19.8,27.2-4,31.8,4,1.2,8.2,1.5,14.7,1.2,11.2-.5,15.7-2.6,21.8-10.1,4.4-5.4,6.6-8.6,22.4-32.7,13.5-20.6,14.6-21.6,51.9-43.5,38.7-22.7,60.8-46.9,57.9-63.5-.8-4.4-4.5-12-8.8-17.9-7.5-10.3-8.4-15-3.6-20.4,4.3-4.9,11.4-8.3,40.5-19.2,30.9-11.6,41.8-16.5,52-23.6,10.2-7,17-14.6,23.1-26,6.4-11.7,8.7-18.7,8.7-26.2-.2-20.5-24.8-37.8-51.8-36.5-16.9.9-21.8,5.7-31,30.3-5.7,15.2-12.6,23.9-28.8,36-11.1,8.4-19.4,12.7-31.2,16.1-26.8,7.8-48.3,5.8-57.5-5.4-6.3-7.6-8.7-20-6-30.2,2.4-9,6.3-15,16.7-26.2,5.8-6.2,11.8-13.2,13.5-15.6,4.7-6.8,8.9-16.7,9.5-22.4.5-4.7.2-5.7-2-8.4-2.9-3.4-14.3-9.4-22.6-11.8-7.9-2.3-13.7-2-20.1,1.2Z"/>
        <path class="cls-1" d="M1253.5,434.6c-7.8,4-11,10.4-10,19.8.6,5.1.4,6.6-1,7.9-3.7,3.8-6.4,1.9-11.4-8.1-2.5-4.9-4-6.7-6.6-7.8-6.4-2.6-17-1.2-20.1,2.7-.9,1.1-.7,3.6.8,10.4,1.1,5.4,1.7,11.8,1.6,16.1-.3,6.3-.7,7.6-4.1,12.6-4.5,6.5-4.6,9.8-.4,11.2,2.3.9,4.2.2,14.1-4.9,9.3-4.7,12.5-5.9,17.3-6.2,8.2-.6,11.3,1.6,15.9,11.1,5.7,11.8,11.6,16.3,15.8,12,2.4-2.3,2-5.5-1.9-14.8-2.7-6.4-3.5-9.9-3.5-14.4,0-7.1,1.8-10.2,11.9-20.7,11.3-11.7,12.2-14.1,7.1-19.9-6.5-7.4-18.5-10.7-25.5-7Z"/>
        <path class="cls-1" d="M399.9,442c-5.5,2.2-14.7,7.7-28.4,17.1-25.6,17.4-37.9,32.7-45.9,57.1-8.5,25.8-6.7,39.1,7,53.2,11.3,11.5,21,16,33.5,15.4,9.6-.6,16-3.5,19.7-9.1,3.9-5.9,3.6-13.7-1.2-28.5-3.1-9.7-3.6-12.7-3.6-20.5,0-19.9,5.6-32.5,24.5-55.7,12.5-15.4,15.9-24.8,10.6-29.1-3-2.5-10-2.4-16.2.1Z"/>
        <path class="cls-1" d="M0,525.7c0,21.4.2,25.2,1.5,26.3,2.2,1.9,7.6,11.3,10.8,19,10.4,24.8,9.8,51.8-1.9,92.3-2.8,9.9-3.4,13.5-3.4,21.6s.8,14,5.6,27.4c2.6,7.2,2.7,8.3,1.6,13.3-.6,3-3.1,9.9-5.6,15.2-9.3,20.4-10,32.8-3,54.2,4.2,13,12.2,21,19.1,19.4,4.5-1.1,8.9-5,11.3-9.9,3.3-6.8,2.5-12.6-3.5-25.5-7.6-16.5-7.4-24.5.8-31.5,6.8-5.8,13-5.7,16.2.5,2.3,4.4,1.9,6.1-3,15.4-3.9,7.5-4.5,9.3-4.5,14.8s1.1,10.1,2.5,15.3c3.2,11.2,3.4,18.9.7,24.1-1.1,2.2-8.1,9.6-15.5,16.6-8.7,8.3-14.3,14.3-15.6,17.1-4.2,8.7-1.7,17.2,6.2,20.7,12.2,5.6,23-.7,39.5-22.6,12.4-16.6,25-24.6,48.2-30.9,15.5-4.2,24-7.8,29.2-12.4,4.3-3.8,7.2-10.2,6.3-14.2-.9-4.1-5.9-8.7-10.7-10-5.9-1.5-11.2.1-24.8,7.6-13.8,7.6-18.4,9-24.1,7.5-3.2-.9-4.3-1.8-5.5-4.5-1.6-3.9-1.1-5.9,2.4-9.7,3.4-3.8,20.3-11,36.7-15.7,17.3-5,26.2-9.3,34.1-16.4,15.4-14,25.2-33.3,30-59.2,2.3-12.2,2.6-45.4.5-58-4.4-27-16.4-58.4-26-68.1-6.6-6.6-15.4-9.7-19.6-7-5.7,3.8-3.9,13.2,6.1,32.2,6.2,11.6,13.2,31.2,16.9,46.9,1.9,7.7,1.9,24.3.1,33.7-4,20.8-16.3,41.1-30.9,51.2-11.5,8-26.9,11.2-38.6,8.2-9.7-2.5-15.7-6.3-25.1-15.6-9.2-9.2-14.7-17.7-18.3-28-2.2-6.4-2.2-7.3-1.9-48.9.2-33.4,0-44.8-1.2-54-3.6-26.9-10.2-41-33-70.1-4.9-6.3-9.3-11.9-9.8-12.5-.4-.5-.8,10.4-.8,24.2Z"/>
        <path class="cls-1" d="M1445.9,506.4c-8.5,2.3-13.1,7.3-11.5,12.4.4,1.1,2.7,3.7,5.1,5.7,5.5,4.4,5.7,7.1,1.9,18.2-4.8,14-2.5,19.2,12.5,27.4,12.7,7.1,18.1,12,18.1,16.6s-.8,4.2-2.6,6-3.2,2.5-7.4,2.1c-7.8-.8-15.4-5.2-25.7-15-6-5.8-11.3-9.9-15.1-11.6-5.2-2.5-6.7-2.7-17.7-2.7s-17.5,1.1-34.4,9.2c-12.4,5.9-19.2,12.5-21.7,20.9-1.5,5.2-1.5,6.8-.3,15.9.8,5.5,1.4,14,1.4,19v9l-5.7,10c-3.1,5.5-6.2,11.3-6.7,12.8-1.4,3.8-1.4,8,.1,9.5,6.8,6.8,35.8-16.5,35.8-28.9s-.9-5.6-2-9.4c-3.1-11-2.7-16,1.9-23.2,7.9-12.2,25-22.3,37.8-22.3s37.5,20.1,41.2,40.5c1.5,8.1.8,11.4-5.1,23.1-3.7,7.4-5.2,11.7-5.6,15.6-.4,5-.2,5.7,2.3,7.6,3.8,3,7.6,2.8,10.7-.6,3.8-4,5.3-7.6,9.2-21.2,4.3-15.3,8.9-21,14.6-18,4.1,2.2,2.3,10.1-7.4,32.5-3.5,8.2-3.5,14.3.1,18.6,3.4,4,7.9,5.9,13.8,5.9,8.9,0,11.7-2.9,13.6-14,1.3-7.7,3.4-52.9,3.4-75.5s-2.2-34-21.2-43.1c-9.4-4.5-11.8-6.2-14-9.5-3.6-5.4-3.9-11.4-1.4-23.8,2.7-13.4,2.7-15.6-.4-18.6-2-2.1-3.4-2.5-7.7-2.4-2.9,0-7.4.6-9.9,1.3Z"/>
        <path class="cls-1" d="M1084.2,519.1c-12.9,1.7-23.4,5.8-28.3,11.2-4.3,4.6-4.6,8.3-1.5,18.1,3,9.7,3.2,12.4,1.1,19.2-.8,2.7-1.5,6.8-1.5,9.1,0,5,3.1,8.1,11.5,11.2,11.6,4.4,20.5,1.8,28.5-8.1,10.3-12.8,14.9-23.2,15.1-34.5.2-5.7-.2-7.7-2.5-12.2-3.2-6.3-11.7-15.2-14.3-15-1,.1-4.6.5-8.1,1Z"/>
        <path class="cls-1" d="M997.2,522.4c-20.2,3.9-41.2,14.1-54.3,26.4-16.3,15.3-21.9,27.1-32.3,68.4-10.3,40.6-11.4,42.7-32.6,58.9-6.3,4.8-13.7,10.8-16.5,13.3-4.3,3.8-4.8,4.7-3.9,6.3,2.3,3.8,7,2.9,31.4-5.8,30.5-10.8,40.7-14.1,56.8-18.4,18.6-4.9,40.4-12.2,50-16.7,7.1-3.3,10.2-7.2,10.2-12.6s-2.3-8.8-16.1-17.5c-11.3-7.1-12.1-19.2-1.9-28,5.5-4.7,12.1-7.2,29-10.8,21.4-4.6,27-8,27-16.6s-1.3-8.1-6.3-10.4c-12.9-5.8-39.5,1.8-64.7,18.6-14.3,9.5-24.5,22.2-25.7,32.3-.6,5-.5,5.1,4.4,10.4,6.9,7.4,8.3,9.7,8.3,13.9s-2.6,8-8.2,8.6c-4.2.5-4.9.2-8.2-2.8-5.3-4.9-7.9-13.2-7.4-22.9.6-9.1,1.3-10.7,12.9-26,19.4-25.8,25.3-30.5,57.9-45.9,21.5-10.2,24.1-12.4,21-18.2-2.8-5.1-16.8-7.1-30.8-4.5Z"/>
        <path class="cls-1" d="M1730.5,532.3c-18.2,9.6-27.9,17.5-32.6,26.7-3.7,7-3.8,20.3-.4,40.5,4.2,25.5,3.9,29.3-4.4,49.7-1.7,4.2-3.1,9.4-3.1,11.6,0,10.8,13.9,18,23.1,11.9,3.8-2.5,7.9-9.9,10.6-19.2,1.3-4.8,1.7-10.3,1.7-28,.1-15.4.5-22.6,1.3-24.1,2-3.4,7-7.2,11.3-8.5l4-1.2v-32.4c0-17.7-.3-32.3-.7-32.3s-5.3,2.4-10.8,5.3Z"/>
        <path class="cls-1" d="M1404.2,530.6c-8.1,1.8-18.4,5.9-24.7,9.9-9.4,6-14.2,14.2-11.1,19,3.6,5.4,8.1,4.5,36.6-7.7,16.8-7.1,19.5-8.6,21.6-11.7,3-4.5,3-5.6-.1-8.6-2.1-2.2-3.2-2.5-9.2-2.4-3.7.1-9.6.7-13.1,1.5Z"/>
        <path class="cls-1" d="M278,535.9c-4,1.3-9.1,4-15.5,8.6-7.7,5.4-11.9,7.5-25.7,12.9-6.3,2.4-15.2,6.3-19.8,8.6-19.7,9.9-21.4,14-16.6,39,5.8,29.6,7.9,59.4,5.1,72-3,13.8-3,14.6-.2,17.4,5.5,5.5,13.3,3.1,32.9-9.8,22.9-15.1,32.8-17.3,51.4-11.6,14.1,4.4,18.3,3,25-8.3,7-11.8,9.1-13.1,23.5-14.7,10.1-1.2,17.1-3.7,18.8-6.8s1.3-11.2-.8-15.7c-4.5-9.9-15.7-14.4-31-12.3-11.1,1.5-17.7,4.3-24.1,10.4-3.1,2.9-6.9,5.8-8.5,6.4-1.7.7-7.6,1.2-13.2,1.1-10.7,0-18.8,1.5-24.5,4.7-12.1,6.8-14.7,8.2-18.4,9.2-8.3,2.4-14.3-3.3-15.1-14.4-1-12.1,4.6-25.6,10.6-25.6s6,2.6,6.3,10.4c.4,10,1.5,10.3,13.1,4.4l9.2-4.8,8.5.7c10.8.7,12.4-.4,11.8-8.1-.5-6.2-3.8-11.5-9.2-15-6.5-4.2-11.7-3.1-16.1,3.6-1.4,2.1-3.6,4.3-4.8,4.7-8.1,3.1-17-5.6-14.6-14.2,2.7-9.7,21.3-16.1,34.4-11.7,10.3,3.4,14.1,7.9,17.5,20.5,2.5,9.4,4.1,12.2,7.8,13.6,8.2,3.1,22.4-6.1,25-16.2.9-3.7.5-5.5-4.5-20.2-8.2-24-13.7-33.3-22.6-37.6-4.4-2.1-10.9-2.6-15.7-1.2Z"/>
        <path class="cls-1" d="M1261.5,570.5c-6.4,1.7-11.5,7-11.5,11.9s7.7,10.6,16.8,10.6,18.6,16.2,26,36.4c2.3,6.3,2.6,8.6,2.7,20.1,0,14.4-1.2,18.7-7.3,25.6-7.2,8.2-24.3,12.8-35.6,9.5-5.3-1.6-6.9-2.8-14.5-10.6-4.7-4.8-10.6-9.8-13-11-12.2-6.1-29.1-2.3-45.6,10.3-13.2,10-24.6,26.7-26.1,37.9-.6,4.4-.4,5,2.8,8.2s10.5,6.1,14.7,5.1c4.9-1.2,7.2-3.7,15.5-16.4,8.6-13.2,13.7-18.5,18.8-19.5,4.9-1,10.5,1.1,15.3,5.8,8.4,8,5.7,13.8-12.4,27.3-16.1,11.9-18,14.7-12.1,17.8,6.6,3.4,12.7,1.4,26.5-9,10.1-7.6,13.3-9.2,22-11.1,21.6-4.7,44.6,4.5,57.1,23,9.4,13.8,16.3,35.5,17.1,53.6.7,15.8-.5,19.8-14.7,48.5-12.9,25.8-15.6,33.5-14.7,42.3,1.6,15,11.1,20.5,26.8,15.2,11-3.7,17.6-9,21.2-17,1.8-3.9,2-6,1.7-16.5-.6-20.3-.5-21.9,1-25,2.2-4.4,10.5-10.1,18.2-12.6,5.9-1.9,8.3-2.1,16.1-1.6,5.1.3,13.5,1.6,18.7,2.7,5.3,1.2,11.3,2,13.7,1.7,11-1.2,16.7-13.1,11-23.2-5-9-18.8-12.1-39.5-9-14,2.2-26,3-30.7,2.1-2-.4-5.1-2.1-7.1-3.8-8.3-7.3-11.8-21.8-11.2-46.3.3-13.3.6-15.5,2.7-19.5,5.6-10.7,23.3-24.8,61.7-49.1,24.3-15.4,35.7-24.8,39.3-32.2,2.6-5.4,2.7-12.8.2-18.2-3.6-8-17.7-17.5-28.3-19-6.7-1-11.3.1-15.3,3.7-4.9,4.3-4.8,8.2.5,14.3,3.3,3.8,4,5.4,4,8.7s-.6,4.7-8.2,12.2c-23,22.7-67.4,47.3-77.2,42.8-5.6-2.5-7.5-10.6-4-17.4.9-1.8,3.9-6.4,6.7-10.2,2.7-3.8,6.4-9.9,8.1-13.5,2.9-6.2,3.1-7.3,3.1-17.6s-.4-12.1-2.9-19c-6.8-19.5-15-32.1-26.4-40.5-11-8.2-22-11.1-31.7-8.5Z"/>
        <path class="cls-1" d="M691,584.4c-19,4.4-32.4,11.8-46,25.6-12,12.1-20.6,26.6-26.4,44-6.4,19.9-6.6,28.9-.8,47,7.7,24.2,25.3,49,39.8,56.1,5.7,2.8,7.1,3.1,12.7,2.7,7.8-.7,15.3-4.3,21.7-10.7,11.4-11.4,10.2-27.2-3.3-44.5-6-7.6-8.2-14-8.1-23.6.1-15.5,7.7-23.1,40.3-40.1,15.8-8.2,23-17.3,21.9-27.4-1.3-10.9-11.1-23.5-21.5-27.6-7-2.7-22-3.5-30.3-1.5Z"/>
        <path class="cls-1" d="M0,610.9c0,26.8,0,27.4,1.9,25.7,1-.9,3.4-4.5,5.2-7.9,4.1-7.8,5.1-17.6,2.4-25.8-1.7-5.1-6.1-14.5-8.4-17.9-.8-1-1.1,6.9-1.1,25.9Z"/>
        <path class="cls-1" d="M401.5,585.7c-5.7,1.2-12.6,4.9-16.1,8.4-3.6,3.7-3.9,4.4-3.9,9.7,0,10.4,4.6,14.1,26,20.6,7.9,2.4,15.5,4,22.2,4.6,5.6.5,11.7,1.5,13.5,2.3,4.1,1.7,6.9,5.7,7.5,10.8.5,3.2.1,4.2-2.2,6.3-4.4,4.1-10.7,3-19.9-3.4-8.7-6.1-11.1-7.1-17.9-7.2-15.6-.2-26.6,6.6-37.4,22.9-5.4,8.2-8.7,11.4-13,12.7-2.3.7-7.2-1.2-14.8-5.9-4.7-2.9-9-3.2-12.5-.9-5.6,3.8-6.3,7.1-2.9,13.9,5.2,10.4,11.6,13.9,25.5,14,8.3,0,9.4-.2,13.4-2.9,2.5-1.6,7.8-6.5,12-10.9,9.8-10.4,15.2-14.4,21.7-16.3,4.8-1.4,5.8-1.4,10.6,0,9.3,2.8,16.7,11.9,16.7,20.9s1.6,10.3,3.5,11.1c2.3.9,14.7-5.9,25.6-14,5.8-4.3,14.8-10.8,20-14.4,12.2-8.4,25.2-21.2,27.9-27.3,3-6.9,3.6-13.8,1.6-19-3.7-9.9-8.6-11.1-32.1-8.5-30.4,3.5-40.5.4-54.9-17-8.2-10-12.5-12.2-20.1-10.5Z"/>
        <path class="cls-1" d="M596.7,587.1c-5.6,1.3-13.5,5.6-20.5,11.1-10.1,8-10.4,10-3.2,21.3,3.3,5.2,5,9,5,11.1s-2.1,7.3-5,12.9c-6,11.6-6.4,15.8-2.2,19.7,6.3,5.9,14.1,5.6,20.5-.8,4.5-4.6,6.3-8.4,7.6-16.1,1.5-9.8,3.9-13.2,11.6-17.1,5-2.5,12.9-9.4,16.7-14.6,3.6-5,3.6-9-.1-14.8s-10.3-10.3-17.7-12.3c-6.4-1.7-7.2-1.7-12.7-.4Z"/>
        <path class="cls-1" d="M1233.5,619.6c-1.1.3-5.6,1.4-10,2.5-14.7,3.7-34,12.2-61.1,27-41.9,22.9-36.8,20.5-84.7,39.4-81.2,32.1-100.9,39-162.7,57-65.1,19-99,32.9-128.5,52.6-14.8,9.9-21.8,17.9-30.1,34.2-7.6,15.1-13.7,24.2-18.8,28.1-6.4,4.8-10.3,5.6-29,5.6s-18.8.5-20.9,1.1c-4.7,1.3-10.9,6.7-13.2,11.6-5.6,11.7,8,36.3,20,36.3s3.9-.7,5.5-1.5c4.8-2.5,4-5.8-3-13.8-8-9.1-8-13.6.1-17.7,3.4-1.8,4.5-1.9,7.9-1,6.7,1.8,13.3,8.2,18,17.4,5.6,11,3.5,22.3-5.1,28.6-16,11.5-48.4,11.1-60.8-.8-4.1-4-5.8-8.1-9-21.6-2.6-11.4-8.4-21.6-17.6-31.1-9.2-9.4-17.1-13.5-26.2-13.5s-12.9,2-14.4,5.4c-1.7,3.7,2,10.5,13.6,25,5.2,6.6,10.2,13.5,11,15.3,3.1,6.5,4.8,17.5,4.8,30.8.1,17.1-2,25.1-11.1,42.7-.2.5,7,.8,16.1.8h16.5l.7-3.7c1-5.7,4.3-12.8,7.2-15.4,2.1-2.1,3.3-2.4,9.1-2.2,3.7.1,11.9,1.5,18.2,3.2,27.3,7,34.2,7.4,44.3,2.6,7.5-3.5,14-10.9,20.6-23.3,6.5-12.3,10.4-17,16.5-20.1,9.3-4.6,13.8-1.3,26.5,19.2,4,6.4,8.7,12.8,10.5,14.2,4.5,3.4,9.8,3.3,14.3-.1,11.6-8.9,9.4-19.9-7.7-38.9-17.9-19.8-21.6-24.4-24.5-29.6-5.6-10.4-3.2-18.8,7.3-25.4,12.8-8,29.1-10.6,41.5-6.4,10,3.3,17.5,8.3,36.7,24.4,16.2,13.6,24.8,18.5,36.5,20.6,15.4,2.9,34.5-5.1,39-16.4,3.5-8.8,2.2-17.9-6.1-44.1-6-18.8-7.2-26.4-5.1-33.7,4.7-16,22-31.8,51.2-46.6,32.1-16.3,63.2-25.3,87.4-25.3s28.4,4.2,34.8,14.9c6,10,6.7,15.6,6.8,53.1.1,35.6.8,41.7,5.5,54.2,6.9,18.5,25.2,31.4,51.5,36.3,10.2,1.9,32.4,2.2,43,.5,31.7-5,56.2-21.1,75.7-49.9,23-33.8,22.7-67.3-.6-91.9-9.1-9.6-20.8-15.6-33.6-17.3-10.3-1.4-14.7-.5-21.4,4.6-9.3,7.2-10,15.2-1.7,19.5,1.3.7,9.3,1.8,17.8,2.6,16.8,1.4,21.5,3,25.7,8.7,4.4,6,3,21.8-3.3,35.2-9,19.3-38.6,44.2-65.3,55-18.4,7.4-32.9,8.2-44.5,2.5-7.6-3.8-12.2-8.9-17.3-19.5-7.6-15.8-11-33.5-11-58,0-49.9,17-96.6,42.5-116.9,8.3-6.7,23.1-14.5,35.5-18.7,8.4-2.9,10.7-3.3,20.7-3.4,13,0,14,.5,21.2,9.9,5.4,7.1,9.3,9.6,14.9,9.6s10.4-2.1,13.3-6.1c1.9-2.8,2.4-4.6,2.4-9.9,0-11.5-6.9-21.8-18-26.5-4-1.7-21.6-3-26-1.9Z"/>
        <path class="cls-1" d="M710.3,664.1c-4.6,1.3-8.9,6.1-10.2,11.4-2.3,9.3.7,16.5,12.6,30.2,13.3,15.3,15.4,20.9,12.9,33.1-2.1,10.1-5.3,16.7-11.6,23.5-7.2,7.8-13.7,12.1-34,22.3-9.5,4.7-22.2,11.4-28.4,14.8-34.8,19.8-44.1,22-103.1,24.6-31.5,1.5-46.8,4.3-75,14-22.6,7.8-39.7,17.8-84,49-52.8,37.3-75.9,50.1-103.3,57.2-11.4,2.9-32.3,3.2-42.2.5-8.2-2.2-19.3-7.5-24.4-11.6-10.2-8.2-13.2-16.1-15.1-40.1-2-24.2-4.3-32.4-12.2-42.7-4.6-6.1-14.4-14.3-21.2-17.7-10-5.1-18.7-7-31.6-7s-31.5,4.1-46.8,14c-21.6,14-34.1,34.4-35.4,57.9-1.6,28.3,13.1,56,25.3,48,3.9-2.5,5.4-7.6,6.5-21.4,2.1-28.7,3.7-35.1,10.2-40.8,6.1-5.4,15.3-5.6,28.4-.8,19,7.1,26.9,22,23.3,44.2-1.5,9.9-6.8,25.6-13.2,39.8-2.7,6-5.2,11.6-5.5,12.2-.4,1,4.3,1.3,21.6,1.3h22.1l.4-2.3c.3-1.2,1-7.2,1.5-13.2,1.3-12.5,2.8-15.8,7.9-16.3,4.7-.5,8.6,2.2,13.9,9.4,9.4,13,13,16.9,17.8,19.6l5,2.8,52.5-.3,52.5-.2,6.1-12.3c3.4-6.7,6.9-13.1,7.9-14.2,2.3-2.6,9.2-4.7,10.6-3.3s2.5,5.4,4.4,10.9c2,5.4,4.5,12,5.7,14.6l2.1,4.8h13.4c10,0,13.3-.3,13.3-1.3s-2.9-7.2-6.5-14.5c-10-20.5-11.5-27.9-7.2-34.3,2.5-3.9,9.7-7.8,15.6-8.6,8.1-1.1,11.5,4.1,15.6,24.3,4,19.6,7.1,26.7,13.8,31.8,3.3,2.5,3.7,2.6,19.2,2.6h15.8l-.7-3c-.6-3.3-1.4-4.4-14.7-21.5-13.4-17.3-18.5-26.4-20.8-37.5-3.2-15.6,7.3-32,20.5-32s9.6,2.8,10.5,20.5c.7,15.8,3.3,25.6,9.3,34.8,7,11.1,20.4,20.2,35.6,24.4,5.2,1.4,10.1,1.8,24.5,1.7,20.8-.1,28.3-1.6,42.1-8.4,23.1-11.3,30.4-31.7,19.5-54.6-3.7-7.8-7.3-11.9-14.5-16.6-9.2-5.9-17.7-8.1-29.4-7.6-10.9.5-17,2.8-23.1,9-6.3,6.3-9.1,15.7-5.2,17.8,1.1.5,8.2,1,15.8,1,15.5,0,18.3.9,18.3,5.9s-4.9,13-10.4,17.3c-23.1,18.4-56.1,12.1-63.2-12-4.8-16.3,8.1-35.3,33.6-49.5,17.4-9.6,43.1-16.1,84-21.2,79.4-9.9,102.9-15.8,128.5-32.3,8.4-5.4,21.6-18.4,27.4-27,23.5-34.9,22.6-79.1-2.3-110.9-6.1-7.8-11-11.2-19.5-13.7-6.1-1.8-8.1-1.9-12.8-.5Z"/>
        <path class="cls-1" d="M558.5,677.7c-23.5,5.6-46.6,20.2-71.2,44.9-14.6,14.6-18.3,19.9-18.3,26.2s.5,5,3.8,8.2c6.6,6.5,23,10.9,36.1,9.5,9.8-1,25.9-4.1,31.6-6,12.3-4.2,26.4-13.1,33.3-21,6.6-7.4,7.6-10.7,8-25.5.7-21.8-2-31.3-9.8-35.2-3.3-1.7-9.1-2.1-13.5-1.1Z"/>
        <path class="cls-1" d="M1739.5,680c-2.8,5.5-12.2,13.8-18.1,16-6.6,2.4-16.5,2.6-24.5.6-14.7-3.9-22.2-2.8-26.7,3.8-9.8,14.4,2,30.6,22.2,30.6s10.1-.5,16.3-1.2c10.8-1,11.6-1,14.1.9,3.3,2.5,4.3,6.3,3.2,12.4-.9,4.9-2.1,7.5-11.7,26.1-5.2,9.9-10.4,24.9-14.8,42.4-4.1,16.4-10.3,47.4-11,55.1-1.4,13.6,3,22.3,11.1,22.3,13.1,0,24.4-21.1,29-54.3.9-7,2.1-12.7,2.6-12.7,1.9,0,3.1,6.2,3.8,20.5,1.2,21.1.2,27.6-5.7,38.4-4.4,7.9-4.8,9.2-4.7,15.1,0,5.5.9,8.7,5.9,21,5.2,13.2,5.8,15.1,5.8,22s-.7,10.4-9.8,22.4c-6.2,8.3-9.5,14.2-9.5,17.2s2.5,1.4,12.5,1.4h12.5v-151.5c0-83.3-.2-151.5-.5-151.5s-1.1,1.4-2,3Z"/>
        <path class="cls-1" d="M398.3,687.9c-2.2,1.6-5.9,5.9-8.2,9.5-5.3,8.5-10.6,13.8-17.3,17.3-5,2.6-6,2.8-17.3,2.7-12.7,0-17.1-1-45.4-10.4-21.6-7.2-29-8.5-48.1-8.4-16.5,0-18,.1-26,2.8-40.9,13.6-74.1,51.8-74,85,.1,13.1,6.4,19.6,26.7,27.2,10.5,4,19.6,9,23.5,13.1,7.6,7.8,9.1,18.8,6.3,46.9-1.5,15.3-1.7,19.7-.7,25.9,1.4,9.1,4.9,16.2,10.7,22s11.1,8.5,19.2,8.5,13.5-1.3,19.3-5.1c10-6.3,13.6-18.7,7.4-25.4-4-4.3-7.5-3.5-15.3,3.9-7.5,7.1-10.7,8.3-16.6,6.3-5.7-1.9-8.2-7-6.5-13.2,4.1-14.5,31.9-23.6,46.4-15.1,6.6,3.9,9.4,9.1,10.2,19.6.7,8.8,1.9,12.3,5.1,15.2,6.3,5.7,14.6,0,16.7-11.3,1.4-8-6.9-25.2-15.7-32.3-8-6.5-9.8-6.9-27.2-7.6-18.4-.7-21-1.5-27.2-8.3-5-5.4-6.8-11-8.3-25.6-1.6-16.6-4.2-20.5-19-28.6-13.7-7.6-16.9-11.9-15.5-21.3,1.6-10.6,14.3-29.7,26.4-39.8,7.3-6.1,19.6-12.5,28.6-14.9,10.1-2.8,32.2-3,52-.6,23,2.7,29.4,5.2,32.9,12.5,6,12.6-3.8,22.1-32.7,31.6-5.4,1.8-10.1,3.8-10.4,4.6-1.2,3.2,10,13.4,21.2,19.2,4.5,2.4,6.1,2.7,16,2.7s11.5-.3,14.4-2c6.4-3.8,7.2-5.7,8.7-22.8,2-23.3,3.3-25.2,33.7-48.1,8.6-6.5,17.4-13.7,19.6-16.1,4.4-4.8,6.7-10.9,5.7-15-2-7.8-11.7-10.1-19.3-4.6Z"/>
        <path class="cls-1" d="M1626,710.3c-5.5,2.8-6.1,9.6-2,22.5,3.6,11.4,2.5,16-5.1,20.8-4,2.5-4.9,4.6-2.6,6.1.6.4,9.5.8,19.7.8,18.1,0,18.6.1,23.5,2.6,6.9,3.7,13.8,10.1,18.6,17,7.1,10.4,12.5,8.9,20.1-5.7,9.6-18.3,10.1-32,1.1-33.7-1.4-.3-5.5.2-9.2.9-10.8,2.3-17,1.9-22.2-1.4-5.2-3.4-6.6-5-10.4-11.7-7.2-12.8-15.4-19.5-23.9-19.5s-6.2.6-7.6,1.3Z"/>
        <path class="cls-1" d="M1576.9,713.4c-7.7,2.7-10.2,5-14.4,12.7-5.2,9.8-7.8,13.2-20.1,26-10.6,11-13.4,15.9-12,21.5,1.6,6.2,7.8,5.4,29.9-4.2,27.6-11.9,42.1-20.5,45.1-26.8,3.2-6.9,1.6-15.9-4.1-22.6-6.3-7.3-15.5-9.8-24.4-6.6Z"/>
        <path class="cls-1" d="M1355.1,732.9c-6.5,6.5-9.9,24.8-7,38,1.7,8.2,11.7,18.1,18.3,18.1s7-6.6,2.1-22c-2-6.3-2.9-11.7-3.4-20.9-.6-10.4-1-12.5-2.6-13.7-2.6-1.9-5.2-1.7-7.4.5Z"/>
        <path class="cls-1" d="M600.5,734.2c-5.6,2.9-7.9,5.9-13.1,16.7-6.2,13-9.1,16.4-17.7,20.6-15.3,7.4-36.1,10.8-79.6,13-59.8,3-66.7,4.8-99.6,26.2-28.3,18.3-36.8,21.8-51.4,21.1-10.6-.5-16.2-2.9-33.6-14.4-9.4-6.2-13.6-8.4-18.9-9.7-12.4-3-19.1-10.9-19.1-22.5s.1-6.5,4.1-10.2c3.3-3,5.5-4.2,10.5-5.2,5.4-1.1,6.6-1.8,9.1-5.2,9.7-13.4-7.6-26.8-27-21.1-10.8,3.2-25,15-28.7,23.8-3.3,8-1.6,12.7,8.4,23,9.5,9.8,9.5,9.9,9.9,26.7.5,16.8,1.1,18.4,9,21.8,3.6,1.6,8.5,2.3,20,3.1,23.8,1.6,26.1,3.1,36,25.1,7.3,16.1,14.2,19.9,27.2,14.6,8.6-3.5,14.9-7.8,43.5-29.6,17.8-13.6,43.5-24.5,80-34.1,19.7-5.1,40.5-8.5,64.8-10.4,30.5-2.4,33.9-3.2,62.7-14,23.6-8.8,32.4-15.3,35.6-26.1,6.2-21.3-14.3-42.5-32.1-33.2Z"/>
        <path class="cls-1" d="M1147.4,737.7c-1.2.2-4,2-6.3,3.9-8,6.9-9.1,19.7-2.9,35.8,2.6,6.8,4.2,9.2,9.7,14.7,13.7,13.7,40.3,25.5,66.1,29.4,14.5,2.2,18.8,2,24.1-1.3,6.4-4.1,15.6-13.9,18.5-19.8,1.3-2.7,3-7.7,3.6-11,.9-5.2.8-6.5-.7-9.8-3.5-7.4-9.6-9.9-34-14.1-8.2-1.4-16.9-3.5-19.4-4.6-2.4-1-10.4-5.8-17.8-10.5-16.2-10.3-23.9-13.5-32.6-13.3-3.4.1-7.2.4-8.3.6Z"/>
        <path class="cls-1" d="M1052,750.9c-7.2,2-29.4,10.6-44,17.1-18.8,8.3-40,21.3-50.3,30.9-7.4,6.9-9.1,10.9-9.1,21.1s.5,9.7,3.7,17.8c3,7.5,3.8,10.8,4,17.4.3,6.5.7,8.3,2.2,9.4,3.2,2.4,7.2,1.6,16.9-3.5,12.9-6.8,28.5-12,38.4-12.8,14.9-1.1,24.2,3.2,29,13.5,2.4,5.1,2.7,6.9,2.7,16.7s-.4,12-3.4,20.6c-2.6,7.4-3.2,10.5-2.7,13.2.8,4,4.6,7.7,8.1,7.7s12.9-5.4,17.3-11c10-12.9,12.3-15,21.1-19.5,5.5-2.7,10.1-5.9,12.5-8.5,3.6-4,3.8-4.6,3.4-9.2-.6-5.5-3.3-9.2-8.6-11.5-3.9-1.6-8.4-1-15.9,2.4-6.2,2.7-10,2.9-13,.8-2.8-1.9-4-6.1-4.8-16-1.5-19-12.5-29.7-28.9-28.2-3.4.3-11.8,2.5-18.7,4.8-23.6,8-35.6,6-33.5-5.5,2.4-12.8,35.4-31.8,55.7-32,6.9-.1,8,.2,13.3,3.4,7,4.2,10.6,8.7,14.1,18.1,3.2,8.2,6.2,10.5,12.8,9.6,9.1-1.2,12.9-6.8,15.2-22.2,3.2-20.7.8-31.3-8.8-40.2-7.1-6.5-16-7.9-28.7-4.4Z"/>
        <path class="cls-1" d="M1599.5,772.6c-11.3,1.2-28.4,4.9-39.5,8.6-11.9,4-26,10.7-61,29.1-17.3,9-22.9,11-37.9,13.2-13.3,1.9-18.4,3.7-21.1,7.5-2.2,3.1-2.7,10.4-.9,14.2,4.2,9.1,21,8.7,36.4-.8,30.8-19.1,44.6-26.1,60.8-30.8,10.4-3,25.5-4.9,32.7-4.1,26.2,3.1,47.4,18.7,56.4,41.6,5.8,14.8,7.5,28.1,5.2,40.7-1.9,10.6-5.8,18.9-13,27.7-7,8.4-8.8,11.7-8.9,16.2-.2,8.1,6.3,8.8,20.8,2.1,14.9-6.9,21-7.5,23.3-2.3,4.5,9.8-4.2,20.8-20.8,26.6-5.4,1.9-8.7,2.3-19,2.3-11.1.1-13.1-.2-17.7-2.3-2.9-1.3-6.9-4.1-8.8-6.2-2.9-3.2-3.5-4.7-3.5-8.3,0-5.5,1-8.4,7.1-19.8,7-12.9,10.6-24.1,12-37.3,1.1-9.5,1-12.1-.4-19-3.2-15.5-10.9-26.6-22.6-32.4-19.1-9.6-49.3-7.7-75.1,4.8-15.5,7.5-26.5,19.1-32.2,34.1-2.9,7.7-3.2,9.5-3.2,20-.1,15,2,20.8,10.8,29.6s22.3,13.3,37.9,11.3c14-1.8,22.6-6,30.4-14.9,9-10.4,9.1-21.6.1-26.4-3.2-1.7-3.6-1.7-6.5-.2-1.8.9-5.3,4.3-7.8,7.6-5,6.5-8.1,8.6-14.3,9.6-4.9.8-14.4-1.8-18.8-5.1-15.3-11.6,17.9-36.1,43-31.8,13.2,2.2,22.6,8.5,27.3,18.1,2.3,4.7,2.8,7.3,3.1,15.5.7,15.9-2.5,27.1-11.6,40.3-4.4,6.5-18.7,20.7-25.1,24.9-2.2,1.5-4.1,2.9-4.1,3.1s31,.4,68.9.4h68.9l1.2-3c1.9-4.6,7.2-8.2,21.3-14.5,21-9.5,26.4-16.1,25.5-30.8-.5-8.5-3.3-15.1-8.3-20.1s-9.1-6.6-20.5-6.6-18.4-1.4-21.1-4.9c-1.9-2.3-2.1-3.5-1.6-10.6.3-4.4,1.7-11.6,3.2-16,7.4-23.4,10.5-51.5,7.1-65.9-4-17.1-15.1-27.9-34.1-33.2-5.9-1.6-34.3-2.8-44-1.8Z"/>
        <path class="cls-1" d="M1140,808.7c-1.7,2.2-2.1,3.7-1.7,6.7.8,5.7,11.3,26,16.5,31.7,9.3,10.4,13.8,10.4,36.4.1,8.4-3.8,17.4-7.9,20.1-9,5.3-2.4,6.1-4.7,2-6.3-1.6-.6-8.7-2.3-15.9-3.9-22.8-4.9-26.6-6.4-41-15.6-5.6-3.5-11.1-6.4-12.2-6.4s-3,1.2-4.2,2.7Z"/>
        <path class="cls-1" d="M0,837c0,9.9.2,18,.4,18s2.7-3.6,5.5-7.9c6-9.3,8.8-18.2,7.2-22.4-1.2-3-6.2-5.7-10.6-5.7H0v18Z"/>
        <path class="cls-1" d="M1376.5,853.5c-.5.2-2.2.6-3.7.9-3.4.8-9.4,5.9-11.4,9.7-3.1,6.1-1,11.9,5,13.9,1.9.6,9.4,1.2,16.8,1.3,22.8.5,25.5,3.2,25,26-.1,7.7.2,15.7.8,17.9,1.7,6.1,6.4,10.2,18.5,16.2,11.3,5.5,15.6,8.9,17.4,13.9,1.5,3.8,0,6.4-4.4,7.6-4.5,1.2-29-1.2-35.5-3.6-5.4-1.9-19.2-10.8-23.9-15.4-6.3-6.3-6.2-10.2.8-20.9,2.2-3.5,4.4-7.9,4.7-9.7,2.6-13.9-11.5-22.1-28.6-16.6-9.8,3.2-15.4,13.4-15.4,28.3s1.7,13.4,9,21c3.7,3.9,7.3,9.2,10.3,15.2,5.5,11,9.3,14.1,22.4,18.2l8.3,2.6h115.9l2.2-3.3c6.7-9.9,5.6-19.9-2.6-24.2-1.5-.7-6.4-2.1-10.9-2.9-4.5-.9-11.9-2.3-16.4-3.2-10.1-1.9-22.5-7.6-29.2-13.5-5.5-4.9-10.8-14.8-12.7-23.7-1.4-7.1-.7-19.9,1.3-23.7,8.9-16.6,9.4-18.5,5.3-23.4-1.4-1.6-4-3.4-5.8-4s-11.8-1.6-22.2-2.1c-10.5-.5-21.9-1.4-25.5-2-6.3-.9-13.5-1.2-15.5-.5Z"/>
        <path class="cls-1" d="M812.9,870.2c-2,.5-5.2,2.5-7,4.4-3,3.1-3.4,4.2-3.4,8.7,0,6.5,2.1,9.7,17,25.7,12.1,13.1,16.9,21.5,18,31.5.9,8.2-.5,12.7-7,22.6-5.3,8-8,14.3-6.9,16.1.3.4,17.7.8,38.6.8,35.1,0,38.2-.1,39.5-1.7,6.5-8.3,10.2-17.9,11-28.8,1.2-16.8-3.7-24-22.9-34-11.7-6.1-19.2-11.4-32.9-23.2-22.2-19.2-33.3-24.7-44-22.1Z"/>
        <path class="cls-1" d="M970.5,879.8c-13.8,4.8-25.9,17.5-38.3,40.2-8.4,15.5-11.9,36.5-6.7,40.5,2.6,1.9,7.8,1.9,11.4,0,7.4-3.8,10.9-10.4,18.5-35.5,5.6-18.3,11.5-25.4,22.3-26.7,16.9-1.9,29.2,15.9,28.1,40.7-.6,13.2-3.2,18.5-15.9,31.3l-9.6,9.7h14c13.7,0,14.1-.1,20.5-3.2,8.9-4.4,16-4.5,25.2-.3l6.5,3,57.5.3c56.9.2,57.5.2,63-1.9,11.6-4.6,25.9-12.5,40.1-22.1,15.9-10.7,24.9-14.7,33.2-14.8,4.2,0,5.4.5,8.2,3.3s4.2,6,5.5,9.5c1.4,3.9,3.5,7.2,5.3,8.8,2.7,2.2,3.7,2.5,7.6,1.9,7.4-1.1,11.4-4.4,15.7-13.1,3.5-6.9,3.8-8.3,3.8-15.7-.1-10.4-3.1-17.5-10.5-24.1-8.2-7.4-13.8-9.1-30.4-9.1s-14.9.3-20.8,2.4c-9.8,3.3-19.2,10.1-35.1,25-22.2,21-35.3,28.6-57.3,33-17.9,3.7-32.2,2.5-39.9-3.4-3.7-2.8-7.4-9.1-7.4-12.5,0-6.1,6.7-11.7,16.8-14,7.1-1.6,11.6-.8,23.9,4.5,14.3,6.3,20.3,6,25.2-1,6.9-10.2,6.7-22.5-.5-30.5-10-11-35-9.2-62.4,4.5s-14.8,9.1-22.2,18.8c-11.5,15.2-20.7,22.6-28.3,22.9-7.7.3-11.2-5.7-10.1-17.6.4-3.9.9-12.8,1.3-19.8.5-11.7.4-13-1.6-17.2-3.6-7.3-14.7-14.2-29.6-18.2-7.1-1.9-20.9-1.7-27,.4Z"/>
        <path class="cls-1" d="M30.7,885.5c-1.6.8-6.1,4.5-10,8.1-8.2,7.6-12.5,9.8-17.4,8.9l-3.3-.6v78.1h15c11.7,0,15.8-.4,18.1-1.6,5.3-2.7,12.3-3,16.4-.5,3.5,2,4.8,2.1,31.3,2.1h27.8l3.2-5.3c4.6-7.6,18.8-43.9,20.2-51.7,2.7-14.7-3-25-13.7-25s-5,.7-7.7,3.1c-5.1,4.4-6.3,10.7-4.8,25.3,2.2,21.2,1.1,28.4-5.5,34.8-5.5,5.3-11.2,7.3-20.8,7.3-6.5-.1-9.1-.6-13.6-2.7-6.1-2.8-8.8-5.8-13.9-15.6-1.8-3.5-4.6-7.4-6.2-8.8-3.9-3.2-9.1-3.2-12.3.1-2.8,2.7-2.9,3.3-3,15.9,0,8.4-.1,9-2.7,10.9-5.7,4.3-16.6-.7-18.3-8.4-1-4.5,3.1-11.9,11.9-21.6,14.5-15.9,18.7-22.1,20.6-30.7s-2.8-23.6-7.4-23.6-2.4.7-3.9,1.5Z"/>
        <path class="cls-1" d="M1314.2,916c-4.7,1.1-10,5-11.9,9-1.3,2.6-1.9,7.4-2.4,18-.8,17.9-3,24.7-10.6,33.1l-3.5,3.9h34.6c19,0,34.6-.2,34.6-.5s-.6-1.6-1.4-2.8-2.2-5.5-3.1-9.4c-1.6-7.1-1.8-7.4-9-13.8-8.1-7.3-8.2-7.6-9.4-21-.8-8.7-2.4-12.4-6.4-14.9-3-1.8-7.5-2.5-11.5-1.6Z"/>
        <path class="cls-1" d="M973.9,917.8c-4.6,2.3-6.4,6-9.9,19.8-5.6,22-11.5,29.9-28.5,38l-9,4.4h39.3l8-8.5c5.6-5.9,9.3-10.8,11.8-16,3.6-7.4,3.7-7.5,3.2-17.2-.4-7.2-1-10.9-2.5-13.8-3.7-7.2-7.4-9.2-12.4-6.7Z"/>
        <path class="cls-1" d="M760,942.7c-4.6,1.7-8.1,7.1-12.1,18.8-1.9,5.7-3.4,8.1-8.2,12.7l-5.8,5.8h70.4l-6.4-4.1c-7.6-5-17.9-15.1-23.5-23.4-3.9-5.7-9.4-10.6-11.8-10.4-.6,0-1.8.3-2.6.6Z"/>
        <path class="cls-1" d="M1222.4,961.6c-8.4,4.5-14.6,8.9-19.9,14.3l-3.9,4.1h50.7l-2-2.3c-1.1-1.2-3.2-5.1-4.7-8.7-5.1-12.2-8.6-13.5-20.2-7.4Z"/>
      </g>
    </g>
  </g>
</svg>